<svg xmlns="http://www.w3.org/2000/svg" viewBox="0 0 74 67"><defs><style>.cls-1{fill:#fff;}</style></defs><title>attetion</title><g id="Слой_2" data-name="Слой 2"><g id="Слой_1-2" data-name="Слой 1"><path class="cls-1" d="M65.56,67H8.44a8.34,8.34,0,0,1-7.3-4.26,8.53,8.53,0,0,1,0-8.52l28.56-50A8.32,8.32,0,0,1,37,0h0a8.32,8.32,0,0,1,7.3,4.26l28.56,50a8.53,8.53,0,0,1,0,8.52A8.34,8.34,0,0,1,65.56,67ZM33.48,6.47l-28.55,50a4.06,4.06,0,0,0,0,4.1,4,4,0,0,0,3.51,2H65.56a4,4,0,0,0,3.51-2,4.09,4.09,0,0,0,0-4.1l-28.55-50a4,4,0,0,0-7,0Z"/><path class="cls-1" d="M37,18.09h0a5.31,5.31,0,0,1,5.24,6L39.94,43.64A3,3,0,0,1,37,46.27h0a3,3,0,0,1-2.94-2.63L31.77,24A5.31,5.31,0,0,1,37,18.09Z"/><path class="cls-1" d="M34,55.79a4.35,4.35,0,0,1,0-6,4.26,4.26,0,0,1,6,0,4.35,4.35,0,0,1,0,6,4.24,4.24,0,0,1-6,0Z"/></g></g></svg>