<?xml version="1.0" encoding="utf-8"?>
<!-- Generator: Adobe Illustrator 23.1.0, SVG Export Plug-In . SVG Version: 6.00 Build 0)  -->
<svg version="1.1" id="Слой_1" xmlns="http://www.w3.org/2000/svg" xmlns:xlink="http://www.w3.org/1999/xlink" x="0px" y="0px"
	 viewBox="0 0 1920 1080" style="enable-background:new 0 0 1920 1080;" xml:space="preserve">
<style type="text/css">
	.st0{clip-path:url(#SVGID_2_);}
	.st1{clip-path:url(#SVGID_4_);}
	.st2{opacity:0.8;clip-path:url(#SVGID_6_);}
	.st3{display:none;clip-path:url(#SVGID_4_);fill:#F6E55C;}
	.st4{clip-path:url(#SVGID_4_);fill:#444242;}
	.st5{clip-path:url(#SVGID_10_);fill:#E07061;}
	.st6{opacity:0.5;clip-path:url(#SVGID_10_);}
	.st7{clip-path:url(#SVGID_12_);fill:#FFFFFF;}
	.st8{clip-path:url(#SVGID_14_);fill:#E07061;}
	.st9{clip-path:url(#SVGID_14_);fill:none;stroke:#FFFFFF;stroke-width:1.347;stroke-miterlimit:10;}
	.st10{display:none;clip-path:url(#SVGID_4_);}
	.st11{display:inline;}
	.st12{display:inline;clip-path:url(#SVGID_16_);fill:#FFFFFF;}
	.st13{fill:#F6E55C;}
	.st14{font-family:'Montserrat-Medium';}
	.st15{font-size:19.1592px;}
	.st16{font-family:'Montserrat-Bold';}
	.st17{font-size:33.5285px;}
	.st18{display:inline;clip-path:url(#SVGID_18_);fill:#FFFFFF;}
	.st19{display:inline;clip-path:url(#SVGID_18_);fill:#61A3BB;}
	.st20{display:inline;clip-path:url(#SVGID_18_);fill:none;stroke:#61A3BB;stroke-width:5.669;stroke-miterlimit:10;}
	.st21{display:inline;clip-path:url(#SVGID_20_);}
	.st22{clip-path:url(#SVGID_22_);}
	.st23{display:inline;clip-path:url(#SVGID_20_);fill:#F6E55C;}
	.st24{clip-path:url(#SVGID_26_);}
	.st25{display:inline;clip-path:url(#SVGID_20_);fill:#141619;}
	.st26{display:inline;clip-path:url(#SVGID_20_);fill:#C2BDDC;}
	.st27{display:inline;clip-path:url(#SVGID_20_);fill:#8E8BAB;}
	.st28{display:inline;clip-path:url(#SVGID_20_);fill:#E8E8E8;}
	.st29{display:inline;clip-path:url(#SVGID_20_);fill:#D2D2D3;}
	.st30{display:inline;clip-path:url(#SVGID_20_);fill:#242124;}
	.st31{display:inline;opacity:0.38;clip-path:url(#SVGID_20_);}
	.st32{clip-path:url(#SVGID_30_);fill:#639ED7;}
	.st33{display:inline;clip-path:url(#SVGID_20_);fill:#382F3E;}
	.st34{display:inline;clip-path:url(#SVGID_20_);fill:#4F4E4F;}
	.st35{display:inline;clip-path:url(#SVGID_20_);fill:#727272;}
	.st36{display:inline;clip-path:url(#SVGID_20_);fill:#818282;}
	.st37{display:inline;clip-path:url(#SVGID_20_);fill:#676774;}
	.st38{display:inline;clip-path:url(#SVGID_20_);fill:#353542;}
	.st39{display:inline;clip-path:url(#SVGID_20_);fill:#38303E;}
	.st40{display:inline;clip-path:url(#SVGID_20_);fill:#E7E7E7;}
	.st41{display:inline;clip-path:url(#SVGID_20_);fill:#E6B764;}
	.st42{display:inline;clip-path:url(#SVGID_20_);fill:#EDD666;}
	.st43{display:inline;opacity:0.3;clip-path:url(#SVGID_20_);}
	.st44{clip-path:url(#SVGID_32_);}
	.st45{font-size:72.1336px;}
	.st46{font-family:'Montserrat-Light';}
	.st47{font-size:40px;}
	.st48{font-family:'Montserrat-Regular';}
	.st49{display:inline;clip-path:url(#SVGID_36_);fill:none;stroke:#F6E55C;stroke-width:5;stroke-miterlimit:10;}
</style>
<g>
	<defs>
		<rect id="SVGID_1_" x="-0.3" y="0.9" width="1920" height="1077.9"/>
	</defs>
	<clipPath id="SVGID_2_">
		<use xlink:href="#SVGID_1_"  style="overflow:visible;"/>
	</clipPath>
	<g class="st0">
		<defs>
			<rect id="SVGID_3_" x="-0.3" y="0.9" width="1920" height="1294.6"/>
		</defs>
		<clipPath id="SVGID_4_">
			<use xlink:href="#SVGID_3_"  style="overflow:visible;"/>
		</clipPath>
		<g class="st1">
			<defs>
				<rect id="SVGID_5_" x="-0.3" y="0.9" width="1920" height="1294.6"/>
			</defs>
			<clipPath id="SVGID_6_">
				<use xlink:href="#SVGID_5_"  style="overflow:visible;"/>
			</clipPath>
			<g class="st2">
				<g>
					<defs>
						<path id="SVGID_7_" d="M1163.1,912.9L1163.1,912.9z"/>
					</defs>
					<clipPath id="SVGID_8_">
						<use xlink:href="#SVGID_7_"  style="overflow:visible;"/>
					</clipPath>
				</g>
			</g>
		</g>
		<rect x="-0.3" y="0.9" class="st3" width="1920" height="1294.6"/>
		<rect x="-0.3" y="0.9" class="st4" width="1920" height="1077.9"/>
		<g class="st1">
			<defs>
				<rect id="SVGID_9_" x="-0.3" y="0.9" width="1920" height="1294.6"/>
			</defs>
			<clipPath id="SVGID_10_">
				<use xlink:href="#SVGID_9_"  style="overflow:visible;"/>
			</clipPath>
			<path class="st5" d="M218.1,261c0-105,85.1-190.2,190.2-190.2S598.4,155.9,598.4,261c0,105-85.1,190.2-190.2,190.2
				S218.1,366,218.1,261"/>
			<g class="st6">
				<g>
					<defs>
						<rect id="SVGID_11_" x="116.5" y="20.3" width="1696.5" height="1039.1"/>
					</defs>
					<clipPath id="SVGID_12_">
						<use xlink:href="#SVGID_11_"  style="overflow:visible;"/>
					</clipPath>
					<path class="st7" d="M126.2,24.3c0,2.2-2.2,3.9-4.8,3.9s-4.8-1.8-4.8-3.9c0-2.2,2.2-3.9,4.8-3.9S126.2,22.1,126.2,24.3"/>
					<path class="st7" d="M337,24.3c0,2.2-2.2,3.9-4.8,3.9c-2.7,0-4.8-1.8-4.8-3.9c0-2.2,2.2-3.9,4.8-3.9
						C334.9,20.4,337,22.1,337,24.3"/>
					<path class="st7" d="M547.9,24.3c0,2.2-2.2,3.9-4.8,3.9c-2.7,0-4.8-1.8-4.8-3.9c0-2.2,2.2-3.9,4.8-3.9
						C545.7,20.4,547.9,22.1,547.9,24.3"/>
					<path class="st7" d="M758.8,24.3c0,2.2-2.2,3.9-4.8,3.9c-2.7,0-4.8-1.8-4.8-3.9c0-2.2,2.2-3.9,4.8-3.9
						C756.6,20.4,758.8,22.1,758.8,24.3"/>
					<path class="st7" d="M969.6,24.3c0,2.2-2.2,3.9-4.8,3.9c-2.7,0-4.8-1.8-4.8-3.9c0-2.2,2.2-3.9,4.8-3.9
						C967.5,20.4,969.6,22.1,969.6,24.3"/>
					<path class="st7" d="M1180.5,24.3c0,2.2-2.2,3.9-4.8,3.9c-2.7,0-4.8-1.8-4.8-3.9c0-2.2,2.2-3.9,4.8-3.9
						C1178.3,20.4,1180.5,22.1,1180.5,24.3"/>
					<path class="st7" d="M1391.3,24.3c0,2.2-2.2,3.9-4.8,3.9c-2.7,0-4.8-1.8-4.8-3.9c0-2.2,2.2-3.9,4.8-3.9
						C1389.2,20.4,1391.3,22.1,1391.3,24.3"/>
					<path class="st7" d="M1602.2,24.3c0,2.2-2.2,3.9-4.8,3.9c-2.7,0-4.8-1.8-4.8-3.9c0-2.2,2.2-3.9,4.8-3.9
						C1600.1,20.4,1602.2,22.1,1602.2,24.3"/>
					<path class="st7" d="M1813.1,24.3c0,2.2-2.2,3.9-4.8,3.9c-2.7,0-4.8-1.8-4.8-3.9c0-2.2,2.2-3.9,4.8-3.9
						C1810.9,20.4,1813.1,22.1,1813.1,24.3"/>
					<path class="st7" d="M126.2,196.1c0,2.2-2.2,3.9-4.8,3.9s-4.8-1.8-4.8-3.9c0-2.2,2.2-3.9,4.8-3.9S126.2,194,126.2,196.1"/>
					<path class="st7" d="M337,196.1c0,2.2-2.2,3.9-4.8,3.9c-2.7,0-4.8-1.8-4.8-3.9c0-2.2,2.2-3.9,4.8-3.9
						C334.9,192.2,337,194,337,196.1"/>
					<path class="st7" d="M547.9,196.1c0,2.2-2.2,3.9-4.8,3.9c-2.7,0-4.8-1.8-4.8-3.9c0-2.2,2.2-3.9,4.8-3.9
						C545.7,192.2,547.9,194,547.9,196.1"/>
					<path class="st7" d="M758.8,196.1c0,2.2-2.2,3.9-4.8,3.9c-2.7,0-4.8-1.8-4.8-3.9c0-2.2,2.2-3.9,4.8-3.9
						C756.6,192.2,758.8,194,758.8,196.1"/>
					<path class="st7" d="M969.6,196.1c0,2.2-2.2,3.9-4.8,3.9c-2.7,0-4.8-1.8-4.8-3.9c0-2.2,2.2-3.9,4.8-3.9
						C967.5,192.2,969.6,194,969.6,196.1"/>
					<path class="st7" d="M1180.5,196.1c0,2.2-2.2,3.9-4.8,3.9c-2.7,0-4.8-1.8-4.8-3.9c0-2.2,2.2-3.9,4.8-3.9
						C1178.3,192.2,1180.5,194,1180.5,196.1"/>
					<path class="st7" d="M1391.3,196.1c0,2.2-2.2,3.9-4.8,3.9c-2.7,0-4.8-1.8-4.8-3.9c0-2.2,2.2-3.9,4.8-3.9
						C1389.2,192.2,1391.3,194,1391.3,196.1"/>
					<path class="st7" d="M1602.2,196.1c0,2.2-2.2,3.9-4.8,3.9c-2.7,0-4.8-1.8-4.8-3.9c0-2.2,2.2-3.9,4.8-3.9
						C1600.1,192.2,1602.2,194,1602.2,196.1"/>
					<path class="st7" d="M1813.1,196.1c0,2.2-2.2,3.9-4.8,3.9c-2.7,0-4.8-1.8-4.8-3.9c0-2.2,2.2-3.9,4.8-3.9
						C1810.9,192.2,1813.1,194,1813.1,196.1"/>
					<path class="st7" d="M126.2,368c0,2.2-2.2,3.9-4.8,3.9s-4.8-1.8-4.8-3.9c0-2.2,2.2-3.9,4.8-3.9S126.2,365.9,126.2,368"/>
					<path class="st7" d="M337,368c0,2.2-2.2,3.9-4.8,3.9c-2.7,0-4.8-1.8-4.8-3.9c0-2.2,2.2-3.9,4.8-3.9
						C334.9,364.1,337,365.9,337,368"/>
					<path class="st7" d="M547.9,368c0,2.2-2.2,3.9-4.8,3.9c-2.7,0-4.8-1.8-4.8-3.9c0-2.2,2.2-3.9,4.8-3.9
						C545.7,364.1,547.9,365.9,547.9,368"/>
					<path class="st7" d="M758.8,368c0,2.2-2.2,3.9-4.8,3.9c-2.7,0-4.8-1.8-4.8-3.9c0-2.2,2.2-3.9,4.8-3.9
						C756.6,364.1,758.8,365.9,758.8,368"/>
					<path class="st7" d="M969.6,368c0,2.2-2.2,3.9-4.8,3.9c-2.7,0-4.8-1.8-4.8-3.9c0-2.2,2.2-3.9,4.8-3.9
						C967.5,364.1,969.6,365.9,969.6,368"/>
					<path class="st7" d="M1180.5,368c0,2.2-2.2,3.9-4.8,3.9c-2.7,0-4.8-1.8-4.8-3.9c0-2.2,2.2-3.9,4.8-3.9
						C1178.3,364.1,1180.5,365.9,1180.5,368"/>
					<path class="st7" d="M1391.3,368c0,2.2-2.2,3.9-4.8,3.9c-2.7,0-4.8-1.8-4.8-3.9c0-2.2,2.2-3.9,4.8-3.9
						C1389.2,364.1,1391.3,365.9,1391.3,368"/>
					<path class="st7" d="M1602.2,368c0,2.2-2.2,3.9-4.8,3.9c-2.7,0-4.8-1.8-4.8-3.9c0-2.2,2.2-3.9,4.8-3.9
						C1600.1,364.1,1602.2,365.9,1602.2,368"/>
					<path class="st7" d="M1813.1,368c0,2.2-2.2,3.9-4.8,3.9c-2.7,0-4.8-1.8-4.8-3.9c0-2.2,2.2-3.9,4.8-3.9
						C1810.9,364.1,1813.1,365.9,1813.1,368"/>
					<path class="st7" d="M126.2,539.9c0,2.2-2.2,3.9-4.8,3.9s-4.8-1.8-4.8-3.9c0-2.2,2.2-3.9,4.8-3.9S126.2,537.7,126.2,539.9"/>
					<path class="st7" d="M337,539.9c0,2.2-2.2,3.9-4.8,3.9c-2.7,0-4.8-1.8-4.8-3.9c0-2.2,2.2-3.9,4.8-3.9
						C334.9,536,337,537.7,337,539.9"/>
					<path class="st7" d="M547.9,539.9c0,2.2-2.2,3.9-4.8,3.9c-2.7,0-4.8-1.8-4.8-3.9c0-2.2,2.2-3.9,4.8-3.9
						C545.7,536,547.9,537.7,547.9,539.9"/>
					<path class="st7" d="M758.8,539.9c0,2.2-2.2,3.9-4.8,3.9c-2.7,0-4.8-1.8-4.8-3.9c0-2.2,2.2-3.9,4.8-3.9
						C756.6,536,758.8,537.7,758.8,539.9"/>
					<path class="st7" d="M969.6,539.9c0,2.2-2.2,3.9-4.8,3.9c-2.7,0-4.8-1.8-4.8-3.9c0-2.2,2.2-3.9,4.8-3.9
						C967.5,536,969.6,537.7,969.6,539.9"/>
					<path class="st7" d="M1180.5,539.9c0,2.2-2.2,3.9-4.8,3.9c-2.7,0-4.8-1.8-4.8-3.9c0-2.2,2.2-3.9,4.8-3.9
						C1178.3,536,1180.5,537.7,1180.5,539.9"/>
					<path class="st7" d="M1391.3,539.9c0,2.2-2.2,3.9-4.8,3.9c-2.7,0-4.8-1.8-4.8-3.9c0-2.2,2.2-3.9,4.8-3.9
						C1389.2,536,1391.3,537.7,1391.3,539.9"/>
					<path class="st7" d="M1602.2,539.9c0,2.2-2.2,3.9-4.8,3.9c-2.7,0-4.8-1.8-4.8-3.9c0-2.2,2.2-3.9,4.8-3.9
						C1600.1,536,1602.2,537.7,1602.2,539.9"/>
					<path class="st7" d="M1813.1,539.9c0,2.2-2.2,3.9-4.8,3.9c-2.7,0-4.8-1.8-4.8-3.9c0-2.2,2.2-3.9,4.8-3.9
						C1810.9,536,1813.1,537.7,1813.1,539.9"/>
					<path class="st7" d="M126.2,711.8c0,2.2-2.2,3.9-4.8,3.9s-4.8-1.8-4.8-3.9c0-2.2,2.2-3.9,4.8-3.9S126.2,709.6,126.2,711.8"/>
					<path class="st7" d="M337,711.8c0,2.2-2.2,3.9-4.8,3.9c-2.7,0-4.8-1.8-4.8-3.9c0-2.2,2.2-3.9,4.8-3.9
						C334.9,707.9,337,709.6,337,711.8"/>
					<path class="st7" d="M547.9,711.8c0,2.2-2.2,3.9-4.8,3.9c-2.7,0-4.8-1.8-4.8-3.9c0-2.2,2.2-3.9,4.8-3.9
						C545.7,707.9,547.9,709.6,547.9,711.8"/>
					<path class="st7" d="M758.8,711.8c0,2.2-2.2,3.9-4.8,3.9c-2.7,0-4.8-1.8-4.8-3.9c0-2.2,2.2-3.9,4.8-3.9
						C756.6,707.9,758.8,709.6,758.8,711.8"/>
					<path class="st7" d="M969.6,711.8c0,2.2-2.2,3.9-4.8,3.9c-2.7,0-4.8-1.8-4.8-3.9c0-2.2,2.2-3.9,4.8-3.9
						C967.5,707.9,969.6,709.6,969.6,711.8"/>
					<path class="st7" d="M1180.5,711.8c0,2.2-2.2,3.9-4.8,3.9c-2.7,0-4.8-1.8-4.8-3.9c0-2.2,2.2-3.9,4.8-3.9
						C1178.3,707.9,1180.5,709.6,1180.5,711.8"/>
					<path class="st7" d="M1391.3,711.8c0,2.2-2.2,3.9-4.8,3.9c-2.7,0-4.8-1.8-4.8-3.9c0-2.2,2.2-3.9,4.8-3.9
						C1389.2,707.9,1391.3,709.6,1391.3,711.8"/>
					<path class="st7" d="M1602.2,711.8c0,2.2-2.2,3.9-4.8,3.9c-2.7,0-4.8-1.8-4.8-3.9c0-2.2,2.2-3.9,4.8-3.9
						C1600.1,707.9,1602.2,709.6,1602.2,711.8"/>
					<path class="st7" d="M1813.1,711.8c0,2.2-2.2,3.9-4.8,3.9c-2.7,0-4.8-1.8-4.8-3.9c0-2.2,2.2-3.9,4.8-3.9
						C1810.9,707.9,1813.1,709.6,1813.1,711.8"/>
					<path class="st7" d="M126.2,883.7c0,2.2-2.2,3.9-4.8,3.9s-4.8-1.8-4.8-3.9s2.2-3.9,4.8-3.9S126.2,881.5,126.2,883.7"/>
					<path class="st7" d="M337,883.7c0,2.2-2.2,3.9-4.8,3.9c-2.7,0-4.8-1.8-4.8-3.9s2.2-3.9,4.8-3.9
						C334.9,879.7,337,881.5,337,883.7"/>
					<path class="st7" d="M547.9,883.7c0,2.2-2.2,3.9-4.8,3.9c-2.7,0-4.8-1.8-4.8-3.9s2.2-3.9,4.8-3.9
						C545.7,879.7,547.9,881.5,547.9,883.7"/>
					<path class="st7" d="M758.8,883.7c0,2.2-2.2,3.9-4.8,3.9c-2.7,0-4.8-1.8-4.8-3.9s2.2-3.9,4.8-3.9
						C756.6,879.7,758.8,881.5,758.8,883.7"/>
					<path class="st7" d="M969.6,883.7c0,2.2-2.2,3.9-4.8,3.9c-2.7,0-4.8-1.8-4.8-3.9s2.2-3.9,4.8-3.9
						C967.5,879.7,969.6,881.5,969.6,883.7"/>
					<path class="st7" d="M1180.5,883.7c0,2.2-2.2,3.9-4.8,3.9c-2.7,0-4.8-1.8-4.8-3.9s2.2-3.9,4.8-3.9
						C1178.3,879.7,1180.5,881.5,1180.5,883.7"/>
					<path class="st7" d="M1391.3,883.7c0,2.2-2.2,3.9-4.8,3.9c-2.7,0-4.8-1.8-4.8-3.9s2.2-3.9,4.8-3.9
						C1389.2,879.7,1391.3,881.5,1391.3,883.7"/>
					<path class="st7" d="M1602.2,883.7c0,2.2-2.2,3.9-4.8,3.9c-2.7,0-4.8-1.8-4.8-3.9s2.2-3.9,4.8-3.9
						C1600.1,879.7,1602.2,881.5,1602.2,883.7"/>
					<path class="st7" d="M1813.1,883.7c0,2.2-2.2,3.9-4.8,3.9c-2.7,0-4.8-1.8-4.8-3.9s2.2-3.9,4.8-3.9
						C1810.9,879.7,1813.1,881.5,1813.1,883.7"/>
					<path class="st7" d="M126.2,1055.5c0,2.2-2.2,3.9-4.8,3.9s-4.8-1.8-4.8-3.9c0-2.2,2.2-3.9,4.8-3.9S126.2,1053.4,126.2,1055.5"
						/>
					<path class="st7" d="M337,1055.5c0,2.2-2.2,3.9-4.8,3.9c-2.7,0-4.8-1.8-4.8-3.9c0-2.2,2.2-3.9,4.8-3.9
						C334.9,1051.6,337,1053.4,337,1055.5"/>
					<path class="st7" d="M547.9,1055.5c0,2.2-2.2,3.9-4.8,3.9c-2.7,0-4.8-1.8-4.8-3.9c0-2.2,2.2-3.9,4.8-3.9
						C545.7,1051.6,547.9,1053.4,547.9,1055.5"/>
					<path class="st7" d="M758.8,1055.5c0,2.2-2.2,3.9-4.8,3.9c-2.7,0-4.8-1.8-4.8-3.9c0-2.2,2.2-3.9,4.8-3.9
						C756.6,1051.6,758.8,1053.4,758.8,1055.5"/>
					<path class="st7" d="M969.6,1055.5c0,2.2-2.2,3.9-4.8,3.9c-2.7,0-4.8-1.8-4.8-3.9c0-2.2,2.2-3.9,4.8-3.9
						C967.5,1051.6,969.6,1053.4,969.6,1055.5"/>
					<path class="st7" d="M1180.5,1055.5c0,2.2-2.2,3.9-4.8,3.9c-2.7,0-4.8-1.8-4.8-3.9c0-2.2,2.2-3.9,4.8-3.9
						C1178.3,1051.6,1180.5,1053.4,1180.5,1055.5"/>
					<path class="st7" d="M1391.3,1055.5c0,2.2-2.2,3.9-4.8,3.9c-2.7,0-4.8-1.8-4.8-3.9c0-2.2,2.2-3.9,4.8-3.9
						C1389.2,1051.6,1391.3,1053.4,1391.3,1055.5"/>
					<path class="st7" d="M1602.2,1055.5c0,2.2-2.2,3.9-4.8,3.9c-2.7,0-4.8-1.8-4.8-3.9c0-2.2,2.2-3.9,4.8-3.9
						C1600.1,1051.6,1602.2,1053.4,1602.2,1055.5"/>
					<path class="st7" d="M1813.1,1055.5c0,2.2-2.2,3.9-4.8,3.9c-2.7,0-4.8-1.8-4.8-3.9c0-2.2,2.2-3.9,4.8-3.9
						C1810.9,1051.6,1813.1,1053.4,1813.1,1055.5"/>
				</g>
			</g>
			<polygon class="st5" points="162.9,809.6 120.5,852 78.1,809.6 46.4,841.2 88.8,883.7 46.4,926.1 78.1,957.7 120.5,915.3 
				162.9,957.7 194.5,926.1 152.1,883.7 194.5,841.2 			"/>
		</g>
		<g class="st1">
			<defs>
				<rect id="SVGID_13_" x="-0.3" y="0.9" width="1920" height="1077.9"/>
			</defs>
			<clipPath id="SVGID_14_">
				<use xlink:href="#SVGID_13_"  style="overflow:visible;"/>
			</clipPath>
			<path class="st8" d="M838.1,561.7c-343.5,0-621.9,278.4-621.9,621.9c0,343.5,278.5,621.9,621.9,621.9
				c343.5,0,621.9-278.5,621.9-621.9C1460,840.1,1181.6,561.7,838.1,561.7 M838.1,1609.5c-235.2,0-425.9-190.7-425.9-425.9
				c0-235.2,190.7-425.9,425.9-425.9c235.2,0,425.9,190.7,425.9,425.9C1264,1418.8,1073.3,1609.5,838.1,1609.5"/>
			<path class="st8" d="M1327.5-323.7c-171.5,0-310.5,139-310.5,310.5c0,171.5,139,310.5,310.5,310.5S1638,158.3,1638-13.2
				C1638-184.7,1499-323.7,1327.5-323.7 M1327.5,141.3c-85.3,0-154.5-69.2-154.5-154.5c0-85.3,69.2-154.5,154.5-154.5
				c85.3,0,154.5,69.2,154.5,154.5C1482,72.1,1412.8,141.3,1327.5,141.3"/>
			<path class="st9" d="M-58.4,40.5c0,0,68.6,121,237.9,99.5C369.4,115.9,451.1,255.6,404,351c-47,95.4-256,115.6-226.8,270.2
				C206.4,775.8-47.6,845.7-47.6,845.7"/>
			<path class="st9" d="M-109.5,180.3c0,0,144.8,52.4,288.8,33.6c144-18.8,160.9,65.8,144,99.5c-34.9,69.9-221.8,83.3-233.9,196.3
				c-9.1,84.9,63.2,198.9-100.8,259.4"/>
			<path class="st9" d="M-44.9,236.8c0,0,148-18.9,121.6,64.5c-30.3,95.6-101.4,94.1-34.2,215.1c23.9,43,30.9,216.4-100.8,181.5"/>
			<ellipse class="st9" cx="205.8" cy="297.3" rx="66.5" ry="36.3"/>
			<path class="st9" d="M1616.4,414.6c0,0-267-62.7-347.6,200.7c-57.9,189.1-62.8,292.1-182.8,344.1c-120,52-189.9,63.1-197.1,119.4
				"/>
			<path class="st9" d="M1204.2,1078.9c0,0-70.5-174.9,115.5-266.3c125.5-61.7,66.7-271.2,148-337.8
				c64.5-52.9,148.7,61.3,148.7,61.3"/>
			<path class="st9" d="M1259.3,1126.1c0,0,2.1-135.3,145.5-224c143.4-88.7,87.3-242,169.7-265.3c82.5-23.3,164.9,77.1,164.9,77.1"
				/>
			<path class="st9" d="M1360.2,1077.8c0,0-10.8-111.1,98.6-125.5c109.3-14.3,202.5,107.1,202.5,107.1"/>
			<polygon class="st8" points="1692.5,411 1616.4,487 1540.3,411 1483.5,467.7 1559.6,543.8 1483.5,619.9 1540.3,676.7 
				1616.4,600.6 1692.5,676.7 1749.3,619.9 1673.2,543.8 1749.3,467.7 			"/>
		</g>
		<g class="st10">
			<defs>
				<rect id="SVGID_15_" x="-0.3" y="0.9" width="1920" height="1294.6"/>
			</defs>
			<clipPath id="SVGID_16_" class="st11">
				<use xlink:href="#SVGID_15_"  style="overflow:visible;"/>
			</clipPath>
			<path class="st12" d="M1435.8,104c0,4.2-3.4,7.7-7.7,7.7c-4.2,0-7.7-3.4-7.7-7.7c0-4.2,3.4-7.7,7.7-7.7
				C1432.4,96.3,1435.8,99.8,1435.8,104"/>
			<path class="st12" d="M1482,104c0,4.2-3.4,7.7-7.7,7.7c-4.2,0-7.7-3.4-7.7-7.7c0-4.2,3.4-7.7,7.7-7.7
				C1478.6,96.3,1482,99.8,1482,104"/>
			<path class="st12" d="M1528.2,104c0,4.2-3.4,7.7-7.7,7.7c-4.2,0-7.7-3.4-7.7-7.7c0-4.2,3.4-7.7,7.7-7.7
				C1524.8,96.3,1528.2,99.8,1528.2,104"/>
			<path class="st12" d="M1574.4,104c0,4.2-3.4,7.7-7.7,7.7c-4.2,0-7.7-3.4-7.7-7.7c0-4.2,3.4-7.7,7.7-7.7
				C1571,96.3,1574.4,99.8,1574.4,104"/>
			<path class="st12" d="M1620.6,104c0,4.2-3.4,7.7-7.7,7.7s-7.7-3.4-7.7-7.7c0-4.2,3.4-7.7,7.7-7.7S1620.6,99.8,1620.6,104"/>
			<path class="st12" d="M1666.8,104c0,4.2-3.4,7.7-7.7,7.7c-4.2,0-7.7-3.4-7.7-7.7c0-4.2,3.4-7.7,7.7-7.7
				C1663.3,96.3,1666.8,99.8,1666.8,104"/>
			<path class="st12" d="M1713,104c0,4.2-3.4,7.7-7.7,7.7c-4.2,0-7.7-3.4-7.7-7.7c0-4.2,3.4-7.7,7.7-7.7
				C1709.5,96.3,1713,99.8,1713,104"/>
			<path class="st12" d="M1759.1,104c0,4.2-3.4,7.7-7.7,7.7c-4.2,0-7.7-3.4-7.7-7.7c0-4.2,3.4-7.7,7.7-7.7
				C1755.7,96.3,1759.1,99.8,1759.1,104"/>
			<path class="st12" d="M1805.3,104c0,4.2-3.4,7.7-7.7,7.7c-4.2,0-7.7-3.4-7.7-7.7c0-4.2,3.4-7.7,7.7-7.7
				C1801.9,96.3,1805.3,99.8,1805.3,104"/>
			<path class="st12" d="M1851.5,104c0,4.2-3.4,7.7-7.7,7.7c-4.2,0-7.7-3.4-7.7-7.7c0-4.2,3.4-7.7,7.7-7.7
				C1848.1,96.3,1851.5,99.8,1851.5,104"/>
			<path class="st12" d="M1435.8,145.5c0,4.2-3.4,7.7-7.7,7.7c-4.2,0-7.7-3.4-7.7-7.7c0-4.2,3.4-7.7,7.7-7.7
				C1432.4,137.8,1435.8,141.2,1435.8,145.5"/>
			<path class="st12" d="M1482,145.5c0,4.2-3.4,7.7-7.7,7.7c-4.2,0-7.7-3.4-7.7-7.7c0-4.2,3.4-7.7,7.7-7.7
				C1478.6,137.8,1482,141.2,1482,145.5"/>
			<path class="st12" d="M1528.2,145.5c0,4.2-3.4,7.7-7.7,7.7c-4.2,0-7.7-3.4-7.7-7.7c0-4.2,3.4-7.7,7.7-7.7
				C1524.8,137.8,1528.2,141.2,1528.2,145.5"/>
			<path class="st12" d="M1574.4,145.5c0,4.2-3.4,7.7-7.7,7.7c-4.2,0-7.7-3.4-7.7-7.7c0-4.2,3.4-7.7,7.7-7.7
				C1571,137.8,1574.4,141.2,1574.4,145.5"/>
			<path class="st12" d="M1620.6,145.5c0,4.2-3.4,7.7-7.7,7.7s-7.7-3.4-7.7-7.7c0-4.2,3.4-7.7,7.7-7.7S1620.6,141.2,1620.6,145.5"/>
			<path class="st12" d="M1666.8,145.5c0,4.2-3.4,7.7-7.7,7.7c-4.2,0-7.7-3.4-7.7-7.7c0-4.2,3.4-7.7,7.7-7.7
				C1663.3,137.8,1666.8,141.2,1666.8,145.5"/>
			<path class="st12" d="M1713,145.5c0,4.2-3.4,7.7-7.7,7.7c-4.2,0-7.7-3.4-7.7-7.7c0-4.2,3.4-7.7,7.7-7.7
				C1709.5,137.8,1713,141.2,1713,145.5"/>
			<path class="st12" d="M1759.1,145.5c0,4.2-3.4,7.7-7.7,7.7c-4.2,0-7.7-3.4-7.7-7.7c0-4.2,3.4-7.7,7.7-7.7
				C1755.7,137.8,1759.1,141.2,1759.1,145.5"/>
			<path class="st12" d="M1805.3,145.5c0,4.2-3.4,7.7-7.7,7.7c-4.2,0-7.7-3.4-7.7-7.7c0-4.2,3.4-7.7,7.7-7.7
				C1801.9,137.8,1805.3,141.2,1805.3,145.5"/>
			<path class="st12" d="M1851.5,145.5c0,4.2-3.4,7.7-7.7,7.7c-4.2,0-7.7-3.4-7.7-7.7c0-4.2,3.4-7.7,7.7-7.7
				C1848.1,137.8,1851.5,141.2,1851.5,145.5"/>
			<path class="st12" d="M1435.8,186.9c0,4.2-3.4,7.7-7.7,7.7c-4.2,0-7.7-3.4-7.7-7.7c0-4.2,3.4-7.7,7.7-7.7
				C1432.4,179.2,1435.8,182.7,1435.8,186.9"/>
			<path class="st12" d="M1482,186.9c0,4.2-3.4,7.7-7.7,7.7c-4.2,0-7.7-3.4-7.7-7.7c0-4.2,3.4-7.7,7.7-7.7
				C1478.6,179.2,1482,182.7,1482,186.9"/>
			<path class="st12" d="M1528.2,186.9c0,4.2-3.4,7.7-7.7,7.7c-4.2,0-7.7-3.4-7.7-7.7c0-4.2,3.4-7.7,7.7-7.7
				C1524.8,179.2,1528.2,182.7,1528.2,186.9"/>
			<path class="st12" d="M1574.4,186.9c0,4.2-3.4,7.7-7.7,7.7c-4.2,0-7.7-3.4-7.7-7.7c0-4.2,3.4-7.7,7.7-7.7
				C1571,179.2,1574.4,182.7,1574.4,186.9"/>
			<path class="st12" d="M1620.6,186.9c0,4.2-3.4,7.7-7.7,7.7s-7.7-3.4-7.7-7.7c0-4.2,3.4-7.7,7.7-7.7S1620.6,182.7,1620.6,186.9"/>
			<path class="st12" d="M1666.8,186.9c0,4.2-3.4,7.7-7.7,7.7c-4.2,0-7.7-3.4-7.7-7.7c0-4.2,3.4-7.7,7.7-7.7
				C1663.3,179.2,1666.8,182.7,1666.8,186.9"/>
			<path class="st12" d="M1713,186.9c0,4.2-3.4,7.7-7.7,7.7c-4.2,0-7.7-3.4-7.7-7.7c0-4.2,3.4-7.7,7.7-7.7
				C1709.5,179.2,1713,182.7,1713,186.9"/>
			<path class="st12" d="M1759.1,186.9c0,4.2-3.4,7.7-7.7,7.7c-4.2,0-7.7-3.4-7.7-7.7c0-4.2,3.4-7.7,7.7-7.7
				C1755.7,179.2,1759.1,182.7,1759.1,186.9"/>
			<path class="st12" d="M1805.3,186.9c0,4.2-3.4,7.7-7.7,7.7c-4.2,0-7.7-3.4-7.7-7.7c0-4.2,3.4-7.7,7.7-7.7
				C1801.9,179.2,1805.3,182.7,1805.3,186.9"/>
			<path class="st12" d="M1851.5,186.9c0,4.2-3.4,7.7-7.7,7.7c-4.2,0-7.7-3.4-7.7-7.7c0-4.2,3.4-7.7,7.7-7.7
				C1848.1,179.2,1851.5,182.7,1851.5,186.9"/>
			<path class="st12" d="M1435.8,228.3c0,4.2-3.4,7.7-7.7,7.7c-4.2,0-7.7-3.4-7.7-7.7c0-4.2,3.4-7.7,7.7-7.7
				C1432.4,220.7,1435.8,224.1,1435.8,228.3"/>
			<path class="st12" d="M1482,228.3c0,4.2-3.4,7.7-7.7,7.7c-4.2,0-7.7-3.4-7.7-7.7c0-4.2,3.4-7.7,7.7-7.7
				C1478.6,220.7,1482,224.1,1482,228.3"/>
			<path class="st12" d="M1528.2,228.3c0,4.2-3.4,7.7-7.7,7.7c-4.2,0-7.7-3.4-7.7-7.7c0-4.2,3.4-7.7,7.7-7.7
				C1524.8,220.7,1528.2,224.1,1528.2,228.3"/>
			<path class="st12" d="M1574.4,228.3c0,4.2-3.4,7.7-7.7,7.7c-4.2,0-7.7-3.4-7.7-7.7c0-4.2,3.4-7.7,7.7-7.7
				C1571,220.7,1574.4,224.1,1574.4,228.3"/>
			<path class="st12" d="M1620.6,228.3c0,4.2-3.4,7.7-7.7,7.7s-7.7-3.4-7.7-7.7c0-4.2,3.4-7.7,7.7-7.7S1620.6,224.1,1620.6,228.3"/>
			<path class="st12" d="M1666.8,228.3c0,4.2-3.4,7.7-7.7,7.7c-4.2,0-7.7-3.4-7.7-7.7c0-4.2,3.4-7.7,7.7-7.7
				C1663.3,220.7,1666.8,224.1,1666.8,228.3"/>
			<path class="st12" d="M1713,228.3c0,4.2-3.4,7.7-7.7,7.7c-4.2,0-7.7-3.4-7.7-7.7c0-4.2,3.4-7.7,7.7-7.7
				C1709.5,220.7,1713,224.1,1713,228.3"/>
			<path class="st12" d="M1759.1,228.3c0,4.2-3.4,7.7-7.7,7.7c-4.2,0-7.7-3.4-7.7-7.7c0-4.2,3.4-7.7,7.7-7.7
				C1755.7,220.7,1759.1,224.1,1759.1,228.3"/>
			<path class="st12" d="M1805.3,228.3c0,4.2-3.4,7.7-7.7,7.7c-4.2,0-7.7-3.4-7.7-7.7c0-4.2,3.4-7.7,7.7-7.7
				C1801.9,220.7,1805.3,224.1,1805.3,228.3"/>
			<path class="st12" d="M1851.5,228.3c0,4.2-3.4,7.7-7.7,7.7c-4.2,0-7.7-3.4-7.7-7.7c0-4.2,3.4-7.7,7.7-7.7
				C1848.1,220.7,1851.5,224.1,1851.5,228.3"/>
		</g>
		<g class="st10">
			<text transform="matrix(-6.123234e-17 -1 1 -6.123234e-17 105.4906 293.1367)" class="st11"><tspan x="0" y="0" class="st13 st14 st15">ww</tspan><tspan x="21.3" y="0" class="st13 st14 st15">w</tspan><tspan x="31.5" y="0" class="st13 st14 st15">.s</tspan><tspan x="43.4" y="0" class="st13 st14 st15">c</tspan><tspan x="51.4" y="0" class="st13 st14 st15">h</tspan><tspan x="59.7" y="0" class="st13 st14 st15">oolofscie</tspan><tspan x="133" y="0" class="st13 st14 st15">n</tspan><tspan x="141.2" y="0" class="st13 st14 st15">c</tspan><tspan x="149.2" y="0" class="st13 st14 st15">es.ru</tspan></text>
		</g>
		<g class="st10">
			<text transform="matrix(-6.123234e-17 -1 1 -6.123234e-17 79.8392 425.2988)" class="st11"><tspan x="0" y="0" class="st13 st16 st17">По</tspan><tspan x="28.5" y="0" class="st13 st16 st17">с</tspan><tspan x="42.5" y="0" class="st13 st16 st17">е</tspan><tspan x="56.2" y="0" class="st13 st16 st17">ти</tspan><tspan x="84.7" y="0" class="st13 st16 st17">т</tspan><tspan x="98.2" y="0" class="st13 st16 st17">е наш сайт :)</tspan></text>
		</g>
		<g class="st10">
			<defs>
				<rect id="SVGID_17_" x="-0.3" y="0.9" width="1920" height="1294.6"/>
			</defs>
			<clipPath id="SVGID_18_" class="st11">
				<use xlink:href="#SVGID_17_"  style="overflow:visible;"/>
			</clipPath>
			<path class="st18" d="M1497.4,1103.7c0,4.2-3.4,7.7-7.7,7.7c-4.2,0-7.7-3.4-7.7-7.7s3.4-7.7,7.7-7.7
				C1494,1096,1497.4,1099.4,1497.4,1103.7"/>
			<path class="st18" d="M1543.6,1103.7c0,4.2-3.4,7.7-7.7,7.7c-4.2,0-7.7-3.4-7.7-7.7s3.4-7.7,7.7-7.7
				C1540.2,1096,1543.6,1099.4,1543.6,1103.7"/>
			<path class="st18" d="M1589.8,1103.7c0,4.2-3.4,7.7-7.7,7.7c-4.2,0-7.7-3.4-7.7-7.7s3.4-7.7,7.7-7.7
				C1586.4,1096,1589.8,1099.4,1589.8,1103.7"/>
			<path class="st18" d="M1636,1103.7c0,4.2-3.4,7.7-7.7,7.7c-4.2,0-7.7-3.4-7.7-7.7s3.4-7.7,7.7-7.7
				C1632.6,1096,1636,1099.4,1636,1103.7"/>
			<path class="st18" d="M1682.2,1103.7c0,4.2-3.4,7.7-7.7,7.7c-4.2,0-7.7-3.4-7.7-7.7s3.4-7.7,7.7-7.7
				C1678.8,1096,1682.2,1099.4,1682.2,1103.7"/>
			<path class="st18" d="M1728.4,1103.7c0,4.2-3.4,7.7-7.7,7.7c-4.2,0-7.7-3.4-7.7-7.7s3.4-7.7,7.7-7.7
				C1724.9,1096,1728.4,1099.4,1728.4,1103.7"/>
			<path class="st18" d="M1774.6,1103.7c0,4.2-3.4,7.7-7.7,7.7c-4.2,0-7.7-3.4-7.7-7.7s3.4-7.7,7.7-7.7
				C1771.1,1096,1774.6,1099.4,1774.6,1103.7"/>
			<path class="st18" d="M1820.8,1103.7c0,4.2-3.4,7.7-7.7,7.7c-4.2,0-7.7-3.4-7.7-7.7s3.4-7.7,7.7-7.7
				C1817.3,1096,1820.8,1099.4,1820.8,1103.7"/>
			<path class="st18" d="M1866.9,1103.7c0,4.2-3.4,7.7-7.7,7.7c-4.2,0-7.7-3.4-7.7-7.7s3.4-7.7,7.7-7.7
				C1863.5,1096,1866.9,1099.4,1866.9,1103.7"/>
			<path class="st18" d="M1913.1,1103.7c0,4.2-3.4,7.7-7.7,7.7c-4.2,0-7.7-3.4-7.7-7.7s3.4-7.7,7.7-7.7
				C1909.7,1096,1913.1,1099.4,1913.1,1103.7"/>
			<path class="st18" d="M1497.4,1145.1c0,4.2-3.4,7.7-7.7,7.7c-4.2,0-7.7-3.4-7.7-7.7s3.4-7.7,7.7-7.7
				C1494,1137.4,1497.4,1140.9,1497.4,1145.1"/>
			<path class="st18" d="M1543.6,1145.1c0,4.2-3.4,7.7-7.7,7.7c-4.2,0-7.7-3.4-7.7-7.7s3.4-7.7,7.7-7.7
				C1540.2,1137.4,1543.6,1140.9,1543.6,1145.1"/>
			<path class="st18" d="M1589.8,1145.1c0,4.2-3.4,7.7-7.7,7.7c-4.2,0-7.7-3.4-7.7-7.7s3.4-7.7,7.7-7.7
				C1586.4,1137.4,1589.8,1140.9,1589.8,1145.1"/>
			<path class="st18" d="M1636,1145.1c0,4.2-3.4,7.7-7.7,7.7c-4.2,0-7.7-3.4-7.7-7.7s3.4-7.7,7.7-7.7
				C1632.6,1137.4,1636,1140.9,1636,1145.1"/>
			<path class="st18" d="M1682.2,1145.1c0,4.2-3.4,7.7-7.7,7.7c-4.2,0-7.7-3.4-7.7-7.7s3.4-7.7,7.7-7.7
				C1678.8,1137.4,1682.2,1140.9,1682.2,1145.1"/>
			<path class="st18" d="M1728.4,1145.1c0,4.2-3.4,7.7-7.7,7.7c-4.2,0-7.7-3.4-7.7-7.7s3.4-7.7,7.7-7.7
				C1724.9,1137.4,1728.4,1140.9,1728.4,1145.1"/>
			<path class="st18" d="M1774.6,1145.1c0,4.2-3.4,7.7-7.7,7.7c-4.2,0-7.7-3.4-7.7-7.7s3.4-7.7,7.7-7.7
				C1771.1,1137.4,1774.6,1140.9,1774.6,1145.1"/>
			<path class="st18" d="M1820.8,1145.1c0,4.2-3.4,7.7-7.7,7.7c-4.2,0-7.7-3.4-7.7-7.7s3.4-7.7,7.7-7.7
				C1817.3,1137.4,1820.8,1140.9,1820.8,1145.1"/>
			<path class="st18" d="M1866.9,1145.1c0,4.2-3.4,7.7-7.7,7.7c-4.2,0-7.7-3.4-7.7-7.7s3.4-7.7,7.7-7.7
				C1863.5,1137.4,1866.9,1140.9,1866.9,1145.1"/>
			<path class="st18" d="M1913.1,1145.1c0,4.2-3.4,7.7-7.7,7.7c-4.2,0-7.7-3.4-7.7-7.7s3.4-7.7,7.7-7.7
				C1909.7,1137.4,1913.1,1140.9,1913.1,1145.1"/>
			<path class="st18" d="M1497.4,1186.6c0,4.2-3.4,7.7-7.7,7.7c-4.2,0-7.7-3.4-7.7-7.7c0-4.2,3.4-7.7,7.7-7.7
				C1494,1178.9,1497.4,1182.3,1497.4,1186.6"/>
			<path class="st18" d="M1543.6,1186.6c0,4.2-3.4,7.7-7.7,7.7c-4.2,0-7.7-3.4-7.7-7.7c0-4.2,3.4-7.7,7.7-7.7
				C1540.2,1178.9,1543.6,1182.3,1543.6,1186.6"/>
			<path class="st18" d="M1589.8,1186.6c0,4.2-3.4,7.7-7.7,7.7c-4.2,0-7.7-3.4-7.7-7.7c0-4.2,3.4-7.7,7.7-7.7
				C1586.4,1178.9,1589.8,1182.3,1589.8,1186.6"/>
			<path class="st18" d="M1636,1186.6c0,4.2-3.4,7.7-7.7,7.7c-4.2,0-7.7-3.4-7.7-7.7c0-4.2,3.4-7.7,7.7-7.7
				C1632.6,1178.9,1636,1182.3,1636,1186.6"/>
			<path class="st18" d="M1682.2,1186.6c0,4.2-3.4,7.7-7.7,7.7c-4.2,0-7.7-3.4-7.7-7.7c0-4.2,3.4-7.7,7.7-7.7
				C1678.8,1178.9,1682.2,1182.3,1682.2,1186.6"/>
			<path class="st18" d="M1728.4,1186.6c0,4.2-3.4,7.7-7.7,7.7c-4.2,0-7.7-3.4-7.7-7.7c0-4.2,3.4-7.7,7.7-7.7
				C1724.9,1178.9,1728.4,1182.3,1728.4,1186.6"/>
			<path class="st18" d="M1774.6,1186.6c0,4.2-3.4,7.7-7.7,7.7c-4.2,0-7.7-3.4-7.7-7.7c0-4.2,3.4-7.7,7.7-7.7
				C1771.1,1178.9,1774.6,1182.3,1774.6,1186.6"/>
			<path class="st18" d="M1820.8,1186.6c0,4.2-3.4,7.7-7.7,7.7c-4.2,0-7.7-3.4-7.7-7.7c0-4.2,3.4-7.7,7.7-7.7
				C1817.3,1178.9,1820.8,1182.3,1820.8,1186.6"/>
			<path class="st18" d="M1866.9,1186.6c0,4.2-3.4,7.7-7.7,7.7c-4.2,0-7.7-3.4-7.7-7.7c0-4.2,3.4-7.7,7.7-7.7
				C1863.5,1178.9,1866.9,1182.3,1866.9,1186.6"/>
			<path class="st18" d="M1913.1,1186.6c0,4.2-3.4,7.7-7.7,7.7c-4.2,0-7.7-3.4-7.7-7.7c0-4.2,3.4-7.7,7.7-7.7
				C1909.7,1178.9,1913.1,1182.3,1913.1,1186.6"/>
			<path class="st18" d="M1497.4,1228c0,4.2-3.4,7.7-7.7,7.7c-4.2,0-7.7-3.4-7.7-7.7c0-4.2,3.4-7.7,7.7-7.7
				C1494,1220.3,1497.4,1223.8,1497.4,1228"/>
			<path class="st18" d="M1543.6,1228c0,4.2-3.4,7.7-7.7,7.7c-4.2,0-7.7-3.4-7.7-7.7c0-4.2,3.4-7.7,7.7-7.7
				C1540.2,1220.3,1543.6,1223.8,1543.6,1228"/>
			<path class="st18" d="M1589.8,1228c0,4.2-3.4,7.7-7.7,7.7c-4.2,0-7.7-3.4-7.7-7.7c0-4.2,3.4-7.7,7.7-7.7
				C1586.4,1220.3,1589.8,1223.8,1589.8,1228"/>
			<path class="st18" d="M1636,1228c0,4.2-3.4,7.7-7.7,7.7c-4.2,0-7.7-3.4-7.7-7.7c0-4.2,3.4-7.7,7.7-7.7
				C1632.6,1220.3,1636,1223.8,1636,1228"/>
			<path class="st18" d="M1682.2,1228c0,4.2-3.4,7.7-7.7,7.7c-4.2,0-7.7-3.4-7.7-7.7c0-4.2,3.4-7.7,7.7-7.7
				C1678.8,1220.3,1682.2,1223.8,1682.2,1228"/>
			<path class="st18" d="M1728.4,1228c0,4.2-3.4,7.7-7.7,7.7c-4.2,0-7.7-3.4-7.7-7.7c0-4.2,3.4-7.7,7.7-7.7
				C1724.9,1220.3,1728.4,1223.8,1728.4,1228"/>
			<path class="st18" d="M1774.6,1228c0,4.2-3.4,7.7-7.7,7.7c-4.2,0-7.7-3.4-7.7-7.7c0-4.2,3.4-7.7,7.7-7.7
				C1771.1,1220.3,1774.6,1223.8,1774.6,1228"/>
			<path class="st18" d="M1820.8,1228c0,4.2-3.4,7.7-7.7,7.7c-4.2,0-7.7-3.4-7.7-7.7c0-4.2,3.4-7.7,7.7-7.7
				C1817.3,1220.3,1820.8,1223.8,1820.8,1228"/>
			<path class="st18" d="M1866.9,1228c0,4.2-3.4,7.7-7.7,7.7c-4.2,0-7.7-3.4-7.7-7.7c0-4.2,3.4-7.7,7.7-7.7
				C1863.5,1220.3,1866.9,1223.8,1866.9,1228"/>
			<path class="st18" d="M1913.1,1228c0,4.2-3.4,7.7-7.7,7.7c-4.2,0-7.7-3.4-7.7-7.7c0-4.2,3.4-7.7,7.7-7.7
				C1909.7,1220.3,1913.1,1223.8,1913.1,1228"/>
			<path class="st18" d="M1033.2,1103.7c0,4.2-3.4,7.7-7.7,7.7c-4.2,0-7.7-3.4-7.7-7.7s3.4-7.7,7.7-7.7
				C1029.8,1096,1033.2,1099.4,1033.2,1103.7"/>
			<path class="st18" d="M1079.4,1103.7c0,4.2-3.4,7.7-7.7,7.7c-4.2,0-7.7-3.4-7.7-7.7s3.4-7.7,7.7-7.7
				C1076,1096,1079.4,1099.4,1079.4,1103.7"/>
			<path class="st18" d="M1125.6,1103.7c0,4.2-3.4,7.7-7.7,7.7c-4.2,0-7.7-3.4-7.7-7.7s3.4-7.7,7.7-7.7
				C1122.2,1096,1125.6,1099.4,1125.6,1103.7"/>
			<path class="st18" d="M1171.8,1103.7c0,4.2-3.4,7.7-7.7,7.7c-4.2,0-7.7-3.4-7.7-7.7s3.4-7.7,7.7-7.7
				C1168.4,1096,1171.8,1099.4,1171.8,1103.7"/>
			<path class="st18" d="M1218,1103.7c0,4.2-3.4,7.7-7.7,7.7c-4.2,0-7.7-3.4-7.7-7.7s3.4-7.7,7.7-7.7
				C1214.5,1096,1218,1099.4,1218,1103.7"/>
			<path class="st18" d="M1264.2,1103.7c0,4.2-3.4,7.7-7.7,7.7c-4.2,0-7.7-3.4-7.7-7.7s3.4-7.7,7.7-7.7
				C1260.7,1096,1264.2,1099.4,1264.2,1103.7"/>
			<path class="st18" d="M1310.4,1103.7c0,4.2-3.4,7.7-7.7,7.7c-4.2,0-7.7-3.4-7.7-7.7s3.4-7.7,7.7-7.7
				C1306.9,1096,1310.4,1099.4,1310.4,1103.7"/>
			<path class="st18" d="M1356.5,1103.7c0,4.2-3.4,7.7-7.7,7.7c-4.2,0-7.7-3.4-7.7-7.7s3.4-7.7,7.7-7.7
				C1353.1,1096,1356.5,1099.4,1356.5,1103.7"/>
			<path class="st18" d="M1402.7,1103.7c0,4.2-3.4,7.7-7.7,7.7c-4.2,0-7.7-3.4-7.7-7.7s3.4-7.7,7.7-7.7
				C1399.3,1096,1402.7,1099.4,1402.7,1103.7"/>
			<path class="st18" d="M1448.9,1103.7c0,4.2-3.4,7.7-7.7,7.7c-4.2,0-7.7-3.4-7.7-7.7s3.4-7.7,7.7-7.7
				C1445.5,1096,1448.9,1099.4,1448.9,1103.7"/>
			<path class="st18" d="M1033.2,1145.1c0,4.2-3.4,7.7-7.7,7.7c-4.2,0-7.7-3.4-7.7-7.7s3.4-7.7,7.7-7.7
				C1029.8,1137.4,1033.2,1140.9,1033.2,1145.1"/>
			<path class="st18" d="M1079.4,1145.1c0,4.2-3.4,7.7-7.7,7.7c-4.2,0-7.7-3.4-7.7-7.7s3.4-7.7,7.7-7.7
				C1076,1137.4,1079.4,1140.9,1079.4,1145.1"/>
			<path class="st18" d="M1125.6,1145.1c0,4.2-3.4,7.7-7.7,7.7c-4.2,0-7.7-3.4-7.7-7.7s3.4-7.7,7.7-7.7
				C1122.2,1137.4,1125.6,1140.9,1125.6,1145.1"/>
			<path class="st18" d="M1171.8,1145.1c0,4.2-3.4,7.7-7.7,7.7c-4.2,0-7.7-3.4-7.7-7.7s3.4-7.7,7.7-7.7
				C1168.4,1137.4,1171.8,1140.9,1171.8,1145.1"/>
			<path class="st18" d="M1218,1145.1c0,4.2-3.4,7.7-7.7,7.7c-4.2,0-7.7-3.4-7.7-7.7s3.4-7.7,7.7-7.7
				C1214.5,1137.4,1218,1140.9,1218,1145.1"/>
			<path class="st18" d="M1264.2,1145.1c0,4.2-3.4,7.7-7.7,7.7c-4.2,0-7.7-3.4-7.7-7.7s3.4-7.7,7.7-7.7
				C1260.7,1137.4,1264.2,1140.9,1264.2,1145.1"/>
			<path class="st18" d="M1310.4,1145.1c0,4.2-3.4,7.7-7.7,7.7c-4.2,0-7.7-3.4-7.7-7.7s3.4-7.7,7.7-7.7
				C1306.9,1137.4,1310.4,1140.9,1310.4,1145.1"/>
			<path class="st18" d="M1356.5,1145.1c0,4.2-3.4,7.7-7.7,7.7c-4.2,0-7.7-3.4-7.7-7.7s3.4-7.7,7.7-7.7
				C1353.1,1137.4,1356.5,1140.9,1356.5,1145.1"/>
			<path class="st18" d="M1402.7,1145.1c0,4.2-3.4,7.7-7.7,7.7c-4.2,0-7.7-3.4-7.7-7.7s3.4-7.7,7.7-7.7
				C1399.3,1137.4,1402.7,1140.9,1402.7,1145.1"/>
			<path class="st18" d="M1448.9,1145.1c0,4.2-3.4,7.7-7.7,7.7c-4.2,0-7.7-3.4-7.7-7.7s3.4-7.7,7.7-7.7
				C1445.5,1137.4,1448.9,1140.9,1448.9,1145.1"/>
			<path class="st18" d="M1033.2,1186.6c0,4.2-3.4,7.7-7.7,7.7c-4.2,0-7.7-3.4-7.7-7.7c0-4.2,3.4-7.7,7.7-7.7
				C1029.8,1178.9,1033.2,1182.3,1033.2,1186.6"/>
			<path class="st18" d="M1079.4,1186.6c0,4.2-3.4,7.7-7.7,7.7c-4.2,0-7.7-3.4-7.7-7.7c0-4.2,3.4-7.7,7.7-7.7
				C1076,1178.9,1079.4,1182.3,1079.4,1186.6"/>
			<path class="st18" d="M1125.6,1186.6c0,4.2-3.4,7.7-7.7,7.7c-4.2,0-7.7-3.4-7.7-7.7c0-4.2,3.4-7.7,7.7-7.7
				C1122.2,1178.9,1125.6,1182.3,1125.6,1186.6"/>
			<path class="st18" d="M1171.8,1186.6c0,4.2-3.4,7.7-7.7,7.7c-4.2,0-7.7-3.4-7.7-7.7c0-4.2,3.4-7.7,7.7-7.7
				C1168.4,1178.9,1171.8,1182.3,1171.8,1186.6"/>
			<path class="st18" d="M1218,1186.6c0,4.2-3.4,7.7-7.7,7.7c-4.2,0-7.7-3.4-7.7-7.7c0-4.2,3.4-7.7,7.7-7.7
				C1214.5,1178.9,1218,1182.3,1218,1186.6"/>
			<path class="st18" d="M1264.2,1186.6c0,4.2-3.4,7.7-7.7,7.7c-4.2,0-7.7-3.4-7.7-7.7c0-4.2,3.4-7.7,7.7-7.7
				C1260.7,1178.9,1264.2,1182.3,1264.2,1186.6"/>
			<path class="st18" d="M1310.4,1186.6c0,4.2-3.4,7.7-7.7,7.7c-4.2,0-7.7-3.4-7.7-7.7c0-4.2,3.4-7.7,7.7-7.7
				C1306.9,1178.9,1310.4,1182.3,1310.4,1186.6"/>
			<path class="st18" d="M1356.5,1186.6c0,4.2-3.4,7.7-7.7,7.7c-4.2,0-7.7-3.4-7.7-7.7c0-4.2,3.4-7.7,7.7-7.7
				C1353.1,1178.9,1356.5,1182.3,1356.5,1186.6"/>
			<path class="st18" d="M1402.7,1186.6c0,4.2-3.4,7.7-7.7,7.7c-4.2,0-7.7-3.4-7.7-7.7c0-4.2,3.4-7.7,7.7-7.7
				C1399.3,1178.9,1402.7,1182.3,1402.7,1186.6"/>
			<path class="st18" d="M1448.9,1186.6c0,4.2-3.4,7.7-7.7,7.7c-4.2,0-7.7-3.4-7.7-7.7c0-4.2,3.4-7.7,7.7-7.7
				C1445.5,1178.9,1448.9,1182.3,1448.9,1186.6"/>
			<path class="st18" d="M1033.2,1228c0,4.2-3.4,7.7-7.7,7.7c-4.2,0-7.7-3.4-7.7-7.7c0-4.2,3.4-7.7,7.7-7.7
				C1029.8,1220.3,1033.2,1223.8,1033.2,1228"/>
			<path class="st18" d="M1079.4,1228c0,4.2-3.4,7.7-7.7,7.7c-4.2,0-7.7-3.4-7.7-7.7c0-4.2,3.4-7.7,7.7-7.7
				C1076,1220.3,1079.4,1223.8,1079.4,1228"/>
			<path class="st18" d="M1125.6,1228c0,4.2-3.4,7.7-7.7,7.7c-4.2,0-7.7-3.4-7.7-7.7c0-4.2,3.4-7.7,7.7-7.7
				C1122.2,1220.3,1125.6,1223.8,1125.6,1228"/>
			<path class="st18" d="M1171.8,1228c0,4.2-3.4,7.7-7.7,7.7c-4.2,0-7.7-3.4-7.7-7.7c0-4.2,3.4-7.7,7.7-7.7
				C1168.4,1220.3,1171.8,1223.8,1171.8,1228"/>
			<path class="st18" d="M1218,1228c0,4.2-3.4,7.7-7.7,7.7c-4.2,0-7.7-3.4-7.7-7.7c0-4.2,3.4-7.7,7.7-7.7
				C1214.5,1220.3,1218,1223.8,1218,1228"/>
			<path class="st18" d="M1264.2,1228c0,4.2-3.4,7.7-7.7,7.7c-4.2,0-7.7-3.4-7.7-7.7c0-4.2,3.4-7.7,7.7-7.7
				C1260.7,1220.3,1264.2,1223.8,1264.2,1228"/>
			<path class="st18" d="M1310.4,1228c0,4.2-3.4,7.7-7.7,7.7c-4.2,0-7.7-3.4-7.7-7.7c0-4.2,3.4-7.7,7.7-7.7
				C1306.9,1220.3,1310.4,1223.8,1310.4,1228"/>
			<path class="st18" d="M1356.5,1228c0,4.2-3.4,7.7-7.7,7.7c-4.2,0-7.7-3.4-7.7-7.7c0-4.2,3.4-7.7,7.7-7.7
				C1353.1,1220.3,1356.5,1223.8,1356.5,1228"/>
			<path class="st18" d="M1402.7,1228c0,4.2-3.4,7.7-7.7,7.7c-4.2,0-7.7-3.4-7.7-7.7c0-4.2,3.4-7.7,7.7-7.7
				C1399.3,1220.3,1402.7,1223.8,1402.7,1228"/>
			<path class="st18" d="M1448.9,1228c0,4.2-3.4,7.7-7.7,7.7c-4.2,0-7.7-3.4-7.7-7.7c0-4.2,3.4-7.7,7.7-7.7
				C1445.5,1220.3,1448.9,1223.8,1448.9,1228"/>
			<path class="st18" d="M575.1,1103.7c0,4.2-3.4,7.7-7.7,7.7c-4.2,0-7.7-3.4-7.7-7.7s3.4-7.7,7.7-7.7
				C571.6,1096,575.1,1099.4,575.1,1103.7"/>
			<path class="st18" d="M621.2,1103.7c0,4.2-3.4,7.7-7.7,7.7c-4.2,0-7.7-3.4-7.7-7.7s3.4-7.7,7.7-7.7
				C617.8,1096,621.2,1099.4,621.2,1103.7"/>
			<path class="st18" d="M667.4,1103.7c0,4.2-3.4,7.7-7.7,7.7c-4.2,0-7.7-3.4-7.7-7.7s3.4-7.7,7.7-7.7
				C664,1096,667.4,1099.4,667.4,1103.7"/>
			<path class="st18" d="M713.6,1103.7c0,4.2-3.4,7.7-7.7,7.7c-4.2,0-7.7-3.4-7.7-7.7s3.4-7.7,7.7-7.7
				C710.2,1096,713.6,1099.4,713.6,1103.7"/>
			<path class="st18" d="M759.8,1103.7c0,4.2-3.4,7.7-7.7,7.7c-4.2,0-7.7-3.4-7.7-7.7s3.4-7.7,7.7-7.7
				C756.4,1096,759.8,1099.4,759.8,1103.7"/>
			<path class="st18" d="M806,1103.7c0,4.2-3.4,7.7-7.7,7.7c-4.2,0-7.7-3.4-7.7-7.7s3.4-7.7,7.7-7.7
				C802.5,1096,806,1099.4,806,1103.7"/>
			<path class="st18" d="M852.2,1103.7c0,4.2-3.4,7.7-7.7,7.7c-4.2,0-7.7-3.4-7.7-7.7s3.4-7.7,7.7-7.7
				C848.7,1096,852.2,1099.4,852.2,1103.7"/>
			<path class="st18" d="M898.4,1103.7c0,4.2-3.4,7.7-7.7,7.7c-4.2,0-7.7-3.4-7.7-7.7s3.4-7.7,7.7-7.7
				C894.9,1096,898.4,1099.4,898.4,1103.7"/>
			<path class="st18" d="M944.5,1103.7c0,4.2-3.4,7.7-7.7,7.7c-4.2,0-7.7-3.4-7.7-7.7s3.4-7.7,7.7-7.7
				C941.1,1096,944.5,1099.4,944.5,1103.7"/>
			<path class="st18" d="M990.7,1103.7c0,4.2-3.4,7.7-7.7,7.7c-4.2,0-7.7-3.4-7.7-7.7s3.4-7.7,7.7-7.7
				C987.3,1096,990.7,1099.4,990.7,1103.7"/>
			<path class="st18" d="M575.1,1145.1c0,4.2-3.4,7.7-7.7,7.7c-4.2,0-7.7-3.4-7.7-7.7s3.4-7.7,7.7-7.7
				C571.6,1137.4,575.1,1140.9,575.1,1145.1"/>
			<path class="st18" d="M621.2,1145.1c0,4.2-3.4,7.7-7.7,7.7c-4.2,0-7.7-3.4-7.7-7.7s3.4-7.7,7.7-7.7
				C617.8,1137.4,621.2,1140.9,621.2,1145.1"/>
			<path class="st18" d="M667.4,1145.1c0,4.2-3.4,7.7-7.7,7.7c-4.2,0-7.7-3.4-7.7-7.7s3.4-7.7,7.7-7.7
				C664,1137.4,667.4,1140.9,667.4,1145.1"/>
			<path class="st18" d="M713.6,1145.1c0,4.2-3.4,7.7-7.7,7.7c-4.2,0-7.7-3.4-7.7-7.7s3.4-7.7,7.7-7.7
				C710.2,1137.4,713.6,1140.9,713.6,1145.1"/>
			<path class="st18" d="M759.8,1145.1c0,4.2-3.4,7.7-7.7,7.7c-4.2,0-7.7-3.4-7.7-7.7s3.4-7.7,7.7-7.7
				C756.4,1137.4,759.8,1140.9,759.8,1145.1"/>
			<path class="st18" d="M806,1145.1c0,4.2-3.4,7.7-7.7,7.7c-4.2,0-7.7-3.4-7.7-7.7s3.4-7.7,7.7-7.7
				C802.5,1137.4,806,1140.9,806,1145.1"/>
			<path class="st18" d="M852.2,1145.1c0,4.2-3.4,7.7-7.7,7.7c-4.2,0-7.7-3.4-7.7-7.7s3.4-7.7,7.7-7.7
				C848.7,1137.4,852.2,1140.9,852.2,1145.1"/>
			<path class="st18" d="M898.4,1145.1c0,4.2-3.4,7.7-7.7,7.7c-4.2,0-7.7-3.4-7.7-7.7s3.4-7.7,7.7-7.7
				C894.9,1137.4,898.4,1140.9,898.4,1145.1"/>
			<path class="st18" d="M944.5,1145.1c0,4.2-3.4,7.7-7.7,7.7c-4.2,0-7.7-3.4-7.7-7.7s3.4-7.7,7.7-7.7
				C941.1,1137.4,944.5,1140.9,944.5,1145.1"/>
			<path class="st18" d="M990.7,1145.1c0,4.2-3.4,7.7-7.7,7.7c-4.2,0-7.7-3.4-7.7-7.7s3.4-7.7,7.7-7.7
				C987.3,1137.4,990.7,1140.9,990.7,1145.1"/>
			<path class="st18" d="M575.1,1186.6c0,4.2-3.4,7.7-7.7,7.7c-4.2,0-7.7-3.4-7.7-7.7c0-4.2,3.4-7.7,7.7-7.7
				C571.6,1178.9,575.1,1182.3,575.1,1186.6"/>
			<path class="st18" d="M621.2,1186.6c0,4.2-3.4,7.7-7.7,7.7c-4.2,0-7.7-3.4-7.7-7.7c0-4.2,3.4-7.7,7.7-7.7
				C617.8,1178.9,621.2,1182.3,621.2,1186.6"/>
			<path class="st18" d="M667.4,1186.6c0,4.2-3.4,7.7-7.7,7.7c-4.2,0-7.7-3.4-7.7-7.7c0-4.2,3.4-7.7,7.7-7.7
				C664,1178.9,667.4,1182.3,667.4,1186.6"/>
			<path class="st18" d="M713.6,1186.6c0,4.2-3.4,7.7-7.7,7.7c-4.2,0-7.7-3.4-7.7-7.7c0-4.2,3.4-7.7,7.7-7.7
				C710.2,1178.9,713.6,1182.3,713.6,1186.6"/>
			<path class="st18" d="M759.8,1186.6c0,4.2-3.4,7.7-7.7,7.7c-4.2,0-7.7-3.4-7.7-7.7c0-4.2,3.4-7.7,7.7-7.7
				C756.4,1178.9,759.8,1182.3,759.8,1186.6"/>
			<path class="st18" d="M806,1186.6c0,4.2-3.4,7.7-7.7,7.7c-4.2,0-7.7-3.4-7.7-7.7c0-4.2,3.4-7.7,7.7-7.7
				C802.5,1178.9,806,1182.3,806,1186.6"/>
			<path class="st18" d="M852.2,1186.6c0,4.2-3.4,7.7-7.7,7.7c-4.2,0-7.7-3.4-7.7-7.7c0-4.2,3.4-7.7,7.7-7.7
				C848.7,1178.9,852.2,1182.3,852.2,1186.6"/>
			<path class="st18" d="M898.4,1186.6c0,4.2-3.4,7.7-7.7,7.7c-4.2,0-7.7-3.4-7.7-7.7c0-4.2,3.4-7.7,7.7-7.7
				C894.9,1178.9,898.4,1182.3,898.4,1186.6"/>
			<path class="st18" d="M944.5,1186.6c0,4.2-3.4,7.7-7.7,7.7c-4.2,0-7.7-3.4-7.7-7.7c0-4.2,3.4-7.7,7.7-7.7
				C941.1,1178.9,944.5,1182.3,944.5,1186.6"/>
			<path class="st18" d="M990.7,1186.6c0,4.2-3.4,7.7-7.7,7.7c-4.2,0-7.7-3.4-7.7-7.7c0-4.2,3.4-7.7,7.7-7.7
				C987.3,1178.9,990.7,1182.3,990.7,1186.6"/>
			<path class="st18" d="M575.1,1228c0,4.2-3.4,7.7-7.7,7.7c-4.2,0-7.7-3.4-7.7-7.7c0-4.2,3.4-7.7,7.7-7.7
				C571.6,1220.3,575.1,1223.8,575.1,1228"/>
			<path class="st18" d="M621.2,1228c0,4.2-3.4,7.7-7.7,7.7c-4.2,0-7.7-3.4-7.7-7.7c0-4.2,3.4-7.7,7.7-7.7
				C617.8,1220.3,621.2,1223.8,621.2,1228"/>
			<path class="st18" d="M667.4,1228c0,4.2-3.4,7.7-7.7,7.7c-4.2,0-7.7-3.4-7.7-7.7c0-4.2,3.4-7.7,7.7-7.7
				C664,1220.3,667.4,1223.8,667.4,1228"/>
			<path class="st18" d="M713.6,1228c0,4.2-3.4,7.7-7.7,7.7c-4.2,0-7.7-3.4-7.7-7.7c0-4.2,3.4-7.7,7.7-7.7
				C710.2,1220.3,713.6,1223.8,713.6,1228"/>
			<path class="st18" d="M759.8,1228c0,4.2-3.4,7.7-7.7,7.7c-4.2,0-7.7-3.4-7.7-7.7c0-4.2,3.4-7.7,7.7-7.7
				C756.4,1220.3,759.8,1223.8,759.8,1228"/>
			<path class="st18" d="M806,1228c0,4.2-3.4,7.7-7.7,7.7c-4.2,0-7.7-3.4-7.7-7.7c0-4.2,3.4-7.7,7.7-7.7
				C802.5,1220.3,806,1223.8,806,1228"/>
			<path class="st18" d="M852.2,1228c0,4.2-3.4,7.7-7.7,7.7c-4.2,0-7.7-3.4-7.7-7.7c0-4.2,3.4-7.7,7.7-7.7
				C848.7,1220.3,852.2,1223.8,852.2,1228"/>
			<path class="st18" d="M898.4,1228c0,4.2-3.4,7.7-7.7,7.7c-4.2,0-7.7-3.4-7.7-7.7c0-4.2,3.4-7.7,7.7-7.7
				C894.9,1220.3,898.4,1223.8,898.4,1228"/>
			<path class="st18" d="M944.5,1228c0,4.2-3.4,7.7-7.7,7.7c-4.2,0-7.7-3.4-7.7-7.7c0-4.2,3.4-7.7,7.7-7.7
				C941.1,1220.3,944.5,1223.8,944.5,1228"/>
			<path class="st18" d="M990.7,1228c0,4.2-3.4,7.7-7.7,7.7c-4.2,0-7.7-3.4-7.7-7.7c0-4.2,3.4-7.7,7.7-7.7
				C987.3,1220.3,990.7,1223.8,990.7,1228"/>
			<path class="st18" d="M110.8,1103.7c0,4.2-3.4,7.7-7.7,7.7c-4.2,0-7.7-3.4-7.7-7.7s3.4-7.7,7.7-7.7
				C107.4,1096,110.8,1099.4,110.8,1103.7"/>
			<path class="st18" d="M157,1103.7c0,4.2-3.4,7.7-7.7,7.7c-4.2,0-7.7-3.4-7.7-7.7s3.4-7.7,7.7-7.7
				C153.6,1096,157,1099.4,157,1103.7"/>
			<path class="st18" d="M203.2,1103.7c0,4.2-3.4,7.7-7.7,7.7c-4.2,0-7.7-3.4-7.7-7.7s3.4-7.7,7.7-7.7
				C199.8,1096,203.2,1099.4,203.2,1103.7"/>
			<path class="st18" d="M249.4,1103.7c0,4.2-3.4,7.7-7.7,7.7c-4.2,0-7.7-3.4-7.7-7.7s3.4-7.7,7.7-7.7
				C246,1096,249.4,1099.4,249.4,1103.7"/>
			<path class="st18" d="M295.6,1103.7c0,4.2-3.4,7.7-7.7,7.7c-4.2,0-7.7-3.4-7.7-7.7s3.4-7.7,7.7-7.7
				C292.2,1096,295.6,1099.4,295.6,1103.7"/>
			<path class="st18" d="M341.8,1103.7c0,4.2-3.4,7.7-7.7,7.7c-4.2,0-7.7-3.4-7.7-7.7s3.4-7.7,7.7-7.7
				C338.3,1096,341.8,1099.4,341.8,1103.7"/>
			<path class="st18" d="M388,1103.7c0,4.2-3.4,7.7-7.7,7.7c-4.2,0-7.7-3.4-7.7-7.7s3.4-7.7,7.7-7.7
				C384.5,1096,388,1099.4,388,1103.7"/>
			<path class="st18" d="M434.1,1103.7c0,4.2-3.4,7.7-7.7,7.7c-4.2,0-7.7-3.4-7.7-7.7s3.4-7.7,7.7-7.7
				C430.7,1096,434.1,1099.4,434.1,1103.7"/>
			<path class="st18" d="M480.3,1103.7c0,4.2-3.4,7.7-7.7,7.7c-4.2,0-7.7-3.4-7.7-7.7s3.4-7.7,7.7-7.7
				C476.9,1096,480.3,1099.4,480.3,1103.7"/>
			<path class="st18" d="M526.5,1103.7c0,4.2-3.4,7.7-7.7,7.7c-4.2,0-7.7-3.4-7.7-7.7s3.4-7.7,7.7-7.7
				C523.1,1096,526.5,1099.4,526.5,1103.7"/>
			<path class="st18" d="M110.8,1145.1c0,4.2-3.4,7.7-7.7,7.7c-4.2,0-7.7-3.4-7.7-7.7s3.4-7.7,7.7-7.7
				C107.4,1137.4,110.8,1140.9,110.8,1145.1"/>
			<path class="st18" d="M157,1145.1c0,4.2-3.4,7.7-7.7,7.7c-4.2,0-7.7-3.4-7.7-7.7s3.4-7.7,7.7-7.7
				C153.6,1137.4,157,1140.9,157,1145.1"/>
			<path class="st18" d="M203.2,1145.1c0,4.2-3.4,7.7-7.7,7.7c-4.2,0-7.7-3.4-7.7-7.7s3.4-7.7,7.7-7.7
				C199.8,1137.4,203.2,1140.9,203.2,1145.1"/>
			<path class="st18" d="M249.4,1145.1c0,4.2-3.4,7.7-7.7,7.7c-4.2,0-7.7-3.4-7.7-7.7s3.4-7.7,7.7-7.7
				C246,1137.4,249.4,1140.9,249.4,1145.1"/>
			<path class="st18" d="M295.6,1145.1c0,4.2-3.4,7.7-7.7,7.7c-4.2,0-7.7-3.4-7.7-7.7s3.4-7.7,7.7-7.7
				C292.2,1137.4,295.6,1140.9,295.6,1145.1"/>
			<path class="st18" d="M341.8,1145.1c0,4.2-3.4,7.7-7.7,7.7c-4.2,0-7.7-3.4-7.7-7.7s3.4-7.7,7.7-7.7
				C338.3,1137.4,341.8,1140.9,341.8,1145.1"/>
			<path class="st18" d="M388,1145.1c0,4.2-3.4,7.7-7.7,7.7c-4.2,0-7.7-3.4-7.7-7.7s3.4-7.7,7.7-7.7
				C384.5,1137.4,388,1140.9,388,1145.1"/>
			<path class="st18" d="M434.1,1145.1c0,4.2-3.4,7.7-7.7,7.7c-4.2,0-7.7-3.4-7.7-7.7s3.4-7.7,7.7-7.7
				C430.7,1137.4,434.1,1140.9,434.1,1145.1"/>
			<path class="st18" d="M480.3,1145.1c0,4.2-3.4,7.7-7.7,7.7c-4.2,0-7.7-3.4-7.7-7.7s3.4-7.7,7.7-7.7
				C476.9,1137.4,480.3,1140.9,480.3,1145.1"/>
			<path class="st18" d="M526.5,1145.1c0,4.2-3.4,7.7-7.7,7.7c-4.2,0-7.7-3.4-7.7-7.7s3.4-7.7,7.7-7.7
				C523.1,1137.4,526.5,1140.9,526.5,1145.1"/>
			<path class="st18" d="M110.8,1186.6c0,4.2-3.4,7.7-7.7,7.7c-4.2,0-7.7-3.4-7.7-7.7c0-4.2,3.4-7.7,7.7-7.7
				C107.4,1178.9,110.8,1182.3,110.8,1186.6"/>
			<path class="st18" d="M157,1186.6c0,4.2-3.4,7.7-7.7,7.7c-4.2,0-7.7-3.4-7.7-7.7c0-4.2,3.4-7.7,7.7-7.7
				C153.6,1178.9,157,1182.3,157,1186.6"/>
			<path class="st18" d="M203.2,1186.6c0,4.2-3.4,7.7-7.7,7.7c-4.2,0-7.7-3.4-7.7-7.7c0-4.2,3.4-7.7,7.7-7.7
				C199.8,1178.9,203.2,1182.3,203.2,1186.6"/>
			<path class="st18" d="M249.4,1186.6c0,4.2-3.4,7.7-7.7,7.7c-4.2,0-7.7-3.4-7.7-7.7c0-4.2,3.4-7.7,7.7-7.7
				C246,1178.9,249.4,1182.3,249.4,1186.6"/>
			<path class="st18" d="M295.6,1186.6c0,4.2-3.4,7.7-7.7,7.7c-4.2,0-7.7-3.4-7.7-7.7c0-4.2,3.4-7.7,7.7-7.7
				C292.2,1178.9,295.6,1182.3,295.6,1186.6"/>
			<path class="st18" d="M341.8,1186.6c0,4.2-3.4,7.7-7.7,7.7c-4.2,0-7.7-3.4-7.7-7.7c0-4.2,3.4-7.7,7.7-7.7
				C338.3,1178.9,341.8,1182.3,341.8,1186.6"/>
			<path class="st18" d="M388,1186.6c0,4.2-3.4,7.7-7.7,7.7c-4.2,0-7.7-3.4-7.7-7.7c0-4.2,3.4-7.7,7.7-7.7
				C384.5,1178.9,388,1182.3,388,1186.6"/>
			<path class="st18" d="M434.1,1186.6c0,4.2-3.4,7.7-7.7,7.7c-4.2,0-7.7-3.4-7.7-7.7c0-4.2,3.4-7.7,7.7-7.7
				C430.7,1178.9,434.1,1182.3,434.1,1186.6"/>
			<path class="st18" d="M480.3,1186.6c0,4.2-3.4,7.7-7.7,7.7c-4.2,0-7.7-3.4-7.7-7.7c0-4.2,3.4-7.7,7.7-7.7
				C476.9,1178.9,480.3,1182.3,480.3,1186.6"/>
			<path class="st18" d="M526.5,1186.6c0,4.2-3.4,7.7-7.7,7.7c-4.2,0-7.7-3.4-7.7-7.7c0-4.2,3.4-7.7,7.7-7.7
				C523.1,1178.9,526.5,1182.3,526.5,1186.6"/>
			<path class="st18" d="M110.8,1228c0,4.2-3.4,7.7-7.7,7.7c-4.2,0-7.7-3.4-7.7-7.7c0-4.2,3.4-7.7,7.7-7.7
				C107.4,1220.3,110.8,1223.8,110.8,1228"/>
			<path class="st18" d="M157,1228c0,4.2-3.4,7.7-7.7,7.7c-4.2,0-7.7-3.4-7.7-7.7c0-4.2,3.4-7.7,7.7-7.7
				C153.6,1220.3,157,1223.8,157,1228"/>
			<path class="st18" d="M203.2,1228c0,4.2-3.4,7.7-7.7,7.7c-4.2,0-7.7-3.4-7.7-7.7c0-4.2,3.4-7.7,7.7-7.7
				C199.8,1220.3,203.2,1223.8,203.2,1228"/>
			<path class="st18" d="M249.4,1228c0,4.2-3.4,7.7-7.7,7.7c-4.2,0-7.7-3.4-7.7-7.7c0-4.2,3.4-7.7,7.7-7.7
				C246,1220.3,249.4,1223.8,249.4,1228"/>
			<path class="st18" d="M295.6,1228c0,4.2-3.4,7.7-7.7,7.7c-4.2,0-7.7-3.4-7.7-7.7c0-4.2,3.4-7.7,7.7-7.7
				C292.2,1220.3,295.6,1223.8,295.6,1228"/>
			<path class="st18" d="M341.8,1228c0,4.2-3.4,7.7-7.7,7.7c-4.2,0-7.7-3.4-7.7-7.7c0-4.2,3.4-7.7,7.7-7.7
				C338.3,1220.3,341.8,1223.8,341.8,1228"/>
			<path class="st18" d="M388,1228c0,4.2-3.4,7.7-7.7,7.7c-4.2,0-7.7-3.4-7.7-7.7c0-4.2,3.4-7.7,7.7-7.7
				C384.5,1220.3,388,1223.8,388,1228"/>
			<path class="st18" d="M434.1,1228c0,4.2-3.4,7.7-7.7,7.7c-4.2,0-7.7-3.4-7.7-7.7c0-4.2,3.4-7.7,7.7-7.7
				C430.7,1220.3,434.1,1223.8,434.1,1228"/>
			<path class="st18" d="M480.3,1228c0,4.2-3.4,7.7-7.7,7.7c-4.2,0-7.7-3.4-7.7-7.7c0-4.2,3.4-7.7,7.7-7.7
				C476.9,1220.3,480.3,1223.8,480.3,1228"/>
			<path class="st18" d="M526.5,1228c0,4.2-3.4,7.7-7.7,7.7c-4.2,0-7.7-3.4-7.7-7.7c0-4.2,3.4-7.7,7.7-7.7
				C523.1,1220.3,526.5,1223.8,526.5,1228"/>
			<path class="st18" d="M14.7,1103.7c0,4.2-3.4,7.7-7.7,7.7c-4.2,0-7.7-3.4-7.7-7.7s3.4-7.7,7.7-7.7
				C11.3,1096,14.7,1099.4,14.7,1103.7"/>
			<path class="st18" d="M60.9,1103.7c0,4.2-3.4,7.7-7.7,7.7c-4.2,0-7.7-3.4-7.7-7.7s3.4-7.7,7.7-7.7
				C57.4,1096,60.9,1099.4,60.9,1103.7"/>
			<path class="st18" d="M14.7,1145.1c0,4.2-3.4,7.7-7.7,7.7c-4.2,0-7.7-3.4-7.7-7.7s3.4-7.7,7.7-7.7
				C11.3,1137.4,14.7,1140.9,14.7,1145.1"/>
			<path class="st18" d="M60.9,1145.1c0,4.2-3.4,7.7-7.7,7.7c-4.2,0-7.7-3.4-7.7-7.7s3.4-7.7,7.7-7.7
				C57.4,1137.4,60.9,1140.9,60.9,1145.1"/>
			<path class="st18" d="M14.7,1186.6c0,4.2-3.4,7.7-7.7,7.7c-4.2,0-7.7-3.4-7.7-7.7c0-4.2,3.4-7.7,7.7-7.7
				C11.3,1178.9,14.7,1182.3,14.7,1186.6"/>
			<path class="st18" d="M60.9,1186.6c0,4.2-3.4,7.7-7.7,7.7c-4.2,0-7.7-3.4-7.7-7.7c0-4.2,3.4-7.7,7.7-7.7
				C57.4,1178.9,60.9,1182.3,60.9,1186.6"/>
			<path class="st18" d="M14.7,1228c0,4.2-3.4,7.7-7.7,7.7c-4.2,0-7.7-3.4-7.7-7.7c0-4.2,3.4-7.7,7.7-7.7
				C11.3,1220.3,14.7,1223.8,14.7,1228"/>
			<path class="st18" d="M60.9,1228c0,4.2-3.4,7.7-7.7,7.7c-4.2,0-7.7-3.4-7.7-7.7c0-4.2,3.4-7.7,7.7-7.7
				C57.4,1220.3,60.9,1223.8,60.9,1228"/>
			<line class="st19" x1="-31.5" y1="1080.9" x2="2041.2" y2="1080.9"/>
			<line class="st20" x1="-31.5" y1="1080.9" x2="2041.2" y2="1080.9"/>
		</g>
		<g class="st10">
			<text transform="matrix(1 0 0 1 50.8734 1137.4294)" class="st11"><tspan x="0" y="0" class="st17" style="fill:#444242; font-family:'Montserrat-ExtraLight';">Полити</tspan><tspan x="87.1" y="0" class="st17" style="fill:#444242; font-family:'Montserrat-ExtraLight';">к</tspan><tspan x="101" y="0" class="st17" style="fill:#444242; font-family:'Montserrat-ExtraLight';">а </tspan><tspan x="123.4" y="0" class="st17" style="fill:#444242; font-family:'Montserrat-ExtraLight';">к</tspan><tspan x="137" y="0" class="st17" style="fill:#444242; font-family:'Montserrat-ExtraLight';">онфиденциально</tspan><tspan x="352.4" y="0" class="st17" style="fill:#444242; font-family:'Montserrat-ExtraLight';">с</tspan><tspan x="366.3" y="0" class="st17" style="fill:#444242; font-family:'Montserrat-ExtraLight';">ти</tspan></text>
		</g>
		<g class="st10">
			<text transform="matrix(1 0 0 1 52.7845 1178.6697)" class="st11"><tspan x="0" y="0" class="st17" style="fill:#444242; font-family:'Montserrat-ExtraLight';">С</tspan><tspan x="13.5" y="0" class="st17" style="fill:#444242; font-family:'Montserrat-ExtraLight';">о</tspan><tspan x="27.7" y="0" class="st17" style="fill:#444242; font-family:'Montserrat-ExtraLight';">г</tspan><tspan x="41" y="0" class="st17" style="fill:#444242; font-family:'Montserrat-ExtraLight';">лашение</tspan></text>
		</g>
		<g class="st10">
			<text transform="matrix(1 0 0 1 552.0912 1280.6296)" class="st11"><tspan x="0" y="0" class="st17" style="fill:#444242; font-family:'Montserrat-ExtraLight';">C</tspan><tspan x="13.8" y="0" class="st17" style="fill:#444242; font-family:'Montserrat-ExtraLight';">O</tspan><tspan x="28" y="0" class="st17" style="fill:#444242; font-family:'Montserrat-ExtraLight';">P</tspan><tspan x="42" y="0" class="st17" style="fill:#444242; font-family:'Montserrat-ExtraLight';">Y</tspan><tspan x="55.7" y="0" class="st17" style="fill:#444242; font-family:'Montserrat-ExtraLight';">RIGHT </tspan><tspan x="135.3" y="0" class="st17" style="fill:#444242; font-family:'MyriadPro-Regular';">©</tspan><tspan x="157.7" y="0" class="st17" style="fill:#444242; font-family:'Montserrat-ExtraLight';">2</tspan><tspan x="171.8" y="0" class="st17" style="fill:#444242; font-family:'Montserrat-ExtraLight';">0</tspan><tspan x="186" y="0" class="st17" style="fill:#444242; font-family:'Montserrat-ExtraLight';">2</tspan><tspan x="200.1" y="0" class="st17" style="fill:#444242; font-family:'Montserrat-ExtraLight';">0 </tspan></text>
		</g>
		<g class="st10">
			<text transform="matrix(1 0 0 1 877.8881 1280.6296)" class="st11"><tspan x="0" y="0" class="st17" style="fill:#61A3BB; font-family:'Montserrat-ExtraLight';">Ш</tspan><tspan x="18.9" y="0" class="st17" style="fill:#61A3BB; font-family:'Montserrat-ExtraLight';">к</tspan><tspan x="32.6" y="0" class="st17" style="fill:#61A3BB; font-family:'Montserrat-ExtraLight';">ола </tspan><tspan x="85" y="0" class="st17" style="fill:#61A3BB; font-family:'Montserrat-ExtraLight';">т</tspan><tspan x="98.4" y="0" class="st17" style="fill:#61A3BB; font-family:'Montserrat-ExtraLight';">очных наук “ШТЕ</tspan><tspan x="310" y="0" class="st17" style="fill:#61A3BB; font-family:'Montserrat-ExtraLight';">Р</tspan><tspan x="323.9" y="0" class="st17" style="fill:#61A3BB; font-family:'Montserrat-ExtraLight';">Н”</tspan></text>
		</g>
		<g class="st10">
			<defs>
				<rect id="SVGID_19_" x="-0.3" y="0.9" width="1920" height="1294.6"/>
			</defs>
			<clipPath id="SVGID_20_" class="st11">
				<use xlink:href="#SVGID_19_"  style="overflow:visible;"/>
			</clipPath>
			<g class="st21">
				<g>
					<defs>
						<rect id="SVGID_21_" x="8.1" y="482.1" width="122.6" height="122.9"/>
					</defs>
					<clipPath id="SVGID_22_">
						<use xlink:href="#SVGID_21_"  style="overflow:visible;"/>
					</clipPath>
					<g class="st22">
						<defs>
							<rect id="SVGID_23_" x="8.1" y="482.1" width="122.6" height="122.9"/>
						</defs>
						<clipPath id="SVGID_24_">
							<use xlink:href="#SVGID_23_"  style="overflow:visible;"/>
						</clipPath>
					</g>
				</g>
			</g>
			<path class="st23" d="M69.4,568.8c-13.9,0-25.3-11.3-25.3-25.3c0-13.9,11.3-25.3,25.3-25.3s25.3,11.3,25.3,25.3
				C94.7,557.5,83.3,568.8,69.4,568.8 M69.4,520c-13,0-23.5,10.6-23.5,23.5c0,13,10.6,23.5,23.5,23.5s23.5-10.6,23.5-23.5
				C92.9,530.6,82.4,520,69.4,520"/>
			<path class="st23" d="M75.7,557.3H63.1c-4.1,0-7.5-3.4-7.5-7.5v-12.5c0-4.1,3.4-7.5,7.5-7.5h12.6c4.1,0,7.5,3.4,7.5,7.5v12.5
				C83.2,554,79.8,557.3,75.7,557.3 M63.1,531.2c-3.4,0-6.1,2.7-6.1,6.1v12.5c0,3.4,2.7,6.1,6.1,6.1h12.6c3.4,0,6.1-2.7,6.1-6.1
				v-12.5c0-3.4-2.7-6.1-6.1-6.1H63.1z"/>
			<path class="st23" d="M69.4,552.1c-4.7,0-8.5-3.8-8.5-8.5c0-4.7,3.8-8.5,8.5-8.5c4.7,0,8.5,3.8,8.5,8.5
				C78,548.3,74.1,552.1,69.4,552.1 M69.4,536.4c-3.9,0-7.1,3.2-7.1,7.1c0,3.9,3.2,7.1,7.1,7.1c3.9,0,7.1-3.2,7.1-7.1
				C76.6,539.6,73.4,536.4,69.4,536.4"/>
			<path class="st23" d="M79.2,535.4c0,0.7-0.6,1.3-1.3,1.3s-1.3-0.6-1.3-1.3c0-0.7,0.6-1.3,1.3-1.3S79.2,534.7,79.2,535.4"/>
			<path class="st23" d="M69.4,568.8c-13.9,0-25.3-11.3-25.3-25.3c0-13.9,11.3-25.3,25.3-25.3s25.3,11.3,25.3,25.3
				C94.7,557.5,83.3,568.8,69.4,568.8 M69.4,520c-13,0-23.5,10.6-23.5,23.5c0,13,10.6,23.5,23.5,23.5s23.5-10.6,23.5-23.5
				C92.9,530.6,82.4,520,69.4,520"/>
			<path class="st23" d="M75.7,557.3H63.1c-4.1,0-7.5-3.4-7.5-7.5v-12.5c0-4.1,3.4-7.5,7.5-7.5h12.6c4.1,0,7.5,3.4,7.5,7.5v12.5
				C83.2,554,79.8,557.3,75.7,557.3 M63.1,531.2c-3.4,0-6.1,2.7-6.1,6.1v12.5c0,3.4,2.7,6.1,6.1,6.1h12.6c3.4,0,6.1-2.7,6.1-6.1
				v-12.5c0-3.4-2.7-6.1-6.1-6.1H63.1z"/>
			<path class="st23" d="M69.4,552.1c-4.7,0-8.5-3.8-8.5-8.5c0-4.7,3.8-8.5,8.5-8.5c4.7,0,8.5,3.8,8.5,8.5
				C78,548.3,74.1,552.1,69.4,552.1 M69.4,536.4c-3.9,0-7.1,3.2-7.1,7.1c0,3.9,3.2,7.1,7.1,7.1c3.9,0,7.1-3.2,7.1-7.1
				C76.6,539.6,73.4,536.4,69.4,536.4"/>
			<path class="st23" d="M79.2,535.4c0,0.7-0.6,1.3-1.3,1.3s-1.3-0.6-1.3-1.3c0-0.7,0.6-1.3,1.3-1.3S79.2,534.7,79.2,535.4"/>
			<g class="st21">
				<g>
					<defs>
						<rect id="SVGID_25_" x="8.1" y="414" width="122.6" height="122.9"/>
					</defs>
					<clipPath id="SVGID_26_">
						<use xlink:href="#SVGID_25_"  style="overflow:visible;"/>
					</clipPath>
					<g class="st24">
						<defs>
							<rect id="SVGID_27_" x="8.1" y="414" width="122.6" height="122.9"/>
						</defs>
						<clipPath id="SVGID_28_">
							<use xlink:href="#SVGID_27_"  style="overflow:visible;"/>
						</clipPath>
					</g>
				</g>
			</g>
			<path class="st23" d="M69.4,500.7c-13.9,0-25.3-11.3-25.3-25.3c0-13.9,11.3-25.3,25.3-25.3s25.3,11.3,25.3,25.3
				C94.7,489.4,83.3,500.7,69.4,500.7 M69.4,451.9c-13,0-23.5,10.6-23.5,23.5c0,13,10.6,23.5,23.5,23.5s23.5-10.6,23.5-23.5
				C92.9,462.5,82.4,451.9,69.4,451.9"/>
			<path class="st23" d="M54.7,468H60c0.2,0,0.4,0.1,0.5,0.3c1.2,2.6,2.7,5,4.5,7.2c0.2,0.2,0.5,0.2,0.6,0c0.6-1.4,1.6-4.7-0.4-7
				c-0.2-0.2-0.1-0.5,0.1-0.6c2-0.8,4-1,5.9-0.1c0.4,0.2,0.7,0.6,0.7,1l0.4,6.8c0,0.3,0.3,0.5,0.6,0.5c2.2-0.5,3.5-3.8,4.8-7.3
				c0.2-0.4,0.6-0.7,1-0.7h4.9c0.4,0,0.7,0.4,0.6,0.7c-0.5,2.5-2.9,5.6-4.2,7.2c-0.4,0.5-0.5,1.3,0,1.8l4.4,5.2
				c0.3,0.4,0,0.9-0.4,0.9h-5.5c-0.5,0-0.9-0.2-1.2-0.5l-3.9-3.2c-0.2-0.2-0.6-0.3-0.8-0.1c-0.5,0.6-0.4,1.3-0.7,2.9
				c-0.1,0.5-0.5,0.9-1,0.9h-3.8c-0.5,0-1.1-0.1-1.6-0.3c-2.2-1-8.1-4.7-11.4-14.9C54.1,468.3,54.4,468,54.7,468"/>
			<path class="st23" d="M69.4,500.7c-13.9,0-25.3-11.3-25.3-25.3c0-13.9,11.3-25.3,25.3-25.3s25.3,11.3,25.3,25.3
				C94.7,489.4,83.3,500.7,69.4,500.7 M69.4,451.9c-13,0-23.5,10.6-23.5,23.5c0,13,10.6,23.5,23.5,23.5s23.5-10.6,23.5-23.5
				C92.9,462.5,82.4,451.9,69.4,451.9"/>
			<path class="st23" d="M54.7,468H60c0.2,0,0.4,0.1,0.5,0.3c1.2,2.6,2.7,5,4.5,7.2c0.2,0.2,0.5,0.2,0.6,0c0.6-1.4,1.6-4.7-0.4-7
				c-0.2-0.2-0.1-0.5,0.1-0.6c2-0.8,4-1,5.9-0.1c0.4,0.2,0.7,0.6,0.7,1l0.4,6.8c0,0.3,0.3,0.5,0.6,0.5c2.2-0.5,3.5-3.8,4.8-7.3
				c0.2-0.4,0.6-0.7,1-0.7h4.9c0.4,0,0.7,0.4,0.6,0.7c-0.5,2.5-2.9,5.6-4.2,7.2c-0.4,0.5-0.5,1.3,0,1.8l4.4,5.2
				c0.3,0.4,0,0.9-0.4,0.9h-5.5c-0.5,0-0.9-0.2-1.2-0.5l-3.9-3.2c-0.2-0.2-0.6-0.3-0.8-0.1c-0.5,0.6-0.4,1.3-0.7,2.9
				c-0.1,0.5-0.5,0.9-1,0.9h-3.8c-0.5,0-1.1-0.1-1.6-0.3c-2.2-1-8.1-4.7-11.4-14.9C54.1,468.3,54.4,468,54.7,468"/>
			<path class="st25" d="M1071.9,739.7c0.7,0.1,1.3,0.1,1.9,0.2c0.1-0.3,0.2-0.5,0.1-0.7c-7.2-14.4-14.3-28.9-21.6-43.2
				c-1.2-2.4-3.1-4.6-5-6.7c-3.9-4.3-7.9-8.5-11.8-12.8c-0.5-0.5-1.1-1.1-1.2-1.6c0-2.6-2-3.2-3.8-4.1c-3.1-1.5-6.2-3-9.3-4.6
				c-0.8-0.4-1.6-1-2.4-1.6c1.1-1.8,2.5-1.7,3.8-1.4c2.4,0.5,4.9,1,7.1,1.9c5.5,2.4,11.1,4.9,16.4,7.7c10.6,5.6,21,11.5,31.5,17.3
				c7.4,4.1,15.2,7.1,23.2,9.8c5.8,2,11.9,3.1,18.1,3.5c5.6,0.4,10.8-1.3,16-3c6-2,10.6-5.6,14.3-10.6c4.9-6.6,9.3-13.4,12.3-21.1
				c0.9-2.3,2.5-4.5,4-6.5c1.3-1.8,5.6-1.8,8,0c2,1.4,3.2,3.4,4.1,5.6c1.7,4.6,2.2,9.4,2.1,14.2c-0.1,19.5-5.6,37.5-14.7,54.6
				c-6.4,11.9-13.8,23.1-24.2,31.9c-1.9,1.6-3.8,3.1-5.8,4.6c-5.3,4.1-11.4,5.7-18,5.3c-8.8-0.6-16.9-3.3-23.5-9.5
				c-6.1-5.8-11.9-11.8-17.3-18.3c-1.6-1.9-2.7-4.1-3.9-6.3C1071.6,742.9,1071.3,741.4,1071.9,739.7"/>
			<path class="st26" d="M630.2,639.2c1.2-1.7,2.6-3.3,4.2-4.8"/>
			<path class="st26" d="M646.8,626.9C646.7,626.9,646.7,626.9,646.8,626.9c1.2-0.4,2.4-0.7,3.7-0.9"/>
			<path class="st26" d="M659.1,558.3c-1.1,3.5-1.7,7.1-2,11c-0.1,1.9-0.1,3.7,0,5.5c0-0.9-0.1-1.9,0-2.8
				C657.3,567.2,658,562.6,659.1,558.3"/>
			<path class="st26" d="M627.3,684.5c-1.9-4.2-3.3-8.7-4.1-13.5c-0.8-4.9-0.9-9.6-0.3-14.1"/>
			<path class="st26" d="M637.9,768.3c-0.2-0.2-0.3-0.5-0.5-0.7C637.6,767.9,637.7,768.1,637.9,768.3"/>
			<path class="st26" d="M640.5,771.8c-0.1-0.2-0.3-0.3-0.4-0.5C640.3,771.5,640.4,771.7,640.5,771.8"/>
			<path class="st26" d="M635.9,718.7c1.3-1,2.7-1.9,4.2-2.7"/>
			<path class="st26" d="M639.2,770.2c-0.2-0.2-0.4-0.5-0.6-0.7C638.9,769.7,639.1,769.9,639.2,770.2"/>
			<path class="st26" d="M636.5,766.3c0-0.1-0.1-0.1-0.1-0.2C636.4,766.2,636.5,766.3,636.5,766.3"/>
			<path class="st26" d="M653.6,626.5c-12.2,7.7-17.3,19.1-16.5,33c0.5,8.2,4.3,15.5,9.1,22.1c5.6,7.7,12.4,14.1,20.8,18.8
				c6.9,4,14.1,7.3,21.6,9.9c0.7,0.3,1.5,0.4,2.5,0.7c0-1,0-1.7-0.1-2.4c-1.2-7-0.2-13.8,2.6-20.4c1.5-3.6,3.7-6.7,6.7-9.1
				c7.7-6.3,16.3-10.6,26.6-10.5c0.4,0,0.8-0.1,1.5-0.2c-0.4-0.9-0.7-1.6-1-2.2c-1-2-2.3-3.9-3-6c-1.1-3.5-3.3-5.8-6.3-7.8
				c-8-5.3-15.9-10.8-23.8-16.4c-2.5-1.8-4.9-3.7-7.1-5.7c0.4,0.4,0.7,0.9,1.2,1.5c-3.8-1.4-6.9-2.8-10.1-3.7
				c-7.8-2.3-15.9-2.8-23.9-2.5c-0.2,0-0.3,0-0.5,0c0.2,0.1-1,0.3-0.7,0.5C652.8,626.3,653.9,626.3,653.6,626.5"/>
			<path class="st26" d="M643,716c-6,7.9-5.2,16.4-2.2,25.6c1.6,5,4.6,9.2,8,13.1c12.4,14.5,28,23.9,46.3,28.9c0.4,0.1,0.8,0,1.3,0
				c-12.8-16.7-9.2-35.9,5.9-48.2c-2.1-0.8-4.1-1.5-6-2.5c-9.1-4.5-18.3-8.9-27.3-13.6c-5.7-3-11.3-6-16.8-9.4
				c0.4,0.4,0.8,0.7,1.3,1.1c-2.7,1-5.3,1.9-7.8,2.8C644.4,714.4,643.2,715.7,643,716"/>
			<path class="st26" d="M733.4,804.5c0.2,0.4,0.5,0.8,0.8,1.3c2.1-1.4,3.4-3.4,4.2-6.2c-1,0.5-2.2,0.8-3.4,1
				C734.5,801.8,734,803.1,733.4,804.5"/>
			<path class="st26" d="M797.4,648.5c-1.3-5.2-2.5-10.5-4.3-15.5c-3.9-11.1-8.1-22-12.2-33c-1-2.8-3.1-4.8-6-5.4
				c-1.6-0.4-2.5-1.2-3.3-2.5c-3.2-5.4-6.4-10.8-9.8-16.1c-8.8-13.5-18.8-25.9-32.5-34.9c-8.9-5.9-18.4-10.7-29.2-12.1
				c-3.1-0.4-6.5-0.5-9.5-0.2c-0.2,0.3-0.8,0.4-0.9,0.5c-7.5,3.6-10.1,10.3-12.6,17.6c-5.1,15.2-3.8,30,3.1,44.4
				c1.6,3.2,3.2,6.4,5.2,9.4c9.1,13.3,20.2,24.8,33.5,34c0.5,0.3,0.9,0.6,1.6,1c0.3-0.8,0.7-1.5,0.9-2.2
				c4.2-15.5,16.1-25.6,32.2-27.3c8.2-0.9,16.3-0.6,24.1,2.9c3.6,1.6,6.3,4.2,8.7,7.2c0.2,0.3,0.5,0.5,0.5,0.8
				c0.1,0.9,0.6,2.2,0.1,2.8c-0.4,0.5-1.9,0.6-2.7,0.3c-2-0.7-3.9-1.7-5.7-2.8c-7.9-4.4-16.3-5.2-25.1-4
				c-20.7,2.7-29.1,21.9-25.1,37.3c2.3,8.5,6.7,15.9,12.1,22.6c4.6,5.6,9.8,10.7,14.8,16.1c2.4,2.6,4.8,5.2,7,8.1
				c-4.2-0.7-7.9-2.6-11.4-4.7c-4.9-2.8-8.8-6.8-12.7-10.9c-4.5-4.9-10.2-6.7-16.7-5.6c-6.8,1.2-12.8,4.4-17.6,9.2
				c-5.4,5.4-7,12.4-6.3,19.8c0.9,9.4,5.7,16.9,12,23.5c5.3,5.7,12.1,9.1,19.1,12.3c6.9,3.3,14.1,5.5,21.7,6.9
				c0.7,0.1,1.3,0.4,1.9,0.6c0.4,0.1,0.8,0.3,1.2,0.5l0,0.7c-1,0.1-1.9,0.2-2.9,0.2c-4.9-0.2-9.9-0.2-14.7-0.9
				c-7.7-1-15.2-3.1-21.7-7.5c-2-1.4-3.8-1.4-5.9-0.5c-2.9,1.1-5.3,2.9-7.1,5.4c-8.7,12.6-7,25.1,3.6,35
				c7.9,7.3,17.3,11.4,28.2,11.9c2.3,0.1,4.4,0.3,6.4,1.3c0.6-2.6,1.3-5.2,2.1-7.8c1.2-4,2.8-7.8,4-11.8c7-23.9,17.3-46.3,30.4-67.4
				c4-6.5,8.3-12.8,12.4-19.2c3.6-5.6,6.2-11.6,8-18C798.5,663.2,799.2,655.9,797.4,648.5"/>
			<path class="st27" d="M637.4,767.6c-0.3-0.4-0.6-0.9-0.9-1.3C636.8,766.8,637.1,767.2,637.4,767.6"/>
			<path class="st27" d="M738.4,799.5c1.5-0.7,2.8-1.7,3.5-3.4c-0.8-0.7-1.6-1.1-2.4-1.5c-0.3,1.3-0.6,2.6-0.9,3.9
				C738.6,798.9,738.5,799.2,738.4,799.5"/>
			<path class="st27" d="M638.7,769.4c-0.3-0.4-0.5-0.7-0.8-1.1C638.1,768.7,638.4,769.1,638.7,769.4"/>
			<path class="st27" d="M623,656.8c0.5-2.9,1.3-5.7,2.5-8.6c0.7-1.5,1.4-3.1,2.1-4.6c0.8-1.6,1.7-3.1,2.7-4.5"/>
			<path class="st27" d="M640.1,771.3c-0.3-0.4-0.6-0.8-0.9-1.2C639.5,770.6,639.8,770.9,640.1,771.3"/>
			<path class="st27" d="M687.2,630.4c-0.4-0.5-0.8-1-1.3-1.5c-9.1-9.3-16.2-20-22-31.6c-3.6-7.1-6.2-14.6-6.8-22.5"/>
			<path class="st27" d="M640.1,716c0.4-0.2,0.9-0.4,1.4-0.6c1.4-0.5,2.8-1.1,4.3-1.6c0.2-0.1,0.4-0.2,0.6-0.2"/>
			<path class="st27" d="M650.5,625.9c1.1-0.2,2.2-0.3,3.4-0.3"/>
			<path class="st27" d="M705,781.4c-10.7-9.9-12.4-22.4-3.6-35c1.8-2.6,4.2-4.3,7.1-5.4c2.2-0.8,3.9-0.8,5.9,0.5
				c6.5,4.4,14,6.6,21.7,7.5c4.9,0.6,9.8,0.6,14.7,0.9c1,0,1.9-0.1,2.9-0.2l0-0.7c-0.4-0.2-0.8-0.3-1.2-0.5
				c-0.6-0.2-1.3-0.5-1.9-0.6c-7.5-1.4-14.7-3.6-21.7-6.9c-6.9-3.3-13.7-6.7-19.1-12.3c-6.3-6.7-11.1-14.2-12-23.5
				c-0.7-7.4,0.9-14.4,6.3-19.8c4.9-4.8,10.8-8,17.6-9.2c6.5-1.2,12.1,0.7,16.7,5.6c3.8,4.1,7.8,8.1,12.7,10.9
				c3.5,2.1,7.2,3.9,11.4,4.7c-2.2-2.9-4.6-5.5-7-8.1c-4.9-5.3-10.2-10.4-14.8-16.1c-5.5-6.7-9.9-14.1-12.1-22.6
				c-4.1-15.4,4.4-34.6,25.1-37.3c8.8-1.1,17.2-0.4,25.1,4c1.9,1,3.8,2,5.7,2.8c0.8,0.3,2.3,0.2,2.7-0.3c0.4-0.6,0-1.8-0.1-2.8
				c0-0.3-0.3-0.6-0.5-0.8c-2.4-3-5.1-5.6-8.7-7.2c-7.7-3.5-15.8-3.8-24.1-2.9c-16.1,1.7-27.9,11.8-32.2,27.3
				c-0.2,0.7-0.5,1.4-0.9,2.2c-0.7-0.4-1.2-0.7-1.6-1c-13.3-9.3-24.4-20.7-33.5-34c-2-2.9-3.7-6.1-5.2-9.4
				c-6.9-14.4-8.2-29.2-3.1-44.4c2.5-7.3,6.2-13.2,13.1-17.7c0.2-0.1,0.5-0.3,0.8-0.5c-4.9,0.5-9.5,2.1-13.7,5.1
				c-9,6.4-15.3,14.5-18.3,24.4c-1.2,4.3-1.8,8.9-2,13.8c0,0.9,0,1.9,0,2.8c0.5,7.9,3.2,15.4,6.8,22.5c5.8,11.6,12.9,22.3,22,31.6
				c0.4,0.4,0.8,0.9,1.3,1.5c2.3,2,4.6,3.9,7.1,5.7c7.8,5.6,15.8,11.1,23.8,16.4c3,2,5.3,4.2,6.3,7.8c0.6,2.1,2,4,3,6
				c0.3,0.7,0.6,1.4,1,2.2c-0.7,0.1-1.1,0.2-1.5,0.2c-10.3-0.1-18.9,4.1-26.6,10.5c-3,2.5-5.2,5.6-6.7,9.1
				c-2.8,6.5-3.8,13.3-2.6,20.4c0.1,0.7,0.1,1.4,0.1,2.4c-1.1-0.3-1.8-0.5-2.5-0.7c-7.5-2.7-14.7-6-21.6-9.9
				c-8.3-4.8-15.1-11.2-20.8-18.8c-4.8-6.6-8.6-13.9-9.1-22.1c-0.8-13.9,4.3-25.4,16.5-33c0.3-0.2,1.6-0.8,1.9-0.9
				c-0.5,0-1.2,0-1.7,0.1c-1.1,0-2.2,0.1-3.4,0.3c-1.3,0.3-2.5,0.6-3.7,1c-4.7,1.8-8.8,4.2-12.3,7.4c-1.6,1.5-3,3.2-4.2,4.8
				c-1,1.4-1.9,2.9-2.7,4.5c-0.7,1.5-1.4,3-2.1,4.6c-1.2,2.8-2,5.7-2.5,8.6c-0.6,4.5-0.5,9.2,0.3,14.1c0.8,4.8,2.2,9.4,4.1,13.5
				c2.4,4.9,5.7,9.3,9.7,13c4.1,3.9,8.8,7.2,13.3,10.8c0.6,0.5,1.2,1,1.8,1.5c5.5,3.3,11.2,6.4,16.8,9.4c9,4.7,18.2,9.2,27.3,13.6
				c1.9,0.9,3.9,1.6,6,2.5c-15.1,12.3-18.7,31.5-5.9,48.2c-0.5,0-1,0.1-1.3,0c-18.3-5-33.9-14.4-46.3-28.9c-3.3-3.9-6.4-8.2-8-13.1
				c-3-9.1-3.8-17.6,2.2-25.6c0.2-0.3,1.4-1.5,2.7-2.1c-1.4,0.5-2.9,1.1-4.3,1.6c-0.5,0.2-0.9,0.4-1.4,0.6c-1.5,0.8-2.9,1.7-4.2,2.7
				c-1.9,1.6-3.5,3.6-4.7,6c-3.4,6.9-4.7,14.3-3.1,21.9c1.5,7.2,4.4,13.6,8.3,19.6c0,0.1,0.1,0.1,0.1,0.2c0.3,0.4,0.6,0.9,0.9,1.3
				c0.2,0.2,0.3,0.5,0.5,0.7c0.3,0.4,0.5,0.7,0.8,1.1c0.2,0.2,0.4,0.5,0.6,0.7c0.3,0.4,0.6,0.8,0.9,1.2c0.1,0.2,0.3,0.3,0.4,0.5
				c1.3,1.6,2.6,3.1,4,4.6c12.9,13.7,29.1,21.4,46.9,26.1c8.2,2.2,16.6,3.4,25,4.7c4.2,0.7,8.4,0.9,12.7,0.3c2-0.3,3.7-0.9,5.1-1.8
				c-0.3-0.4-0.6-0.9-0.8-1.3c0.6-1.4,1.1-2.6,1.7-3.9c1.2-0.2,2.3-0.5,3.4-1c0.1-0.3,0.2-0.7,0.3-1c0.3-1.3,0.6-2.6,0.9-3.9
				c-2-0.9-4.2-1.2-6.4-1.3C722.3,792.9,712.8,788.7,705,781.4"/>
			<path class="st28" d="M1019.9,655c12.9,12.2,24.2,25.4,33.2,40.6c7,11.8,14.3,23.6,19.9,36.1c2.4,5.3,4.7,10.7,7.1,15.9
				c4.9,10.8,7.3,22.3,9.4,33.9c1.2,6.8,2.6,13.6,3.4,20.5c0.9,7.4,1.5,14.9,1.7,22.4c0.4,11.2,0.7,22.4,0.3,33.6
				c-0.5,14.3-1.9,28.5-5.7,42.5c-1.4,5.2-3.2,10.2-5.7,15c-7.9,15.1-16.9,29.6-28.2,42.4c-10.3,11.7-21.7,22.1-36,28.7
				c-17.4,8.1-35.3,14.7-54.5,17.1c-9.4,1.2-18.9,2.2-28.3,3.4c-13.6,1.7-27.2,2.2-40.9,1.9c-9.5-0.2-19-0.1-28.4-1.7
				c-15.8-2.7-30.3-8.4-43.4-17.7c-21.9-15.5-39.3-34.9-52.1-58.4c-6.3-11.5-10.8-23.6-12.3-36.7c-0.5-4.6-2.2-9.1-3.2-13.7
				c-3.9-16.5-4.8-33.1-3.5-50c1.4-18.2,4-36.3,8.2-54c3.1-13,7.4-25.6,13.3-37.6c10.9-22.1,22.1-44,35.7-64.6
				c1.5-2.3,2.8-4.8,4.1-7.3c2.1-3.8,2.3-7.7,0.2-11.6c-2.2-4.3-4.4-8.6-6.8-12.7c-6.8-11.9-13.2-23.9-17.8-36.8
				c-4.8-13.4-6.2-27.2-4.8-41.3c1.1-11.2,3.3-22.2,8.4-32.3c10.4-20.6,24.3-38.1,44.9-49.5c11.2-6.2,23.1-10.1,35.9-11
				c7.2-0.5,14.1-2.6,21-4.2c10-2.3,20-3.6,30.2-3.8c10.3-0.2,20.6-0.7,30.9-0.6c13.7,0.2,27.1,2.7,40,7.5
				c13.9,5.2,25.9,13.3,34.6,25.6c5.3,7.6,9.1,15.9,11.8,24.7c3.9,13,6.8,26.2,6.9,39.9c0,2.8,0.4,5.6,0.4,8.4
				c0.2,13.8-2.4,27.1-7,40.1c-0.6,1.8-1.3,3.6-1.9,5.4c-4.5,14.4-11.8,27.3-20.8,39.3C1020.1,654.5,1020,654.7,1019.9,655"/>
			<path class="st29" d="M777.7,826.1c-0.1,1.1-0.2,1.7-0.2,2.2c-0.3,11.9-0.1,23.7,1.1,35.6c1.2,11.9,2.4,23.8,4.9,35.6
				c3.5,16.1,8.2,31.9,15.5,46.7c3.2,6.5,7.2,12.6,10.8,18.9c0.7,1.3,1.5,2.5,2,3.8c1,2.3,0.5,4.4-1.3,6.2c-1.9,1.9-4.2,2.3-6.5,1.1
				c-1.6-0.8-3.2-2.2-4.2-3.7c-2.1-2.8-3.8-5.8-5.6-8.8c-0.6-1-1.3-1.8-2.5-1.9c-2.3-0.2-3.9-1.6-5.2-3.4c-0.9-1.3-1.8-2.6-2.4-4
				c-7.7-17.3-15-34.7-19.7-53.1c-4.7-18.2-6.7-36.7-5.7-55.6c0.6-10.6,1.9-21.2,4.3-31.6c0.5-2,0.3-3.6-1.1-5.2
				c-1.3-1.4-2.6-2.9-3.3-4.6c-1.1-2.6-2.1-5.4-2.6-8.2c-0.8-4.1,2.8-7.1,6.9-6c0.6,0.2,1.2,0.4,2.1,0.7c0.1-0.8,0.1-1.4,0.1-2
				c0.4-2.9,1.8-4.4,4.5-5.1c1.3-0.3,2.5-0.7,3.7-1.2c3.7-1.5,7.5,0.7,7.9,4.7c0.1,0.7,0,1.4-0.1,2c-0.9,3.5,0.5,6.1,3,8.5
				c10.1,9.9,20.4,19.5,32.8,26.5c9.2,5.2,18.9,8.6,29.5,9.1c6.8,0.3,13.6,0.8,20.4,1.2c4.2,0.3,6.5,3.2,5.8,7.2
				c-0.1,0.5-0.3,1-0.4,1.7c0.7,0.1,1.3,0.2,1.8,0.2c14.4-0.3,28.5-2.2,42.2-6.8c7.9-2.7,15-7.1,21-12.9c2.2-2.1,3.9-4.8,5.7-7.4
				c1.9-2.7,1.7-5.7,0.4-8.6c-0.4-1-1-2-1.2-3.1c-0.6-2.7,0.3-5.2,2.3-6.5c2.1-1.4,5-1.2,7.2,0.5c0.8,0.6,1.5,1.4,2.1,2.2
				c0.5,0.7,0.9,1.5,1.6,2.5c0.5-0.6,1-0.9,1.2-1.5c6.3-11.8,12.6-23.7,19-35.5c0.7-1.3,1-2.3,0.1-3.7c-6.8-12-8.6-25.1-8-38.6
				c0.6-13.9,3.9-27.2,10-39.8c4.9-10.1,11.3-19.1,20.3-25.9c3.6-2.7,7.5-4.9,11.8-6.3c3-1,5.5-0.6,8.2,1.2c4.5,3,8.2,6.9,11.9,10.8
				c6.9,7.5,13.1,15.6,19,23.9c4.3,6.1,6.3,12.4,5.7,20.1c-1.3,15.2-5.1,29.5-12.4,42.9c-4.1,7.5-9.3,14.2-15.9,19.8
				c-4.5,3.8-9.5,6.8-15.2,8.3c-8.1,2.1-16,1.4-23.2-3.2c-0.7-0.4-1.3-0.8-2.2-1.3c-0.5,0.7-0.9,1.3-1.3,2
				c-7.8,14.5-15.5,29-23.2,43.6c-0.8,1.4-1.3,3.1-1.4,4.8c-0.3,4-1.7,7.6-3.9,10.9c-3.9,6.1-9.2,10.7-15.6,14
				c-9.8,5.1-20.2,8.3-31.1,10.2c-9,1.6-18,2.5-27.1,2c-8-0.5-16.1-1.2-24.1-2.1c-13.8-1.7-27.2-5-40.1-10.5
				c-13.2-5.7-25.6-12.8-37.2-21.3C780,827.6,779.1,827,777.7,826.1"/>
			<path class="st29" d="M852.8,493.1c10.2-4.4,20.6-5.9,31.3-5.9c10.7,0,21.2,0.6,31.6,4.6c-0.2-3.6,1.6-6.1,3.9-8.5
				c0.6-0.6,0.9-1.5,1.1-2.3c0.5-1.9,0.8-4,1.4-5.9c0.8-2.9,3.4-4.7,6-4.3c2.9,0.4,5,2.8,4.8,5.9c-0.2,3.2-0.7,6.5-1.4,9.6
				c-0.3,1.4-1.4,2.7-2.3,4c-0.9,1.3-1.9,2.5-2.7,3.5c1,1.7,1.9,3.2,2.8,4.7c1.7,2.9,0.7,5.7-0.9,8.2c-1.7,2.7-5.1,3.5-8,2.2
				c-1.3-0.6-2.6-1.3-3.7-2.2c-4.5-3.6-9.8-5.2-15.4-6c-8.5-1.1-17-1.5-25.5-0.6c-17.3,1.9-31.9,9.3-43.2,22.5
				c-9.3,10.9-15.9,23.2-18.9,37.3c-2,9.6-2.2,19.3-1.5,29.1c0.6,9.1,2.6,17.9,5,26.7c3.2,11.6,8.7,22,15.4,31.9
				c4.1,6,8.7,11.7,13.1,17.4c1.3,1.7,2.6,3.4,2.6,5.7c0.1,4.3-3.9,7.2-7.8,5.5c-2-0.9-3.8-2.4-5.2-4.1
				c-6.4-7.4-12.1-15.3-17.1-23.6c-0.9-1.5-1.7-2.7-3.6-3.2c-1.9-0.5-3.1-2.1-4-3.9c-0.6-1.3-1.2-2.7-1.6-4
				c-3.4-10.3-7-20.6-8.9-31.3c-0.8-4.4-1.2-8.9-1.7-13.3c-0.2-1.7-0.4-3.2-1.4-4.7c-1.9-2.8-1.9-6.2-1.7-9.4
				c0.5-9.1,2.8-17.9,5.4-26.6c4.1-14.2,9.3-28,15.6-41.4c1.5-3.3,3.1-6.5,7.1-7.5c0.8-0.2,1.3-1.2,2-1.8c4.7-4.2,9.3-8.4,14.1-12.4
				c1.6-1.3,3.6-2.3,5.5-3.1c4.4-1.7,7.8,0.6,7.9,5.4C852.8,491.8,852.8,492.2,852.8,493.1"/>
			<path class="st29" d="M821.6,926.3c0.1-4.8,0.7-9.4,2.2-13.9c3.3-9.4,9.8-15.3,19.5-17.5c3.6-0.8,7.1-0.5,10.7,0.4
				c3.7,0.9,5.5,3.7,4.8,6.9c-0.7,3-3.4,4.5-7.1,4c-6.2-0.9-11.1,1.3-14.1,6.3c-0.8,1.3-1.4,2.4-0.6,4c0.8,1.7,0.4,3.5-0.6,5.1
				c-2.1,3.6-2.3,7.4-1.5,11.4c1.3,6.2,3.5,12,6.4,17.6c2.4,4.7,4.6,9.5,6.7,14.3c3.5,8,7.9,15.4,14.8,20.9c4.3,3.4,9,6.2,14.6,7.3
				c4.2,0.8,7.8-0.2,10.7-3.2c1.8-1.9,3.5-3.8,5.2-5.7c1.8-1.9,3.8-3.1,6.5-2.5c3.4,0.8,5.3,3.9,4.4,7.5c-0.1,0.5-0.3,1.1-0.6,1.6
				c-6.3,9.2-14.1,16.2-26.2,14.9c-3.5-0.4-6.8-1.1-10-2.5c-9.1-4.1-17-9.8-23.5-17.5c-7.9-9.2-13.8-19.5-16.7-31.4
				c-1.7-7.1-4.4-13.9-5.2-21.2C822,930.7,821.8,928.5,821.6,926.3"/>
			<path class="st29" d="M1004.6,976.6c1.1-1,2.2-2.1,3.4-3c3.9-3,9.2-1.1,9.7,3.6c0.2,1.7-0.5,3.9-1.5,5.3
				c-3.9,5.3-9.1,8.1-15.9,7.4c-5.2-0.5-8.8-4.3-9.2-9.5c-0.3-3.7,0.6-7.1,1.8-10.5c1.9-5.7,3.9-11.4,6-17.1
				c2.5-6.8,3.4-13.8,2.5-21.1c-1-7.9-0.9-15.8,0.9-23.7c3.2-14.1,16.8-21.2,28.2-19.2c1.8,0.3,3.6,0.5,5.2,1
				c3.2,1.2,4.7,4.3,3.7,7.3c-1,2.9-3.5,3.9-7,3.5c-2.9-0.3-6.1-0.5-8.9,0.2c-4.8,1.2-7.6,4.9-8.9,9.6c-1.5,5.5-1.8,11-1.1,16.7
				c1.4,11.1,0.5,21.9-3.8,32.3c-1.8,4.3-3.2,8.8-4.7,13.3c-0.4,1.1-0.7,2.3-1,3.4C1004.3,976.4,1004.5,976.5,1004.6,976.6"/>
			<path class="st29" d="M872.8,684.7c-1.1,0.6-2.1,1.1-3.1,1.5c-13.5,6.5-25.7,14.8-36.6,25.1c-5.9,5.6-12,11.1-17,17.6
				c-0.8,1-2.1,1.9-3.3,2c-2.2,0.2-3,1.6-3.9,3.2c-0.4,0.8-0.7,1.7-1.2,2.4c-1.3,2-3.7,3-5.8,2.5c-2.4-0.6-3.9-2.1-4.4-4.5
				c-0.6-3,0.1-5.7,1.7-8.3c4.6-7.3,9.8-14.2,15.9-20.3c7.9-8,16.7-14.9,25.9-21.2c5.1-3.5,10.5-6.4,15.7-9.7c2-1.2,3.5-1.1,5.3,0.6
				C865.4,678.8,869,681.6,872.8,684.7"/>
			<path class="st29" d="M1066.8,909.3c-6,2.2-7.4,1.7-10.7-3.6c-1.8,3-3.4,5.9-5.1,8.7c-0.7,1.3-1.3,2.6-2.1,3.8
				c-2,2.7-5.3,3.6-8,2.2c-2.7-1.4-4.1-4.6-2.8-7.8c2.7-6.2,5.7-12.2,10.7-16.9c2.1-2,4.7-3.5,7.5-4.2c4.7-1.2,8.6,0.2,11.7,3.8
				c2.4,2.7,2.3,5.9,1.6,9.3c0.7-1.1,1.4-2.1,2.1-3.2c3.2-4.8,7.5-8.3,13.4-9.3c2.8-0.5,5.6-0.2,8,1.5c2.1,1.5,2.9,4.2,2.1,6.6
				c-0.8,2.3-3.4,4.3-5.8,3.6c-3.5-1-5.4,0.9-6.9,3.3c-2,3.1-3.7,6.4-5.3,9.7c-0.9,1.9-2.3,3.3-4,4.4c-2.6,1.6-5.4,1.2-7.4-0.7
				c-2-2-2.6-5.3-1.2-7.7C1065.1,911.6,1065.8,910.7,1066.8,909.3"/>
			<path class="st29" d="M875.6,922.3c0,2,0,4,0,6c0,0.8,0.1,1.6,0,2.3c-0.3,3.3-2.7,5.8-5.7,6c-2.8,0.2-5.6-2-6.3-5
				c-0.3-1.3-0.4-2.7-0.5-4c-0.4-7.2-0.7-14.3,1.1-21.4c1.9-7.3,6.1-12.9,13-16.2c4.3-2.1,8.8-2.2,13.4-0.8c1.7,0.6,3.2,1.6,4,3.3
				c0.9,2,0.8,4-0.5,5.7c-1.3,1.7-3.2,2.6-5.3,2c-2.5-0.6-4.8-0.9-7.1,0.6c-2.5,1.7-4,4.1-5,7C875.2,912.6,875.5,917.5,875.6,922.3"
				/>
			<path class="st29" d="M918.4,894c4.5,0.3,8.6,0.8,12.1,3.4c2,1.5,3.2,3.5,2.7,6.1c-0.7,4-5,5.8-8.6,3.8
				c-5.9-3.3-13.4-1.4-16.3,4.6c-1.9,4-3,8.4-4.4,12.6c-0.4,1.2-0.6,2.4-1.1,3.5c-1.4,2.8-4.1,4.1-7,3.4c-2.5-0.6-4.5-3-4.6-5.9
				c0-0.6-0.1-1.1,0.1-1.7c1.6-6.7,3.2-13.5,6.9-19.5c3.2-5.1,7.7-8.4,13.6-9.6C914,894.3,916.3,894.2,918.4,894"/>
			<path class="st30" d="M828.6,917.3c0.4-3.2,0.6-6.5,1.3-9.6c1-4.3,3.7-7.5,7.2-10.2c5.2-4,18.8-3.2,22.7,3.7
				c1.9,3.3,0.8,6.7,1.7,10.5c0.5,2.1,1.4,4.2,2.4,6.2c1.1,2.1,2.6,2.6,4.8,2.1c1.7-0.4,2.7-1.9,2.7-4.1c-0.1-2.5-0.6-4.9-0.6-7.4
				c-0.1-3.6-0.2-7.2,0.2-10.7c0.7-6.1,8.2-10,14.2-9c3.6,0.4,7.6,1.9,8.7,3.2c1.1,1.4-0.4,1.4,0.8,4.9c1.3,3.9,2.2,7.7,1.8,11.8
				c-0.2,2,0,4,0.3,6c0.4,2.6,2.4,3.4,4.3,1.6c1.2-1.2,2.2-2.8,2.8-4.5c0.9-2.4,1.3-5,2.1-7.4c2.5-7.2,13.2-9.9,20.6-8.3
				c2.7,0.6,0.4,1.6,1.8,3.8c2.9,4.5,3.8,9.5,3.9,14.7c0.1,7.1-1.2,14-2.8,20.9c-3.9,16.5-9.7,32.3-18.8,46.8
				c-5.1,8.1-11.2,15.1-20.1,19.2c-10.3,4.8-19.8,2-27-4.7c-5-4.7-9.4-10-12.8-15.9c-7-11.9-12.8-24.4-16.8-37.6
				C831.2,934.9,828.8,926.3,828.6,917.3"/>
			<path class="st30" d="M1021.1,996.3c-4.2,0.3-8.6-0.4-12.6-2.7c-4.1-2.4-6.3-5.9-6.6-10.6c-0.4-5.3,0.5-10.5,1.7-15.6
				c1-4.2,2.3-8.4,3.6-12.6c4.2-13.9,6-27.9,3.7-42.4c-0.6-3.9-0.7-7.8,0.3-11.6c1-3.8,3-6.7,6.5-8.6c4-2.2,11.8-3.1,16.5-1.7
				c5.5,1.6,5.2,4.9,5.7,10.6c0.1,1.3,0.2,2.7,0.7,3.9c0.9,2.2,3,2.6,4.5,0.7c1.1-1.3,1.8-3,2.7-4.6c1.1-2.1,1.9-4.3,3.1-6.3
				c2.5-4,9.3-4.7,13.7-3.6c3.3,0.8,4.7,2.9,5.6,6c0.8,2.6-1.1,5.3-0.5,8.1c0.2,1.2-0.2,2.9,1.5,3.3c1.6,0.4,2.9-0.6,3.6-1.9
				c1-1.6,1.7-3.4,2.5-5.1c0.9-1.8,1.5-3.7,2.6-5.4c2.9-4.8,11.9-5.5,16.4-2.1c2.6,1.9,0.7,4.1,1.6,7.2c1.8,5.9,2.7,11.9,2.4,18.2
				c-0.5,11.6-4.1,22.3-10.9,31.6c-4.4,6-9.6,11.5-15,16.7c-9.7,9.4-20.4,17.5-32.5,23.5C1035.3,994.2,1028.7,996.5,1021.1,996.3"/>
			<g class="st31">
				<g>
					<defs>
						<rect id="SVGID_29_" x="983.6" y="597.5" width="72.4" height="120.9"/>
					</defs>
					<clipPath id="SVGID_30_">
						<use xlink:href="#SVGID_29_"  style="overflow:visible;"/>
					</clipPath>
					<path class="st32" d="M1056,644.2c0.1,19.1-5.4,36.6-15.1,52.9c-4.4,7.3-8.9,14.4-17.2,17.1c-3.5,1.2-7.8,3.2-11.4,3.9
						c-3.4,0.7-8.7,0-11.2-3.4c-0.1-0.1-3.4-0.8-3.4-0.9c-8.2-4.8-7.5-13.6-9.7-22.3c-2.4-9.4-3.6-18.9-4.2-28.5
						c-0.3-5.2,0.3-10.3,2-15.2c2.9-8.3,6-16.6,8.9-25c0.5-1.5,0.9-3,1.4-4.4c0.1-0.4,0.2-0.9,0.5-1.3c4.9-9,11.8-15.7,21.9-18.6
						c9.9-2.9,20.7-0.2,27.3,9.8c6.5,9.8,10.4,20.5,10.3,32.5C1056,642,1056,643.1,1056,644.2"/>
				</g>
			</g>
			<path class="st33" d="M872.7,921.1c1.4,0,2.7-0.8,3.3-2.1c0.4-1.1,0.4-2.2,0.3-3.3c-0.3-3.7-0.6-7.4-0.7-11c-0.1-2,0.2-4,0.5-6
				c1-5.9,5.6-9.4,11.5-8.6c1.7,0.2,3.4,0.4,4.9,1c3.3,1.2,5.7,3.4,6.9,6.8c1.3,3.6,2,7.3,1.7,11.2c-0.2,2.9-0.5,5.8,0.8,8.4
				c1.7,1.5,3.2,1,4.3-0.3c1.2-1.4,2.1-3.1,2.8-4.9c0.9-2.3,1.2-4.8,2.1-7.1c2.5-7,9.2-10.6,16.3-8.9c2.2,0.5,3.7,2,5,3.7
				c3,4.1,4.1,8.9,4.4,13.9c0.4,9-1.5,17.6-3.7,26.2c-3.8,15.3-9.5,29.8-17.9,43.2c-5.1,8.1-11.1,15.1-20.1,19.1
				c-9.8,4.4-18.6,2.4-26.4-4.6c-6.4-5.9-11.5-12.8-15.6-20.5c-5-9.3-9.5-18.8-12.8-28.8c-2.9-8.8-5.6-17.8-6-27.1
				c-0.2-3.6,0-7.2,0.4-10.7c0.5-4.8,3.2-8.5,6.8-11.6c5.7-4.9,16.7-3.4,20.3,3.3c1.9,3.5,3.7,6.8,4.5,10.7c0.4,2,1.1,4,2.3,5.8
				C869.5,920.3,871.1,921.1,872.7,921.1"/>
			<path class="st33" d="M1047.8,907.8L1047.8,907.8c0.7,0,1.4-0.2,2-0.7c1.7-1.5,2.3-3.6,3.2-5.5c1-2.2,2-4.5,3.4-6.5
				c3.8-5.5,13.1-5.4,16.2,2.5c1,2.7,1.2,5.7,1.8,8.5c0.1,0.3,0.1,0.5,0.1,0.8c0.3,2.2,3.1,3.2,4.6,1.6c0.3-0.3,0.5-0.6,0.7-0.9
				c1.1-1.7,1.8-3.6,2.6-5.4c0.8-1.6,1.3-3.3,2.2-4.9c2.9-5,8.3-6,12.9-2.3c2.6,2.1,4.3,4.7,5.2,8c4.3,15.1,2.1,29.4-5.2,43.2
				c-2.7,5.1-6.4,9.5-10.2,13.7c-11.7,13-25,24-40.7,32c-7.8,4-15.9,6-24.6,5.2c-4.9-0.5-9.4-2.1-12.6-6.1c-1.4-1.8-2.2-3.8-2.5-6.1
				c-0.7-5.7,0.5-11.3,1.7-16.8c0.8-3.5,1.8-6.9,2.9-10.3c5-15,6.6-30.2,4.2-45.8c-0.4-2.8-0.2-5.8,0.1-8.6c0.6-5.4,3.8-9,8.7-11
				c3.3-1.4,6.7-2.6,10.4-1.5c5.4,1.6,8.7,5.4,9.3,11c0.2,1.5,0.2,3.1,0.9,4.6C1045.9,907.1,1046.8,907.7,1047.8,907.8"/>
			<path class="st34" d="M1017.3,599.3c1.8-0.8,3.5-1.9,5.4-2.4c7-1.9,13.5-0.4,19.4,3.7c7.7,5.3,12.7,12.6,15.4,21.4
				c5.9,19.3,5.4,38.6-0.9,57.8c-2.9,8.8-6.8,17-12.5,24.4c-6.1,7.9-13.5,13.7-23.5,15.6c-5.8,1.1-13.2-0.3-19-3.2
				c1.1-0.4,2.8-0.3,3.4-0.4c1.2,0.2,2.2,0.4,3,0.4c9,0.7,16-4.1,22.3-9.7c10.4-9.4,16.5-21.3,19.9-34.7c1.6-6.3,3.1-12.6,3.2-19.2
				c0.2-11-0.6-21.9-4.6-32.3c-2.1-5.3-5.3-9.8-9.3-13.8c-4.9-4.8-10.7-7.1-17.6-7.1c-1.5,0-3,0-4.5,0
				C1017.4,599.6,1017.4,599.5,1017.3,599.3"/>
			<path class="st35" d="M978.1,740c-1.5-0.2-2.7-0.5-3.8-0.4c-5.8,0.4-8.3-1.9-8.6-8.2c4.6-7.8,9.3-15.8,14.2-23.7
				c1.9-3,4.5-3.9,7.8-2.4c1.8,0.9,3.6,2.3,4.9,3.8c1.5,1.7,1.7,3.9,0.5,6c-4.5,7.8-9,15.7-13.6,23.5
				C979.1,739.3,978.4,739.7,978.1,740"/>
			<path class="st35" d="M920.3,845.8c-5,0-9-1.4-12.6-5.3c1.2-0.8,2.2-1.4,3.2-2c0.3-0.6,0.7-1.3,1.3-2.3c2,1.4,3.9,2.6,5.9,3.9
				c0.9,1.1,1.9,2.4,3.1,3.9C920.8,844.4,920.6,845,920.3,845.8"/>
			<path class="st36" d="M1020.4,594.1c3.9,0.3,4.7,0.6,8.3,1.1c0.3,0,5,1.4,5.3,1.5c-2.2-0.2-4.3,0.3-7.2,0.8
				c-4.9,1-3.9,1.1-6.9,2.4c-7,2.3-12.1,7.2-16.5,12.7c-8.2,10.1-12.8,21.9-15.5,34.5c-1.2,5.8-2.2,11.7-2.4,17.6
				c-0.5,12.4,1,24.6,6.4,36c2.9,6.2,7,11.4,12.8,15.2c0.7,0.5,1.5,1,2.2,1.5c0.2,0.1,3.5,1.9,3.6,2.1c-0.3,0.1-3.2-0.9-4.3-1.1
				c-4-0.9-7.7-2-11.8-2.9c-1.7-0.4-1.5-2-1.7-3.3c-0.6-3.8-3.8-6.7-7.6-6.8c-1,0-2,0.2-2.9,0.5c-2.3,0.9-2.3,1-3.7-1
				c-6.6-9.2-9.7-19.5-10.4-30.7c-1.1-17.9,2.3-35,9.8-51.2c2.8-6,6.6-11.4,11-16.4C995.1,599.7,1006.7,592.9,1020.4,594.1"/>
			<path class="st36" d="M967,730.3c5.7,0.6,9.8,3.9,12.9,8.6c0.8,1.2,0.7,2.3,0,3.5c-1.1,1.9-2.2,3.9-3.3,5.8
				c-6.6,11.4-13.2,22.9-19.8,34.3c-0.7,1.1-1.5,2.2-2.5,3.1c-0.5,0.5-1.7,0.8-2.1,0.6c-1.8-1.4-3.6-0.5-5.4-0.3
				c-3,0.4-5.8,0.1-8.5-1.1c-3.5-1.5-4.1-4.4-2.2-7.6c7.5-12.6,14.9-25.2,22.3-37.9c1.2-2,2.4-4,3.5-6.1
				C962.8,730.9,964.5,730,967,730.3"/>
			<path class="st36" d="M920.4,845.5c-0.4-0.3-0.8-0.6-1.1-0.9c-0.7-0.8-1.3-1.8-2.1-2.6c-1-1-2-1.9-3.1-2.8c1.2-0.3,2.5-0.7,3.7-1
				c0.6-0.2,1.3-0.3,1.9-0.5c1.9-0.5,4-0.5,5.1-2.6c0.1-0.2,0.9-0.3,1.1-0.2c0.2,0.2,0.4,0.9,0.3,1.1c-1.6,2.8-3.2,5.6-4.8,8.4
				C921.3,844.9,920.9,845.1,920.4,845.5"/>
			<path class="st25" d="M726.7,843.2c0.6-9.2,1.1-18.3,1.7-27.5c1.3-19.9,6.7-39,12.8-57.9c5.5-17.1,13.2-33.3,22.2-48.8
				c5.1-8.7,10.6-17.1,16-25.6c5.3-8.3,9.4-17,11.2-26.8c0.6-3.2,0.7-6.2-0.4-9.2c-2.7-7.5-5.4-14.9-8.4-22.3
				c-7.9-19.4-11.1-39.5-10.4-60.4c0.3-8.9,1-17.7,3-26.3c3.6-16.3,11.2-30.9,21.2-44.2c5.3-7.1,10.9-13.9,18.1-19.3
				c5.9-4.4,12.3-8.1,19-11.3c16.3-7.5,33.4-12.2,50.8-15.7c7.8-1.6,15.7-2.3,23.6-3.2c4.1-0.5,8.3-0.5,12.4-0.8
				c16.3-1.1,32.1,1.7,47.7,5.8c17.9,4.7,33.9,13.3,48.3,24.9c6.7,5.4,12.2,11.9,16.2,19.5c3,5.6,6.7,12.4,8.5,18.6
				c2.4,6.8,6.8,25.5,6.8,25.9c-0.3-0.3-4.9-19.8-7.6-24.8c-2.5-4.5-5.7-8.4-8.5-11.2c-9.7-9.9-21.5-15.8-34.9-18.9
				c-13.8-3.2-27.1-1.5-40,4c-5.6,2.3-10.2,6-14.2,10.5c-4.7,5.3-8.8,11-12.3,17.2c-1.3,2.3-1.4,2.3-3.2,0.5
				c-5.4-5.6-11.2-10.7-17.8-14.8c-7.3-4.5-14.9-8-23.5-9.4c-9.2-1.5-18.1-0.2-26.7,2.9c-6.2,2.3-12.3,5-18,8.2
				c-13,7.3-22.5,18.2-30.1,30.9c-5.5,9.3-9,19.3-9.9,30c-0.7,8.3,0.2,16.5,1.4,24.8c3,19.7,11.8,36.6,24.3,52
				c11.4,14,24.4,26.2,38.4,37.4c1.2,1,2.3,2.1,3.4,3.2c-1.4,0.6-2.8,1.2-4.2,1.7c-14.9,5-28.8,11.7-40.4,22.6
				c-3.8,3.6-7.6,7.3-11.3,11c-2.3,2.4-2.2,2.4,0.2,4.7c7.2,6.9,15.5,12.5,23.7,18.1c15.9,11,33.4,18.7,51.7,24.5
				c13.1,4.2,26.4,7.8,39.6,11.7c2.6,0.8,2.6,0.7,3.4-1.9c1.5-5.3,4.8-8.7,10.4-9.8c0.5-0.1,1.1-0.3,1.6-0.3c1.5,0.1,2,1,1.3,2.3
				c-0.9,1.6-1.9,3-2.8,4.6c-1.2,1.9-2.3,3.9-3.4,5.8c-0.6,1-0.4,1.7,0.8,1.9c5.4,1,10.8,2.1,16.2,3c0.6,0.1,1.4-0.8,2-1.3
				c0.6-0.5,1.1-1,1.6-1.5c0.4,0.6,1.1,1.1,1.3,1.8c1.8,5.6,2.9,11.3,2.4,17.2c-1.2,13.6-8,23.9-18.9,31.8
				c-8.5,6.2-18.1,9.2-28.1,11.3c-12.5,2.7-25.2,4.2-38,3.5c-13.9-0.8-27.7-2.3-41.1-6c-2.7-0.7-5.4-1.6-7.9-2.8
				c-20.6-9-38.7-21.1-51.9-39.7c-0.6-0.9-1.3-1.8-2.1-2.7c-0.6-0.6-1.3-1.2-1.9-1.7c-0.3,0.8-0.8,1.5-1,2.3
				c-0.8,4.1-1.8,8.1-2.3,12.2c-1.1,9.2-1.9,18.5-2.9,27.7c-0.9,8.8-1.2,17.7,0.2,26.5c1.3,8.3,3.1,16.5,4.9,24.7
				c5.2,23.2,14.8,44.5,28.2,64.2c5.1,7.4,11,14.2,17.4,20.4c5.9,5.8,12.1,11.3,18.5,16.6c9.8,8,20.8,15.4,32.6,19.8
				c2.7,1.1,4.2,2,7,2.6c0.3,0.1,1.5,0.4,2.5,0.6c0.8,0.1,2.4,0.3,2,0.3c-6.9,0-13.2-1.2-18.3-2.6c-13.9-3.2-36.3-9.6-52.3-19.4
				c-13.1-8-24.5-18.1-35.1-29.1c-12.8-13.3-23.5-28.2-32.1-44.5c-5.7-10.8-8.7-22.5-11-34.4C728,867,727.1,855.2,726.7,843.2"/>
			<path class="st37" d="M841.7,565.9c0.1-11.7,2.1-19.6,6.5-26.9c11.8-19.3,35.7-23.5,53.3-9.4c10.9,8.8,16.4,20.5,17.5,34.2
				c0.9,11.9-2,22.9-9.7,32.3c-7.4,9-17.1,13.6-28.8,13c-8.3-0.4-15.7-3.6-22-9C847,590.4,841.9,577.6,841.7,565.9"/>
			<path class="st37" d="M1016,552.9c0,8.4-2,16.2-6.6,23.2c-11.7,18.1-34.6,20.9-50.4,6.2c-15.9-14.9-17.6-42-3.4-58.6
				c7-8.1,15.9-12.3,26.7-11.6c9.9,0.7,17.9,5.4,24.1,13.1C1012.9,533.3,1015.9,542.6,1016,552.9"/>
			<path class="st37" d="M935.5,651.1c-4.1-0.9-3.1-0.8-7.2-1.9c-6.7-1.8-11.2-6.3-14.3-12.3c-1.4-2.7-2.7-5.4-3.8-8.2
				c-0.4-1.1-0.4-2.7,0-3.9c2.7-8.6,7.2-16.2,13.6-22.5c8.2-7.9,18.1-10.1,28.9-6.8c9.7,2.9,17.3,9.2,24.3,16.3
				c1.1,1.1,1.5,2.3,0.4,3.8c-0.6,0.8-0.8,2-0.8,3.1c-0.1,16.4-12.7,30.4-29,32.2c-1.7,0.2-3.5,0.3-5.2,0.4c-1.2,0.1-2.5,0.1-3.7,0
				C937.2,651.3,935.8,651.2,935.5,651.1"/>
			<path class="st38" d="M891.4,535.1c10.8,0.3,18.8,5.4,23.8,14.8c4.7,8.8,5.3,18.1,3,27.7c-2.6,10.9-8.2,19.8-17.3,26.3
				c-6.7,4.8-14.2,7.1-22.5,5.7c-10-1.7-16.8-7.6-20.8-16.7c-5.1-11.7-4-23.4,1.3-34.8c4.2-9.1,10.8-16.1,20.1-20.4
				C883,536,887.1,535.1,891.4,535.1"/>
			<path class="st38" d="M1016.7,555.1c-0.7,12.9-6,24-17.3,31.9c-6.4,4.5-13.7,6.2-21.4,4.4c-9.3-2.2-15-8.5-18-17.3
				c-5.7-16.8,2.6-37.5,18.2-45.9c11.2-6,23.8-3.9,31.4,5.1c3.9,4.7,6,10.2,6.7,16.2C1016.5,551.1,1016.5,552.8,1016.7,555.1"/>
			<path class="st39" d="M976.5,618.8c0-1,0.3-2.3,0.8-3.1c0.2-0.3,0.4-0.7,0.5-1c-0.9,1.4-2,2.9-2.8,3.4c-0.6,0.5-1.2,1-1.8,1.5
				c-5.3,4.8-9.8,7.9-15.6,11.8c-3.1,2.1-8.6,4.3-12.4,4.3c-4.7-0.1-9.2-0.7-13.8-1.5c-5.5-0.9-10.8-2.5-16.1-4.4
				c-1.3-0.5-2.5-0.9-3.8-1.2c-0.2-0.1-0.8-0.3-1.6-0.5c0,0.2,0.1,0.4,0.1,0.5c1.1,2.8,2.4,5.5,3.8,8.2c1.5,2.9,3.3,5.4,5.5,7.5
				c3.7-1.6,8.9-3.3,12-3.8c8.5-1.3,16.1,0,21.5,7.4c0.3,0.4,0.7,1,1.2,1.5C967.1,645.1,976.4,632.9,976.5,618.8"/>
			<path class="st40" d="M872.6,555.7c-3.3-0.1-6.4-1-8.9-3.2c-4.1-3.7-4.1-9.2-0.1-12.9c4.9-4.5,13.8-4.6,18.8-0.3
				c4.2,3.6,4.3,9.5,0.1,13.1C879.7,554.9,876.3,555.8,872.6,555.7"/>
			<path class="st40" d="M975.1,544.8c-2.9-0.2-5.6-0.7-7.9-2.4c-4.4-3-4.6-8.2-0.4-11.5c4.5-3.6,12.5-3.4,16.8,0.3
				c3.6,3.1,3.6,7.6-0.1,10.7C981,543.9,978.1,544.6,975.1,544.8"/>
			<path class="st40" d="M861.2,575c-4.7,0-8.4-3-8.6-6.8c-0.1-3.5,3.5-6.9,7.8-7.4c2.5-0.3,4.9,0,7,1.5c3.6,2.6,4,7,0.7,10.1
				C866.5,574.1,863.9,575,861.2,575"/>
			<path class="st40" d="M961.6,564.1c-0.2,0-0.5,0-0.8-0.1c-3.8-0.4-6.5-2.5-6.9-5.3c-0.4-3,1.7-5.8,5.3-7.2
				c2.8-1.1,5.7-1.1,8.4,0.4c3.6,1.9,4.3,5.9,1.6,8.9C967.5,562.7,964.5,564,961.6,564.1"/>
			<path class="st41" d="M1142.1,708.1c-1.8,0-3.6,0-5.3,0c-3.6,0.1-6.9-1.1-9.8-3.1c-4.6-3.1-7.7-7.4-10-12.2
				c-3.8-8-5.2-16.6-4.8-25.4c0.3-7,1.8-13.7,4.8-20.1c2.6-5.5,6.1-10.3,11.5-13.4c2.7-1.6,5.5-2.4,8.6-2.4c3.9,0,7.8,0,11.7-0.1
				c1.6,0,2.7,0.6,3.5,1.9c3.9,5.7,6.6,11.9,7.9,18.7c1,5.2,1.7,10.4,2.1,15.6c0.4,6.3-0.5,12.5-2.1,18.6
				c-1.9,7.2-5.1,13.7-8.6,20.2c-0.7,1.2-1.6,1.8-3,1.8C1146.4,708.2,1144.2,708.2,1142.1,708.1L1142.1,708.1z"/>
			<path class="st42" d="M1174.5,668.9c-0.2,8.9-1.7,17.1-5.7,24.7c-2.1,4-4.7,7.5-8.3,10.3c-2.6,2-5.5,3.4-8.8,4
				c-4.4,0.7-8.5-0.4-12.2-2.7c-3.4-2.2-6.1-5.1-8.2-8.5c-3-4.8-4.9-10.1-6-15.7c-2-10.5-1.3-20.8,2.5-30.8
				c2.2-5.8,5.4-10.9,10.3-14.9c2.9-2.3,6.2-3.8,9.8-4.2c3.8-0.4,7.3,0.6,10.5,2.5c4.6,2.7,7.8,6.7,10.3,11.3
				c3.3,6.2,4.9,12.8,5.5,19.7C1174.3,666.2,1174.4,667.7,1174.5,668.9"/>
			<path class="st41" d="M1128.9,670.8c0-8,1.3-15.1,4.4-21.8c1.7-3.7,4-7.1,7.3-9.8c5.9-4.9,12.9-4.9,18.8,0c1,0.8,1.9,1.8,2.8,2.7
				c2.6,3,4.5,6.4,5.7,10.2c4.3,12.8,4.1,25.6-1.2,38.1c-1.7,4-4.1,7.6-7.5,10.4c-3.6,2.9-7.7,4.4-12.4,3.3
				c-3.1-0.7-5.7-2.4-7.9-4.6c-2.8-2.8-4.8-6.1-6.3-9.8C1130,683.4,1128.9,677,1128.9,670.8 M1130.3,669.4c0,7.9,1.2,14.9,4.3,21.4
				c1.6,3.3,3.6,6.3,6.4,8.7c2.7,2.3,5.8,3.7,9.4,3.5c3.5-0.2,6.4-1.8,8.9-4.2c3.3-3.1,5.5-7,7-11.2c3.3-8.8,3.9-17.9,2.3-27.1
				c-0.8-4.5-2.1-8.8-4.3-12.9c-1.7-3.2-3.9-6-6.8-8.1c-2.8-2-5.9-2.9-9.4-2.4c-3,0.5-5.4,1.9-7.6,4c-3,2.8-5,6.1-6.6,9.8
				C1131.4,657.1,1130.3,663.5,1130.3,669.4"/>
			<g class="st43">
				<g>
					<defs>
						<rect id="SVGID_31_" x="735.5" y="975.8" width="411.8" height="139.2"/>
					</defs>
					<clipPath id="SVGID_32_">
						<use xlink:href="#SVGID_31_"  style="overflow:visible;"/>
					</clipPath>
					<g class="st44">
						<defs>
							<rect id="SVGID_33_" x="735.5" y="975.8" width="411.8" height="139.2"/>
						</defs>
						<clipPath id="SVGID_34_">
							<use xlink:href="#SVGID_33_"  style="overflow:visible;"/>
						</clipPath>
					</g>
				</g>
			</g>
		</g>
		<g class="st10">
			<text transform="matrix(1 0 0 1 587.2635 179.4948)" class="st11"><tspan x="0" y="0" class="st13 st16 st45">Ошиб</tspan><tspan x="132.7" y="0" class="st13 st16 st45">к</tspan><tspan x="162.7" y="0" class="st13 st16 st45">а оплаты =С</tspan></text>
		</g>
		<g class="st10">
			<text transform="matrix(1 0 0 1 702.1527 229.4948)" class="st11"><tspan x="0" y="0" class="st13 st46 st47">Р</tspan><tspan x="16.4" y="0" class="st13 st46 st47">аспро</tspan><tspan x="101.4" y="0" class="st13 st46 st47">с</tspan><tspan x="118" y="0" class="st13 st46 st47">т</tspan><tspan x="135" y="0" class="st13 st46 st47">р</tspan><tspan x="151.9" y="0" class="st13 st46 st47">аненные про</tspan><tspan x="340" y="0" class="st13 st46 st47">б</tspan><tspan x="357" y="0" class="st13 st46 st47">лемы</tspan></text>
		</g>
		<g class="st10">
			<text transform="matrix(1 0 0 1 895.7928 368.0949)" class="st11"><tspan x="0" y="0" class="st13 st48 st47">Н</tspan><tspan x="17.3" y="0" class="st13 st48 st47">а</tspan><tspan x="33.9" y="0" class="st13 st48 st47">зад</tspan></text>
		</g>
		<g class="st10">
			<defs>
				<rect id="SVGID_35_" x="-0.3" y="0.9" width="1920" height="1294.6"/>
			</defs>
			<clipPath id="SVGID_36_" class="st11">
				<use xlink:href="#SVGID_35_"  style="overflow:visible;"/>
			</clipPath>
			<rect x="758.8" y="308.5" class="st49" width="421.7" height="94.6"/>
		</g>
	</g>
</g>
</svg>
