<?xml version="1.0" encoding="utf-8"?>
<!-- Generator: Adobe Illustrator 23.1.0, SVG Export Plug-In . SVG Version: 6.00 Build 0)  -->
<svg version="1.1" id="Слой_1" xmlns="http://www.w3.org/2000/svg" xmlns:xlink="http://www.w3.org/1999/xlink" x="0px" y="0px"
	 viewBox="0 0 464 464" style="enable-background:new 0 0 464 464;" xml:space="preserve">
<style type="text/css">
	.st0{clip-path:url(#SVGID_2_);}
	.st1{clip-path:url(#SVGID_4_);}
	.st2{fill:#E07061;}
	.st3{fill:#61A3BB;}
</style>
<g>
	<defs>
		<rect id="SVGID_1_" y="4" width="465" height="460"/>
	</defs>
	<clipPath id="SVGID_2_">
		<use xlink:href="#SVGID_1_"  style="overflow:visible;"/>
	</clipPath>
	<g class="st0">
		<defs>
			
				<rect id="SVGID_3_" x="-886.1" y="-887.2" transform="matrix(-1.836970e-16 1 -1 -1.836970e-16 -422.5517 269.7337)" width="1080" height="1621.6"/>
		</defs>
		<clipPath id="SVGID_4_">
			<use xlink:href="#SVGID_3_"  style="overflow:visible;"/>
		</clipPath>
		<g class="st1">
			
				<rect x="536" y="190.5" transform="matrix(0.7071 0.7071 -0.7071 0.7071 546.5608 -229.491)" class="st2" width="28.5" height="708.9"/>
			
				<rect x="492.4" y="146.9" transform="matrix(0.7071 0.7071 -0.7071 0.7071 502.8853 -211.4001)" class="st2" width="28.5" height="708.9"/>
			
				<rect x="448.7" y="103.2" transform="matrix(0.7071 0.7071 -0.7071 0.7071 459.2122 -193.3091)" class="st3" width="28.5" height="708.9"/>
			
				<rect x="405" y="59.5" transform="matrix(0.7071 0.7071 -0.7071 0.7071 415.535 -175.2183)" class="st3" width="28.5" height="708.9"/>
			
				<rect x="361.3" y="15.8" transform="matrix(0.7071 0.7071 -0.7071 0.7071 371.8592 -157.1273)" class="st3" width="28.5" height="708.9"/>
			
				<rect x="317.7" y="-27.8" transform="matrix(0.7071 0.7071 -0.7071 0.7071 328.1838 -139.0363)" class="st3" width="28.5" height="708.9"/>
			
				<rect x="274" y="-71.5" transform="matrix(0.7071 0.7071 -0.7071 0.7071 284.5084 -120.9454)" class="st3" width="28.5" height="708.9"/>
			
				<rect x="230.3" y="-115.2" transform="matrix(0.7071 0.7071 -0.7071 0.7071 240.833 -102.8545)" class="st3" width="28.5" height="708.9"/>
		</g>
	</g>
</g>
</svg>
