<svg xmlns="http://www.w3.org/2000/svg" viewBox="0 0 431.03 139.7"><defs><style>.cls-1{fill:#fff;}</style></defs><title>bg-layer-6</title><g id="Слой_2" data-name="Слой 2"><g id="Слой_1-2" data-name="Слой 1"><path class="cls-1" d="M15.35,7.68A7.68,7.68,0,1,1,7.68,0,7.66,7.66,0,0,1,15.35,7.68Z"/><path class="cls-1" d="M61.54,7.68A7.68,7.68,0,1,1,53.86,0,7.67,7.67,0,0,1,61.54,7.68Z"/><path class="cls-1" d="M107.72,7.68A7.68,7.68,0,1,1,100.05,0,7.66,7.66,0,0,1,107.72,7.68Z"/><path class="cls-1" d="M153.91,7.68A7.68,7.68,0,1,1,146.23,0,7.67,7.67,0,0,1,153.91,7.68Z"/><path class="cls-1" d="M200.1,7.68A7.68,7.68,0,1,1,192.42,0,7.67,7.67,0,0,1,200.1,7.68Z"/><path class="cls-1" d="M246.28,7.68A7.68,7.68,0,1,1,238.61,0,7.66,7.66,0,0,1,246.28,7.68Z"/><path class="cls-1" d="M292.47,7.68A7.68,7.68,0,1,1,284.79,0,7.67,7.67,0,0,1,292.47,7.68Z"/><path class="cls-1" d="M338.65,7.68A7.68,7.68,0,1,1,331,0,7.66,7.66,0,0,1,338.65,7.68Z"/><path class="cls-1" d="M384.84,7.68A7.68,7.68,0,1,1,377.16,0,7.67,7.67,0,0,1,384.84,7.68Z"/><path class="cls-1" d="M431,7.68A7.68,7.68,0,1,1,423.35,0,7.67,7.67,0,0,1,431,7.68Z"/><path class="cls-1" d="M15.35,49.12a7.68,7.68,0,1,1-7.67-7.67A7.67,7.67,0,0,1,15.35,49.12Z"/><path class="cls-1" d="M61.54,49.12a7.68,7.68,0,1,1-7.68-7.67A7.68,7.68,0,0,1,61.54,49.12Z"/><path class="cls-1" d="M107.72,49.12a7.68,7.68,0,1,1-7.67-7.67A7.67,7.67,0,0,1,107.72,49.12Z"/><path class="cls-1" d="M153.91,49.12a7.68,7.68,0,1,1-7.68-7.67A7.68,7.68,0,0,1,153.91,49.12Z"/><path class="cls-1" d="M200.1,49.12a7.68,7.68,0,1,1-7.68-7.67A7.68,7.68,0,0,1,200.1,49.12Z"/><path class="cls-1" d="M246.28,49.12a7.68,7.68,0,1,1-7.67-7.67A7.67,7.67,0,0,1,246.28,49.12Z"/><path class="cls-1" d="M292.47,49.12a7.68,7.68,0,1,1-7.68-7.67A7.68,7.68,0,0,1,292.47,49.12Z"/><path class="cls-1" d="M338.65,49.12A7.68,7.68,0,1,1,331,41.45,7.67,7.67,0,0,1,338.65,49.12Z"/><path class="cls-1" d="M384.84,49.12a7.68,7.68,0,1,1-7.68-7.67A7.68,7.68,0,0,1,384.84,49.12Z"/><path class="cls-1" d="M431,49.12a7.68,7.68,0,1,1-7.68-7.67A7.68,7.68,0,0,1,431,49.12Z"/><path class="cls-1" d="M15.35,90.57a7.68,7.68,0,1,1-7.67-7.68A7.67,7.67,0,0,1,15.35,90.57Z"/><path class="cls-1" d="M61.54,90.57a7.68,7.68,0,1,1-7.68-7.68A7.68,7.68,0,0,1,61.54,90.57Z"/><path class="cls-1" d="M107.72,90.57a7.68,7.68,0,1,1-7.67-7.68A7.67,7.67,0,0,1,107.72,90.57Z"/><path class="cls-1" d="M153.91,90.57a7.68,7.68,0,1,1-7.68-7.68A7.68,7.68,0,0,1,153.91,90.57Z"/><path class="cls-1" d="M200.1,90.57a7.68,7.68,0,1,1-7.68-7.68A7.68,7.68,0,0,1,200.1,90.57Z"/><path class="cls-1" d="M246.28,90.57a7.68,7.68,0,1,1-7.67-7.68A7.67,7.67,0,0,1,246.28,90.57Z"/><path class="cls-1" d="M292.47,90.57a7.68,7.68,0,1,1-7.68-7.68A7.68,7.68,0,0,1,292.47,90.57Z"/><path class="cls-1" d="M338.65,90.57A7.68,7.68,0,1,1,331,82.89,7.67,7.67,0,0,1,338.65,90.57Z"/><path class="cls-1" d="M384.84,90.57a7.68,7.68,0,1,1-7.68-7.68A7.68,7.68,0,0,1,384.84,90.57Z"/><path class="cls-1" d="M431,90.57a7.68,7.68,0,1,1-7.68-7.68A7.68,7.68,0,0,1,431,90.57Z"/><path class="cls-1" d="M15.35,132a7.68,7.68,0,1,1-7.67-7.68A7.67,7.67,0,0,1,15.35,132Z"/><path class="cls-1" d="M61.54,132a7.68,7.68,0,1,1-7.68-7.68A7.68,7.68,0,0,1,61.54,132Z"/><path class="cls-1" d="M107.72,132a7.68,7.68,0,1,1-7.67-7.68A7.67,7.67,0,0,1,107.72,132Z"/><path class="cls-1" d="M153.91,132a7.68,7.68,0,1,1-7.68-7.68A7.68,7.68,0,0,1,153.91,132Z"/><path class="cls-1" d="M200.1,132a7.68,7.68,0,1,1-7.68-7.68A7.68,7.68,0,0,1,200.1,132Z"/><path class="cls-1" d="M246.28,132a7.68,7.68,0,1,1-7.67-7.68A7.67,7.67,0,0,1,246.28,132Z"/><path class="cls-1" d="M292.47,132a7.68,7.68,0,1,1-7.68-7.68A7.68,7.68,0,0,1,292.47,132Z"/><path class="cls-1" d="M338.65,132a7.68,7.68,0,1,1-7.67-7.68A7.67,7.67,0,0,1,338.65,132Z"/><path class="cls-1" d="M384.84,132a7.68,7.68,0,1,1-7.68-7.68A7.68,7.68,0,0,1,384.84,132Z"/><path class="cls-1" d="M431,132a7.68,7.68,0,1,1-7.68-7.68A7.68,7.68,0,0,1,431,132Z"/></g></g></svg>