<svg xmlns="http://www.w3.org/2000/svg" viewBox="0 0 131.85 131.85"><defs><style>.cls-1{fill:#b75253;}</style></defs><title>bg-layer-5</title><g id="Слой_2" data-name="Слой 2"><g id="Слой_1-2" data-name="Слой 1"><path class="cls-1" d="M131.85,65.92a66.07,66.07,0,0,0-1.46-13.8L79.73,1.46A66.24,66.24,0,0,0,56,.75L131.1,75.89A66.85,66.85,0,0,0,131.85,65.92Z"/><path class="cls-1" d="M24.34,14.78l92.73,92.73a65.66,65.66,0,0,0,8.83-14.23L38.57,6A65.66,65.66,0,0,0,24.34,14.78Z"/><path class="cls-1" d="M4.9,41l86,86a66,66,0,0,0,14.71-8.35L13.25,26.28A66.15,66.15,0,0,0,4.9,41Z"/><path class="cls-1" d="M65.92,131.85a68,68,0,0,0,6.89-.36L.36,59A65.2,65.2,0,0,0,0,65.92,66.08,66.08,0,0,0,2.63,84.37l44.85,44.84A65.65,65.65,0,0,0,65.92,131.85Z"/></g></g></svg>