<?xml version="1.0" encoding="utf-8"?>
<!-- Generator: Adobe Illustrator 22.1.0, SVG Export Plug-In . SVG Version: 6.00 Build 0)  -->
<svg version="1.1" xmlns="http://www.w3.org/2000/svg" xmlns:xlink="http://www.w3.org/1999/xlink" x="0px" y="0px"
	 viewBox="0 0 396.8 425.2" enable-background="new 0 0 396.8 425.2" xml:space="preserve">
<g id="Слой_2">
</g>
<g id="Слой_1">
	<g>
		<g>
			<g>
				
					<rect x="88.1" y="-5.4" transform="matrix(0.7071 -0.7071 0.7071 0.7071 7.5585 71.2212)" fill="#653DD7" width="3.3" height="63.7"/>
				<path fill="#F0C63D" d="M69,1c1.3,1.3,1.3,3.4,0,4.7c-1.3,1.3-3.4,1.3-4.7,0c-1.3-1.3-1.3-3.4,0-4.7C65.5-0.3,67.7-0.3,69,1z"/>
			</g>
			
				<linearGradient id="SVGID_1_" gradientUnits="userSpaceOnUse" x1="97.0457" y1="305.5656" x2="97.0457" y2="383.9716" gradientTransform="matrix(0.7071 -0.7071 0.7071 0.7071 -243.4328 -82.4193)">
				<stop  offset="0" style="stop-color:#F3F6FF"/>
				<stop  offset="1" style="stop-color:#CED7FD"/>
			</linearGradient>
			<path fill="url(#SVGID_1_)" d="M129.1,58.4l-94.4,94.4c-4.3,4.3-11.3,4.3-15.6,0L3.2,137c-4.3-4.3-4.3-11.3,0-15.6L97.6,27
				c4.3-4.3,11.3-4.3,15.6,0l15.8,15.8C133.4,47.1,133.4,54.1,129.1,58.4z"/>
			
				<linearGradient id="SVGID_2_" gradientUnits="userSpaceOnUse" x1="19.2528" y1="349.1739" x2="174.8386" y2="349.1739" gradientTransform="matrix(0.7071 -0.7071 0.7071 0.7071 -243.4328 -82.4193)">
				<stop  offset="0" style="stop-color:#F3F6FF"/>
				<stop  offset="1" style="stop-color:#CED7FD"/>
			</linearGradient>
			<path fill="url(#SVGID_2_)" d="M120,46.8l-18.2,18.2c-1.6,1.6-4.6,3-6.8,3.5c-13.6,2.7-25.3,10.6-32.3,17.3l0,0c0,0,0,0,0,0
				c0,0,0,0,0,0l0,0c-6.7,7-14.6,18.7-17.3,32.3c-0.4,2.2-1.9,5.2-3.5,6.8l-18.8,18.8c-3.6,3.6-9.5,3.6-13.1,0l9.1,9.1
				c4.3,4.3,11.3,4.3,15.6,0l11.7-11.7l71.5-71.5l11.2-11.2c4.3-4.3,4.3-11.3,0-15.6l-9.1-9.1C123.6,37.4,123.6,43.2,120,46.8z"/>
			<path fill="#653DD7" d="M62,140.6l-18.8,18.8l-11.9-11.9c-1.8-1.8-1.8-4.7,0-6.6l12.2-12.2c1.8-1.8,4.7-1.8,6.6,0L62,140.6z"/>
			<path fill="#5436C9" d="M65.3,143.8l-18.8,18.8l-11.9-11.9c-1.8-1.8-1.8-4.7,0-6.6l12.2-12.2c1.8-1.8,4.7-1.8,6.6,0L65.3,143.8z"
				/>
			<path fill="#653DD7" d="M65.4,212.7l6.8-6.8l-31.8-31.8l-6.8,6.8c-1.8,1.8-1.8,4.7,0,6.6l25.2,25.2
				C60.6,214.5,63.5,214.5,65.4,212.7z"/>
			<path fill="#653DD7" d="M189,89.1l-6.8,6.8l-31.8-31.8l6.8-6.8c1.8-1.8,4.7-1.8,6.6,0L189,82.6C190.8,84.4,190.8,87.3,189,89.1z"
				/>
			<path fill="#653DD7" d="M101.3,248.6l6.8-6.8l-31.8-31.8l-6.8,6.8c-1.8,1.8-1.8,4.7,0,6.6l25.2,25.2
				C96.5,250.4,99.4,250.4,101.3,248.6z"/>
			<path fill="#5436C9" d="M69.2,208.9l2.9-2.9l-31.8-31.8l-2.9,2.9c-1.8,1.8-1.8,4.7,0,6.6l25.2,25.2
				C64.5,210.7,67.4,210.7,69.2,208.9z"/>
			<path fill="#5436C9" d="M185.1,93l-2.9,2.9l-31.8-31.8l2.9-2.9c1.8-1.8,4.7-1.8,6.6,0l25.2,25.2C186.9,88.2,186.9,91.2,185.1,93z
				"/>
			<path fill="#5436C9" d="M105.1,244.8l2.9-2.9l-31.8-31.8l-2.9,2.9c-1.8,1.8-1.8,4.7,0,6.6l25.2,25.2
				C100.4,246.6,103.3,246.6,105.1,244.8z"/>
			
				<linearGradient id="SVGID_3_" gradientUnits="userSpaceOnUse" x1="97.0457" y1="304.5265" x2="97.0457" y2="583.5012" gradientTransform="matrix(0.7071 -0.7071 0.7071 0.7071 -243.4328 -82.4193)">
				<stop  offset="0" style="stop-color:#F3F6FF"/>
				<stop  offset="1" style="stop-color:#CED7FD"/>
			</linearGradient>
			<path fill="url(#SVGID_3_)" d="M290,219.4l-94.4,94.4c-4.3,4.3-11.3,4.3-15.6,0L34.6,168.4c-4.3-4.3-4.3-11.3,0-15.6l94.4-94.4
				c4.3-4.3,11.3-4.3,15.6,0L290,203.8C294.3,208.1,294.3,215.1,290,219.4z"/>
		</g>
		
			<linearGradient id="SVGID_4_" gradientUnits="userSpaceOnUse" x1="97.0457" y1="393.9689" x2="97.0457" y2="585.7191" gradientTransform="matrix(0.7071 -0.7071 0.7071 0.7071 -243.4328 -82.4193)">
			<stop  offset="0" style="stop-color:#F3F6FF"/>
			<stop  offset="1" style="stop-color:#CED7FD"/>
		</linearGradient>
		<path fill="url(#SVGID_4_)" d="M195.6,313.8l94.4-94.4c4.3-4.3,4.3-11.3,0-15.6l-43.4-43.4c-29.9-0.2-84.3-26.6-84.3-26.6
			S108.4,161,120,194c5.4,15.4,15.8,51.2,16.1,75.9l43.8,43.8C184.3,318.1,191.3,318.1,195.6,313.8z"/>
		
			<linearGradient id="SVGID_5_" gradientUnits="userSpaceOnUse" x1="-13.4544" y1="546.8457" x2="15.7389" y2="546.8457" gradientTransform="matrix(0.7071 -0.7071 0.7071 0.7071 -243.4328 -82.4193)">
			<stop  offset="0" style="stop-color:#F3F6FF"/>
			<stop  offset="1" style="stop-color:#CED7FD"/>
		</linearGradient>
		<path fill="url(#SVGID_5_)" d="M128.4,292.9c1.7,11.5,5.1,27,17.4,28.9s8.8-9.9,6.5-15.7c0,0,3.5,4.2,6,2.4
			c2.5-1.7-2.4-17.8-12.5-22.5L128.4,292.9z"/>
		
			<linearGradient id="SVGID_6_" gradientUnits="userSpaceOnUse" x1="-13.4544" y1="546.8457" x2="15.7389" y2="546.8457" gradientTransform="matrix(0.7071 -0.7071 0.7071 0.7071 -243.4328 -82.4193)">
			<stop  offset="0" style="stop-color:#F3F6FF"/>
			<stop  offset="1" style="stop-color:#CED7FD"/>
		</linearGradient>
		<path fill="url(#SVGID_6_)" d="M128.4,292.9c1.7,11.5,5.1,27,17.4,28.9s8.8-9.9,6.5-15.7c0,0,3.5,4.2,6,2.4
			c2.5-1.7-2.4-17.8-12.5-22.5L128.4,292.9z"/>
		
			<linearGradient id="SVGID_7_" gradientUnits="userSpaceOnUse" x1="-13.4544" y1="546.8457" x2="15.7389" y2="546.8457" gradientTransform="matrix(0.7071 -0.7071 0.7071 0.7071 -243.4328 -82.4193)">
			<stop  offset="0" style="stop-color:#F3F6FF"/>
			<stop  offset="1" style="stop-color:#CED7FD"/>
		</linearGradient>
		<path fill="url(#SVGID_7_)" d="M128.4,292.9c1.7,11.5,5.1,27,17.4,28.9s8.8-9.9,6.5-15.7c0,0,3.5,4.2,6,2.4
			c2.5-1.7-2.4-17.8-12.5-22.5L128.4,292.9z"/>
		<linearGradient id="SVGID_8_" gradientUnits="userSpaceOnUse" x1="128.928" y1="308.5561" x2="158.8503" y2="308.5561">
			<stop  offset="0" style="stop-color:#F3F6FF"/>
			<stop  offset="1" style="stop-color:#CED7FD"/>
		</linearGradient>
		<path fill="url(#SVGID_8_)" d="M152.4,306.2c0,0,3.5,4.2,6,2.4c0.2-0.1,0.3-0.3,0.4-0.6c-2.9-0.3-8.1-7.5-8-3.3
			c0.1,4.2-4.2,9.8-9.2,2.1s1-11.9,1-11.9l-13.7,1.1c1.8,11,5.7,24.1,16.9,25.8C158.3,323.8,154.7,312,152.4,306.2z"/>
		
			<linearGradient id="SVGID_9_" gradientUnits="userSpaceOnUse" x1="245.7081" y1="398.1034" x2="249.0678" y2="463.1964" gradientTransform="matrix(0.7071 -0.7071 0.7071 0.7071 -243.4328 -82.4193)">
			<stop  offset="0" style="stop-color:#F3F6FF"/>
			<stop  offset="1" style="stop-color:#CED7FD"/>
		</linearGradient>
		<path fill="url(#SVGID_9_)" d="M237.3,63.2c6.4-9.7,14.2-23.5,6.2-33.2c-8-9.7-13.2,1.5-15.3,7.4c0,0,0.2-5.4-2.9-5.8
			c-3-0.4-10,14.9-5.6,25.1L237.3,63.2z"/>
		
			<linearGradient id="SVGID_10_" gradientUnits="userSpaceOnUse" x1="249.8284" y1="411.6252" x2="252.1478" y2="456.5626" gradientTransform="matrix(0.7071 -0.7071 0.7071 0.7071 -243.4328 -82.4193)">
			<stop  offset="0" style="stop-color:#F3F6FF"/>
			<stop  offset="1" style="stop-color:#CED7FD"/>
		</linearGradient>
		<path fill="url(#SVGID_10_)" d="M240.9,27.5c0.9,2.3,1.7,5.2,1.7,9.1c0,10.7-7.7,17.5-7.8,21.7l2.4,4.8l0.2,0.1
			c6.4-9.7,14.2-23.5,6.2-33.2C242.6,28.9,241.8,28.1,240.9,27.5z"/>
		
			<linearGradient id="SVGID_11_" gradientUnits="userSpaceOnUse" x1="195.7749" y1="419.1965" x2="185.696" y2="512.8464" gradientTransform="matrix(0.7071 -0.7071 0.7071 0.7071 -243.4328 -82.4193)">
			<stop  offset="0" style="stop-color:#F3F6FF"/>
			<stop  offset="1" style="stop-color:#CED7FD"/>
		</linearGradient>
		<path fill="url(#SVGID_11_)" d="M173.5,118.5c19.9-10.5,30.7-43.7,42.5-65.4c3-5.5,20.1,3.9,22.8,10.2l-17.5,100.1
			C206,177.6,178.2,128.1,173.5,118.5z"/>
		
			<linearGradient id="SVGID_12_" gradientUnits="userSpaceOnUse" x1="188.9233" y1="413.5135" x2="195.5267" y2="541.4529" gradientTransform="matrix(0.7071 -0.7071 0.7071 0.7071 -243.4328 -82.4193)">
			<stop  offset="0" style="stop-color:#F3F6FF"/>
			<stop  offset="1" style="stop-color:#CED7FD"/>
		</linearGradient>
		<path fill="url(#SVGID_12_)" d="M234.7,58.3c-0.4,16.4-6,62.4-27.9,83.8c0,0-5.8,8.3-24.1-9.3c-0.8-0.8-1.6-1.4-2.3-2
			c10.4,17.3,29.3,43.4,41,32.5l17.5-100.1C238.2,61.7,236.7,59.9,234.7,58.3z"/>
		<path fill="#653DD7" d="M318.8,224.4c0,0-8.2-12.1-6.3-19.1c1.9-7,17.1-20.6,29-14.1c11.9,6.5,31.6,41.4,30.7,49.2
			c-0.8,7.2-11.7,17.3-18.9,17C346.2,257.3,318.8,224.4,318.8,224.4z"/>
		<path fill="#653DD7" d="M363.7,395.2c0,0,2.3,20.9,12.3,27.2c10,6.3,16.4,0.3,18-4c4.6-12.3,2.9-47.7-0.1-52.7
			c-3-5-11.4-15.4-33.5-4.5L363.7,395.2z"/>
		<path fill="#5436C9" d="M362.7,385.8l0.9,9.5c0,0,2.3,20.9,12.3,27.2c10,6.3,16.4,0.3,18-4c2.1-5.6,2.9-16.1,2.8-26.2
			c-2,2.1-3.7,4-5,5.7c-8.4,11.1-14.3-1.8-24.2-14.8L362.7,385.8z"/>
		
			<linearGradient id="SVGID_13_" gradientUnits="userSpaceOnUse" x1="121.3256" y1="590.651" x2="109.3444" y2="755.236" gradientTransform="matrix(0.7071 -0.7071 0.7071 0.7071 -243.4328 -82.4193)">
			<stop  offset="0" style="stop-color:#F3F6FF"/>
			<stop  offset="1" style="stop-color:#CED7FD"/>
		</linearGradient>
		<path fill="url(#SVGID_13_)" d="M204.7,320.7c0,0,43.2,49.9,62.1,63.8c13,9.6,92.7,16.4,97.6,12c4.9-4.4,4-34.1-1.1-36.5
			c-5.1-2.5-32.1-20.4-52.6-16.4c0,0-26.2-23.8-24.6-30.5c1.6-6.7,6.2-3.7,7.1-2.5c0.9,1.2,29.2,21.3,41.2,17.6
			c12-3.8,52.2-46.7,17.3-107.5c-5.3-9.8-28.1-8.5-35,2.7c-2.7,2.7-1.9,23.1-1.9,23.1s-6.5-13.5-28.6-16
			C264.2,227.9,204.7,320.7,204.7,320.7z"/>
		<linearGradient id="SVGID_14_" gradientUnits="userSpaceOnUse" x1="284.6089" y1="310.4637" x2="357.3181" y2="310.4637">
			<stop  offset="0" style="stop-color:#F3F6FF"/>
			<stop  offset="1" style="stop-color:#CED7FD"/>
		</linearGradient>
		<path fill="url(#SVGID_14_)" d="M345.3,308.4c-32.8,14.2-28.3-12-43.8-15.6c-13.6-3.2-20.1,9.6-15.3,20.2c1.6-6.5,6.2-3.6,7.1-2.4
			c0.9,1.2,29.2,21.3,41.2,17.6c5.2-1.6,15.5-10.5,22.8-24.8C353.7,304.8,349.7,306.5,345.3,308.4z"/>
		<linearGradient id="SVGID_15_" gradientUnits="userSpaceOnUse" x1="204.6604" y1="350.1209" x2="367.6252" y2="350.1209">
			<stop  offset="0" style="stop-color:#F3F6FF"/>
			<stop  offset="1" style="stop-color:#CED7FD"/>
		</linearGradient>
		<path fill="url(#SVGID_15_)" d="M364.4,396.5c1.9-1.7,2.9-7.2,3.2-13.5c-14.7-9.9-58.5,7.8-76.5-10.7c-26.1-26.8-35.2-64-63.9-70
			l-14.6,6.4c-4.9,7.2-7.9,11.9-7.9,11.9s43.2,49.9,62.1,63.8C279.8,394.1,359.6,400.9,364.4,396.5z"/>
		
			<linearGradient id="SVGID_16_" gradientUnits="userSpaceOnUse" x1="77.4135" y1="452.4742" x2="77.4135" y2="618.0898" gradientTransform="matrix(0.7071 -0.7071 0.7071 0.7071 -243.4328 -82.4193)">
			<stop  offset="0" style="stop-color:#F3F6FF"/>
			<stop  offset="1" style="stop-color:#CED7FD"/>
		</linearGradient>
		<path fill="url(#SVGID_16_)" d="M221.4,163.3c-27.2-3.1-47.9-44.8-47.9-44.8l-54.8,23l-21.2,51.6c-5.9,20.6-1.4,54.3,31.2,106
			c0,0,18.9-4,22.9-9.6l-11.1-45.3c0,0,22,34.4,50.7,59.1c7,6,17.2,6.9,25,2c10.1-6.3,24.4-16.3,37.1-29
			c12.3-12.3,22.4-26.9,28.9-37.1c5-7.9,4.2-18-1.9-25.1C255.7,185.2,221.4,163.3,221.4,163.3z"/>
		<path fill="#333369" d="M200.2,199.5l-23.8,23.8c-2,2-5.2,2-7.1,0L150.9,205c-2-2-2-5.2,0-7.1l23.8-23.8c2-2,5.2-2,7.1,0
			l18.3,18.3C202.1,194.3,202.1,197.5,200.2,199.5z"/>
		
			<rect x="158.4" y="194.6" transform="matrix(0.7071 -0.7071 0.7071 0.7071 -94.8314 176.3464)" fill="#653DD7" width="14" height="16.2"/>
		
			<rect x="165.7" y="183.3" transform="matrix(0.7071 -0.7071 0.7071 0.7071 -79.7128 177.1336)" fill="#653DD7" width="16.4" height="3"/>
		<path fill="#5436C9" d="M261.1,197.9l-86.4,86.4c-3.9,3.9-3.9,10.3,0,14.3l27.3,27.3c3.9,3.9,10.3,3.9,14.3,0l86.4-86.4
			c3.9-3.9,3.9-10.3,0-14.3l-27.3-27.3C271.4,194,265,194,261.1,197.9z"/>
		<g>
			<path fill="#CACACA" d="M209.2,324.1c-0.4,0-0.8,0-1.2-0.1c-0.2,0-0.3-0.2-0.3-0.4c0-0.2,0.3-0.3,0.4-0.3
				c1.6,0.3,3.2-0.1,4.3-1.3l0.3-0.3c0.1-0.1,0.4-0.1,0.5,0c0.1,0.1,0.1,0.4,0,0.5l-0.3,0.3C212,323.6,210.6,324.1,209.2,324.1z
				 M204.1,321.1c-0.1,0-0.2,0-0.3-0.1l-3.6-3.6c-0.1-0.1-0.1-0.4,0-0.5c0.1-0.1,0.4-0.1,0.5,0l3.6,3.6c0.1,0.1,0.1,0.4,0,0.5
				C204.3,321.1,204.2,321.1,204.1,321.1z M216.7,318.7c-0.1,0-0.2,0-0.3-0.1c-0.1-0.1-0.1-0.4,0-0.5l3.6-3.6c0.1-0.1,0.4-0.1,0.5,0
				c0.1,0.1,0.1,0.4,0,0.5l-3.6,3.6C216.9,318.7,216.8,318.7,216.7,318.7z M197,314c-0.1,0-0.2,0-0.3-0.1l-3.6-3.6
				c-0.1-0.1-0.1-0.4,0-0.5c0.1-0.1,0.4-0.1,0.5,0l3.6,3.6c0.1,0.1,0.1,0.4,0,0.5C197.2,314,197.1,314,197,314z M223.8,311.6
				c-0.1,0-0.2,0-0.3-0.1c-0.1-0.1-0.1-0.4,0-0.5l3.6-3.6c0.1-0.1,0.4-0.1,0.5,0c0.1,0.1,0.1,0.4,0,0.5l-3.6,3.6
				C224,311.6,223.9,311.6,223.8,311.6z M189.9,306.9c-0.1,0-0.2,0-0.3-0.1l-3.6-3.6c-0.1-0.1-0.1-0.4,0-0.5c0.1-0.1,0.4-0.1,0.5,0
				l3.6,3.6c0.1,0.1,0.1,0.4,0,0.5C190,306.8,190,306.9,189.9,306.9z M230.9,304.5c-0.1,0-0.2,0-0.3-0.1c-0.1-0.1-0.1-0.4,0-0.5
				l3.6-3.6c0.1-0.1,0.4-0.1,0.5,0c0.1,0.1,0.1,0.4,0,0.5l-3.6,3.6C231.1,304.5,231,304.5,230.9,304.5z M182.7,299.8
				c-0.1,0-0.2,0-0.3-0.1l-3.6-3.6c-0.1-0.1-0.1-0.4,0-0.5s0.4-0.1,0.5,0l3.6,3.6c0.1,0.1,0.1,0.4,0,0.5
				C182.9,299.7,182.8,299.8,182.7,299.8z M238.1,297.4c-0.1,0-0.2,0-0.3-0.1c-0.1-0.1-0.1-0.4,0-0.5l3.6-3.6c0.1-0.1,0.4-0.1,0.5,0
				s0.1,0.4,0,0.5l-3.6,3.6C238.3,297.3,238.2,297.4,238.1,297.4z M176.8,291.9c-0.2,0-0.4-0.2-0.4-0.4v-0.1c0-1.4,0.6-2.8,1.6-3.8
				l0.7-0.7c0.1-0.1,0.4-0.1,0.5,0s0.1,0.4,0,0.5l-0.7,0.7c-0.9,0.9-1.4,2.1-1.4,3.3v0.1C177.2,291.7,177,291.9,176.8,291.9z
				 M245.2,290.2c-0.1,0-0.2,0-0.3-0.1c-0.1-0.1-0.1-0.4,0-0.5l3.6-3.6c0.1-0.1,0.4-0.1,0.5,0c0.1,0.1,0.1,0.4,0,0.5l-3.6,3.6
				C245.4,290.2,245.3,290.2,245.2,290.2z M182.5,284c-0.1,0-0.2,0-0.3-0.1c-0.1-0.1-0.1-0.4,0-0.5l3.6-3.6c0.1-0.1,0.4-0.1,0.5,0
				c0.1,0.1,0.1,0.4,0,0.5l-3.6,3.6C182.7,283.9,182.6,284,182.5,284z M252.3,283.1c-0.1,0-0.2,0-0.3-0.1c-0.1-0.1-0.1-0.4,0-0.5
				l3.6-3.6c0.1-0.1,0.4-0.1,0.5,0c0.1,0.1,0.1,0.4,0,0.5l-3.6,3.6C252.5,283.1,252.4,283.1,252.3,283.1z M189.7,276.8
				c-0.1,0-0.2,0-0.3-0.1c-0.1-0.1-0.1-0.4,0-0.5l3.6-3.6c0.1-0.1,0.4-0.1,0.5,0c0.1,0.1,0.1,0.4,0,0.5l-3.6,3.6
				C189.8,276.8,189.7,276.8,189.7,276.8z M259.4,276c-0.1,0-0.2,0-0.3-0.1c-0.1-0.1-0.1-0.4,0-0.5l3.6-3.6c0.1-0.1,0.4-0.1,0.5,0
				c0.1,0.1,0.1,0.4,0,0.5l-3.6,3.6C259.6,275.9,259.5,276,259.4,276z M196.8,269.7c-0.1,0-0.2,0-0.3-0.1c-0.1-0.1-0.1-0.4,0-0.5
				l3.6-3.6c0.1-0.1,0.4-0.1,0.5,0c0.1,0.1,0.1,0.4,0,0.5l-3.6,3.6C197,269.7,196.9,269.7,196.8,269.7z M266.6,268.9
				c-0.1,0-0.2,0-0.3-0.1c-0.1-0.1-0.1-0.4,0-0.5l3.6-3.6c0.1-0.1,0.4-0.1,0.5,0c0.1,0.1,0.1,0.4,0,0.5l-3.6,3.6
				C266.8,268.8,266.7,268.9,266.6,268.9z M203.9,262.6c-0.1,0-0.2,0-0.3-0.1c-0.1-0.1-0.1-0.4,0-0.5l3.6-3.6c0.1-0.1,0.4-0.1,0.5,0
				c0.1,0.1,0.1,0.4,0,0.5l-3.6,3.6C204.1,262.5,204,262.6,203.9,262.6z M273.7,261.7c-0.1,0-0.2,0-0.3-0.1c-0.1-0.1-0.1-0.4,0-0.5
				l3.6-3.6c0.1-0.1,0.4-0.1,0.5,0c0.1,0.1,0.1,0.4,0,0.5l-3.6,3.6C273.9,261.7,273.8,261.7,273.7,261.7z M211,255.5
				c-0.1,0-0.2,0-0.3-0.1c-0.1-0.1-0.1-0.4,0-0.5l3.6-3.6c0.1-0.1,0.4-0.1,0.5,0c0.1,0.1,0.1,0.4,0,0.5l-3.6,3.6
				C211.2,255.4,211.1,255.5,211,255.5z M280.8,254.6c-0.1,0-0.2,0-0.3-0.1c-0.1-0.1-0.1-0.4,0-0.5l3.6-3.6c0.1-0.1,0.4-0.1,0.5,0
				c0.1,0.1,0.1,0.4,0,0.5l-3.6,3.6C281,254.6,280.9,254.6,280.8,254.6z M218.2,248.3c-0.1,0-0.2,0-0.3-0.1c-0.1-0.1-0.1-0.4,0-0.5
				l3.6-3.6c0.1-0.1,0.4-0.1,0.5,0c0.1,0.1,0.1,0.4,0,0.5l-3.6,3.6C218.3,248.3,218.3,248.3,218.2,248.3z M287.9,247.5
				c-0.1,0-0.2,0-0.3-0.1c-0.1-0.1-0.1-0.4,0-0.5l3.6-3.6c0.1-0.1,0.4-0.1,0.5,0c0.1,0.1,0.1,0.4,0,0.5l-3.6,3.6
				C288.1,247.4,288,247.5,287.9,247.5z M225.3,241.2c-0.1,0-0.2,0-0.3-0.1c-0.1-0.1-0.1-0.4,0-0.5l3.6-3.6c0.1-0.1,0.4-0.1,0.5,0
				c0.1,0.1,0.1,0.4,0,0.5l-3.6,3.6C225.5,241.2,225.4,241.2,225.3,241.2z M295.1,240.4c-0.1,0-0.2,0-0.3-0.1
				c-0.1-0.1-0.1-0.4,0-0.5l3.6-3.6c0.1-0.1,0.4-0.1,0.5,0c0.1,0.1,0.1,0.4,0,0.5l-3.6,3.6C295.3,240.3,295.2,240.4,295.1,240.4z
				 M232.4,234.1c-0.1,0-0.2,0-0.3-0.1c-0.1-0.1-0.1-0.4,0-0.5l3.6-3.6c0.1-0.1,0.4-0.1,0.5,0c0.1,0.1,0.1,0.4,0,0.5l-3.6,3.6
				C232.6,234,232.5,234.1,232.4,234.1z M300.6,232.3c-0.2,0-0.4-0.2-0.4-0.3c-0.1-1.1-0.6-2.1-1.3-2.9l-1-1c-0.1-0.1-0.1-0.4,0-0.5
				c0.1-0.1,0.4-0.1,0.5,0l1,1c0.9,0.9,1.5,2.1,1.6,3.4C301,232.1,300.8,232.3,300.6,232.3C300.6,232.3,300.6,232.3,300.6,232.3z
				 M239.5,227c-0.1,0-0.2,0-0.3-0.1c-0.1-0.1-0.1-0.4,0-0.5l3.6-3.6c0.1-0.1,0.4-0.1,0.5,0c0.1,0.1,0.1,0.4,0,0.5l-3.6,3.6
				C239.7,226.9,239.6,227,239.5,227z M294.5,224.6c-0.1,0-0.2,0-0.3-0.1l-3.6-3.6c-0.1-0.1-0.1-0.4,0-0.5c0.1-0.1,0.4-0.1,0.5,0
				l3.6,3.6c0.1,0.1,0.1,0.4,0,0.5C294.7,224.5,294.6,224.6,294.5,224.6z M246.7,219.8c-0.1,0-0.2,0-0.3-0.1c-0.1-0.1-0.1-0.4,0-0.5
				l3.6-3.6c0.1-0.1,0.4-0.1,0.5,0c0.1,0.1,0.1,0.4,0,0.5l-3.6,3.6C246.9,219.8,246.8,219.8,246.7,219.8z M287.4,217.4
				c-0.1,0-0.2,0-0.3-0.1l-3.6-3.6c-0.1-0.1-0.1-0.4,0-0.5c0.1-0.1,0.4-0.1,0.5,0l3.6,3.6c0.1,0.1,0.1,0.4,0,0.5
				C287.6,217.4,287.5,217.4,287.4,217.4z M253.8,212.7c-0.1,0-0.2,0-0.3-0.1c-0.1-0.1-0.1-0.4,0-0.5l3.6-3.6c0.1-0.1,0.4-0.1,0.5,0
				c0.1,0.1,0.1,0.4,0,0.5l-3.6,3.6C254,212.7,253.9,212.7,253.8,212.7z M280.3,210.3c-0.1,0-0.2,0-0.3-0.1l-3.6-3.6
				c-0.1-0.1-0.1-0.4,0-0.5c0.1-0.1,0.4-0.1,0.5,0l3.6,3.6c0.1,0.1,0.1,0.4,0,0.5C280.5,210.3,280.4,210.3,280.3,210.3z
				 M260.9,205.6c-0.1,0-0.2,0-0.3-0.1c-0.1-0.1-0.1-0.4,0-0.5l3.6-3.6c0.1-0.1,0.4-0.1,0.5,0c0.1,0.1,0.1,0.4,0,0.5l-3.6,3.6
				C261.1,205.5,261,205.6,260.9,205.6z M273.1,203.2c-0.1,0-0.2,0-0.3-0.1l-1.4-1.4c-0.7-0.7-1.6-1.1-2.5-1.3
				c-0.2,0-0.3-0.2-0.3-0.4c0-0.2,0.2-0.3,0.4-0.3c0,0,0,0,0.1,0c1.1,0.2,2.1,0.7,2.9,1.5l1.4,1.4c0.1,0.1,0.1,0.4,0,0.5
				C273.3,203.1,273.2,203.2,273.1,203.2z"/>
		</g>
		<path fill="#653DD7" d="M220.7,305.8L220.7,305.8c-4.7,4.7-12.4,4.7-17.2,0l-8.7-8.7c-4.7-4.7-4.7-12.4,0-17.2l0,0
			c4.7-4.7,12.4-4.7,17.2,0l8.7,8.7C225.5,293.3,225.5,301,220.7,305.8z"/>
		<path fill="#5436C9" d="M217.2,302.2c-2.8,2.8-7.3,2.8-10.1,0l-8.7-8.7c-2.8-2.8-2.8-7.3,0-10.1c2.8-2.8,7.3-2.8,10.1,0l8.7,8.7
			C219.9,294.9,219.9,299.4,217.2,302.2z"/>
		<path fill="#E0AC2B" d="M294.1,231.3L294.1,231.3c-4.7,4.7-12.4,4.7-17.2,0l-8.7-8.7c-4.7-4.7-4.7-12.4,0-17.2l0,0
			c4.7-4.7,12.4-4.7,17.2,0l8.7,8.7C298.9,218.8,298.9,226.5,294.1,231.3z"/>
		<path fill="#F0C63D" d="M297.2,228.1L297.2,228.1c-4.7,4.7-12.4,4.7-17.2,0l-8.7-8.7c-4.7-4.7-4.7-12.4,0-17.2l0,0
			c4.7-4.7,12.4-4.7,17.2,0l8.7,8.7C302,215.7,302,223.4,297.2,228.1z"/>
		<g>
			<path fill="#FFFFFF" d="M288.6,227c-1.8,0-3.5-0.6-4.9-1.8c-0.2-0.1-0.2-0.4,0-0.5c0.1-0.2,0.4-0.2,0.5,0c1.2,1,2.8,1.6,4.4,1.6
				c0.2,0,0.4,0.2,0.4,0.4C289,226.9,288.8,227,288.6,227z M292.3,226c-0.1,0-0.3-0.1-0.3-0.2c-0.1-0.2,0-0.4,0.1-0.5
				c0.5-0.3,0.9-0.6,1.3-1c0.8-0.8,1.3-1.6,1.6-2.6c0.1-0.2,0.3-0.3,0.5-0.2c0.2,0.1,0.3,0.3,0.2,0.5c-0.4,1.1-1,2.1-1.8,2.9
				c-0.4,0.4-0.9,0.8-1.4,1.1C292.4,226,292.4,226,292.3,226z M280.4,221.8c-0.1,0-0.2,0-0.3-0.1l-3.6-3.6c-0.1-0.1-0.1-0.4,0-0.5
				c0.1-0.1,0.4-0.1,0.5,0l3.6,3.6c0.1,0.1,0.1,0.4,0,0.5C280.6,221.8,280.5,221.8,280.4,221.8z M295.2,217.2
				c-0.1,0-0.3-0.1-0.3-0.2c-0.3-0.8-0.8-1.6-1.5-2.2l-1.6-1.6c-0.1-0.1-0.1-0.4,0-0.5c0.1-0.1,0.4-0.1,0.5,0l1.6,1.6
				c0.7,0.7,1.3,1.5,1.7,2.5c0.1,0.2,0,0.4-0.2,0.5C295.3,217.2,295.3,217.2,295.2,217.2z M273.6,214.4c-0.1,0-0.3-0.1-0.3-0.2
				c-0.5-1-0.8-2.2-0.8-3.4c0-0.6,0.1-1.2,0.2-1.8c0-0.2,0.3-0.3,0.5-0.3c0.2,0,0.3,0.3,0.3,0.5c-0.1,0.5-0.2,1.1-0.2,1.6
				c0,1.1,0.3,2.1,0.7,3c0.1,0.2,0,0.4-0.2,0.5C273.7,214.4,273.6,214.4,273.6,214.4z M288.5,209.8c-0.1,0-0.2,0-0.3-0.1l-3.6-3.6
				c-0.1-0.1-0.1-0.4,0-0.5c0.1-0.1,0.4-0.1,0.5,0l3.6,3.6c0.1,0.1,0.1,0.4,0,0.5C288.7,209.7,288.6,209.8,288.5,209.8z
				 M275.8,205.4c-0.1,0-0.2-0.1-0.3-0.2c-0.1-0.2-0.1-0.4,0.1-0.5c1.3-0.9,2.8-1.4,4.4-1.4c0.2,0,0.4,0,0.6,0
				c0.2,0,0.4,0.2,0.3,0.4c0,0.2-0.2,0.3-0.4,0.3c0,0,0,0,0,0c-1.6-0.1-3.2,0.3-4.5,1.2C275.9,205.4,275.8,205.4,275.8,205.4z"/>
		</g>
		<path fill="#653DD7" d="M240.2,286.3L240.2,286.3c-3.1,3.1-8.2,3.1-11.4,0l-14.5-14.5c-3.1-3.1-3.1-8.2,0-11.4l0,0
			c3.1-3.1,8.2-3.1,11.4,0l14.5,14.5C243.3,278.1,243.3,283.2,240.2,286.3z"/>
		<g>
			<path fill="#333369" d="M136.8,113.4l-7.8,6.1l-18.5,16.3l-15.6,19.1l-5.8,8c-0.8,1.1-0.9,2.4-0.4,3.7c1.2,2.7,3.2,8.2,3.2,14.6
				c0,3.3,2.7,5.9,6,5.7c7.4-0.5,21.1-4.8,40.2-24.5c19-19.7,22.8-33.5,23.1-41c0.1-3.3-2.6-5.9-5.9-5.8c-6.3,0.2-11.9-1.6-14.7-2.6
				C139.2,112.3,137.8,112.6,136.8,113.4z"/>
			<g>
				<path fill="#E2865C" d="M68.2,168l1.5-1.5l-7.7-7.7l-1.5,1.5c-0.7,0.7-0.7,1.8,0,2.5l5.3,5.3C66.4,168.7,67.5,168.7,68.2,168z"
					/>
				<path fill="#333369" d="M75.3,169.7l3.1-3.1L61.9,150l-3.1,3.1c-1.5,1.5-1.5,3.8,0,5.3L70,169.7
					C71.5,171.2,73.9,171.2,75.3,169.7z"/>
			</g>
			<g>
				<path fill="#E2865C" d="M144.1,92.1l-1.5,1.5l-7.7-7.7l1.5-1.5c0.7-0.7,1.8-0.7,2.5,0l5.3,5.3C144.8,90.3,144.8,91.4,144.1,92.1
					z"/>
				<path fill="#333369" d="M145.3,99.8l-3.1,3.1l-16.5-16.5l3.1-3.1c1.5-1.5,3.8-1.5,5.3,0l11.3,11.3
					C146.7,95.9,146.7,98.3,145.3,99.8z"/>
			</g>
			<path fill="#E2865C" d="M111.2,73.5C90,60.2,67.8,73,57.8,82.6l0,0c0,0,0,0,0,0c0,0,0,0,0,0l0,0c-9.6,10-22.4,32.2-9,53.4
				c13.4,21.2,37.5,39.8,37.5,39.8c11.9,7.8,26.8,2.2,46.9-17.9c20.1-20.1,25.7-35,17.9-46.9C151.1,111,132.5,86.9,111.2,73.5z"/>
			<path fill="#BD5048" d="M108.7,76.2c-7.6-4.6-27.4,6.2-39.4,17.9c-11.7,12-22.5,31.7-17.9,39.4c12.2,19.4,31.7,33.1,33.8,34.7
				c7.5,4.8,16.4,3.1,27.3-5c4.1-3.1,8.8-7.1,13.4-11.8c4.7-4.7,9.4-10,12.4-14.1c8.2-10.9,9.8-19.8,5-27.3
				C141.8,108,128.1,88.4,108.7,76.2z"/>
			<g>
				<defs>
					<path id="SVGID_17_" d="M112.5,80c-7.6-4.6-27.4,6.2-39.4,17.9c-11.7,12-22.5,31.7-17.9,39.4C67.5,156.7,87,170.4,89,172
						c7.5,4.8,16.4,3.1,27.3-5c4.1-3.1,8.8-7.1,13.4-11.8c4.7-4.7,9.4-10,12.4-14.1c8.2-10.9,9.8-19.8,5-27.3
						C145.6,111.7,131.9,92.2,112.5,80z"/>
				</defs>
				<clipPath id="SVGID_18_">
					<use xlink:href="#SVGID_17_"  overflow="visible"/>
				</clipPath>
				<g clip-path="url(#SVGID_18_)">
					<path fill="#C2BDDC" d="M159.4,119.5c0.6-2.5,1.2-4.9,2-7.4c-0.1-2.4-0.3-4.7-1.2-6.9c-0.5-1.3-0.2-2.4,0.5-3.1
						c-0.8-1.6-1.5-3.2-2.3-4.8c-3.1-3.1-5.9-6.4-8.5-10c-2.4-3.4-4.5-7.2-8.1-9.4c0,0-0.1-0.1-0.1-0.1c-0.9,2.6-1.5,5.4-1.5,8.3
						c-0.1,7.1-0.1,14.1,2.5,20.9c1.2,3.1,2.2,6.3,3.3,9.4c0.7,2-2.2,8-0.3,8.7c0.3,2.7,4.6,0.9,5,3.4c0.2,1.2,0.5,2.3,0.9,3.3
						c1.1-1.5,2.1-3.1,3.2-4.6c0.3-2.4,0.5-4.7,0.8-7.1c0.4-0.1,1,0,1.5-0.2C157.9,119.6,158.6,119.5,159.4,119.5z"/>
					<path fill="#8E8BAB" d="M160.3,105.3c-0.5,0.8-0.9,1.6-1.2,2.5c-0.2,0.6-0.5,1.1-0.7,1.7c-3.4-4.6-5.5-5.5-9.9-4.1
						c-2.5,0.8-3.7,2.2-3.7,4.5c0.6-0.2,1-0.4,1.5-0.6c1.2-0.5,2.3-1.3,3.5-1.6c2.7-0.8,4.2-0.1,5.7,2.3c0.9,1.6,1.5,3.2,1.6,5
						c0.1,1.3,0.2,2.7,1.5,3.7c1.4-0.7,1.2-1.9,1.3-3c0.2-2.3,0.5-4.4,1.2-6.6C161,107.9,160.8,106.6,160.3,105.3z"/>
					<path fill="#E8E8E8" d="M102.6,169.4c-0.1,3,0.4,5.9,1.2,8.7c0.9-0.3,1.8-0.6,2.7-0.8c2.7-2.1,5.5-4.2,8.3-6.2
						c11.8-9.6,22.6-20.7,32.1-32.5c2.8-3.9,5.5-7.9,8.2-11.8c-3.8-0.4-7.7-0.6-11.6-0.7c-0.6-1.9-1.1-3.9-1.7-5.9
						c0.6-0.2,1.1-0.3,1.6-0.4c-0.1-0.6-0.1-1.2-0.2-1.7c-1-5.6-4.4-9.8-8-13.9c-1.9-2.2-4.2-4-6.3-6c-4.7-4.3-10.2-7.4-16.3-9.3
						c-4.8-1.4-9.6-1.4-14.3,0.3c-4.4,1.6-7.5,4.4-8,9.4c0,0.1-0.2,0.3-0.3,0.4c-2.4,0.4-4.6,1.3-5.9,3.7c-1.3,2.4-0.8,4.8-0.2,7.3
						c-2.2,1.7-2.9,4-3.1,6.4c-1.3,0.4-2.6,0.8-3.8,1.1c-4.8,1.5-8.3,4.7-10.8,8.9c-4.3,7.3-4.2,15-1,22.6c0.8,1.8,2,3.4,3.1,4.9
						c2.1,2.8,5.1,4.5,7.7,6.6c4,3.1,8.3,5.6,13.2,7.1C93.4,169,97.9,169.8,102.6,169.4z"/>
					<path fill="#D2D2D3" d="M89.3,119.9c0.1-0.9,0.1-1.7,0.1-2.4c0.1-2.6,0.4-5.2,1.8-7.5c1.3-2,2.5-4,4.1-5.7
						c7.4-8,17.9-9.4,26.9-3.8c4.4,2.7,8.1,6.1,11.3,10.2c6.1,7.7,8.6,16.2,5.3,25.9c-0.1,0.3,0,0.7,0,0.8c1.8-0.8,3.4-1.9,5.2-2.4
						c2-0.5,4.1-0.9,6.1-1.1c1.4-2.1,2.9-4.2,4.3-6.3c-0.3-0.1-0.7-0.2-1-0.2c-3.5-0.7-7.1-1.2-10.3,2c0-1.4,0.9-2.4,0.9-3.7
						c-0.5-1.6,0.5-0.1,0-1.8l-0.1-1.4c0.5-0.7,0.6-1.7,1.1-2.4l-2.1-1.9c-1-5.6-4.4-9.9-8-14c-1.9-2.2-4.2-4-6.3-6
						c-3.7-3.4-7.9-6-12.5-7.9c-2-0.4-4.1-0.7-6.4-0.7c-2.3,0-4.6,0.2-6.8,0.9c-5.9,1.9-9.5,6-12.7,10.7c-3.7,5.4-5.1,11.1-2.9,17.6
						c-0.8-0.2-1.7-0.1-2-0.5c-1.1-1.4-2.5-1.1-3.9-0.9c-0.8,0.1-1.6,0.2-2.3,0.4c-5,1.4-9.2,4-12.5,7.6c-0.3,0.4-0.5,0.8-0.7,1.2
						c-2.9,5-3.8,10.2-3.1,15.5c0.1,0,0.1,0,0.2,0c0.2-1,0.5-1.9,0.7-2.9c0.9-6,4-10.7,8.7-14.4c3.8-3,8.2-4.1,12.9-4.5
						C86.6,120,87.9,120,89.3,119.9z"/>
					<path fill="#131519" d="M159.6,118.7c-3.5,1.5-7,2.7-10.7,3.6c0.4-1.8-1.1-9-2.1-11.3c-1.4-3.2-2.9-6.3-4.6-9.4
						c-3-5.2-7-9.7-11.8-13.2c-7.5-5.5-16.3-7.4-25.5-7.1c-5.2,0.2-9.9,2.1-14.7,4.1c-7.7,3.2-13.8,8.5-19,14.8
						c-5.5,6.6-9.3,14.1-11.6,22.5c-1.5,5.6-1.9,11.2-1.1,16.9c0.7,5.6,2.7,10.7,6.4,15c2.9,3.3,5.9,6.5,9.2,9.3
						c4.4,3.7,9.3,6.4,15,7.7c3.1,0.7,6.1,1.9,9.3,2.9c-0.2,2.1-0.3,4.1-0.5,6.1c2.5-1.4,5.2-2.5,8-3.2c-0.5-4.5,1.1-8,1.3-8.6
						c-1.4,0.2-2,0.3-2.7,0.4c-4.1,0.6-8.3,0.8-12.3-0.3c-12.4-3.5-21.4-11.2-27-22.8c-0.8-1.6-1.1-3.4-1.2-5.2
						c-0.3-8.6,3.5-15,10.9-19.2c3.5-2,7.4-2.1,11.4-2.2c0.9,0,1.7,0,2.7,0c-0.1-1-0.2-1.8-0.3-2.6c-0.5-4.2,0.2-8.2,2.3-12
						c2.3-4.1,5.3-7.5,9.3-10.1c2.9-2,6.1-3.1,9.6-2.9c6,0.3,11.6,2.1,16.7,5.3c7.2,4.4,12.3,10.6,14.9,18.8
						c1.6,5.3,1.6,8.5,1.6,13.9c0,0.6-0.1,2.7-1.6,5c0.4-0.4,2.5-1.6,3.5-3.7c0.3-1,1-1.3,2-1.3c2-0.1,4-0.2,6.1-0.2
						c1.9-2.8,3.9-5.6,5.9-8.4C159.2,120.5,159.4,119.6,159.6,118.7z"/>
					<path fill="#666773" d="M103.1,108.1c3.7-3.7,9.4-4.3,14.1-1.4c4,2.5,6.5,6.1,7.1,10.8c0.6,4.7-0.9,8.7-4.8,11.5
						c-3.8,2.7-8,2.6-11.9,0.4c-5.4-2.9-8.1-7.5-7.9-13.7C99.8,112.7,101,110.2,103.1,108.1"/>
					<path fill="#666773" d="M79.7,151.7c-4.4-4.4-5.7-10.5-3.5-15.5c2.3-5.3,8-7.9,13.5-6.2c6.4,2,10.8,8.9,9.9,15.6
						c-0.6,4.4-2.9,7.6-7,9.2c-4.2,1.7-8.1,0.6-11.7-2C80.4,152.4,79.9,151.9,79.7,151.7"/>
					<path fill="#353441" d="M120.4,127.2c-4.3,4.1-11.2,3.9-15.5-0.6c-4.4-4.6-4.5-12,0-16.2c4.2-4,11.1-3.7,15.3,0.6
						C124.7,115.7,124.8,123,120.4,127.2"/>
					<path fill="#353441" d="M95.6,135.7c2.5,2.7,3.8,6.1,3.1,10.2c-1.1,6.5-7.8,10.4-14,8c-4.4-1.6-7.1-4.8-7.8-9.5
						c-0.6-4.4,0.9-8,4.5-10.6C85.6,130.8,91.5,131.5,95.6,135.7"/>
					<path fill="#E7E7E7" d="M82.9,132.3c1.4-1.4,3.2-1.7,4.6-0.9c1.3,0.8,1.9,2.8,1.3,4.5c-0.6,1.9-2.3,3.3-4.1,3.3
						c-1.4,0.1-2.6-0.7-3.1-1.9C81,135.9,81.5,133.7,82.9,132.3"/>
					<path fill="#E7E7E7" d="M111.7,113.2c-0.3,0.2-0.9,0.7-1.7,0.9c-2,0.6-3.6-0.5-3.8-2.5c-0.3-1.9,1-4.2,2.8-4.9
						c2.2-1,4.3,0.3,4.5,2.7C113.5,110.6,113,111.9,111.7,113.2"/>
					<path fill="#E7E7E7" d="M92,136.6c0.7-0.7,1.5-0.9,2.1-0.5c0.6,0.3,0.8,1.2,0.5,2c-0.3,0.9-1.1,1.5-1.9,1.6
						c-0.6,0.1-1.1-0.2-1.3-0.8C91.1,138.2,91.3,137.3,92,136.6"/>
					<path fill="#E7E7E7" d="M116.7,111.1c0.7-0.7,1.5-0.9,2.1-0.5c0.6,0.3,0.8,1.2,0.5,2c-0.3,0.9-1.1,1.5-1.9,1.6
						c-0.6,0.1-1.1-0.2-1.3-0.8C115.8,112.8,116.1,111.8,116.7,111.1"/>
					<path fill="#561A17" d="M119.5,142.9c-2,0.3-4.2-0.5-5.8,1.1c-1.3,1.3-1.7,3.6-2.9,5c-2.5-1.8-3.4-4.8-1-6.5
						c2.3-1.7,4.5-3.3,6.8-5c1-0.7,1.6-0.6,1.9,0.6C118.9,139.5,119.1,141.1,119.5,142.9"/>
					<path fill="#D78483" d="M110.9,148.6c0-2.5,1.2-4.4,3.3-5.7c0.6-0.4,1.5-0.7,2.2-0.7c1.1-0.1,2.5,0,2.9,1.2
						c0.3,0.7-0.2,1.8-0.6,2.6c-0.8,1.7-2.1,2.8-3.8,3.5C113.5,150,112.1,150.1,110.9,148.6"/>
					<path fill="#A5595B" d="M113,143.8c2.6-2.5,4.4-2.6,6.4-1.3c-0.3,1.8-0.5,3.6-2.3,5c0.3-1.5,0.2-2.2-0.2-3.1
						C116,142.8,114.4,143.1,113,143.8"/>
					<path fill="#852F3B" d="M69.7,159.8c-2.8-2.6-4.4-5.8-5.5-9.3c-1-3.1-1.3-6.2,0.3-9.2c0.1-0.2,0.2-0.5,0.2-0.7
						c1.2-4.6,3.9-8.3,7.3-11.6c4.6-4.5,9.4-9,14-13.5c3.4-3.4,6.7-7,10.1-10.5c2.3-2.3,4.9-4.5,7.3-6.7c0.6-0.5,1.2-1.1,1.8-1.7
						c2.4-2.4,5.1-4.2,8.8-3.7c0.5,0.1,1.1-0.1,1.7-0.2c5.6-0.3,10.6,1.1,14,6c1.2,1.8,2.8,3.4,3.9,5.2c3.5,6.1,4.3,12.6,1.9,19.2
						c-0.6,1.8-2.3,3.3-3.7,4.7c-5.9,5.6-12.9,7-20.7,4.8c-1.4-0.4-2.8-0.7-4.3-0.9c-2.7-0.5-5.4,1.7-4.8,5.1c0.3,1.5,0.6,3,1,4.5
						c2,8.1,0.5,15.3-5.8,21.1c-3.1,2.9-7,4.3-11.3,4.1c-4.5-0.1-8.8-1.2-12.6-3.8C72,161.9,70.9,160.8,69.7,159.8 M89.4,119.2
						c-5.3,5.3-10.5,10.5-15.8,15.8c-4.3,4.3-5.1,10-2.3,15.4c2.3,4.5,6,7.4,10.7,9c3.3,1.1,6.7,1.4,9.9-0.4c5.6-3,8.3-7.8,8.1-14.1
						c-0.1-2-0.4-4-0.6-6c-0.6-6.3,3.3-10.3,9.6-9.7c1.8,0.2,3.5,0.4,5.3,0.6c3.7,0.4,7.1-0.5,10.2-2.5c3.4-2.2,7.1-7.4,5.8-13.2
						c-1.3-5.9-4.6-10.3-9.9-13.1c-4.1-2.2-10.6-2.1-15,2.4C100.1,108.7,94.7,113.9,89.4,119.2"/>
					<g opacity="0.56">
						<g>
							<defs>
								
									<rect id="SVGID_19_" x="57.6" y="109.3" transform="matrix(0.7071 -0.7071 0.7071 0.7071 -62.5636 109.029)" width="85.4" height="41.5"/>
							</defs>
							<clipPath id="SVGID_20_">
								<use xlink:href="#SVGID_19_"  overflow="visible"/>
							</clipPath>
							<path clip-path="url(#SVGID_20_)" fill="#5185AC" d="M84.3,117.6c5.2-5.5,10.3-11,15.6-16.4c2.7-2.7,5.6-5.2,9.1-6.7
								c3.3-1.5,6.9-1.9,10.5-1.6c1.3,0.1,2.7,0.7,3.8,1.4c3.6,2.2,7,4.8,9.5,8.2c8,11,5,22.4-5.1,28.8c-4.5,2.9-9.7,3.4-15,1.5
								c-1.2-0.4-2.5-0.7-3.7-1c-2.4-0.7-4.3,0.4-6.1,1.8c-1.5,1.2-1.5,2.9-1.1,4.7c0.7,3,1.3,6,1.8,9.1c0.7,4.4-0.6,8.4-3.5,11.7
								c-1.5,1.8-3.2,3.5-5,4.9c-3.4,2.7-7.3,3.5-11.5,2.7c-4.6-1-9.2-2.5-12.8-5.7c-4.5-4-8.3-8.6-7.4-15.3c0.7-5.1,2.5-9.8,6-13.6
								c3.6-3.9,7.4-7.5,11.2-11.2c1.2-1.1,2.3-2.3,3.4-3.4C84.1,117.5,84.2,117.5,84.3,117.6"/>
						</g>
					</g>
					<g opacity="0.6">
						<g>
							<defs>
								
									<rect id="SVGID_21_" x="80.2" y="125.5" transform="matrix(0.7071 -0.7071 0.7071 0.7071 -78.9639 102.4183)" width="7.8" height="42.1"/>
							</defs>
							<clipPath id="SVGID_22_">
								<use xlink:href="#SVGID_21_"  overflow="visible"/>
							</clipPath>
							<path clip-path="url(#SVGID_22_)" fill="#90B9D9" d="M101,158c-1.7,2.3-3.1,4-4.6,6c-10.1-9.9-19.9-19.7-29.9-29.6
								c0.9-0.4,1.3-0.6,1.7-0.8c0.4-0.3,1-0.6,1.2-1.1c1-2.1,0.9-2.1,3.1-3.1C82.1,138.9,91.6,148.5,101,158"/>
						</g>
					</g>
					<g opacity="0.6">
						<g>
							<defs>
								
									<rect id="SVGID_23_" x="78.8" y="131.5" transform="matrix(0.7071 -0.7071 0.7071 0.7071 -83.9163 100.7189)" width="1.7" height="40.3"/>
							</defs>
							<clipPath id="SVGID_24_">
								<use xlink:href="#SVGID_23_"  overflow="visible"/>
							</clipPath>
							<path clip-path="url(#SVGID_24_)" fill="#90B9D9" d="M65.7,137.1c0.6,0.4,1.3,0.8,1.8,1.3c8.5,8.4,17,16.9,25.4,25.4
								c0.6,0.6,1.5,1.1,0.8,2.2c-1.3,0.2-1.7-0.8-2.4-1.4c-6.7-6.6-13.3-13.3-19.9-19.9c-1.8-1.8-3.6-3.5-5.3-5.3
								c-0.4-0.5-0.8-1.1-1.1-1.6C65.3,137.5,65.5,137.3,65.7,137.1"/>
						</g>
					</g>
					<path fill="#A5343D" d="M88.6,110.3c4.8-4.8,9.5-9.7,14.6-14.3c5.5-5,11.8-6.7,19.1-4.3c6.2,2,10.2,6.4,13.4,11.8
						c1.4,2.4,2.6,5.1,3.3,7.8c1.6,6.6,0.3,12.6-5,17.2c-1.9,1.7-3.9,3.2-6,4.5c-4.5,2.7-9.4,3.3-14.5,1.6c-1.8-0.6-3.5-1.2-5.3-1.7
						c-4-1.1-6.3,2.2-5.2,5.4c0.5,1.4,0.9,2.8,1.4,4.2c2.1,6.1,1.1,11.8-2.3,17.2c-1.7,2.6-3.7,4.9-6.2,6.8
						c-4.2,3.1-8.9,3.8-13.9,2.8c-7.9-1.6-13.9-6-18.1-12.9c-3.1-5-3-10.5-1.3-16c1.2-3.9,3.4-7.2,6.1-10.1
						C74.3,124.2,87.8,111.1,88.6,110.3 M81.7,121.8c-4.3,4.4-8.8,8.7-12.8,13.3c-4.9,5.6-5.8,15-1.7,20.9c3.5,5,8.4,8.2,14.4,9.7
						c3.9,1,7.6,0.6,11.1-1c2.7-1.2,4.6-3.3,6.5-5.4c4.1-4.7,5.3-10,3.6-16.1c-0.5-1.6-1-3.3-1.2-4.9c-0.7-4.2,2.3-7.4,6.5-6.9
						c1.6,0.2,3.2,0.7,4.7,1.1c5.3,1.4,10.3,1.2,14.8-2.2c1.1-0.8,2.2-1.6,3.3-2.5c4.2-3.7,6.3-8.4,5.4-14.1c-1-6.2-4-11.4-8.6-15.7
						c-2-1.9-4.4-3.2-7.2-3.8c-6.1-1.3-11.2,0.6-15.6,4.8C99.4,104.2,83.9,119.5,81.7,121.8"/>
					<path fill="#676674" d="M107.1,147.8c-1.1,0.7-2,1.4-2.9,2c-2.5-1.8-3.4-13.6,1.6-17c3.5-2.4,8.2-2,12.1,0.7
						c4.3,3,5.4,10.2,2.8,14.5c-1.5,2.5-5.9,5.2-9.7,3.3c-0.8-0.4-1.6-1-2.3-1.7C108.1,149.1,107.7,148.4,107.1,147.8 M118.2,138.7
						c-3,2.5-5.7,4.7-8.5,7c0.4,0.8,0.5,1.5,1,2.1c0.3,0.5,0.9,0.9,1.5,1c2.6,0.4,5-1,6.1-3.4C119.2,143.3,119.2,141.2,118.2,138.7"
						/>
					<path fill="#382F3D" d="M120.5,136.4c-0.7,0.9-2.4,2.3-2.4,2.3c0.5,1.2,0.7,2.3,0.8,3.4c0.2,0.5,0.5,1,0.8,1.4
						c1.3,1.5,1.1,2.8,0.3,4.2c-0.5,1-1.5,2.2-2.3,3.1c1.3-0.8,2.4-1.8,3-2.8C122.7,144.8,122.6,139.9,120.5,136.4"/>
					<path fill="#382F3D" d="M108.6,149.5c0.7-0.8,1.7-1.1,2.5-1.4c-0.1-0.1-0.3-0.3-0.4-0.4c-0.4-0.6-0.6-1.3-1-2.1
						c-1,0.9-1.7,1.5-2.6,2.1C107.6,148.4,108.1,149,108.6,149.5"/>
				</g>
			</g>
			
				<radialGradient id="SVGID_25_" cx="96.3402" cy="391.6057" r="64.9107" gradientTransform="matrix(0.7071 -0.7071 0.7071 0.7071 -243.4328 -82.4193)" gradientUnits="userSpaceOnUse">
				<stop  offset="0" style="stop-color:#390A80"/>
				<stop  offset="1" style="stop-color:#2F0658"/>
			</radialGradient>
			<path opacity="0.69" fill="url(#SVGID_25_)" d="M112.5,80c-7.6-4.6-27.4,6.2-39.4,17.9c-11.7,12-22.5,31.7-17.9,39.4
				C67.5,156.7,87,170.4,89,172c7.5,4.8,16.4,3.1,27.3-5c4.1-3.1,8.8-7.1,13.4-11.8c4.7-4.7,9.4-10,12.4-14.1
				c8.2-10.9,9.8-19.8,5-27.3C145.6,111.7,131.9,92.2,112.5,80z"/>
			<path fill="#BD5048" d="M145.6,112.1c4.8,7.5,3.1,16.4-5,27.3c-3.1,4.1-7.8,9.4-12.4,14.1c-4.7,4.7-9.4,8.7-13.4,11.8
				c-10.9,8.2-19.8,9.8-27.3,5c-1.2-1-8.8-6.3-17.3-14.7c9.2,9.3,17.7,15.3,19,16.4c7.5,4.8,16.4,3.1,27.3-5
				c4.1-3.1,8.8-7.1,13.4-11.8c4.7-4.7,9.4-10,12.4-14.1c8.2-10.9,9.8-19.8,5-27.3c-1-1.3-7-9.8-16.4-19
				C139.2,103.3,144.6,110.9,145.6,112.1z"/>
			
				<linearGradient id="SVGID_26_" gradientUnits="userSpaceOnUse" x1="121.6816" y1="390.4202" x2="147.4832" y2="421.1899" gradientTransform="matrix(0.7071 -0.7071 0.7071 0.7071 -243.4328 -82.4193)">
				<stop  offset="0" style="stop-color:#D9FFFF"/>
				<stop  offset="1" style="stop-color:#7EBAFC"/>
			</linearGradient>
			<path opacity="0.5" fill="url(#SVGID_26_)" d="M139.3,129.4c0,0,4.6-5.3,3.8-9.3c-1.4-7.1-17.7-25-29.3-32.9
				c0,0,21.1,22.7,25.2,31.4C142.4,125.5,139.3,129.4,139.3,129.4z"/>
		</g>
		<g>
			<path fill="#4A2CAD" d="M112.5,187.7c3.1,0.4,5.1,4.1,4.5,8.2c-0.6,4.1-3.5,7.1-6.6,6.6c-3.1-0.4-5.1-4.1-4.5-8.2
				C106.5,190.2,109.5,187.3,112.5,187.7z"/>
			<g>
				<path fill="#333369" d="M111.4,189c0.3,2.1,0.3,4.1,0.2,6.1c-0.1,2-0.4,4.1-0.9,6.1c-0.3-2.1-0.3-4.1-0.2-6.1
					C110.7,193,110.9,191,111.4,189z"/>
				<path fill="#333369" d="M107.6,190.6c1.4,1.2,2.6,2.6,3.8,4.1c1.1,1.5,2.2,3.1,3,4.9c-1.4-1.2-2.6-2.6-3.8-4.1
					C109.6,194,108.5,192.4,107.6,190.6z"/>
				<path fill="#333369" d="M105.9,194.8c1.8-0.4,3.5-0.4,5.2-0.4c1.7,0.1,3.4,0.3,5.1,0.8c-1.8,0.4-3.5,0.4-5.2,0.4
					C109.3,195.6,107.6,195.4,105.9,194.8z"/>
				<path fill="#333369" d="M107.1,199.2c1-1.7,2.3-3.2,3.6-4.6c1.3-1.4,2.7-2.7,4.3-3.7c-1,1.7-2.3,3.2-3.6,4.6
					C110.1,196.9,108.7,198.2,107.1,199.2z"/>
			</g>
			<path fill="#F0C63D" d="M112,191.1c0,0-7.8-3.2-10.6-4.9c-2.8-1.7-11.7-6.3-19.4-0.5c-7.7,5.8-7.1,16.8-0.4,21.9
				c6.6,5.1,13.1,3.6,13.1,3.6c0.4-3.1,1.3-8.3,1.3-8.3c-7.8-0.1-12.8-4.2-10.9-7.9c1.8-3.4,7.3-3.3,12.9-0.3
				c6.5,3.5,12.9,4.3,12.9,4.3c1.6,0.2,3.2-1.4,3.5-3.6C114.7,193.3,113.7,191.4,112,191.1z"/>
			<path fill="#E0AC2B" d="M112,191.1c0,0-0.6-0.2-1.4-0.6c0,1.6-0.7,2.6-1.9,3.4c-1.7,1.1-5.9,0.7-11.8-2.5
				c-5.9-3.2-9.9-3.7-12.8-0.7c-3.9,3.9-3.5,7.1-0.7,10.3c3,3.6,8.7,2.8,9.3,6.4c0.4,2.4-1.1,3.3-3,3.8c3,0.5,5.8,0.1,5.8,0.1
				c-0.1-3.3,0.6-8.3,0.6-8.3c-7.8-0.1-12.8-4.2-10.9-7.9c1.8-3.4,7.3-3.3,12.9-0.3c6.5,3.5,12.9,4.3,12.9,4.3
				c1.6,0.2,3.2-1.4,3.5-3.6C114.7,193.3,113.7,191.4,112,191.1z"/>
			
				<linearGradient id="SVGID_27_" gradientUnits="userSpaceOnUse" x1="46.42" y1="441.6885" x2="55.9331" y2="431.5033" gradientTransform="matrix(0.7071 -0.7071 0.7071 0.7071 -243.4328 -82.4193)">
				<stop  offset="0" style="stop-color:#2F0658"/>
				<stop  offset="1" style="stop-color:#390A80"/>
			</linearGradient>
			<path fill="url(#SVGID_27_)" d="M105,187.4c-2.5-1.6-5.1-3-7.4,1.8c-1.6,3.3-0.3,5.8,3.2,7.3c0.3,0.1,1.3,0.5,2.2,0.5
				c-3-1.8-3.7-4-2.3-7c1.2-2.5,3.3-2.4,5.4-1.5C105.7,188.1,105.6,187.8,105,187.4z"/>
			
				<linearGradient id="SVGID_28_" gradientUnits="userSpaceOnUse" x1="44.6664" y1="432.7737" x2="47.1753" y2="419.9834" gradientTransform="matrix(0.7071 -0.7071 0.7071 0.7071 -243.4328 -82.4193)">
				<stop  offset="0" style="stop-color:#2F0658"/>
				<stop  offset="1" style="stop-color:#390A80"/>
			</linearGradient>
			<path fill="url(#SVGID_28_)" d="M93.5,182.7c-3.3-2-6.1-0.2-7.2,2.9c-1.1,3.2,1,5.8,3,7.2c0.3,0.2,1.4,0.5,2.4-0.2
				c-2.1-1.9-3-4.3-2.2-6.6c0.9-2.9,1.8-3.2,5.1-2.7C94.3,183.1,93.8,182.9,93.5,182.7z"/>
			
				<linearGradient id="SVGID_29_" gradientUnits="userSpaceOnUse" x1="34.4345" y1="426.3934" x2="31.2503" y2="417.6247" gradientTransform="matrix(0.7071 -0.7071 0.7071 0.7071 -243.4328 -82.4193)">
				<stop  offset="0" style="stop-color:#2F0658"/>
				<stop  offset="1" style="stop-color:#390A80"/>
			</linearGradient>
			<path fill="url(#SVGID_29_)" d="M79.3,193.7c-1.7-1.4-1.7-2.6-0.4-4.7c-0.3,0.1-0.6,0.2-0.9,0.4c-2.4,1.5-2.9,4.9-0.8,6.7
				s5.1,2.3,7.6,0.9c0.2-0.1,0.9-1.9,0.7-2.4C83.2,195.4,81.2,195.3,79.3,193.7z"/>
			
				<linearGradient id="SVGID_30_" gradientUnits="userSpaceOnUse" x1="33.4029" y1="434.8782" x2="25.1003" y2="439.256" gradientTransform="matrix(0.7071 -0.7071 0.7071 0.7071 -243.4328 -82.4193)">
				<stop  offset="0" style="stop-color:#2F0658"/>
				<stop  offset="1" style="stop-color:#390A80"/>
			</linearGradient>
			<path fill="url(#SVGID_30_)" d="M87.2,200.6c1.8,2.3,1.4,4.6,0,6.3c-1.5,1.8-4.5,1.9-6.3,0.2c0.1,0.2,0.8,1.4,2,2.3
				c2.6,1.8,5.7,2,7.5-0.8c1.9-3.1,1.3-4.9-0.4-6.7C89.7,201.6,88.2,200.6,87.2,200.6z"/>
		</g>
		<path fill="#4A2CAD" d="M289.6,219.7c-2.2,2.1-6.4,1.4-9.2-1.6c-2.8-3-3.3-7.2-1.1-9.3c2.2-2.1,6.4-1.4,9.2,1.6
			S291.8,217.6,289.6,219.7z"/>
		<g>
			<path fill="#333369" d="M289.3,218.1c-1.8-1.1-3.4-2.4-4.9-3.7c-1.5-1.4-3-2.8-4.2-4.5c1.8,1.1,3.4,2.4,4.9,3.7
				C286.6,215,288,216.4,289.3,218.1z"/>
			<path fill="#333369" d="M290.4,214.1c-1.8,0.4-3.7,0.4-5.6,0.4c-1.9-0.1-3.8-0.2-5.7-0.7c1.8-0.4,3.7-0.4,5.6-0.4
				C286.5,213.5,288.4,213.6,290.4,214.1z"/>
			<path fill="#333369" d="M288.2,210.1c-0.8,1.6-1.8,3-3,4.3c-1.2,1.3-2.4,2.5-3.9,3.5c0.8-1.6,1.8-3,3-4.3
				C285.5,212.3,286.7,211.1,288.2,210.1z"/>
			<path fill="#333369" d="M283.9,208.3c0.7,1.9,1.1,3.8,1.4,5.7c0.2,1.9,0.4,3.8,0.2,5.6c-0.7-1.9-1.1-3.8-1.4-5.7
				C283.9,212.1,283.8,210.2,283.9,208.3z"/>
		</g>
		<path fill="#F0C63D" d="M289.4,214.3c0,0,2.8-8.2,4.5-11c1.7-2.8,6-11.8,0.1-19.4c-6-7.6-16.9-6.7-21.9,0s-4.1,11-4.1,11
			c5,0,8.6,4.2,8.6,4.2c0-7.8,4.4-13.8,8.1-12c3.5,1.7,3.5,7.2,0.6,12.9c-3.4,6.6-3.4,10.7-3.4,10.7c-0.2,1.6,0.1,4.6,3,5.8
			C286.6,217.3,288.4,216.1,289.4,214.3z"/>
		<path fill="#E0AC2B" d="M276.6,199.1c0-7.8,4.4-13.8,8.1-12c1.7,0.8,2.5,2.5,2.7,4.7c1.2-4.1-0.5-8.2-4.1-8.5
			c-3.7-0.3-6.5,4.1-7.2,8.4c-0.6,3.9-4.8,2.8-8,1.6c-0.1,1,0,1.5,0,1.5C273,195,276.6,199.1,276.6,199.1z"/>
		<path fill="#E0AC2B" d="M284.9,178.7c1.8,0.7,3.8,1.7,5.6,3c4.9,3.7,3.8,11.5,2,15.9c-1.8,4.4-2.9,8.3-4.7,13.1
			c-1.4,3.6-3.6,2.7-5.8-0.4c0,0.2,0,0.4,0,0.4c-0.2,1.6,0.1,4.6,3,5.8c1.8,0.7,3.5-0.4,4.6-2.2c0,0,2.8-8.2,4.5-11
			c1.7-2.8,6-11.8,0.1-19.4C291.5,180.8,288.3,179.2,284.9,178.7z"/>
		
			<linearGradient id="SVGID_31_" gradientUnits="userSpaceOnUse" x1="66.8646" y1="-176.898" x2="76.378" y2="-187.0836" gradientTransform="matrix(0.7218 0.692 -0.692 0.7218 112.3772 285.2428)">
			<stop  offset="0" style="stop-color:#2F0658"/>
			<stop  offset="1" style="stop-color:#390A80"/>
		</linearGradient>
		<path fill="url(#SVGID_31_)" d="M292.8,206.9c1.5-2.6,2.9-5.2-1.9-7.4c-3.3-1.5-5.8-0.2-7.2,3.4c-0.1,0.3-0.5,1.3-0.5,2.2
			c1.7-3,4-3.8,6.9-2.4c2.5,1.1,2.5,3.3,1.6,5.4C292.1,207.6,292.4,207.5,292.8,206.9z"/>
		
			<linearGradient id="SVGID_32_" gradientUnits="userSpaceOnUse" x1="65.1108" y1="-185.8135" x2="67.6198" y2="-198.6043" gradientTransform="matrix(0.7218 0.692 -0.692 0.7218 112.3772 285.2428)">
			<stop  offset="0" style="stop-color:#2F0658"/>
			<stop  offset="1" style="stop-color:#390A80"/>
		</linearGradient>
		<path fill="url(#SVGID_32_)" d="M297.3,195.3c2-3.4,0.1-6.1-3.1-7.2c-3.2-1.1-5.8,1.2-7.1,3.2c-0.2,0.3-0.5,1.4,0.2,2.4
			c1.9-2.1,4.2-3,6.5-2.4c2.9,0.9,3.2,1.8,2.8,5.1C296.8,196.1,297.1,195.6,297.3,195.3z"/>
		
			<linearGradient id="SVGID_33_" gradientUnits="userSpaceOnUse" x1="54.8782" y1="-192.194" x2="51.6938" y2="-200.9632" gradientTransform="matrix(0.7218 0.692 -0.692 0.7218 112.3772 285.2428)">
			<stop  offset="0" style="stop-color:#2F0658"/>
			<stop  offset="1" style="stop-color:#390A80"/>
		</linearGradient>
		<path fill="url(#SVGID_33_)" d="M286,181.3c1.4-1.7,2.5-1.7,4.7-0.5c-0.1-0.2-0.2-0.6-0.4-0.9c-1.5-2.4-5-2.8-6.7-0.6
			c-1.8,2.1-2.2,5.2-0.7,7.6c0.1,0.2,1.9,0.9,2.4,0.6C284.3,185.3,284.4,183.3,286,181.3z"/>
		
			<linearGradient id="SVGID_34_" gradientUnits="userSpaceOnUse" x1="53.8464" y1="-183.7084" x2="45.5434" y2="-179.3304" gradientTransform="matrix(0.7218 0.692 -0.692 0.7218 112.3772 285.2428)">
			<stop  offset="0" style="stop-color:#2F0658"/>
			<stop  offset="1" style="stop-color:#390A80"/>
		</linearGradient>
		<path fill="url(#SVGID_34_)" d="M279.3,189.3c-2.3,1.8-4.6,1.5-6.3,0.2c-1.8-1.4-2-4.4-0.3-6.3c-0.2,0.1-1.4,0.8-2.2,2.1
			c-1.7,2.6-1.9,5.7,1,7.4c3.1,1.9,5,1.2,6.6-0.5C278.2,191.9,279.2,190.4,279.3,189.3z"/>
		<path fill="#333369" d="M140.5,244.2l11.1,45.3c-3.9,5.7-22.9,9.6-22.9,9.6c-25.2-40-33.6-69.2-33.4-89.9
			c15.3-3,39.1,10.9,46,34.4L140.5,244.2z"/>
		
			<linearGradient id="SVGID_35_" gradientUnits="userSpaceOnUse" x1="-6.594" y1="496.9243" x2="41.5587" y2="496.9243" gradientTransform="matrix(0.7071 -0.7071 0.7071 0.7071 -243.4328 -82.4193)">
			<stop  offset="0" style="stop-color:#F3F6FF"/>
			<stop  offset="1" style="stop-color:#CED7FD"/>
		</linearGradient>
		<path fill="url(#SVGID_35_)" d="M95.7,216.9c1.7,20.1,10.9,46.9,33.1,82.2c0,0,18.9-4,22.9-9.6l-11.1-45.3
			C128.3,227.1,106.1,213.4,95.7,216.9z"/>
		<path fill="#333369" d="M173.5,118.5c0.8-2.2,2.9-4.3,5.6-4.1c-1.7,20.8,13.2,34.4,42.6,48.3l-0.6,0.8
			C197.7,162.2,168.9,140.3,173.5,118.5z"/>
		
			<linearGradient id="SVGID_36_" gradientUnits="userSpaceOnUse" x1="168.7027" y1="613.5937" x2="166.3958" y2="645.2842" gradientTransform="matrix(0.7071 -0.7071 0.7071 0.7071 -243.4328 -82.4193)">
			<stop  offset="0" style="stop-color:#F3F6FF"/>
			<stop  offset="1" style="stop-color:#CED7FD"/>
		</linearGradient>
		<path fill="url(#SVGID_36_)" d="M315.5,226.7c-1,5.8-0.7,16.6-0.7,19.1l0,0.6c0,0,6.3,6.9,11.5,17.2
			C326.3,263.5,330,246.4,315.5,226.7z"/>
		<path fill="#653DD7" d="M253.5,373c4.8,4.9,9.6,8.8,13.3,11.5c5.8,4.2,24.7,7.9,44.4,10.4c-0.5-11.8-11.6-24.7-26.6-30.6
			C272.1,359.5,259.9,367.5,253.5,373z"/>
		<g>
			<path fill="#CACACA" d="M303.8,391.4c-0.2,0-0.4-0.2-0.4-0.4c-0.1-1.6-0.4-3.2-1-4.8c-0.1-0.2,0-0.4,0.2-0.5
				c0.2-0.1,0.4,0,0.5,0.2c0.6,1.7,1,3.4,1,5C304.2,391.3,304.1,391.4,303.8,391.4C303.8,391.4,303.8,391.4,303.8,391.4z M300.6,382
				c-0.1,0-0.2-0.1-0.3-0.2c-0.9-1.3-1.9-2.7-3.1-3.9c-0.1-0.2-0.1-0.4,0-0.5c0.1-0.1,0.4-0.1,0.5,0c1.2,1.3,2.2,2.6,3.1,4
				c0.1,0.2,0.1,0.4-0.1,0.5C300.7,382,300.6,382,300.6,382z M261.3,375c-0.1,0-0.3-0.1-0.3-0.2c-0.1-0.2,0-0.4,0.1-0.5
				c1.4-0.9,2.9-1.7,4.5-2.4c0.2-0.1,0.4,0,0.5,0.2c0.1,0.2,0,0.4-0.2,0.5c-1.5,0.7-3,1.5-4.4,2.4C261.4,375,261.3,375,261.3,375z
				 M293.8,374.7c-0.1,0-0.2,0-0.2-0.1c-1.3-1-2.7-2-4.1-2.8c-0.2-0.1-0.2-0.3-0.1-0.5c0.1-0.2,0.3-0.2,0.5-0.1
				c1.5,0.8,2.9,1.8,4.2,2.9c0.2,0.1,0.2,0.4,0.1,0.5C294,374.6,293.9,374.7,293.8,374.7z M270.3,370.6c-0.2,0-0.3-0.1-0.4-0.3
				c-0.1-0.2,0-0.4,0.2-0.5c1.7-0.6,3.3-1.1,4.9-1.4c0.2,0,0.4,0.1,0.4,0.3c0,0.2-0.1,0.4-0.3,0.4c-1.5,0.3-3.1,0.8-4.8,1.4
				C270.4,370.6,270.4,370.6,270.3,370.6z M285.1,369.6c0,0-0.1,0-0.1,0l-0.4-0.1c-1.3-0.5-2.8-0.8-4.4-0.8c-0.2,0-0.4-0.2-0.4-0.4
				c0-0.2,0.2-0.4,0.4-0.4h0c1.7,0,3.3,0.3,4.7,0.8l0.4,0.2c0.2,0.1,0.3,0.3,0.2,0.5C285.4,369.5,285.2,369.6,285.1,369.6z"/>
		</g>
		<path fill="#653DD7" d="M360.7,295.8c-6.1-2.8-14-3.9-23.2,1.1c-14.5,7.8-18,20.9-18.8,28.6c6,2.5,11.8,3.9,15.8,2.6
			C340.5,326.2,353.5,314.6,360.7,295.8z"/>
		<g>
			<path fill="#CACACA" d="M323.9,325.3C323.9,325.3,323.9,325.3,323.9,325.3c-0.3-0.1-0.4-0.3-0.4-0.5c0.4-1.6,0.7-2.9,1.1-4.1
				c0.1-0.2,0.3-0.3,0.5-0.2c0.2,0.1,0.3,0.3,0.2,0.5c-0.4,1.2-0.7,2.5-1.1,4.1C324.2,325.2,324.1,325.3,323.9,325.3z M326.8,316.5
				c-0.1,0-0.1,0-0.2,0c-0.2-0.1-0.3-0.3-0.2-0.5c0.8-1.6,1.6-3,2.5-4.4c0.1-0.2,0.4-0.2,0.5-0.1c0.2,0.1,0.2,0.4,0.1,0.5
				c-0.9,1.3-1.8,2.7-2.5,4.3C327.1,316.4,327,316.5,326.8,316.5z M332.6,308.3c-0.1,0-0.2,0-0.3-0.1c-0.1-0.1-0.1-0.4,0-0.5
				c1.2-1.2,2.5-2.3,3.9-3.3c0.2-0.1,0.4-0.1,0.5,0.1c0.1,0.2,0.1,0.4-0.1,0.5c-1.4,1-2.7,2.1-3.8,3.2
				C332.8,308.3,332.7,308.3,332.6,308.3z M340.7,302.4c-0.1,0-0.3-0.1-0.3-0.2c-0.1-0.2,0-0.4,0.2-0.5c1.7-0.9,3.2-1.5,4.7-2
				c0.2-0.1,0.4,0.1,0.5,0.3c0.1,0.2-0.1,0.4-0.3,0.5c-1.5,0.4-3,1.1-4.6,1.9C340.8,302.4,340.8,302.4,340.7,302.4z M355.3,300.1
				C355.3,300.1,355.3,300.1,355.3,300.1c-1.4-0.2-3-0.4-4.7-0.4c-0.1,0-0.2,0-0.3,0c0,0,0,0,0,0c-0.2,0-0.4-0.2-0.4-0.4
				c0-0.2,0.2-0.4,0.4-0.4c0.1,0,0.2,0,0.3,0c1.7,0,3.4,0.2,4.7,0.4c0.2,0,0.3,0.2,0.3,0.4C355.7,300,355.5,300.1,355.3,300.1z"/>
		</g>
		<path fill="#653DD7" d="M121.1,286.4c2.4,4.1,4.9,8.3,7.7,12.7c0,0,18.9-4,22.9-9.6l-3-12.1C142.5,281.8,128.9,285.6,121.1,286.4z
			"/>
		<path fill="#653DD7" d="M238.9,63.2c-2.7-6.3-19.9-15.7-22.8-10.2c-1.4,2.6-2.8,5.3-4.1,8.1c7.9,1.7,18.2,8.5,24.8,14.4
			L238.9,63.2z"/>
		<linearGradient id="SVGID_37_" gradientUnits="userSpaceOnUse" x1="96.2022" y1="260.3871" x2="142.5887" y2="260.3871">
			<stop  offset="0" style="stop-color:#F3F6FF"/>
			<stop  offset="1" style="stop-color:#CED7FD"/>
		</linearGradient>
		<path fill="url(#SVGID_37_)" d="M96.2,221.7c2.7,19.5,12,44.9,32.6,77.4c0,0,7.3-1.5,13.8-4.1c0,0,0,0,0,0
			C120.6,277.6,103,238.3,96.2,221.7z"/>
	</g>
</g>
</svg>
