<svg xmlns="http://www.w3.org/2000/svg" viewBox="0 0 215.28 221.84"><defs><style>.cls-1{fill:#f6e0b3;}.cls-2{fill:#7349bb;}.cls-3{fill:#885eca;}.cls-4{fill:#3a2145;}.cls-5{fill:#fff;}.cls-6{fill:#eae1fd;}.cls-7{fill:#9972e0;}.cls-8{fill:#dcd0f6;}.cls-9{fill:#d95956;}.cls-10{fill:#99dbed;}.cls-11{fill:#ecb648;}</style></defs><title>doc-item-img-1</title><g id="Слой_2" data-name="Слой 2"><g id="Слой_1-2" data-name="Слой 1"><path class="cls-1" d="M211.84,118c-7.73-19.62-29.62-26.9-49.13-27.2a37.69,37.69,0,0,0,5.18-18.25c.47-23.95-21-41.76-42.75-46.32-24.25-5.08-51.61,1.08-73.69,11.57C29.64,48.16,12,65.26,5,88.79a131.36,131.36,0,0,0-4.88,42c.48,12.7,6.38,30,12.55,41.22C23.71,192,40,201.6,60.77,210.54,106.16,230.11,165.7,226,197.7,184.63,211.56,166.73,220.56,140.11,211.84,118Z"/><polygon class="cls-2" points="154.19 182.59 77.64 138.4 77.64 3.1 154.19 47.3 154.19 182.59"/><polygon class="cls-3" points="126.98 198.23 50.44 154.03 50.44 18.74 126.98 62.93 126.98 198.23"/><polygon class="cls-2" points="126.98 62.93 154.19 47.3 154.19 182.59 126.98 198.23 126.98 62.93"/><polygon class="cls-4" points="132.64 68.26 132.64 77.21 149.96 67.25 149.96 58.3 132.64 68.26"/><polygon class="cls-5" points="132.64 154.4 149.96 144.44 149.96 67.25 132.64 77.21 132.64 154.4"/><polygon class="cls-4" points="138.67 76.8 136.53 78.03 136.53 148.43 138.67 147.2 138.67 76.8"/><polygon class="cls-6" points="147.07 50.8 76.56 10.06 56.25 21.73 126.98 62.2 147.07 50.8"/><polygon class="cls-7" points="77.64 3.1 76.56 3.73 151.86 47.23 127.32 61.36 52 17.84 50.44 18.74 126.98 62.93 154.19 47.3 77.64 3.1"/><polygon class="cls-2" points="76.56 3.73 76.56 10.06 146.37 50.39 151.86 47.23 76.56 3.73"/><path class="cls-8" d="M98.87,41.4a201.26,201.26,0,0,0-33.3-20.19.07.07,0,0,0-.07.13C76.67,28,87.74,34.7,98.7,41.71,98.9,41.84,99.05,41.54,98.87,41.4Z"/><path class="cls-8" d="M125.55,43a200.31,200.31,0,0,0-33.3-20.19c-.09,0-.16.07-.08.12,11.18,6.66,22.24,13.37,33.2,20.38C125.57,43.38,125.73,43.08,125.55,43Z"/><path class="cls-8" d="M135.23,52.27c-3.72-2.71-7.89-4.79-11.86-7.11s-7.9-4.76-11.91-7a.24.24,0,0,0-.24.41c7.26,5.23,15.53,10.74,23.93,13.92C135.27,52.52,135.33,52.34,135.23,52.27Z"/><path class="cls-5" d="M135.67,168.74c0,4.82,2.93,7,6.55,4.95s6.55-7.69,6.55-12.51-2.94-7-6.55-5S135.67,163.92,135.67,168.74Z"/><path class="cls-6" d="M146.29,157.58a6.17,6.17,0,0,1,.86,3.41c0,4-2.43,8.66-5.44,10.4a3.36,3.36,0,0,1-3.8.12c1,1.45,2.65,1.82,4.58.7,3-1.73,5.44-6.38,5.44-10.39C147.93,159.79,147.3,158.32,146.29,157.58Z"/><path class="cls-2" d="M141.71,171.39c3-1.74,5.44-6.39,5.44-10.4a6.17,6.17,0,0,0-.86-3.41,3.37,3.37,0,0,0-3.8.13c-3,1.73-5.44,6.39-5.44,10.39a6.15,6.15,0,0,0,.86,3.41A3.36,3.36,0,0,0,141.71,171.39Z"/><path class="cls-9" d="M137.57,49.7l-7.1-4.1V33.87c0-7.09,2.41-10.88,2.41-10.88L140,27.08s-2.4,5-2.4,14.16Z"/><polygon class="cls-10" points="88.07 24.24 82.21 20.86 82.21 0 88.07 3.38 88.07 24.24"/><path class="cls-11" d="M101.53,39.18,95.67,35.8v-13a38.45,38.45,0,0,1,.79-5.7l5.85,3.38a32.31,32.31,0,0,0-.78,5.23Z"/><path class="cls-4" d="M148.24,95l-7,4.5v-1.1l5.67-3.66V92.57l-5.67,3.65v-1.1l7-4.51Z"/><path class="cls-4" d="M141.52,101.11a6.53,6.53,0,0,1,1-1.36,8.24,8.24,0,0,1,1.43-1.18,4.92,4.92,0,0,1,1.43-.66,1.32,1.32,0,0,1,1,.09.93.93,0,0,1,.35.82,2.87,2.87,0,0,1-.35,1.27,6.25,6.25,0,0,1-1,1.36,7.88,7.88,0,0,1-1.43,1.18,4.8,4.8,0,0,1-1.43.66,1.3,1.3,0,0,1-1-.09.89.89,0,0,1-.35-.82A2.78,2.78,0,0,1,141.52,101.11Zm1.33.87a2.23,2.23,0,0,0,1.08-.44,4.14,4.14,0,0,0,1.09-1,1.59,1.59,0,0,0,.4-.94.36.36,0,0,0-.4-.41,2.06,2.06,0,0,0-1.09.43,4.25,4.25,0,0,0-1.08,1,1.64,1.64,0,0,0-.41.94A.37.37,0,0,0,142.85,102Z"/><path class="cls-4" d="M146.62,105.12l-5.37,3.46v-1.07l4.09-2.64V103.7l-1,.58a19.57,19.57,0,0,1-1.76,1,3.09,3.09,0,0,1-1.09.35c-.27,0-.4-.14-.4-.43a2.38,2.38,0,0,1,.12-.64l1.27-.76c0,.08,0,.13,0,.17s.09.22.26.19a2.27,2.27,0,0,0,.65-.25l1-.61,2.16-1.34Z"/><path class="cls-4" d="M146.62,106.15v1.06l-3.2,2.06,3.2-.26v1l-5.37,3.46v-1.06l3.19-2.06-3.19.27v-1Z"/><path class="cls-4" d="M145.34,114.94V113.7l-4.09,2.63v-1.06l4.09-2.64v-1.25l1.28-.82v3.56Z"/><path class="cls-4" d="M146.62,114.69v1.06l-3.2,2.06,3.2-.26v1L141.25,122v-1.06l3.19-2.06-3.19.27v-1Z"/><path class="cls-4" d="M143.28,123.34v-.56l-2,1.31V123l5.37-3.46v1.07L144.53,122v.57l2.09-.34v1.14l-2.58.37-2.79,3.18v-1.26Z"/><path class="cls-4" d="M146.11,127a6.59,6.59,0,0,1-1.8,1.62l-3.06,2v-1l.67-.43c-.5.12-.75-.09-.75-.64a2.06,2.06,0,0,1,.21-.88,3.47,3.47,0,0,1,.58-.85,4.34,4.34,0,0,1,.83-.7,1.61,1.61,0,0,1,1.18-.37c.29.07.43.38.43.92v.85a2.93,2.93,0,0,0,.79-.72,1.4,1.4,0,0,0,.27-.81.87.87,0,0,0-.13-.5.61.61,0,0,0-.37-.25l1.09-1.08a.84.84,0,0,1,.48.41,1.61,1.61,0,0,1,.17.76A3,3,0,0,1,146.11,127Zm-3.71,1.48a.71.71,0,0,0,.54-.05l.55-.36v-.73c0-.44-.21-.52-.63-.25a1.48,1.48,0,0,0-.47.46,1,1,0,0,0-.18.56A.39.39,0,0,0,142.4,128.46Z"/></g></g></svg>