<svg xmlns="http://www.w3.org/2000/svg" viewBox="0 0 190.04 224.62"><defs><style>.cls-1{fill:#b098ea;}.cls-2{fill:#7349bb;}.cls-3{fill:#ce4539;}.cls-4{fill:#d95956;}.cls-5{fill:#3a2145;}.cls-6{fill:#fff;}.cls-7{fill:#eae1fd;}.cls-8{fill:#df6969;}.cls-9{fill:#dcd0f6;}.cls-10{fill:#885eca;}.cls-11{fill:#99dbed;}.cls-12{fill:#ecb648;}</style></defs><title>doc-item-img-3</title><g id="Слой_2" data-name="Слой 2"><g id="Слой_1-2" data-name="Слой 1"><path class="cls-1" d="M190,158.58c-.65-20-8.65-35.74-25.7-45.58a73.39,73.39,0,0,0,9.47-18.53c6.57-19.55,3.37-42.66-12.9-57.23-8.93-8-20.56-13.46-32-17.51a109.36,109.36,0,0,0-39.22-6.55c-22.83.6-46.11,10.11-59.45,28-12.92,17.35-15.36,42.27-4.92,61.25a32.12,32.12,0,0,0,2.55,4.63c-20.25,12-31.59,36.59-26.7,58.67C7.06,192.51,32,210.89,58.61,218.62a164.36,164.36,0,0,0,46.64,6c15.41-.11,31-2.3,45.24-8C174.64,206.89,190.85,184.42,190,158.58Z"/><polygon class="cls-2" points="140.71 179.49 64.16 135.29 64.16 0 140.71 44.2 140.71 179.49"/><polygon class="cls-3" points="113.5 195.13 36.95 150.93 36.95 15.64 113.5 59.83 113.5 195.13"/><polygon class="cls-4" points="113.5 59.83 140.71 44.2 140.71 179.49 113.5 195.13 113.5 59.83"/><polygon class="cls-5" points="119.15 65.16 119.15 74.11 136.47 64.15 136.47 55.2 119.15 65.16"/><polygon class="cls-6" points="119.15 151.3 136.47 141.34 136.47 64.15 119.15 74.11 119.15 151.3"/><polygon class="cls-5" points="125.18 73.7 123.04 74.93 123.04 145.33 125.18 144.1 125.18 73.7"/><polygon class="cls-7" points="133.59 47.7 63.07 6.96 42.76 18.63 113.5 59.1 133.59 47.7"/><polygon class="cls-8" points="64.16 0 63.07 0.63 138.37 44.13 113.83 58.26 38.51 14.74 36.95 15.64 113.5 59.83 140.71 44.2 64.16 0"/><polygon class="cls-3" points="63.07 0.63 63.07 6.96 132.88 47.29 138.37 44.13 63.07 0.63"/><path class="cls-9" d="M85.39,38.3a201.67,201.67,0,0,0-33.3-20.19c-.09,0-.16.08-.08.13C63.19,24.9,74.25,31.6,85.21,38.61,85.41,38.74,85.57,38.44,85.39,38.3Z"/><path class="cls-9" d="M112.06,39.85a201,201,0,0,0-33.3-20.2.07.07,0,0,0-.07.13c11.17,6.66,22.23,13.37,33.19,20.38C112.08,40.28,112.24,40,112.06,39.85Z"/><path class="cls-9" d="M121.74,49.17c-3.72-2.71-7.89-4.8-11.86-7.11S102,37.3,98,35a.24.24,0,0,0-.24.41c7.26,5.23,15.53,10.74,23.93,13.92C121.79,49.42,121.84,49.24,121.74,49.17Z"/><path class="cls-6" d="M122.18,165.64c0,4.82,2.93,7,6.55,5s6.55-7.69,6.55-12.51-2.93-7-6.55-5S122.18,160.82,122.18,165.64Z"/><path class="cls-7" d="M132.8,154.48a6.17,6.17,0,0,1,.86,3.41c0,4-2.43,8.66-5.44,10.4a3.36,3.36,0,0,1-3.8.12c1,1.45,2.66,1.82,4.58.7,3-1.73,5.44-6.38,5.44-10.39C134.44,156.69,133.81,155.22,132.8,154.48Z"/><path class="cls-4" d="M128.22,168.29c3-1.74,5.44-6.39,5.44-10.4a6.17,6.17,0,0,0-.86-3.41,3.37,3.37,0,0,0-3.8.13c-3,1.73-5.44,6.39-5.44,10.39a6.15,6.15,0,0,0,.86,3.41A3.36,3.36,0,0,0,128.22,168.29Z"/><path class="cls-10" d="M76.33,29,69.24,24.9V13.17c0-7.09,2.4-10.89,2.4-10.89l7.09,4.1s-2.4,5-2.4,14.16Z"/><polygon class="cls-11" points="113.3 52.31 107.44 48.93 107.44 28.07 113.3 31.45 113.3 52.31"/><path class="cls-12" d="M122.63,45l-5.86-3.38V28.58a38.47,38.47,0,0,1,.79-5.69l5.86,3.38a31.93,31.93,0,0,0-.79,5.23Z"/><path class="cls-5" d="M128.15,93.63a1.08,1.08,0,0,1-.33-.92c0-1.2,1.22-2.84,3.46-4.19s3.58-1.27,3.58,0a2.54,2.54,0,0,1-.3,1.19l-.72.31a2.33,2.33,0,0,0,.28-1c0-1-1-1-2.81,0s-2.75,2.26-2.75,3.3a.85.85,0,0,0,.29.72Z"/><path class="cls-5" d="M130.42,95.59c-1.82,1.1-2.61.79-2.61.06s1-2.05,2.53-3,2.6-.91,2.6-.06S131.91,94.69,130.42,95.59Zm0-2.39c-1.08.65-1.89,1.52-1.89,2.07s.8.44,1.91-.23c.83-.5,1.88-1.39,1.88-2.05S131.3,92.64,130.37,93.2Z"/><path class="cls-5" d="M132.83,96.69l-.72.44V95.81l-4.18,2.52v-.54l4.9-3Z"/><path class="cls-5" d="M132.83,99.46l-4.9,3v-.55l4.2-2.54v-1l-1.28.77c-1.38.83-2.3,1.31-2.71,1.16-.2,0-.31-.13-.31-.42l.7-.48a.25.25,0,0,0,.21.18c.33.08,1-.3,2.11-1l2-1.2Z"/><path class="cls-5" d="M127.93,105l.61-.41v0c-.38.06-.73-.06-.73-.49,0-.62.7-1.36,1.41-1.79,1.19-.72,1.83-.45,1.82.73l.11-.06c.4-.24,1.13-.75,1.13-1.38a.57.57,0,0,0-.37-.57l.59-.48a.71.71,0,0,1,.44.74c0,.93-1,1.78-2,2.37l-1.83,1.11c-.43.26-.84.52-1.17.76Zm2.5-1.59c0-.62-.16-1.2-1.11-.63-.57.35-.85.76-.85,1s.41.41.82.24a1.53,1.53,0,0,0,.29-.14Z"/><path class="cls-5" d="M132.83,103.94l-4.21,2.54v1.07l4.21-2.55v.55l-4.21,2.54v1.06l4.21-2.54v.55l-4.9,3v-3.77l4.9-3Z"/><path class="cls-5" d="M130.21,110c-1.2.74-1.7,1.52-1.7,2.08a.79.79,0,0,0,.26.69l-.64.48a1,1,0,0,1-.31-.83c0-.94,1-2.1,2.47-3s2.65-1.05,2.65-.16-1.41,2.11-2.31,2.65l-.42.24Zm.64,1.24c.57-.33,1.45-1,1.45-1.64s-.83-.31-1.45,0Z"/><path class="cls-5" d="M132.83,111.76l-2,1.19v1.45l2-1.19v.55l-4.9,3v-.55l2.21-1.34v-1.45l-2.21,1.34v-.55l4.9-3Z"/><path class="cls-5" d="M132.83,115.17l-2.07,1.25c-.78.48-1.27.76-2,1.16v0c.59-.18.94-.28,1.5-.42l2.54-.58v.65l-4.9,3v-.53l2.07-1.26c.8-.48,1.22-.72,2-1.17v0c-.63.19-1,.29-1.52.42-.76.16-1.7.4-2.56.59v-.63l4.9-3Z"/><path class="cls-5" d="M130.21,120.05c-1.2.74-1.7,1.52-1.7,2.07a.77.77,0,0,0,.26.69l-.64.48a1,1,0,0,1-.31-.83c0-.94,1-2.1,2.47-3s2.65-1.06,2.65-.17-1.41,2.11-2.31,2.66c-.18.11-.32.18-.42.23Zm.64,1.24c.57-.34,1.45-1,1.45-1.65s-.83-.3-1.45,0Z"/></g></g></svg>