<svg xmlns="http://www.w3.org/2000/svg" viewBox="0 0 290.34 323.61"><defs><style>.cls-1{fill:#231f25;}.cls-2{fill:#c2bddc;}.cls-3{fill:#e8e8e8;}.cls-4{fill:#d4d4d4;}.cls-16,.cls-17,.cls-5{fill:#8e8bab;}.cls-6{fill:#541a16;}.cls-7{fill:#131519;}.cls-8{fill:#382f3d;}.cls-9{fill:#d78483;}.cls-10{fill:#242027;}.cls-11{fill:#a5575c;}.cls-12{fill:#676674;}.cls-13{fill:#353441;}.cls-14{fill:#e6e7e6;}.cls-15{fill:#222220;}.cls-16{font-size:32.83px;}.cls-16,.cls-17{font-family:Borsok;}.cls-17{font-size:51.68px;}</style></defs><title>doc-penguin</title><g id="Слой_2" data-name="Слой 2"><g id="Слой_1-2" data-name="Слой 1"><path class="cls-1" d="M208.27,253.37c-.45,1.93-2.63,6-3.09,7.86a91.09,91.09,0,0,1-4.28,13.86c-1.55,3.69-1.9,5.56-5.64,7-.43.16-.27,1.14-.62,1.3,2.2,3.31,4.38,6.52,6.49,9.78,2.89,4.47,4.82,9.42,6.78,14.33a17.28,17.28,0,0,1,1.34,7.31c-.07,1.42,1.85,3.4,1.05,4.59-2.07,3.07-7.55,3.44-10.9,1.87a64.42,64.42,0,0,1-5.65-3.34c-.83-.5-1.63-1.08-2.49-1.51-2-1-2.85-.79-4.29.92-.54.65-1,1.39-1.5,2.07s.84,2.09.19,2.73c-2.2,2.14-6.69,1.49-8.84-.68-.69-.69-1.24-1.51-1.9-2.22-1.2-1.29-1.83-1.28-2.91.12-1.23,1.6,0,2.79-1.86,3.49-2.17.8-6.93.14-8.3-1.72a9.66,9.66,0,0,1-1.74-7.27A70.21,70.21,0,0,1,163.06,302c1.51-4.75,3-9.51,4.44-14.27.31-1,.9-2.55,1.18-3.46,2.06.37,3.72,1.33,5.67,1.65a12.44,12.44,0,0,0,6-.05c2.19-.7,4.53-1,6.5-2.24a24.22,24.22,0,0,0,3.58-2.79,8,8,0,0,0,1.61-2.41c1.73-3.65-.07-6.75-4.1-6.84a58.47,58.47,0,0,0-6.71.52,14.42,14.42,0,0,1-3.11.18,5.33,5.33,0,0,1,.77-.5c4.76-2,9.56-3.91,14.29-6,5.38-2.36,10.12-5.78,14.83-9.24.45-.33.87-.67,1.32-1,.08-.06-1.42-2.2-1.09-2.23"/><path class="cls-1" d="M87.16,283.11c2,.92,4,.5,6,.23a9.78,9.78,0,0,0,4.07-1.49,6,6,0,0,0,2.48-7.9,9.16,9.16,0,0,0-3-3.81c-2.11-1.54-4.28-3-6.43-4.5a4.38,4.38,0,0,1-1-.93c9.75,4.52,19.44,9.13,30.32,11.46-4.47,2.21-3.72,4.65-7.18,6.52.4,1.45,1.27,4.83,1.7,6.21,1.68,5.4,3.42,10.77,5.05,16.19.73,2.44,1.32,4.93,1.82,7.43a10.72,10.72,0,0,1-.91,7.63,6.59,6.59,0,0,1-8.38,2.65c-1.52-.7-1.32-2.07-2.37-3.38-1.16-1.46-1.79-1.47-3-.1-.57.63-1,1.34-1.64,2-2.29,2.42-6.36,3.32-8.67.91-.67-.7.17-2.41-.43-3.18s-1.14-1.58-1.8-2.29a2.38,2.38,0,0,0-3-.62c-1,.51-2,1.09-3,1.69-1.61,1-3.14,2.09-4.79,3-2.41,1.32-7.1,2-9.6.34-2.69-1.8-1.63-4.59-1.28-7.71a23.84,23.84,0,0,1,1.41-6.21c2.11-5.24,4.22-10.5,7.41-15.23q2.53-3.78,5.11-7.55c.31-.44.71-.82,1.14-1.32"/><path class="cls-2" d="M87.56,101.73a38.62,38.62,0,0,0,2.14,3.51c1.2,1.57,1.34,1.84.23,3.53-1.41,2.13-2.89,4.21-4.38,6.29-3.91,5.43-7.85,10.84-11.75,16.27a36.74,36.74,0,0,0-4.48,8.53c-5.31,14-9.92,28.2-14.27,42.5-.83,2.73-2,3.19-4.08,1.38a27.11,27.11,0,0,1-6.23-7.1A11.91,11.91,0,0,1,43.53,167a25.72,25.72,0,0,1,1.34-3.58c2.46-5.1,5.74-6,10.66-5.88,1.21,0,2.4.28,3.6.42a1.07,1.07,0,0,0,.34-.09c-.09-.11-.17-.31-.29-.33-1.07-.22-2.16-.34-3.21-.61a88.82,88.82,0,0,1-9.48-2.56,24.35,24.35,0,0,1-14.22-13.12,18.25,18.25,0,0,1-.56-13.88,17.3,17.3,0,0,1,6.56-8.13,24.73,24.73,0,0,1,11.84-4.33,39,39,0,0,1,11.81.28,1.94,1.94,0,0,0,.61-.1,1.89,1.89,0,0,0-.26-.44c-.6-.61-1.26-1.16-1.83-1.79-1.92-2.12-3.88-4.2-5.69-6.4a19.81,19.81,0,0,1-4.3-9.92c-.61-4.11-1-8.2.42-12.26,2.65-7.54,7.62-12.46,15.67-13.85a24.26,24.26,0,0,1,5.25-.31c2.29.11,2.8.7,3.09,3,.16,1.2.17,2.43.36,3.63A45.5,45.5,0,0,0,86.9,101.35a3,3,0,0,0,.73.44l-.07-.06"/><path class="cls-2" d="M192.79,94.36l2.84-5.22c2-2.93,2.87-6.28,3.69-9.63.73-2.94,1.23-5.94,1.83-8.92.41-2,.7-2.29,2.64-2.65a4.71,4.71,0,0,0,1.55-.45c3.29-2,6.82-1.92,10.43-1.32a24,24,0,0,1,9.91,4.4A15.31,15.31,0,0,1,230.41,76a26.37,26.37,0,0,1,3.05,12.44,21.66,21.66,0,0,1-.87,5,34,34,0,0,1-9.33,16c-1.76,1.75-1.67,1.7-.08,3.55,4.09,4.73,8.29,9.4,12.13,14.34a58.6,58.6,0,0,1,9.87,20,4.53,4.53,0,0,1-1.55,5.23c-2.44,1.91-5,3.66-7.5,5.48-.25.17-.54.29-.79.46a2,2,0,0,0-.34.37,1.5,1.5,0,0,0,.42.21c.84.11,1.69.19,2.54.28a15.84,15.84,0,0,1,13.56,11.36,10.22,10.22,0,0,1-1.6,9c-2.29,3.31-5.34,5.85-9.46,6.58-2.27.41-4.6.43-6.9.63a9.63,9.63,0,0,0-1.61.25c-1.53.4-2.14.11-2.52-1.39-.32-1.3-.55-2.62-.83-3.92a202.59,202.59,0,0,0-7.43-27c-1.14-3.14-1.94-6.42-3.34-9.43-2.91-6.22-6-12.33-9.23-18.4a119.55,119.55,0,0,0-9.28-15.69c-2.34-3.17-4.82-6.26-7.36-9.27-2-2.32-2-2.23-.61-4.84.52-1,1-2,1.44-2.92"/><path class="cls-3" d="M87.63,101.79c-1.37-2.7-2.91-5.33-4.06-8.13-1.67-4-3.07-8.19-4.56-12.3a3.41,3.41,0,0,1-.16-1.24c0-1,.18-2,.17-3,0-5-.21-10-.06-14.95a53.9,53.9,0,0,1,1.65-12.82c2.14-7.7,5.63-14.67,11.93-19.84,4.86-4,10.58-6.39,16.62-8a54.18,54.18,0,0,1,13.34-1.78c6.51-.09,13-.12,19.54,0a88.71,88.71,0,0,1,8.9.73c4.47.51,8.91,1.22,13.38,1.68,5.36.55,10.22,2.55,15,4.75,2.16,1,4.34,1.92,6.44,3a33.84,33.84,0,0,1,4,2.53c3.18,2.28,4.81,5.65,5.84,9.23,1.73,6,3.28,12.08,4.75,18.16a25.41,25.41,0,0,1-.15,11.41c-1.17,5.33-2.67,10.59-4,15.88-.18.7-.37,1.4-.55,2.11l-2.84,5.22a10.82,10.82,0,0,0-3.06,4.43,2.61,2.61,0,0,0-.06,1.72,62.69,62.69,0,0,0,3.4,8.23,128.65,128.65,0,0,0,7.29,11.58c5.87,8.29,10.28,17.34,14.23,26.65.78,1.85,1.54,3.71,2.39,5.52a117.9,117.9,0,0,1,10,33.25,103.45,103.45,0,0,1,.64,27.29c-.37,3.08-.62,6.17-1,9.25-.09.78.06,1,.84.82s.81.28.6.85c-.78,2.17-1.47,4.38-2.37,6.51a96,96,0,0,1-8.29,15.61,41,41,0,0,1-5.22,6.32c-2.79,2.78-3.87,6.2-4.48,9.92a44.37,44.37,0,0,1-6,16.14c-1.16,1.88-3.31,2.95-5.2,3.94-5.3,2.79-10.62,4.53-16.65,4.4A53.65,53.65,0,0,1,172,286a8.31,8.31,0,0,1-6.27-5.08c-.52-1.1-1-2.23-1.46-3.35a1,1,0,0,0-1.28-.69c-6.62,1.12-13.32,1.17-20,1.47a114.8,114.8,0,0,1-20.54-1.32c-1-.15-2.22-.74-3-.39s-1.13,1.62-1.63,2.52a13.76,13.76,0,0,1-7.33,6,6.21,6.21,0,0,1-2.51.32c-4.44-.12-8.89-.2-13.32-.48a23.1,23.1,0,0,1-10.09-3.48c-1.88-1.07-3-3-4.09-4.82a64.37,64.37,0,0,1-5-12.13c-1-2.95-2-5.88-2.9-8.84a14.19,14.19,0,0,0-3.15-5.28,70.92,70.92,0,0,1-14.38-25.18,47,47,0,0,1-1.55-7.85,66.42,66.42,0,0,1-.21-13.3,118.31,118.31,0,0,1,6.18-32.71c5.1-14.75,10.91-29.19,19.23-42.47a145.49,145.49,0,0,1,13.9-19.21c1.12-1.27,1.23-1-.09-2.43-1.7-1.81-3.3-3.71-5-5.57Z"/><path class="cls-4" d="M64.92,190.93c-.45,3.45-1.11,6.86-1.29,10.3-.34,6.26-.58,12.52-.54,18.79a76,76,0,0,0,5.62,27.74,6.29,6.29,0,0,1,.49,2c-2.24-2.94-3.19-6.5-4.88-9.86-1.29.28-1.86-.54-2.19-1.72-2.29-8.15-4.37-16.34-4.52-24.88,0-2-.26-4-.34-6-.27-6.56.89-13,2-19.39a32.34,32.34,0,0,1,.75-3.38,3.27,3.27,0,0,0,0-2.91,3.62,3.62,0,0,1,.14-2.47,19.52,19.52,0,0,1,6.14-9.31,53.12,53.12,0,0,1,11.69-7.41c6.37-3,12.82-5.91,19.26-8.8a212.78,212.78,0,0,1,25.68-9.44,82.2,82.2,0,0,1,19.18-3.45,35.71,35.71,0,0,1,5.46.25,2.6,2.6,0,0,0,2.28-.75c1.32-1.26,2.73-2.43,4.15-3.57a12,12,0,0,1,5.18-2.59c2.52-.48,4.43.53,5,3a18.42,18.42,0,0,1,.4,5.24,23.31,23.31,0,0,1-2.5,9.47c-2,3.94-4.18,7.83-6.46,11.63a34.2,34.2,0,0,1-12.15,11.63c-5.61,3.34-11.64,5.8-17.64,8.33a101.21,101.21,0,0,1-26.19,7c-3.92.51-7.82,1.23-11.75,1.56a70.77,70.77,0,0,1-9.66.09c-4.31-.22-8.6-.71-13.28-1.12"/><path class="cls-4" d="M162.22,27.94a16.68,16.68,0,0,1,2.45,0c16.13,2.52,27.81,13.93,30.71,29.38a63.35,63.35,0,0,1,.6,17.82,64.91,64.91,0,0,1-2.85,14.28,38,38,0,0,1-6,11.24,49,49,0,0,1-4.52,4.59l1.3.09c0,.35.12.75,0,.88-.57.53-1.21,1-2,1.52l1.62.17a13.09,13.09,0,0,1-5.12,1.77c-1.91.38-3.8.82-5.71,1.17s-3.51,1.15-5.35.76l-.12-.45a15,15,0,0,1,1.56-.64,35.77,35.77,0,0,0,12.68-7A25.37,25.37,0,0,0,188,95a45.06,45.06,0,0,0,4-13,76.43,76.43,0,0,0,.79-18.56c-1-10-4.84-18.73-12.6-25.33a37.31,37.31,0,0,0-13.81-7.6,30.6,30.6,0,0,1-3.09-1.09c-.54-.22-1.15-.47-1.07-1.48"/><path class="cls-5" d="M62.35,150.64a13.79,13.79,0,0,1-7,.32c.12.84.21,1.41.29,2,.93.44,2.14.42,2.19,1.78-.49.46-1,1-1.6,1.47a1.94,1.94,0,0,1-1.1.52,17.28,17.28,0,0,1-4.14-.3,56.15,56.15,0,0,1-5.83-2.07c-6.09-2.32-10.06-6.79-12.85-12.53A18.27,18.27,0,0,1,31,129.54a16.5,16.5,0,0,1,5.19-8.49,3.4,3.4,0,0,1-.38,1.93,17.6,17.6,0,0,0-1.32,8.55,14.91,14.91,0,0,0,3.63,8.21c4,4.68,9.21,7.14,15.2,8.32a35.79,35.79,0,0,1,9,2.58"/><path class="cls-5" d="M210.37,109.48a20.65,20.65,0,0,1,2.19-1.24c7.9-3.26,12.88-9.14,15.33-17.23,1.29-4.25.83-8.54-.1-12.81a14.55,14.55,0,0,0-7.45-10.08c-.35-.19-.69-.42-1.34-.82a5.33,5.33,0,0,1,1.05.09c5.09,2,9.11,5.11,11.24,10.28a28.86,28.86,0,0,1,2.11,7.89c.72,6.91-1.51,13-5.31,18.53a73,73,0,0,1-5.85,7,2.73,2.73,0,0,1-3,.89c-1.75-.41-3.6-.4-5.22-1.36a.91.91,0,0,0-.52-.09c-1.53,0-1.53,0-3.13-1"/><path class="cls-5" d="M83.86,118.41c-3.18.31-6.09-1.41-9.43-1.28a5.51,5.51,0,0,1-.43.74,2.71,2.71,0,0,1-3.49.82c-2-.88-4-1.7-6-2.61a8.15,8.15,0,0,1-2.16-1.31,49.36,49.36,0,0,1-8.05-8.91c-5.08-7.68-5.94-15.8-2.37-24.28a13.87,13.87,0,0,1,5.58-6.81,3.43,3.43,0,0,1-.25.55,25,25,0,0,0-3.08,6.57,19.05,19.05,0,0,0,.89,14.54A33.26,33.26,0,0,0,67.6,110.56,52.64,52.64,0,0,0,80,116.3c1.37.45,2.68,1.06,4,1.6l-.12.51"/><path class="cls-5" d="M230.75,181.82l-2.47-1.44a7.32,7.32,0,0,1,4.38,0,17.62,17.62,0,0,0,7.58.16c4.63-1.08,10.08-5.76,9.23-12.25-.11-.82-.35-1.62-.41-2.46,2.51,3.63,3.85,7.45,2.2,11.89-2,5.53-6.34,8.07-11.83,9a42.28,42.28,0,0,1-5.63.41c-2.17.07-2.51-.46-1.92-2.64-1.17-1.35-1.17-1.35-1.13-2.7"/><path class="cls-6" d="M132,89.55c1,.14,1.88.31,2.77.37,3.75.26,7.51.49,11.27.74a5.5,5.5,0,0,1,1.08.14c1,.32,1.36,1,.81,2-2.39,4.1-5.63,7-10.66,7.16A9,9,0,0,1,132,98.28a4.57,4.57,0,0,1-1.56-1.94c-1-2.23-.08-5.6,1.6-6.79"/><path class="cls-5" d="M224.12,159.68l.7-1a6,6,0,0,0-.61-.32c-.6-.22-1.26-.55-1.08-1.24a3.19,3.19,0,0,1,1.1-1.32,2.55,2.55,0,0,1,1-.38,27,27,0,0,0,10.43-5.4c.33-.27.67-.53,1-.77,1.4-1,1.79-.84,2.6.75,2-.22,3.66.8,5.69,1.57a8.31,8.31,0,0,1-1.09,1.36,88.46,88.46,0,0,1-8.37,5.81c-2.44,1.43-5,1.68-7.65,1.93-1.15.11-2.37-.57-3.76-.95"/><path class="cls-4" d="M103.13,107.38c.16,1-.51,1.57-1,2.21-2.14,2.88-4.32,5.72-6.48,8.59a85.17,85.17,0,0,0-10.15,17.67c-.7,1.61-1.43,3.22-2.21,4.8a4.33,4.33,0,0,1-1.2,1.56,1.68,1.68,0,0,1-1.49.14c-.36-.2-.55-.86-.65-1.34a2.18,2.18,0,0,1,.27-1,76.28,76.28,0,0,1,13.44-24.28,107.78,107.78,0,0,1,7.84-7.87c.4-.39.85-.95,1.62-.44"/><path class="cls-5" d="M57.66,181.94c-1.74.09-3.56-.6-5.33.53-.12.59,1.19,1.15.16,2.11a14,14,0,0,1-2.06-1.21,23.08,23.08,0,0,1-6.31-7.92,11,11,0,0,1-.76-7.81c.75-2.77,1.68-5.47,3.84-7.53a7.68,7.68,0,0,1,.69-.59c.08-.06.22,0,.44-.07a13.54,13.54,0,0,0-2.16,6.09A10.29,10.29,0,0,0,49.89,175c1.53,1.29,3.22,2.39,4.78,3.64,1.12.9,2.14,1.91,3.21,2.87-.07.16-.15.31-.22.47"/><path class="cls-4" d="M117.81,279.19c.5-.9.86-2.17,1.63-2.52,0-.09.48-.11,1.12-.05-.85-.24-2.4-.6-3-.78-3-.88-6-1.56-8.88-2.72-5.91-2.38-11.71-5-17.55-7.57l-1.52-.67a1.25,1.25,0,0,0,.59.82c1.9,1.32,3.82,2.61,5.7,3.94a11.25,11.25,0,0,1,3.57,3.85A6.08,6.08,0,0,1,97.21,282a12.88,12.88,0,0,1-8.46,1.57,18.52,18.52,0,0,0,5.9,1.41c4.43.28,8.88.37,13.32.48a6.21,6.21,0,0,0,2.51-.32,13.76,13.76,0,0,0,7.33-6"/><path class="cls-4" d="M178.3,272.67l2-.27c2.88-.39,5.75-1,8.69-.56a4.1,4.1,0,0,1,3.63,5.27,7.34,7.34,0,0,1-2.3,4.06,17.37,17.37,0,0,1-4.11,3,23.42,23.42,0,0,1-10,2.23c-2.12,0-1.77.85-4,.43.69.35-1-.9-.21-.76a53.65,53.65,0,0,0,7.8.76,33.53,33.53,0,0,0,14.57-3.12l0,0,1.7-.77c.25-.12,0-.3.28-.43,1.88-1,4.17-2.11,5.33-4a44.37,44.37,0,0,0,6-16.14,21.17,21.17,0,0,1,2.08-6.68c0-.11.41-.6.42-.73-9.54,8-20.73,13.29-32,17.31l.13.46"/><path class="cls-7" d="M191.84,98.8a20.83,20.83,0,0,0,2.67,2.33c1.78,1.15,3.7,2.1,5.55,3.15,6.51,3.68,13.64,5.37,20.93,6.55A69.73,69.73,0,0,0,234.44,112a85.39,85.39,0,0,0,14.86-1.59,29.69,29.69,0,0,0,17.81-11.24A40.35,40.35,0,0,0,273,89.27c1.25-3.09,2.73-6.1,4.21-9.09a23,23,0,0,1,2.35-3.69,5,5,0,0,1,7.42-1,7.07,7.07,0,0,1,2.59,4.07,32.36,32.36,0,0,1,.8,8.15A90.06,90.06,0,0,1,287.63,109a169.82,169.82,0,0,1-7.24,23.71,32.42,32.42,0,0,1-12.87,16.14,27,27,0,0,1-12.19,3.94,38.83,38.83,0,0,1-14.06-1.61c-6.15-1.68-12.26-3.5-18.39-5.25a6.33,6.33,0,0,0-.91-.09c.35.86.64,1.56.92,2.27a151,151,0,0,1,6.6,19.31,146.29,146.29,0,0,1,3.75,19.31,58,58,0,0,1,0,12.21A134.87,134.87,0,0,1,230,216.35a109.82,109.82,0,0,1-2.88,11.11A61.9,61.9,0,0,1,220,242.19a17.71,17.71,0,0,1-1.56,2.25c.36-1,1.33-3.66,1.75-4.65,2.61-6.1,3.79-12.55,4.74-19.07a84.46,84.46,0,0,0,.73-16.2c-.41-9-1.3-18-3.77-26.68-1.23-4.38-2.69-8.71-4.3-13a148,148,0,0,0-10-21.47c-1.61-2.79-3.24-5.58-5.06-8.24a191.11,191.11,0,0,0-15.77-20.33c-1.8-2-3.64-3.92-5.45-5.9-.73-.8-1.42-1.65-2.15-2.52a3.82,3.82,0,0,1,.46-.64c2.41-2,4.9-4,7.21-6.16a14.32,14.32,0,0,0,2.85-3.75,50.27,50.27,0,0,0,5.8-21.48,124.44,124.44,0,0,0,0-15,30.78,30.78,0,0,0-4.88-14.36A35.61,35.61,0,0,0,179.9,34a27.61,27.61,0,0,0-13.25-4.21c-9.61-.67-17.74,2.75-24.84,9-.35.32-.73.61-1.17,1a9.45,9.45,0,0,1-1.07-.7,51.74,51.74,0,0,0-11.87-7.78,25.76,25.76,0,0,0-12.76-2.38,37.11,37.11,0,0,0-4.36.27c-6,1.1-11,4.09-15.57,7.93A34.45,34.45,0,0,0,83.08,58.47c-2,11.73-1,23.15,4.17,34.06,2.59,5.47,6.81,9.25,11.93,12.19,1.41.81,2.92,1.47,4.56,2.29a10.82,10.82,0,0,1-.93,1.13c-6.29,5.81-11.48,12.57-16.74,19.27A1.82,1.82,0,0,0,86,130a24.06,24.06,0,0,0,3.1,3.55c3.6,2.9,7.58,5.13,12.28,5.56a27.16,27.16,0,0,0,5.62-.22,44.2,44.2,0,0,0,21.22-8.09c3.3-2.4,6.68-4.68,10.06-7a27.86,27.86,0,0,1,8.17-4c4.78-1.31,8.82,1.74,8.68,6.67a17.05,17.05,0,0,1-.83,4.45,90.79,90.79,0,0,1-7,16.43c-1.35,2.52-2.68,5.05-4.1,7.53-6,10.51-15.05,17.15-26.58,20.57a71.33,71.33,0,0,1-14.4,3.13c-5.09.43-10.21.54-15.31.61-3,0-6-.18-8.93-.43a58,58,0,0,1-14.28-2.75c-.22-.07-.45-.1-.9-.2-.89,3.85-1.78,7.62-2.64,11.4a78.18,78.18,0,0,0-1.44,16.51c0,2.92-.08,5.84,0,8.76a103.31,103.31,0,0,0,1.92,15.37,63.14,63.14,0,0,0,4.18,13.75c.81,1.89,1.83,3.7,2.81,5.52.54,1,1.7,2.83,2.49,4.12-.72-.86-1.74-1.76-2.12-2.22a84.75,84.75,0,0,1-11.59-19.35A65.78,65.78,0,0,1,51,208.84a105.83,105.83,0,0,1-.88-11.63,77.35,77.35,0,0,1,1.14-12.15c.95-5.5,2.27-10.94,3.53-16.39a8.71,8.71,0,0,0,0-4.42,42.78,42.78,0,0,1,.36-22.7c2.5-9.14,7.51-16.69,14-23.36a191.64,191.64,0,0,1,16.1-14.3l1.56-1.28c-.12-.22-.16-.43-.29-.52C81,98.17,77.4,92.78,74.8,86.62a57.57,57.57,0,0,1-4.13-19.15,74.07,74.07,0,0,1,1.67-21c2-8.68,6.59-15.87,12.93-22A73.58,73.58,0,0,1,110.2,8.23a69.14,69.14,0,0,1,18-4.42,97.22,97.22,0,0,1,10.91-.65,80.77,80.77,0,0,1,10.51,1,103.18,103.18,0,0,1,11.45,2.18c11.54,3.09,21.69,8.57,29.36,18,1.92,2.36,3.81,4.75,5.57,7.23a39.07,39.07,0,0,1,5.26,11,69.75,69.75,0,0,1,3.54,17.1,55.75,55.75,0,0,1-7.12,30.87,94.27,94.27,0,0,1-5.84,8.23"/><path class="cls-8" d="M85.56,282.08a16.7,16.7,0,0,0,6.51,2.2,103.81,103.81,0,0,0,16,1.17c3.14-.11,2.38-1.32,3.22,1.81,1.12,4.16,2.45,8.27,3.67,12.41,1.15,3.91,2.35,7.8,3.41,11.72a11.07,11.07,0,0,1,.25,6.14,13.55,13.55,0,0,1-1.74,3.76,4.23,4.23,0,0,1-5.2,1.5,9.09,9.09,0,0,1-4.68-3.34c-1-1.51-2-1.46-3.18,0-.39.47-.75.95-1.15,1.42-2.57,3-5.57,3.05-8.17,0a27.13,27.13,0,0,1-1.61-2.21c-2.27-3.28-3.37-3.52-6.72-1.37-1.08.69-2.11,1.45-3.19,2.13a34.31,34.31,0,0,1-3,1.73c-5.86,2.93-10.21-2-10.33-6.16a20.53,20.53,0,0,1,1.59-8.18,85.37,85.37,0,0,1,10.46-19.58c.9-1.22,1.76-2.48,2.67-3.69a16.32,16.32,0,0,1,1.16-1.41"/><path class="cls-8" d="M170.81,285.74c8.75,1.82,17.53-.08,25.81-3.42.73.88,1.56,1.75,2.24,2.73,1.65,2.4,3.23,4.86,4.84,7.29,3.08,4.65,5.15,9.8,7.21,14.93a16.18,16.18,0,0,1,1.31,8.38c-.73,5.07-5.43,7.71-10,5.51a60,60,0,0,1-5.15-3.09c-.89-.54-1.73-1.15-2.65-1.62-2-1-3-.83-4.42,1-.57.71-1,1.52-1.59,2.23a15.35,15.35,0,0,1-2.21,2.41,4.2,4.2,0,0,1-5.81-.19,30,30,0,0,1-2.19-2.44c-1.33-1.49-1.94-1.51-3.15,0a10.22,10.22,0,0,1-4.87,3.4,4.32,4.32,0,0,1-5-1.38,8.76,8.76,0,0,1-2-5.17,24.84,24.84,0,0,1,1.28-8.43c.75-2.76,1.74-5.45,2.57-8.18,1.19-3.89,2.33-7.8,3.5-11.7a4.16,4.16,0,0,0,.31-2.25"/><path class="cls-9" d="M144.49,96.83c-1.45,2.92-4.07,3.66-7,3.6a10.77,10.77,0,0,1-3.74-.68,8.75,8.75,0,0,1-3.12-2.09c-1.45-1.56-1.22-2.82.41-4.13,3.49-2.83,7.6-3,10.92-.58,1.19.88,1.41,1.22,2.53,3.88"/><path class="cls-10" d="M105.35,306c-1-.13-2-.21-3-.41-5-1-9.94-1.88-15-1.46-2.6.22-5.17.76-7.75,1.14-.45.07-.91.1-1.47.16.06-1.06.77-1.28,1.35-1.45a41.79,41.79,0,0,1,6.34-1.61,37.2,37.2,0,0,1,17.09,1.81,13.29,13.29,0,0,1,1.49.67,10.59,10.59,0,0,1,1,.71c0,.15,0,.29-.07.44"/><path class="cls-11" d="M134.59,100.8c.27-1.36,1.3-1.69,2.18-2.16a9,9,0,0,0,1.6-.84,2.62,2.62,0,0,0,1-2.59,3.42,3.42,0,0,0-2.51-2.63c-.8-.23-1.65-.33-2.54-.5,2.93-1.68,7.71-.06,9.2,2.44,1.07,1.82.87,2.84-1,3.85a23.23,23.23,0,0,1-2.86,1,13.39,13.39,0,0,0-1.45.65,4.73,4.73,0,0,1-3.62.73"/><path class="cls-10" d="M171.61,306a4.55,4.55,0,0,1,2.37-1.54,38.88,38.88,0,0,1,15.42-3.07,50.11,50.11,0,0,1,11.38,1.24,3,3,0,0,1,1.33.62,30.25,30.25,0,0,1-3.81,0,51.9,51.9,0,0,0-23.53,2.27c-.91.31-1.87.51-2.81.73-.07,0-.17-.11-.35-.23"/><path class="cls-12" d="M130.75,63.16A21,21,0,0,1,126,76.7c-6,7.19-16.08,7.36-22.29.34a20.23,20.23,0,0,1-5-15.71,19.48,19.48,0,0,1,5.73-12.68,14.15,14.15,0,0,1,20.67.17c3.89,4,5.48,8.93,5.62,14.34"/><path class="cls-12" d="M180.88,60.75c-.24,7.21-2.72,12.83-8,17-9.12,7.3-21.35,3.21-24.32-8.08a21.09,21.09,0,0,1,8-22.28c5-3.46,10.39-4.35,16-1.4,4.32,2.27,6.7,6.07,7.78,10.72a36.77,36.77,0,0,1,.53,4"/><path class="cls-12" d="M127.83,90.33c-1.71-.27-3.21-.52-4.71-.72-.83-.11-1.16-.51-1.06-1.34a17.23,17.23,0,0,1,12.39-14.11,13.17,13.17,0,0,1,14,5.23,16.24,16.24,0,0,1,3,10.49,7.8,7.8,0,0,1-.85,2.53c-.69,1.62-1.4,3.23-2.16,4.82a12,12,0,0,1-8.85,6.92A11.6,11.6,0,0,1,128.93,101c-2.55-2.48-2.66-5.73-1.7-9,.09-.29.23-.57.33-.85s.15-.45.27-.81m19.53,1.72-15.44-1.44a6.54,6.54,0,0,0-1.23,4.24,3.07,3.07,0,0,0,1.66,2.85c2.22,1,4.55,1.7,7,1.06,3.57-.94,5.8-3.52,8-6.71"/><path class="cls-13" d="M115.12,47.15c3.47.18,6.82,2.38,9,6.35a14.75,14.75,0,0,1-2.58,17.33A11.44,11.44,0,0,1,104,69.56a14.66,14.66,0,0,1,3.32-20.39c2-1.38,4.22-2.05,7.8-2"/><path class="cls-13" d="M162.54,73.87A12,12,0,0,1,150.38,63.1a13.71,13.71,0,0,1,7.64-14,11.72,11.72,0,0,1,15.77,5.9,13.54,13.54,0,0,1-9.12,18.54,16.69,16.69,0,0,1-2.13.28"/><path class="cls-13" d="M150.76,91.75c-2,5.19-4,10.16-10.22,12.12,1.3-1.93,2-3.62.29-5.47a16.28,16.28,0,0,0,1.48-1.1,30.25,30.25,0,0,0,4.08-4.08,3.09,3.09,0,0,1,3.13-1.55c.35,0,.7,0,1.24.08"/><path class="cls-13" d="M131.85,90.54l-1.17,2.95L127,94.86a5.53,5.53,0,0,1,.94-4.29,2,2,0,0,1,1.1-.48,3.72,3.72,0,0,1,1.09.12c.52.08,1,.2,1.75.33"/><path class="cls-14" d="M169.26,60.63A8.07,8.07,0,0,1,165,59.21a4.22,4.22,0,0,1-.64-6.39,7.56,7.56,0,0,1,9.94-.63,4.21,4.21,0,0,1,.11,6.42,7.93,7.93,0,0,1-5.14,2"/><path class="cls-14" d="M119.13,59.89a15.92,15.92,0,0,1-3.38-1.4c-2.24-1.49-2.27-4.27-.25-6.06a7.05,7.05,0,0,1,8.46-.31,3.77,3.77,0,0,1,.23,6.1c-1.3,1.16-2.9,1.44-5.06,1.67"/><path class="cls-14" d="M119.69,66.3a13.29,13.29,0,0,1-1.81-.55A2,2,0,0,1,118,62a4.12,4.12,0,0,1,3.5.07,2.13,2.13,0,0,1,1.36,2,2,2,0,0,1-1.47,1.88,14.28,14.28,0,0,1-1.68.41"/><path class="cls-14" d="M169.94,66.57l-.48,0c-1.67-.18-2.82-1.38-2.57-2.68s1.89-2,3.41-1.62a3.17,3.17,0,0,1,.51.2c1.3.54,1.9,1.42,1.7,2.46s-1.13,1.64-2.57,1.67"/><path class="cls-15" d="M186,68c.26-.24.41-.47.57-.48s.36.19.54.3a2.27,2.27,0,0,1-.48.57c-.07,0-.33-.2-.63-.39"/><text class="cls-16" transform="translate(245 27.89)">1+6</text><text class="cls-17" transform="translate(0 88.47)">7</text></g></g></svg>