<svg xmlns="http://www.w3.org/2000/svg" viewBox="0 0 206.63 200.52"><defs><style>.cls-1{fill:#d7f9ff;}.cls-2{fill:#fff;}.cls-3{fill:#f0e9e8;}.cls-4{fill:#e7dad8;}.cls-5{fill:#7599f3;}.cls-6{fill:#de5e4e;}.cls-7{fill:#c53c34;}.cls-8{fill:#f0ca4d;}.cls-9{fill:#3c2e2c;}</style></defs><title>doc-item-img-2</title><g id="Слой_2" data-name="Слой 2"><g id="Слой_1-2" data-name="Слой 1"><path class="cls-1" d="M193.25,106.89a39.11,39.11,0,0,0-5-3.23c3.4-10.14,5.13-21.8,1.31-31.68-9.47-24.44-32.68-40.44-48.37-50.36C114.94,5,104.75,2.22,82.48.3A84.91,84.91,0,0,0,27.35,15.05C12.14,25.63-.4,42.57,0,61.81c.26,12,5.26,23.26,11.16,33.46,4.26,7.36,14,18.2,19.53,24.71-40.88,24.4-32.52,44.08-12.86,58.71,30.08,22.38,81.4,26.27,111.32,17.47,22.54-6.62,63.83-27,74.17-52.51A30.82,30.82,0,0,0,193.25,106.89Z"/><polygon class="cls-2" points="206.63 118.34 132.45 161.17 2.33 86.05 76.52 43.22 206.63 118.34"/><polygon class="cls-3" points="2.33 86.05 2.33 88.18 132.45 163.3 132.45 161.17 2.33 86.05"/><polygon class="cls-4" points="206.63 118.34 206.63 120.47 132.45 163.3 132.45 161.17 206.63 118.34"/><polygon class="cls-5" points="87.47 55.85 25.6 91.58 14.95 85.43 76.58 49.85 87.47 55.85"/><path class="cls-6" d="M99.47,101.53c-2.79,1.41-5,2.8-10,5.7s-12.1,6.77-16.78,9.63c-.67.41-2.35,1.81-1.17,2.56,2.07,1.31,3.77.59,5.36-.32,5.09-2.92,19.56-11.45,26-15.33C105.47,102.18,101.6,100.46,99.47,101.53Z"/><polygon class="cls-5" points="96.58 61.16 94.58 60.08 83.65 66.39 85.6 67.51 96.58 61.16"/><polygon class="cls-5" points="32.91 95.68 34.92 96.76 83.82 68.53 81.88 67.41 32.91 95.68"/><polygon class="cls-5" points="100.97 63.72 98.96 62.64 88.06 68.93 90.01 70.05 100.97 63.72"/><polygon class="cls-5" points="37.3 98.24 39.31 99.32 88.23 71.08 86.28 69.96 37.3 98.24"/><polygon class="cls-5" points="41.69 100.7 43.7 101.78 92.55 73.58 90.61 72.45 41.69 100.7"/><polygon class="cls-5" points="105.36 66.18 103.35 65.1 92.39 71.43 94.33 72.55 105.36 66.18"/><polygon class="cls-5" points="46.08 103.25 48.09 104.33 96.95 76.12 95.01 74.99 46.08 103.25"/><polygon class="cls-5" points="109.75 68.73 107.74 67.64 96.79 73.97 98.73 75.09 109.75 68.73"/><polygon class="cls-5" points="114.14 71.19 112.13 70.1 101.11 76.46 103.05 77.58 114.14 71.19"/><polygon class="cls-5" points="50.47 105.7 52.47 106.79 101.27 78.61 99.33 77.49 50.47 105.7"/><polygon class="cls-5" points="118.52 73.74 116.52 72.66 105.52 79.01 107.46 80.13 118.52 73.74"/><polygon class="cls-5" points="54.85 108.26 56.86 109.34 105.68 81.16 103.74 80.04 54.85 108.26"/><polygon class="cls-5" points="59.24 110.72 61.25 111.8 110.01 83.65 108.06 82.53 59.24 110.72"/><polygon class="cls-5" points="122.91 76.2 120.9 75.12 109.84 81.5 111.78 82.63 122.91 76.2"/><polygon class="cls-5" points="63.43 113.32 65.44 114.4 114.35 86.16 112.41 85.04 63.43 113.32"/><polygon class="cls-5" points="127.1 78.8 125.09 77.72 114.19 84.01 116.13 85.13 127.1 78.8"/><polygon class="cls-5" points="131.49 81.26 129.48 80.17 118.51 86.51 120.45 87.63 131.49 81.26"/><polygon class="cls-5" points="67.82 115.78 69.83 116.86 118.67 88.66 116.73 87.54 67.82 115.78"/><path class="cls-5" d="M102.3,103.2l20.78-12-1.94-1.12-20.33,11.74C101.31,102.27,101.81,102.73,102.3,103.2Z"/><path class="cls-7" d="M100.44,102,72.2,118.33l2,1.09,27.65-16Z"/><polygon class="cls-5" points="135.88 83.82 133.87 82.73 122.92 89.06 124.86 90.18 135.88 83.82"/><polygon class="cls-5" points="140.26 86.28 138.25 85.19 127.24 91.55 129.18 92.67 140.26 86.28"/><polygon class="cls-5" points="76.59 120.79 78.6 121.88 127.41 93.7 125.46 92.58 76.59 120.79"/><polygon class="cls-5" points="144.35 88.88 142.34 87.8 131.54 94.03 133.49 95.16 144.35 88.88"/><polygon class="cls-5" points="80.68 123.4 82.69 124.48 131.71 96.18 129.77 95.06 80.68 123.4"/><polygon class="cls-5" points="188.03 114 186.03 112.91 175.13 119.2 177.08 120.32 188.03 114"/><polygon class="cls-5" points="124.36 148.51 126.37 149.6 175.3 121.35 173.35 120.23 124.36 148.51"/><polygon class="cls-5" points="128.75 150.97 130.76 152.06 179.62 123.84 177.68 122.72 128.75 150.97"/><polygon class="cls-5" points="192.42 116.45 190.41 115.37 179.46 121.7 181.4 122.82 192.42 116.45"/><polygon class="cls-8" points="126.21 141.07 123.59 142.59 102.63 130.48 105.25 128.97 126.21 141.07"/><polygon class="cls-8" points="131.85 137.81 129.24 139.33 113.95 130.5 116.57 128.99 131.85 137.81"/><polygon class="cls-8" points="137.7 134.44 135.08 135.95 123.61 129.33 126.23 127.82 137.7 134.44"/><polygon class="cls-8" points="143.16 131.29 140.54 132.8 122.49 122.38 125.11 120.87 143.16 131.29"/><polygon class="cls-8" points="148.8 128.03 146.18 129.54 138.4 125.05 141.02 123.54 148.8 128.03"/><polygon class="cls-8" points="154.65 124.66 152.03 126.17 136.68 117.31 139.3 115.8 154.65 124.66"/><polygon class="cls-8" points="160.1 121.51 157.48 123.02 146.01 116.4 148.63 114.89 160.1 121.51"/><polygon class="cls-8" points="165.55 118.36 162.93 119.87 137.7 105.31 140.32 103.79 165.55 118.36"/><polygon class="cls-8" points="171.2 115.1 168.58 116.61 150.38 106.11 153 104.59 171.2 115.1"/><polygon class="cls-8" points="177.04 111.73 174.42 113.24 166.64 108.75 169.26 107.24 177.04 111.73"/><polygon class="cls-9" points="180.71 109.61 119.23 145.1 120.02 145.56 181.5 110.06 180.71 109.61"/><polygon class="cls-6" points="98.54 120.92 96.53 119.84 85.64 126.12 87.59 127.25 98.54 120.92"/><polygon class="cls-6" points="103.03 123.55 101.02 122.46 90.13 128.75 92.08 129.87 103.03 123.55"/></g></g></svg>