<?xml version="1.0" encoding="utf-8"?>
<!-- Generator: Adobe Illustrator 22.1.0, SVG Export Plug-In . SVG Version: 6.00 Build 0)  -->
<svg version="1.1" id="Слой_1" xmlns="http://www.w3.org/2000/svg" xmlns:xlink="http://www.w3.org/1999/xlink" x="0px" y="0px"
	 viewBox="0 0 23.3 44.5" enable-background="new 0 0 23.3 44.5" xml:space="preserve">
<g>
	<g>
		<polygon fill="#7349BB" points="22.8,40.1 6.4,30.7 6.4,1.7 22.8,11.1 		"/>
		<polygon fill="#885ECA" points="16.9,43.5 0.5,34 0.5,5 16.9,14.5 		"/>
		<polygon fill="#7349BB" points="16.9,14.5 22.8,11.1 22.8,40.1 16.9,43.5 		"/>
		<g>
			<polygon fill="#3A2145" points="18.1,15.6 18.1,17.6 21.9,15.4 21.9,13.5 			"/>
			<polygon fill="#FFFFFF" points="18.1,34.1 21.9,32 21.9,15.4 18.1,17.6 			"/>
			<polygon fill="#3A2145" points="19.4,17.5 19,17.7 19,32.8 19.4,32.6 			"/>
		</g>
		<g>
			<polygon fill="#EAE1FD" points="21.2,11.9 6.1,3.2 1.8,5.7 16.9,14.3 			"/>
			<polygon fill="#9972E0" points="6.4,1.7 6.1,1.8 22.3,11.1 17,14.2 0.9,4.8 0.5,5 16.9,14.5 22.8,11.1 			"/>
		</g>
		<polygon fill="#7349BB" points="6.1,1.8 6.1,3.2 21.1,11.8 22.3,11.1 		"/>
		<path fill="#DCD0F6" d="M10.9,9.9C8.7,8.2,6.3,6.7,3.8,5.5c0,0,0,0,0,0C6.1,7,8.5,8.4,10.9,9.9C10.9,10,10.9,9.9,10.9,9.9z"/>
		<path fill="#DCD0F6" d="M16.6,10.2C14.4,8.6,12,7.1,9.5,5.9c0,0,0,0,0,0C11.9,7.3,14.2,8.8,16.6,10.2
			C16.6,10.3,16.7,10.2,16.6,10.2z"/>
		<path fill="#DCD0F6" d="M18.7,12.2c-0.8-0.6-1.7-1-2.5-1.5c-0.9-0.5-1.7-1-2.6-1.5c-0.1,0-0.1,0-0.1,0.1
			C15.1,10.4,16.9,11.6,18.7,12.2C18.7,12.3,18.7,12.2,18.7,12.2z"/>
	</g>
	<g>
		<path fill="#FFFFFF" d="M18.8,37.2c0,1,0.6,1.5,1.4,1.1c0.8-0.4,1.4-1.6,1.4-2.7c0-1-0.6-1.5-1.4-1.1
			C19.4,34.9,18.8,36.1,18.8,37.2z"/>
		<g>
			<path fill="#EAE1FD" d="M21.1,34.8c0.1,0.2,0.2,0.4,0.2,0.7c0,0.9-0.5,1.9-1.2,2.2c-0.3,0.2-0.6,0.2-0.8,0c0.2,0.3,0.6,0.4,1,0.2
				c0.6-0.4,1.2-1.4,1.2-2.2C21.4,35.3,21.3,34.9,21.1,34.8z"/>
			<path fill="#7349BB" d="M20.1,37.7c0.6-0.4,1.2-1.4,1.2-2.2c0-0.3-0.1-0.6-0.2-0.7c-0.2-0.2-0.5-0.2-0.8,0
				c-0.6,0.4-1.2,1.4-1.2,2.2c0,0.3,0.1,0.6,0.2,0.7C19.5,37.9,19.8,37.9,20.1,37.7z"/>
		</g>
	</g>
	<path fill="#D95956" d="M19.2,11.7l-1.5-0.9c0,0,0-1.9,0-2.5c0-1.5,0.5-2.3,0.5-2.3l1.5,0.9c0,0-0.5,1.1-0.5,3
		C19.2,10.3,19.2,11.7,19.2,11.7z"/>
	<polygon fill="#99DBED" points="8.6,6.2 7.3,5.5 7.3,1 8.6,1.7 	"/>
	<path fill="#ECB648" d="M11.5,9.4l-1.3-0.7c0,0,0-2.1,0-2.8c0-0.4,0.2-1.2,0.2-1.2l1.3,0.7c0,0-0.2,0.7-0.2,1.1
		C11.5,7.2,11.5,9.4,11.5,9.4z"/>
	<g>
		<g>
			<path fill="#3A2145" d="M21.5,21.4c-0.6,0.4-0.9,0.6-1.5,1c0-0.1,0-0.1,0-0.2c0.5-0.3,0.7-0.5,1.2-0.8c0-0.2,0-0.3,0-0.5
				c-0.5,0.3-0.7,0.5-1.2,0.8c0-0.1,0-0.1,0-0.2c0.6-0.4,0.9-0.6,1.5-1C21.5,20.8,21.5,21,21.5,21.4z"/>
			<path fill="#3A2145" d="M20,22.7c0.1-0.1,0.1-0.2,0.2-0.3c0.1-0.1,0.2-0.2,0.3-0.3c0.1-0.1,0.2-0.1,0.3-0.1c0.1,0,0.2,0,0.2,0
				c0.1,0,0.1,0.1,0.1,0.2s0,0.2-0.1,0.3c-0.1,0.1-0.1,0.2-0.2,0.3c-0.1,0.1-0.2,0.2-0.3,0.3c-0.1,0.1-0.2,0.1-0.3,0.1
				c-0.1,0-0.2,0-0.2,0C20,23.1,20,23,20,22.9S20,22.8,20,22.7z M20.3,22.9c0.1,0,0.1,0,0.2-0.1c0.1-0.1,0.2-0.1,0.2-0.2
				c0.1-0.1,0.1-0.1,0.1-0.2c0-0.1,0-0.1-0.1-0.1c-0.1,0-0.1,0-0.2,0.1c-0.1,0.1-0.2,0.1-0.2,0.2C20.3,22.6,20.2,22.7,20.3,22.9
				C20.2,22.8,20.3,22.9,20.3,22.9z"/>
			<path fill="#3A2145" d="M21.1,23.5c-0.5,0.3-0.7,0.4-1.2,0.7c0-0.1,0-0.1,0-0.2c0.4-0.2,0.5-0.3,0.9-0.6c0-0.1,0-0.2,0-0.3
				c-0.1,0-0.1,0.1-0.2,0.1c-0.2,0.1-0.3,0.2-0.4,0.2c-0.1,0-0.2,0.1-0.2,0.1c-0.1,0-0.1,0-0.1-0.1c0,0,0-0.1,0-0.1
				c0.1-0.1,0.2-0.1,0.3-0.2c0,0,0,0,0,0c0,0,0,0,0.1,0c0,0,0.1,0,0.1-0.1c0.1,0,0.1-0.1,0.2-0.1c0.2-0.1,0.3-0.2,0.5-0.3
				C21.1,23.1,21.1,23.3,21.1,23.5z"/>
			<path fill="#3A2145" d="M21.1,23.8c0,0.1,0,0.1,0,0.2c-0.3,0.2-0.4,0.3-0.7,0.4c0.3,0,0.4,0,0.7-0.1c0,0.1,0,0.1,0,0.2
				c-0.5,0.3-0.7,0.4-1.2,0.7c0-0.1,0-0.1,0-0.2c0.3-0.2,0.4-0.3,0.7-0.4c-0.3,0-0.4,0-0.7,0.1c0-0.1,0-0.1,0-0.2
				C20.4,24.2,20.7,24,21.1,23.8z"/>
			<path fill="#3A2145" d="M20.9,25.6c0-0.1,0-0.2,0-0.3c-0.4,0.2-0.5,0.3-0.9,0.6c0-0.1,0-0.1,0-0.2c0.4-0.2,0.5-0.3,0.9-0.6
				c0-0.1,0-0.2,0-0.3c0.1-0.1,0.2-0.1,0.3-0.2c0,0.3,0,0.5,0,0.8C21,25.5,21,25.6,20.9,25.6z"/>
			<path fill="#3A2145" d="M21.1,25.6c0,0.1,0,0.1,0,0.2c-0.3,0.2-0.4,0.3-0.7,0.4c0.3,0,0.4,0,0.7-0.1c0,0.1,0,0.1,0,0.2
				c-0.5,0.3-0.7,0.4-1.2,0.7c0-0.1,0-0.1,0-0.2c0.3-0.2,0.4-0.3,0.7-0.4c-0.3,0-0.4,0-0.7,0.1c0-0.1,0-0.1,0-0.2
				C20.4,26,20.7,25.9,21.1,25.6z"/>
			<path fill="#3A2145" d="M20.4,27.4c0,0,0-0.1,0-0.1c-0.2,0.1-0.3,0.2-0.4,0.3c0-0.1,0-0.1,0-0.2c0.5-0.3,0.7-0.4,1.2-0.7
				c0,0.1,0,0.1,0,0.2C21,27,20.9,27,20.7,27.1c0,0,0,0.1,0,0.1c0.2,0,0.3,0,0.4-0.1c0,0.1,0,0.1,0,0.2c-0.2,0-0.3,0-0.6,0.1
				c-0.2,0.3-0.4,0.4-0.6,0.7c0-0.1,0-0.2,0-0.3C20.2,27.7,20.3,27.6,20.4,27.4z"/>
			<path fill="#3A2145" d="M21,28.2c-0.1,0.1-0.2,0.2-0.4,0.3c-0.3,0.2-0.4,0.3-0.7,0.4c0-0.1,0-0.1,0-0.2c0.1,0,0.1-0.1,0.1-0.1
				c-0.1,0-0.2,0-0.2-0.1c0-0.1,0-0.1,0-0.2c0-0.1,0.1-0.1,0.1-0.2c0.1-0.1,0.1-0.1,0.2-0.2c0.1-0.1,0.2-0.1,0.3-0.1
				c0.1,0,0.1,0.1,0.1,0.2c0,0.1,0,0.1,0,0.2c0.1,0,0.1-0.1,0.2-0.2c0-0.1,0.1-0.1,0.1-0.2c0,0,0-0.1,0-0.1c0,0,0,0-0.1-0.1
				c0.1-0.1,0.1-0.1,0.2-0.2c0,0,0.1,0,0.1,0.1c0,0,0,0.1,0,0.2C21.2,28,21.1,28.1,21,28.2z M20.2,28.5c0,0,0.1,0,0.1,0
				c0,0,0.1,0,0.1-0.1c0-0.1,0-0.1,0-0.2c0-0.1,0-0.1-0.1-0.1c0,0-0.1,0.1-0.1,0.1C20.2,28.4,20.2,28.4,20.2,28.5
				C20.2,28.5,20.2,28.5,20.2,28.5z"/>
		</g>
	</g>
</g>
</svg>
