<?xml version="1.0" encoding="utf-8"?>
<!-- Generator: Adobe Illustrator 22.1.0, SVG Export Plug-In . SVG Version: 6.00 Build 0)  -->
<svg version="1.1" id="Слой_1" xmlns="http://www.w3.org/2000/svg" xmlns:xlink="http://www.w3.org/1999/xlink" x="0px" y="0px"
	 viewBox="0 0 1920 1080" style="enable-background:new 0 0 1920 1080;" xml:space="preserve">
<style type="text/css">
	.st0{fill:url(#SVGID_1_);}
	.st1{opacity:0.36;}
	.st2{fill:#F6E55C;}
	.st3{fill:#61A3BB;}
	.st4{fill:#B75253;}
	.st5{fill:url(#SVGID_2_);}
	.st6{fill:url(#SVGID_3_);}
	.st7{fill:url(#SVGID_4_);}
	.st8{fill:url(#SVGID_5_);}
	.st9{fill:url(#SVGID_6_);}
	.st10{fill:url(#SVGID_7_);}
	.st11{fill:url(#SVGID_8_);}
	.st12{fill:url(#SVGID_9_);}
	.st13{opacity:0.43;}
	.st14{opacity:0.39;}
	.st15{fill:url(#SVGID_10_);}
	.st16{fill:url(#SVGID_11_);}
	.st17{fill:#E07061;}
	.st18{fill:url(#SVGID_12_);}
	.st19{clip-path:url(#SVGID_14_);}
	.st20{fill:none;stroke:#FFFFFF;stroke-width:0.8455;stroke-miterlimit:10;}
</style>
<g>
	<linearGradient id="SVGID_1_" gradientUnits="userSpaceOnUse" x1="1929.4132" y1="541.4999" x2="-6.8065" y2="541.4999">
		<stop  offset="0" style="stop-color:#61A3BB"/>
		<stop  offset="0.1094" style="stop-color:#7CAFAA"/>
		<stop  offset="0.3113" style="stop-color:#A7C28E"/>
		<stop  offset="0.5068" style="stop-color:#CAD178"/>
		<stop  offset="0.6912" style="stop-color:#E2DC69"/>
		<stop  offset="0.8604" style="stop-color:#F1E35F"/>
		<stop  offset="1" style="stop-color:#F6E55C"/>
	</linearGradient>
	<rect x="-6.8" y="1" class="st0" width="1936.2" height="1081"/>
	<g class="st1">
		<g>
			<path class="st2" d="M563.7,390.9L227.4,158l-73.6,171.3L90,267.6l-97.4,57.5l-73.9,139.7l-171.3,139.7l178,90.4l94.1-24.7
				l118.9-6.4l79.2,37.8l194.9-31.4c0,0,90.7,20.5,100.8,20.5c10.1,0,147.8-32.9,147.8-32.9l-40.3-115.1L563.7,390.9z"/>
			<polygon class="st3" points="227.4,158 261.3,526.5 563.7,390.9 			"/>
			<polygon class="st4" points="261.3,526.5 412.5,670.3 563.7,390.9 			"/>
			<polygon class="st3" points="261.3,526.5 138.3,663.9 -4.1,678.5 			"/>
			<polygon class="st3" points="261.3,526.5 153.8,329.3 90,267.6 -7.4,325.1 			"/>
			<polygon class="st4" points="261.3,526.5 -81.4,464.9 -252.7,604.6 			"/>
		</g>
		<g>
			<path class="st2" d="M1097.8,477.2l-288.5-25.5L688.1,247.9L688,415.5l-63.8-61.6l-97.4,57.5l-73.9,139.7L281.5,690.8l178,90.4
				l94.1-24.7l118.9-6.4l79.2,37.8l194.9-31.4c0,0,90.7,20.5,100.8,20.5c10.1,0,147.8-32.9,147.8-32.9l-40.3-115.1L1097.8,477.2z"/>
			<polygon class="st3" points="809.3,451.7 795.5,612.8 1097.8,477.2 			"/>
			
				<linearGradient id="SVGID_2_" gradientUnits="userSpaceOnUse" x1="375.2234" y1="360.7318" x2="1030.9067" y2="1016.4151" gradientTransform="matrix(-1 0 0 1 1570.2124 0)">
				<stop  offset="0" style="stop-color:#000030"/>
				<stop  offset="0.1046" style="stop-color:#070034"/>
				<stop  offset="0.2534" style="stop-color:#19003D"/>
				<stop  offset="0.4285" style="stop-color:#38004E"/>
				<stop  offset="0.6238" style="stop-color:#630064"/>
				<stop  offset="0.833" style="stop-color:#990080"/>
				<stop  offset="1" style="stop-color:#C9009A"/>
			</linearGradient>
			<polygon class="st5" points="795.5,612.8 946.6,756.6 1097.8,477.2 			"/>
			
				<linearGradient id="SVGID_3_" gradientUnits="userSpaceOnUse" x1="774.758" y1="688.7881" x2="1040.153" y2="688.7881" gradientTransform="matrix(-1 0 0 1 1570.2124 0)">
				<stop  offset="0" style="stop-color:#000030"/>
				<stop  offset="0.1231" style="stop-color:#000D4F"/>
				<stop  offset="0.3219" style="stop-color:#001F7A"/>
				<stop  offset="0.5143" style="stop-color:#002D9D"/>
				<stop  offset="0.696" style="stop-color:#0038B5"/>
				<stop  offset="0.8626" style="stop-color:#003EC4"/>
				<stop  offset="1" style="stop-color:#0040C9"/>
			</linearGradient>
			<polygon class="st6" points="795.5,612.8 672.5,750.2 530.1,764.8 			"/>
			<polygon class="st3" points="795.5,612.8 688,415.5 624.1,353.9 526.7,411.4 			"/>
			
				<linearGradient id="SVGID_4_" gradientUnits="userSpaceOnUse" x1="757.9607" y1="620.9904" x2="1538.1655" y2="620.9904" gradientTransform="matrix(-1 0 0 1 1570.2124 0)">
				<stop  offset="0" style="stop-color:#000030"/>
				<stop  offset="0.1046" style="stop-color:#070034"/>
				<stop  offset="0.2534" style="stop-color:#19003D"/>
				<stop  offset="0.4285" style="stop-color:#38004E"/>
				<stop  offset="0.6238" style="stop-color:#630064"/>
				<stop  offset="0.833" style="stop-color:#990080"/>
				<stop  offset="1" style="stop-color:#C9009A"/>
			</linearGradient>
			<polygon class="st7" points="795.5,612.8 452.8,551.1 281.5,690.8 			"/>
		</g>
	</g>
	<g class="st1">
		<g>
			<path class="st2" d="M1716.6,401l-336.3-232.9l-73.6,171.3l-63.8-61.6l-97.4,57.5L1071.6,475L900.2,614.7l178,90.4l94.1-24.7
				l118.9-6.4l79.2,37.8l194.9-31.4c0,0,90.7,20.5,100.8,20.5c10.1,0,147.8-32.9,147.8-32.9L1773.7,553L1716.6,401z"/>
			<polygon class="st4" points="1380.3,168.1 1414.2,536.6 1716.6,401 			"/>
			<polygon class="st2" points="1414.2,536.6 1565.4,680.4 1716.6,401 			"/>
			
				<linearGradient id="SVGID_5_" gradientUnits="userSpaceOnUse" x1="155.9937" y1="612.6135" x2="421.3885" y2="612.6135" gradientTransform="matrix(-1 0 0 1 1570.2124 0)">
				<stop  offset="0" style="stop-color:#000030"/>
				<stop  offset="0.1231" style="stop-color:#000D4F"/>
				<stop  offset="0.3219" style="stop-color:#001F7A"/>
				<stop  offset="0.5143" style="stop-color:#002D9D"/>
				<stop  offset="0.696" style="stop-color:#0038B5"/>
				<stop  offset="0.8626" style="stop-color:#003EC4"/>
				<stop  offset="1" style="stop-color:#0040C9"/>
			</linearGradient>
			<polygon class="st8" points="1414.2,536.6 1291.2,674 1148.8,688.6 			"/>
			<polygon class="st3" points="1414.2,536.6 1306.7,339.4 1242.9,277.7 1145.5,335.3 			"/>
			<polygon class="st3" points="1414.2,536.6 1071.6,475 900.2,614.7 			"/>
		</g>
		<g>
			<path class="st3" d="M2250.7,487.3l-288.5-25.5L1841,258l-0.2,167.6L1777,364l-97.4,57.5l-73.9,139.7L1434.4,701l178,90.4
				l94.1-24.7l118.9-6.4l79.2,37.8l194.9-31.4c0,0,90.7,20.5,100.8,20.5c10.1,0,147.8-32.9,147.8-32.9l-40.3-115.1L2250.7,487.3z"/>
			
				<linearGradient id="SVGID_6_" gradientUnits="userSpaceOnUse" x1="-378.1555" y1="698.9014" x2="-112.7606" y2="698.9014" gradientTransform="matrix(-1 0 0 1 1570.2124 0)">
				<stop  offset="0" style="stop-color:#000030"/>
				<stop  offset="0.1231" style="stop-color:#000D4F"/>
				<stop  offset="0.3219" style="stop-color:#001F7A"/>
				<stop  offset="0.5143" style="stop-color:#002D9D"/>
				<stop  offset="0.696" style="stop-color:#0038B5"/>
				<stop  offset="0.8626" style="stop-color:#003EC4"/>
				<stop  offset="1" style="stop-color:#0040C9"/>
			</linearGradient>
			<polygon class="st9" points="1948.4,622.9 1825.4,760.3 1683,774.9 			"/>
			<polygon class="st4" points="1948.4,622.9 1840.9,425.7 1777,364 1679.6,421.5 			"/>
			
				<linearGradient id="SVGID_7_" gradientUnits="userSpaceOnUse" x1="-394.9528" y1="631.1038" x2="385.252" y2="631.1038" gradientTransform="matrix(-1 0 0 1 1570.2124 0)">
				<stop  offset="0" style="stop-color:#000030"/>
				<stop  offset="0.1046" style="stop-color:#070034"/>
				<stop  offset="0.2534" style="stop-color:#19003D"/>
				<stop  offset="0.4285" style="stop-color:#38004E"/>
				<stop  offset="0.6238" style="stop-color:#630064"/>
				<stop  offset="0.833" style="stop-color:#990080"/>
				<stop  offset="1" style="stop-color:#C9009A"/>
			</linearGradient>
			<polygon class="st10" points="1948.4,622.9 1605.7,561.3 1434.4,701 			"/>
		</g>
	</g>
	<g class="st13">
		<g>
			<path class="st3" d="M396.2,568.6l336.3-190.4l73.6,140.1l63.8-50.4l97.4,47l73.9,114.2l171.3,114.2l-178,73.9L940.5,797
				l-118.9-5.3l-79.2,30.9L547.4,797c0,0-90.7,16.8-100.8,16.8c-10.1,0-147.8-26.9-147.8-26.9l40.3-94.1L396.2,568.6z"/>
			<polygon class="st2" points="732.5,378.1 698.6,679.4 396.2,568.6 			"/>
			<polygon class="st3" points="698.6,679.4 547.4,797 396.2,568.6 			"/>
			<polygon class="st2" points="698.6,679.4 821.6,791.8 964,803.7 			"/>
			<polygon class="st4" points="698.6,679.4 806.1,518.2 869.9,467.8 967.3,514.8 			"/>
			<polygon class="st2" points="698.6,679.4 1041.2,629.1 1212.6,743.3 			"/>
		</g>
		<g>
			<path class="st2" d="M-10.2,489.2l160.8,129.1l121.1-166.6l0.2,137.1l63.8-50.4l97.4,47l73.9,114.2l171.3,114.2l-178,73.9
				l-94.1-20.2l-118.9-5.3l-79.2,30.9L13.3,867.6c0,0-90.7,16.8-100.8,16.8c-10.1,0-147.8-26.9-147.8-26.9l40.3-94.1L-10.2,489.2z"
				/>
			<polygon class="st4" points="150.6,618.3 164.4,750 -10.2,489.2 			"/>
			<polygon class="st3" points="164.4,750 13.3,867.6 -10.2,489.2 			"/>
			<polygon class="st4" points="164.4,750 287.4,862.3 429.8,874.3 			"/>
			<polygon class="st3" points="164.4,750 271.7,451.7 335.8,538.3 433.2,585.4 			"/>
			<polygon class="st3" points="164.4,750 507.1,699.6 678.4,813.8 			"/>
		</g>
	</g>
	<g class="st14">
		<g>
			<path class="st2" d="M1277.2,643.1l267.6-237.5l51.6,190.5l90.7-3.4l63.8-50.4l97.4,47l73.9,114.2l171.3,114.2l-178,73.9
				l-94.1-20.2l-118.9-5.3l-79.2,30.9l-194.9-25.6c0,0-90.7,16.8-100.8,16.8c-10.1,0-147.8-26.9-147.8-26.9l40.3-94.1L1277.2,643.1z
				"/>
			<polygon class="st3" points="1544.8,405.6 1579.5,754 1277.2,643.1 			"/>
			<linearGradient id="SVGID_8_" gradientUnits="userSpaceOnUse" x1="1204.9725" y1="513.7988" x2="1823.6235" y2="1132.4497">
				<stop  offset="0" style="stop-color:#61A3BB"/>
				<stop  offset="0.2084" style="stop-color:#497BA7"/>
				<stop  offset="0.5853" style="stop-color:#223986"/>
				<stop  offset="0.8594" style="stop-color:#091071"/>
				<stop  offset="1" style="stop-color:#000069"/>
			</linearGradient>
			<polygon class="st11" points="1579.5,754 1428.4,871.6 1277.2,643.1 			"/>
			<linearGradient id="SVGID_9_" gradientUnits="userSpaceOnUse" x1="1579.5486" y1="816.1473" x2="1844.9435" y2="816.1473">
				<stop  offset="0" style="stop-color:#000030"/>
				<stop  offset="0.1231" style="stop-color:#000D4F"/>
				<stop  offset="0.3219" style="stop-color:#001F7A"/>
				<stop  offset="0.5143" style="stop-color:#002D9D"/>
				<stop  offset="0.696" style="stop-color:#0038B5"/>
				<stop  offset="0.8626" style="stop-color:#003EC4"/>
				<stop  offset="1" style="stop-color:#0040C9"/>
			</linearGradient>
			<polygon class="st12" points="1579.5,754 1702.5,866.3 1844.9,878.3 			"/>
			<polygon class="st17" points="1579.5,754 1687.1,592.7 1750.9,542.4 1848.3,589.4 			"/>
			<polygon class="st4" points="1579.5,754 1922.2,703.6 2093.5,817.8 			"/>
		</g>
		<g>
			<path class="st3" d="M743.1,713.7l194.8-94.1l124.3,47l90.7-3.4l63.8-50.4l97.4,47l73.9,114.2l171.3,114.2l-178,73.9l-94.1-20.2
				l-118.9-5.3l-79.2,30.9l-194.9-25.6c0,0-90.7,16.8-100.8,16.8c-10.1,0-147.8-26.9-147.8-26.9l40.3-94.1L743.1,713.7z"/>
			<polygon class="st4" points="937.9,619.6 1045.4,824.5 743.1,713.7 			"/>
			<polygon class="st2" points="1045.4,824.5 894.2,942.1 743.1,713.7 			"/>
			<linearGradient id="SVGID_10_" gradientUnits="userSpaceOnUse" x1="1045.3995" y1="886.6953" x2="1310.7944" y2="886.6953">
				<stop  offset="0" style="stop-color:#000030"/>
				<stop  offset="0.1231" style="stop-color:#000D4F"/>
				<stop  offset="0.3219" style="stop-color:#001F7A"/>
				<stop  offset="0.5143" style="stop-color:#002D9D"/>
				<stop  offset="0.696" style="stop-color:#0038B5"/>
				<stop  offset="0.8626" style="stop-color:#003EC4"/>
				<stop  offset="1" style="stop-color:#0040C9"/>
			</linearGradient>
			<polygon class="st15" points="1045.4,824.5 1168.4,936.9 1310.8,948.8 			"/>
			<polygon class="st2" points="1045.4,824.5 1152.9,663.3 1216.7,612.9 1314.2,659.9 			"/>
			<polygon class="st4" points="1045.4,824.5 1388.1,774.2 1559.4,888.4 			"/>
		</g>
	</g>
	<rect x="-6.8" y="788.7" class="st3" width="1924.5" height="294.3"/>
	<g>
		<defs>
			<rect id="SVGID_13_" x="-6.8" y="788.7" width="1924.5" height="413.3"/>
		</defs>
		<clipPath id="SVGID_11_">
			<use xlink:href="#SVGID_13_"  style="overflow:visible;"/>
		</clipPath>
		<g style="clip-path:url(#SVGID_11_);">
			<path class="st20" d="M1960.8,797.9H-49.9L-1480.2,1764h4871.4L1960.8,797.9z M-307.7,1301v-218h2476v218H-307.7z"/>
			<line class="st20" x1="-423.7" y1="1050.4" x2="2334.6" y2="1050.4"/>
			<line class="st20" x1="-343.2" y1="996" x2="2254.1" y2="996"/>
			<line class="st20" x1="-271.6" y1="947.6" x2="2182.5" y2="947.6"/>
			<line class="st20" x1="-207.5" y1="904.3" x2="2118.4" y2="904.3"/>
			<line class="st20" x1="-149.8" y1="865.3" x2="2060.7" y2="865.3"/>
			<line class="st20" x1="-97.5" y1="830" x2="2008.4" y2="830"/>
			<line class="st20" x1="1835.1" y1="797.9" x2="3086.7" y2="1764"/>
			<path class="st20" d="M1709.5,797.9c2.8,2.1,5.8,5.1,8.8,7.1c8,8,15,15,23,22c13,11,25,22,38,33c81,73,158,143,236.8,214"/>
			<path class="st20" d="M1583.8,797.9c7.5,9.1,16.5,16.1,23.5,26.1c2,3,5,4,7,6c43,49,85,93,129,141c33,35,64,69,95.9,102.9"/>
			<path class="st20" d="M1458.1,797.9c8.1,12.1,17.1,23.1,26.1,36.1c62,83,119,160,178.2,239.9"/>
			<path class="st20" d="M1332.5,797.9c29.8,54.1,59.8,107.1,89.8,163.1c3,4,5,8,8,12c18,35,38,67,55.4,100.8"/>
			<path class="st20" d="M1206.8,797.9c10.5,30.1,22.5,59.1,33.5,89.1c8,24,17,47,26,71c3,10,7,19,10,29c4,9,7,18,11,27
				c7,20,14,40,21.6,59.8"/>
			<path class="st20" d="M1081.1,797.9c6.2,39.1,14.2,77.1,22.2,117.1c10,55,18,106,28.9,158.9"/>
			<path class="st20" d="M955.4,797.9c-0.2,92.1-0.2,184.1,0,275.9"/>
			<path class="st20" d="M829.8,797.9c-16.5,92.1-34.5,184.1-51.1,276"/>
			<path class="st20" d="M704.1,797.9C670.3,890,635.3,982,602,1073.8"/>
			<path class="st20" d="M578.4,797.9C563.3,825,548.3,851,534.3,878c-8,14-15,26-23,40c-16,30-32,58-49,88c-12,23-25,45-37,67.8"/>
			<path class="st20" d="M452.8,797.9c-2.5,2.1-3.5,5.1-4.5,7.1c-70,93-133,180-199.8,268.9"/>
			<path class="st20" d="M327.1,797.9C292.3,836,257.3,872,222.3,912c-1,1-3,2-4,3c-5,6-10,11-16,17c-45,49-87,95-130.6,141.9"/>
			<path class="st20" d="M201.4,797.9C111.3,879,24.3,958-67.7,1041c-13,11-25,22-37.4,33"/>
			<path class="st20" d="M75.7,797.9C-43.7,890-162.7,982-281.8,1073.9"/>
		</g>
	</g>
</g>
</svg>
