<?xml version="1.0" encoding="utf-8"?>
<!-- Generator: Adobe Illustrator 22.1.0, SVG Export Plug-In . SVG Version: 6.00 Build 0)  -->
<svg version="1.1" id="Слой_1" xmlns="http://www.w3.org/2000/svg" xmlns:xlink="http://www.w3.org/1999/xlink" x="0px" y="0px"
	 viewBox="0 0 103.2 105.6" enable-background="new 0 0 103.2 105.6" xml:space="preserve">
<g opacity="0.5">
	<linearGradient id="SVGID_1_" gradientUnits="userSpaceOnUse" x1="44.4099" y1="49.3663" x2="100.5369" y2="49.3663">
		<stop  offset="0" style="stop-color:#272425;stop-opacity:0.4"/>
		<stop  offset="1" style="stop-color:#272425;stop-opacity:0"/>
	</linearGradient>
	<polygon display="none" fill="url(#SVGID_1_)" points="100.5,18.4 51,0 44.4,5.5 48.5,79.5 51.8,82.5 100.5,98.7 	"/>
	<g>
		<path fill="#D25B36" d="M43.8,22.9c1.4,1.4,3.9,1.2,5.5,0.2c-2.8-2.2-4.2-6.5-2-9.9c0.6,2,2.6,3.7,4.4,4.7c2.3,1.1,4,0.4,4.9-2
			c0.7,1.8,1.9,3.4,2.5,5.1c0.7,2.2-0.1,4.5-0.5,6.7l0.1,0.2c0.2-0.1,0.4-0.2,0.7-0.2c8.8-5.9-0.6-21.2-0.6-21.2s-0.6,3.8-6.4,2.2
			C46.5,7,51,0,51,0c-19.1,0-9.8,19.9-9.8,19.9c-7.9,0-6.6-3.5-6.3-4.1c-0.5,0.9-4.5,7.6,1.1,11.5c1.7,0.6,5,1.6,9,2
			C43.2,27.8,42.5,25.1,43.8,22.9z"/>
		<path fill="#E5AE55" d="M59.1,21c-0.6-1.8-1.8-3.3-2.5-5.1c-0.8,2.5-2.6,3.2-4.9,2c-1.8-0.9-3.8-2.6-4.4-4.7
			c-2.2,3.4-0.8,7.7,2,9.9c-1.6,1-4.2,1.2-5.5-0.2c-1.3,2.2-0.5,4.9,1.3,6.3c4.1,0.4,8.9,0.3,13.6-1.4l-0.1-0.2
			C59,25.4,59.8,23.2,59.1,21z"/>
		<path fill="#2B456D" d="M58.7,27.8c-4.8,1.7-9.6,1.8-13.6,1.4c-4-0.4-7.2-1.4-9-2c-0.9-0.3-1.4-0.5-1.4-0.5l3.9,18.1
			c0,0,8.8,9.3,19.8,0l3.1-18.1c-0.7,0.4-1.4,0.7-2.2,0.9C59.1,27.7,58.9,27.8,58.7,27.8z"/>
		<path fill="#DA8265" d="M38.6,44.7l6,27.6h8.9l4.8-27.6C47.4,54,38.6,44.7,38.6,44.7z"/>
		<polygon fill="#2B456D" points="45.7,77.2 51.8,82.5 53.6,72.3 44.7,72.3 		"/>
	</g>
</g>
<g opacity="0.5">
	<g>
		<path fill="#444242" d="M1.6,90.1v5.6h0.5l4.3-5.6h2l-4.8,5.8c2.1,0.3,2.9,1.6,3.5,3.3c0.5,1.3,0.8,2.5,1.4,3.6H6.8
			c-0.5-0.9-0.8-2-1.1-3C5.1,98.1,4.3,97,2.1,97H1.6v5.8H0V90.1H1.6z"/>
		<path fill="#444242" d="M22.3,98.1c0,3.4-2.3,4.8-4.5,4.8c-2.5,0-4.4-1.8-4.4-4.7c0-3,2-4.8,4.5-4.8
			C20.6,93.5,22.3,95.4,22.3,98.1z M15.1,98.2c0,2,1.1,3.5,2.8,3.5c1.6,0,2.8-1.5,2.8-3.5c0-1.5-0.8-3.5-2.7-3.5
			C16,94.7,15.1,96.5,15.1,98.2z"/>
		<path fill="#444242" d="M31.3,93.7v9.1h-1.6V95h-3.1v2.4c0,2.6-0.2,4.3-1.4,5c-0.5,0.4-1,0.6-1.8,0.6l-0.2-1.3
			c0.3-0.1,0.7-0.2,0.9-0.4c0.8-0.6,0.9-1.9,0.9-3.9v-3.7H31.3z"/>
		<path fill="#444242" d="M35.5,93.7v3.8c0,1.4,0,2.3-0.1,3.6l0.1,0c0.5-1.1,0.9-1.7,1.5-2.8l2.8-4.7h1.9v9.1h-1.6v-3.8
			c0-1.5,0-2.3,0.1-3.7h-0.1c-0.6,1.2-1,1.9-1.5,2.8c-0.9,1.4-1.9,3.2-2.8,4.7H34v-9.1H35.5z"/>
		<path fill="#444242" d="M44.5,93.7h2l1.7,4.6c0.2,0.7,0.6,1.8,0.8,2.5h0c0.2-0.7,0.7-2.1,1.1-3.1l1.5-4h2l0.6,9.1h-1.6l-0.2-4.3
			c-0.1-1-0.1-2.1-0.2-3.2h-0.1c-0.2,0.8-0.5,1.6-1,2.9l-1.7,4.6h-1.2l-1.6-4.5c-0.3-0.9-0.7-2.2-0.9-3h-0.1c0,1.1-0.1,2.3-0.2,3.3
			l-0.2,4.3h-1.5L44.5,93.7z"/>
		<path fill="#444242" d="M63.9,93.7v9.1h-1.7V95H58v7.8h-1.6v-9.1H63.9z"/>
		<path fill="#444242" d="M68.1,93.7v3.8c0,1.4,0,2.3-0.1,3.6l0.1,0c0.5-1.1,0.9-1.7,1.5-2.8l2.8-4.7h1.9v9.1h-1.6v-3.8
			c0-1.5,0-2.3,0.1-3.7h-0.1c-0.6,1.2-1,1.9-1.5,2.8c-0.9,1.4-1.9,3.2-2.8,4.7h-1.9v-9.1H68.1z"/>
		<path fill="#444242" d="M82,102.8l-0.1-1.1h-0.1c-0.5,0.7-1.5,1.4-2.8,1.4c-1.8,0-2.8-1.3-2.8-2.6c0-2.2,2-3.4,5.5-3.4v-0.2
			c0-0.8-0.2-2.1-2.1-2.1c-0.8,0-1.7,0.3-2.4,0.7l-0.4-1.1c0.8-0.5,1.8-0.8,3-0.8c2.8,0,3.5,1.9,3.5,3.7v3.4c0,0.8,0,1.6,0.1,2.2H82
			z M81.7,98.1c-1.8,0-3.8,0.3-3.8,2c0,1.1,0.7,1.6,1.6,1.6c1.2,0,1.9-0.8,2.2-1.5c0.1-0.2,0.1-0.4,0.1-0.5V98.1z"/>
		<path fill="#444242" d="M93,93.7v7.8l0.9,0l-0.1,4.1h-1.3l-0.1-2.9h-6.3l-0.1,2.9h-1.3l-0.1-4.1l0.8,0c0.4-0.6,0.7-1.2,0.9-1.9
			c0.4-1.1,0.5-2.3,0.5-3.6v-2.4H93z M88.4,96.4c0,1.2-0.2,2.4-0.5,3.4c-0.2,0.6-0.5,1.2-0.7,1.7h4.2v-6.6h-3V96.4z"/>
		<path fill="#444242" d="M96.8,98.5c0,2.2,1.5,3.2,3.1,3.2c1.2,0,1.9-0.2,2.5-0.5l0.3,1.2c-0.6,0.3-1.6,0.6-3,0.6
			c-2.8,0-4.5-1.8-4.5-4.6s1.6-4.9,4.3-4.9c3,0,3.8,2.6,3.8,4.3c0,0.3,0,0.6-0.1,0.8H96.8z M101.6,97.3c0-1.1-0.4-2.7-2.3-2.7
			c-1.7,0-2.4,1.5-2.5,2.7H101.6z"/>
	</g>
</g>
</svg>
