<?xml version="1.0" encoding="utf-8"?>
<!-- Generator: Adobe Illustrator 22.1.0, SVG Export Plug-In . SVG Version: 6.00 Build 0)  -->
<svg version="1.1" id="Слой_1" xmlns="http://www.w3.org/2000/svg" xmlns:xlink="http://www.w3.org/1999/xlink" x="0px" y="0px"
	 viewBox="0 0 81 106.9" enable-background="new 0 0 81 106.9" xml:space="preserve">
<g>
	<linearGradient id="SVGID_1_" gradientUnits="userSpaceOnUse" x1="24.8568" y1="49.8184" x2="80.9839" y2="49.8184">
		<stop  offset="0" style="stop-color:#272425;stop-opacity:0.4"/>
		<stop  offset="1" style="stop-color:#272425;stop-opacity:0"/>
	</linearGradient>
	<path fill="url(#SVGID_1_)" d="M31.5,0.5c-0.2,13.4-3.4,26.4-4.8,39.6l1.6,28.6c1.7,4.6,3,9.1,3.5,13.9l0.4,0.3L81,99.2V18.8
		L31.5,0.5z"/>
	<polygon fill="#FFFFFF" points="32,42.1 21.7,31.8 32,3.2 	"/>
	<polygon fill="#FFFFFF" points="32,42.1 42.3,31.8 32,3.2 	"/>
	<polygon fill="#FFFFFF" points="32,42.1 42.3,52.4 32,81 	"/>
	<polygon fill="#FFFFFF" points="32,42.1 21.7,52.4 32,81 	"/>
	<polygon fill="#FFFFFF" points="32,42.1 42.3,31.8 56.3,42.1 	"/>
	<polygon fill="#FFFFFF" points="32,42.1 42.3,52.4 56.3,42.1 	"/>
	<polygon fill="#FFFFFF" points="32,42.1 21.7,52.4 7.7,42.1 	"/>
	<polygon fill="#FFFFFF" points="32,42.1 21.7,31.8 7.7,42.1 	"/>
	<polygon fill="#FFD13E" points="31.7,41.7 20.6,30.7 31.7,0 	"/>
	<polygon fill="#FFD743" points="31.7,41.7 42.7,30.7 31.7,0 	"/>
	<polygon fill="#874C21" points="31.7,41.7 42.7,52.7 31.7,83.4 	"/>
	<polygon fill="#D69029" points="31.7,41.7 20.6,52.7 31.7,83.4 	"/>
	<polygon fill="#FDE74E" points="31.7,41.7 42.7,30.7 57.7,41.7 	"/>
	<polygon fill="#F1B330" points="31.7,41.7 42.7,52.7 57.7,41.7 	"/>
	<polygon fill="#995624" points="31.7,41.7 20.6,52.7 5.6,41.7 	"/>
	<polygon fill="#FFC932" points="31.7,41.7 20.6,30.7 5.6,41.7 	"/>
	<line fill="none" stroke="#FFFFFF" stroke-width="0.2" stroke-miterlimit="10" x1="31.7" y1="0" x2="31.7" y2="41.7"/>
	<line fill="none" stroke="#FFFFFF" stroke-width="0.2" stroke-miterlimit="10" x1="31.7" y1="41.7" x2="57.7" y2="41.7"/>
	<line fill="none" stroke="#FFFFFF" stroke-width="0.2" stroke-miterlimit="10" x1="42.7" y1="30.7" x2="31.7" y2="41.7"/>
	<line fill="none" stroke="#FFFFFF" stroke-width="0.2" stroke-miterlimit="10" x1="31.7" y1="0" x2="42.7" y2="30.7"/>
	<line fill="none" stroke="#FFFFFF" stroke-width="0.2" stroke-miterlimit="10" x1="42.7" y1="30.7" x2="57.7" y2="41.7"/>
	<line fill="none" stroke="#FFFFFF" stroke-width="0.2" stroke-miterlimit="10" x1="31.7" y1="83.4" x2="31.7" y2="41.7"/>
	<line fill="none" stroke="#FFFFFF" stroke-width="0.2" stroke-miterlimit="10" x1="31.7" y1="41.7" x2="5.6" y2="41.7"/>
	<line fill="none" stroke="#FFFFFF" stroke-width="0.2" stroke-miterlimit="10" x1="20.6" y1="52.7" x2="31.7" y2="41.7"/>
	<line fill="none" stroke="#FFFFFF" stroke-width="0.2" stroke-miterlimit="10" x1="31.7" y1="83.4" x2="20.6" y2="52.7"/>
	<line fill="none" stroke="#FFFFFF" stroke-width="0.2" stroke-miterlimit="10" x1="20.6" y1="52.7" x2="5.6" y2="41.7"/>
	<line fill="none" stroke="#FFFFFF" stroke-width="0.2" stroke-miterlimit="10" x1="31.7" y1="0" x2="31.7" y2="41.7"/>
	<line fill="none" stroke="#FFFFFF" stroke-width="0.2" stroke-miterlimit="10" x1="31.7" y1="41.7" x2="5.6" y2="41.7"/>
	<line fill="none" stroke="#FFFFFF" stroke-width="0.2" stroke-miterlimit="10" x1="20.6" y1="30.7" x2="31.7" y2="41.7"/>
	<line fill="none" stroke="#FFFFFF" stroke-width="0.2" stroke-miterlimit="10" x1="31.7" y1="0" x2="20.6" y2="30.7"/>
	<line fill="none" stroke="#FFFFFF" stroke-width="0.2" stroke-miterlimit="10" x1="20.6" y1="30.7" x2="5.6" y2="41.7"/>
	<line fill="none" stroke="#FFFFFF" stroke-width="0.2" stroke-miterlimit="10" x1="31.7" y1="83.4" x2="31.7" y2="41.7"/>
	<line fill="none" stroke="#FFFFFF" stroke-width="0.2" stroke-miterlimit="10" x1="31.7" y1="41.7" x2="57.7" y2="41.7"/>
	<line fill="none" stroke="#FFFFFF" stroke-width="0.2" stroke-miterlimit="10" x1="42.7" y1="52.7" x2="31.7" y2="41.7"/>
	<line fill="none" stroke="#FFFFFF" stroke-width="0.2" stroke-miterlimit="10" x1="31.7" y1="83.4" x2="42.7" y2="52.7"/>
	<line fill="none" stroke="#FFFFFF" stroke-width="0.2" stroke-miterlimit="10" x1="42.7" y1="52.7" x2="57.7" y2="41.7"/>
	<polygon fill="#F2D04D" points="32,42.1 22.2,32.4 32,5.4 	"/>
	<polygon fill="#F3D652" points="32,42.1 41.7,32.4 32,5.4 	"/>
	<polygon fill="#7A4C28" points="32,42.1 41.7,51.8 32,78.8 	"/>
	<polygon fill="#C48E36" points="32,42.1 22.2,51.8 32,78.8 	"/>
	<polygon fill="#F6E75C" points="32,42.1 41.7,32.4 54.9,42.1 	"/>
	<polygon fill="#E1B13F" points="32,42.1 41.7,51.8 54.9,42.1 	"/>
	<polygon fill="#88562B" points="32,42.1 22.2,51.8 9,42.1 	"/>
	<polygon fill="#F1C844" points="32,42.1 22.2,32.4 9,42.1 	"/>
	<line fill="none" stroke="#FFFFFF" stroke-width="0.2" stroke-miterlimit="10" x1="32" y1="5.4" x2="32" y2="42.1"/>
	<line fill="none" stroke="#FFFFFF" stroke-width="0.2" stroke-miterlimit="10" x1="32" y1="42.1" x2="54.9" y2="42.1"/>
	<line fill="none" stroke="#FFFFFF" stroke-width="0.2" stroke-miterlimit="10" x1="41.7" y1="32.4" x2="32" y2="42.1"/>
	<line fill="none" stroke="#FFFFFF" stroke-width="0.2" stroke-miterlimit="10" x1="32" y1="5.4" x2="41.7" y2="32.4"/>
	<line fill="none" stroke="#FFFFFF" stroke-width="0.2" stroke-miterlimit="10" x1="41.7" y1="32.4" x2="54.9" y2="42.1"/>
	<line fill="none" stroke="#FFFFFF" stroke-width="0.2" stroke-miterlimit="10" x1="32" y1="78.8" x2="32" y2="42.1"/>
	<line fill="none" stroke="#FFFFFF" stroke-width="0.2" stroke-miterlimit="10" x1="32" y1="42.1" x2="9" y2="42.1"/>
	<line fill="none" stroke="#FFFFFF" stroke-width="0.2" stroke-miterlimit="10" x1="22.2" y1="51.8" x2="32" y2="42.1"/>
	<line fill="none" stroke="#FFFFFF" stroke-width="0.2" stroke-miterlimit="10" x1="32" y1="78.8" x2="22.2" y2="51.8"/>
	<line fill="none" stroke="#FFFFFF" stroke-width="0.2" stroke-miterlimit="10" x1="22.2" y1="51.8" x2="9" y2="42.1"/>
	<line fill="none" stroke="#FFFFFF" stroke-width="0.2" stroke-miterlimit="10" x1="32" y1="5.4" x2="32" y2="42.1"/>
	<line fill="none" stroke="#FFFFFF" stroke-width="0.2" stroke-miterlimit="10" x1="32" y1="42.1" x2="9" y2="42.1"/>
	<line fill="none" stroke="#FFFFFF" stroke-width="0.2" stroke-miterlimit="10" x1="22.2" y1="32.4" x2="32" y2="42.1"/>
	<line fill="none" stroke="#FFFFFF" stroke-width="0.2" stroke-miterlimit="10" x1="32" y1="5.4" x2="22.2" y2="32.4"/>
	<line fill="none" stroke="#FFFFFF" stroke-width="0.2" stroke-miterlimit="10" x1="22.2" y1="32.4" x2="9" y2="42.1"/>
	<line fill="none" stroke="#FFFFFF" stroke-width="0.2" stroke-miterlimit="10" x1="32" y1="78.8" x2="32" y2="42.1"/>
	<line fill="none" stroke="#FFFFFF" stroke-width="0.2" stroke-miterlimit="10" x1="32" y1="42.1" x2="54.9" y2="42.1"/>
	<line fill="none" stroke="#FFFFFF" stroke-width="0.2" stroke-miterlimit="10" x1="41.7" y1="51.8" x2="32" y2="42.1"/>
	<line fill="none" stroke="#FFFFFF" stroke-width="0.2" stroke-miterlimit="10" x1="32" y1="78.8" x2="41.7" y2="51.8"/>
	<line fill="none" stroke="#FFFFFF" stroke-width="0.2" stroke-miterlimit="10" x1="41.7" y1="51.8" x2="54.9" y2="42.1"/>
</g>
<g>
	<path d="M8.1,89.5v1.4H3.1v11.3H1.4V89.5H8.1z"/>
	<path d="M14.7,93.1v9.1H13v-7.8H9.9v2.4c0,2.6-0.2,4.3-1.4,5c-0.5,0.4-1,0.6-1.8,0.6L6.5,101c0.3-0.1,0.7-0.2,0.9-0.4
		c0.8-0.6,0.9-1.9,0.9-3.9v-3.7H14.7z"/>
	<path d="M22.4,102.2l-0.1-1.1h-0.1c-0.5,0.7-1.5,1.4-2.8,1.4c-1.8,0-2.8-1.3-2.8-2.6c0-2.2,2-3.4,5.5-3.4v-0.2
		c0-0.8-0.2-2.1-2.1-2.1c-0.8,0-1.7,0.3-2.4,0.7l-0.4-1.1c0.8-0.5,1.8-0.8,3-0.8c2.8,0,3.5,1.9,3.5,3.7v3.4c0,0.8,0,1.6,0.1,2.2
		H22.4z M22.1,97.5c-1.8,0-3.8,0.3-3.8,2c0,1.1,0.7,1.6,1.6,1.6c1.2,0,1.9-0.8,2.2-1.5c0.1-0.2,0.1-0.4,0.1-0.5V97.5z"/>
	<path d="M26.4,93.2c0.6-0.1,1.8-0.2,2.9-0.2c1.5,0,4,0.2,4,2.3c0,1.1-0.9,1.8-1.9,2v0c1.3,0.2,2.3,0.9,2.3,2.3c0,2.4-3,2.7-4.8,2.7
		c-1,0-2.1-0.1-2.6-0.1V93.2z M27.9,101.1c0.5,0.1,0.8,0.1,1.3,0.1c1.1,0,2.8-0.3,2.8-1.6c0-1.3-1.3-1.6-2.9-1.6h-1.2V101.1z
		 M28,96.9h1.2c1.2,0,2.5-0.4,2.5-1.4c0-0.9-0.8-1.3-2.4-1.3c-0.5,0-0.9,0-1.3,0.1V96.9z"/>
	<path d="M37.4,93.1v3.7h4.3v-3.7h1.6v9.1h-1.6v-4.1h-4.3v4.1h-1.6v-9.1H37.4z"/>
	<path d="M51.1,102.2l-0.1-1.1h-0.1c-0.5,0.7-1.5,1.4-2.8,1.4c-1.8,0-2.8-1.3-2.8-2.6c0-2.2,2-3.4,5.5-3.4v-0.2
		c0-0.8-0.2-2.1-2.1-2.1c-0.8,0-1.7,0.3-2.4,0.7L46,93.7c0.8-0.5,1.8-0.8,3-0.8c2.8,0,3.5,1.9,3.5,3.7v3.4c0,0.8,0,1.6,0.1,2.2H51.1
		z M50.8,97.5c-1.8,0-3.8,0.3-3.8,2c0,1.1,0.7,1.6,1.6,1.6c1.2,0,1.9-0.8,2.2-1.5c0.1-0.2,0.1-0.4,0.1-0.5V97.5z"/>
	<path d="M61.9,102.2h-1.6v-3.8H59c-0.7,0-1.2,0.2-1.5,0.5c-0.7,0.5-0.9,1.7-1.3,2.6c-0.1,0.3-0.2,0.5-0.4,0.8h-1.8
		c0.2-0.3,0.4-0.6,0.6-1c0.4-0.9,0.6-2.1,1.4-2.7c0.3-0.2,0.6-0.5,1-0.5v-0.1c-1.2-0.1-2.4-0.9-2.4-2.3c0-0.9,0.5-1.6,1.2-2
		c0.8-0.4,1.9-0.6,3-0.6c1.1,0,2.1,0.1,2.9,0.2V102.2z M60.2,94.2c-0.4-0.1-0.8-0.1-1.4-0.1c-1.1,0-2.5,0.3-2.5,1.6
		c0,1.2,1.4,1.6,2.4,1.6c0.7,0,1,0,1.4,0V94.2z"/>
</g>
</svg>
