<?xml version="1.0" encoding="utf-8"?>
<!-- Generator: Adobe Illustrator 22.1.0, SVG Export Plug-In . SVG Version: 6.00 Build 0)  -->
<svg version="1.1" id="Слой_1" xmlns="http://www.w3.org/2000/svg" xmlns:xlink="http://www.w3.org/1999/xlink" x="0px" y="0px"
	 viewBox="0 0 94.3 108.1" enable-background="new 0 0 94.3 108.1" xml:space="preserve">
<g opacity="0.5">
	<linearGradient id="SVGID_1_" gradientUnits="userSpaceOnUse" x1="42.5155" y1="46.9948" x2="94.2929" y2="46.9948">
		<stop  offset="0" style="stop-color:#272425;stop-opacity:0.4"/>
		<stop  offset="1" style="stop-color:#272425;stop-opacity:0"/>
	</linearGradient>
	<polygon display="none" fill="url(#SVGID_1_)" points="94.3,18.4 48.6,1.5 42.5,6.6 46.3,74.8 49.3,77.5 94.3,92.5 	"/>
	<g>
		<path fill="#BDBADB" d="M56.5,29.6c-0.4-0.8-0.3-1.5,0.1-2.3c0.5-1.1,1.1-2.3,1.6-3.4c1.1-2.5,3-4.4,4.9-6.2
			c1.3-1.3,2.9-2.1,4.7-2.6c2.1-0.5,4-0.3,5.8,1c2.1,1.5,2.9,4,2,6.4c-0.6,1.6-1.7,2.9-2.7,4.3c-0.2,0.2-0.4,0.5-0.6,0.8
			c0.3,0.1,0.6,0.1,0.9,0.2c1.1,0.2,1.9,0.7,2.5,1.6c0.8,1.1,0.9,2.3,0.2,3.5c-0.5,0.8-1.2,1.4-1.8,2.1c-0.2,0.3-0.6,0.5-0.9,0.8
			c0.3,0.1,0.5,0.2,0.7,0.2c0.8,0.2,1.5,0.5,2.1,1.1c1,1,1.1,2.5,0.3,3.6c-0.9,1.2-2.2,1.9-3.7,2.2C71.9,43,71.3,43,71,42.1
			c0-0.1-0.2-0.2-0.3-0.3c-0.3-0.3-0.6-0.5-1-0.9c-0.7,0-1.1-0.4-1.2-1.2c-0.1-0.5-0.2-1.1-0.8-1.5c-0.2-0.2-0.3-0.6-0.5-1
			c-0.5-0.1-1-0.4-1.2-1.1c-0.8,0-1.4-0.3-1.5-1.1c-0.5-0.1-1,0-1.5-0.2c-0.5-0.2-0.6-0.7-0.6-1.3c-0.2,0-0.4,0.1-0.6,0.1
			c-0.2,0-0.6,0-0.7-0.1c-0.4-0.6-1.2-0.9-1.5-1.5c-0.2-0.3-0.4-0.6-0.8-0.7c-0.2-0.1-0.4-0.3-0.7-0.5c-1.3,1.4-2.8,2.6-4.6,3.6
			C54,32.5,55.1,31.1,56.5,29.6"/>
		<path fill="#8D8AA9" d="M71.1,40.2c0-0.4,0-0.7,0-1.1c-0.1-1.8-1.4-2.9-3.2-2.7c-0.5,0-0.9,0.1-1.4,0.1c0.3-1.1,0.7-2.2,0.9-3.3
			c0.6-2.6-1.6-4.7-4.2-4.1c-1.1,0.3-1.9,0.9-2.8,1.7c-0.5,0.4-0.5,0.4-1.2,0.6c-0.2-0.6,0.2-1,0.5-1.4c0.5-0.6,0.8-1.2,0.9-1.9
			c0.2-1,0-1.5-0.8-2c-0.4-0.2-0.8-0.4-1.3-0.5c-0.2-0.1-0.5-0.1-0.9-0.2c0.3-0.2,0.4-0.4,0.5-0.4c1.5-0.5,4,1.3,3.4,3.2
			c-0.1,0.2-0.1,0.5-0.2,0.8c0.3-0.1,0.6-0.2,0.9-0.4c0.8-0.4,1.6-0.4,2.4-0.4c0.7,0,1.5-0.1,2.2-0.4c1.9-0.7,3.5-1.8,5-3.2
			c1.3-1.3,2-2.8,2.4-4.5c0.4-1.6,0.1-2.8-1-3.9c-0.1-0.1-0.5-0.4-0.6-0.5c0.7,0.3,1.6,1.1,2.1,1.8c1.2,1.6,1.3,3.3,0.7,5.1
			c-0.9,2.5-2.5,4.7-4.6,6.4c-1,0.8-1.8,1.1-2.8,2c0.8,1.7,0.2,3.2-0.7,4.7c2.9,0.5,5.2-0.7,7.2-2.6c1.2-1.1,1.5-2.7,0.4-4.1
			c-0.1-0.2-0.5-0.5-0.7-0.7c0.8,0.3,1.8,1.5,1.9,2.7c0.1,1.4-1.2,3.3-2.5,4.3c-0.8,0.6-1.7,1.1-2.5,1.6c0.1,0.2,0.2,0.5,0.3,0.7
			c0.4,0.9,0.2,1.8-0.3,2.6C71.4,40.2,71.2,40.2,71.1,40.2L71.1,40.2z"/>
		<path fill="#8D8AA9" d="M72.1,41.7c1.3-0.2,2.3-0.3,3.2-1c0.9-0.8,1.3-1.5,1-3.4c0.9,0.9,0.8,2.6,0.2,3.5c-0.8,1-1.9,1.6-3,2
			c-0.3,0.1-0.6,0.1-0.7-0.4C72.7,42.2,72.4,42,72.1,41.7"/>
		<path d="M71.1,40.2c-0.1,0.2-0.2,0.4-0.2,0.7c-0.1,0-0.1-0.1-0.2-0.1C70.8,40.6,71,40.4,71.1,40.2C71.1,40.2,71.1,40.2,71.1,40.2"
			/>
		<path fill="#E5E5E5" d="M55.7,32.6c1.3,2.2,2.7,4.2,4.2,6.2c0.5,0.6,0.9,1.3,1.4,2c-0.1-0.2-0.1-0.3-0.2-0.5
			c-0.6-1.2-0.9-2.5-2-3.4c-0.1-0.1-0.1-0.2-0.2-0.2c-1.5-2.6-3.5-4.9-5.6-7.2c0.2-0.3,0.3-0.6,0.5-0.9c-0.5,0.5-1,1-1.5,1.6
			C54.1,30.2,55,31.3,55.7,32.6"/>
		<path fill="#E5E5E5" d="M39.4,10.7c0.1,0.1,0.2,0.3,0.2,0.5c0.1,0.3,0.2,0.7,0.4,1.2c0.2-0.4,0.3-0.5,0.4-0.7
			c0.6-1,1.3-1.8,2.3-2.4c2.4-1.3,4.9-1.7,7.6-1.1c1.5,0.3,2.7,1.1,3.7,2.3c0.5,0.6,1,1.1,1.4,1.7c-0.2-0.4-0.4-0.8-0.6-1.2
			C54,9.4,52.7,8.1,51,7.3c-1.6-0.8-3.3-0.9-4.8,0.3c0,0-0.1,0-0.2,0.1c-0.8-0.6-1.6-0.9-2.6-0.6c-1,0.3-1.5,1.1-2,1.9
			c-1.1-0.2-1.9,0.2-2.6,0.9c-0.4-0.2-0.9-0.5-1.3-0.7c-1.1-0.6-2.2-0.9-3.4-0.8c1.3,0.2,2.6,0.6,3.9,1.2
			C38.6,9.9,39,10.3,39.4,10.7"/>
		<path fill="#E5E5E5" d="M47.2,74.4c1.3-1.2,1.9-2.7,2.4-4.3c0.2-0.7,0.5-1.4,0.9-2c0.4-0.8,1.1-1.3,2-1.4c0.7-0.1,1.2,0.1,1.6,0.7
			c0.1,0.2,0.3,0.3,0.4,0.5c0.3,0.4,0.6,0.5,1,0.2c0.6-0.4,1.1-0.9,1.7-1.2c0.5-0.3,1.1-0.7,1.6-0.8c1.2-0.3,2,0.3,2.3,1.4
			c0,0.1,0.1,0.3,0.1,0.4c0.5,0.1,0.9,0.2,1.5,0.3c1.8-2.2,2.4-4.7,2.2-7.6c-0.3,0.1-0.5,0.3-0.7,0.3c-0.5,0.2-0.9,0.4-1.4,0.5
			c-1.3,0.3-2.3-0.4-2.4-1.8c0-0.5,0-1.1,0.1-1.6c0.3-1.3,0.7-2.5,1.1-3.7c0.1-0.4,0.3-0.8,0.4-1.2c0.5-1.3,0.5-2.5,0.1-3.9
			c-1.4-4.4-3.2-8.6-6-12.4c-1.4-2-3.2-3.6-5.3-4.9c-0.6-0.4-1.4-0.5-2.1-0.8c0,0,0.1-0.2,0.3-0.2c3-1.5,4.7-4,5.3-7.3
			c0.4-2.3,0.4-4.7-0.2-7c-1.1-4.6-5.3-6.8-9.7-6.1c-1.6,0.3-2.9,0.9-4,2.1c-0.1,0.1-0.2,0.2-0.4,0.4c-3.9-4-8-4.4-12.5-1.5
			c0,0-0.1,0.1-0.1,0.1c-1.7,2.1-2.5,4.4-2.2,7c0.1,0.9,0.2,1.7,0.4,2.6c0.5,3.2,1.9,5.9,4.1,8.3c0.2,0.2,0.4,0.3,0.7,0.5
			c-0.5,0.6-1.1,1.2-1.4,1.9c-1.8,3-3.8,5.9-5.3,9c-1.6,3.4-2.8,6.9-3.4,10.6c-0.3,1.8-0.2,3.7-0.3,5.5c0,0.3,0,0.6-0.1,0.9
			C19.3,60,19.4,62,20,64c0.7,2.5,2.3,4.5,4.2,6.2c0.5,0.5,0.9,0.9,1,1.6c0.1,0.7,0.3,1.5,0.4,2.2c0.1,0.7,0.4,1.2,1,1.5
			c2,0.8,4,1.4,6.2,0.6c0.9-0.3,1.9-0.5,2.9-0.3c2.5,0.6,5,0.9,7.6,0.9c0.4-0.2,1.3-0.7,1.4-0.8C45.5,75.5,46.4,75.1,47.2,74.4"/>
		<path fill="#E5E5E5" d="M64.3,52.5c0,0.4,0,0.9-0.4,1.2c-0.1,0.1-0.2,0.3-0.2,0.5c-0.2,1.1-0.3,2.3-0.5,3.6
			c0.4-0.3,0.6-0.3,0.7-0.5c0.4-0.7,1.1-0.8,1.8-1c0.1,0,0.1,0,0.2,0c-0.5-1-0.5-2.1-0.7-3.2c0-0.2-0.1-0.5-0.1-0.7
			c-0.2-0.2-0.5-0.5-0.8-0.8C64.3,51.9,64.3,52.2,64.3,52.5"/>
		<path fill="#E5E5E5" d="M54.7,27.5c0.1,0.1,0.1,0.1,0.2,0.2c0.2-0.2,0.3-0.5,0.5-0.7c0,0-0.1,0-0.1-0.1
			C55.1,27.1,54.9,27.3,54.7,27.5"/>
		<path fill="#E5E5E5" d="M63.8,68.6c2.9-3.2,3.6-6.8,2.7-10.9c0,0.4,0.1,0.8,0.1,1.3c0.1,1.6,0.1,3.2-0.4,4.7
			c-0.7,2.3-1.5,4.5-3.6,6"/>
		<path fill="#E5E5E5" d="M60,69.2C60,69.2,60.1,69.1,60,69.2C60.1,69.1,60.1,69.1,60,69.2C60,69.1,60,69.1,60,69.2"/>
		<path fill="#D0D0D0" d="M65.1,52.3c0.2,0.2,0.4,0.4,0.6,0.6c0.1-0.3,0.1-0.5,0.1-0.6c-0.3-0.8-0.6-1.7-0.9-2.5
			c-0.1-0.3-0.3-0.8-0.2-0.9c0.4-0.4,0.1-0.8,0-1.1c-0.6-1.4-1.2-2.8-1.9-4.2c-0.4-0.9-0.9-1.8-1.4-2.7C63,44.4,64.1,48.3,65.1,52.3
			C65.1,52.2,65.1,52.3,65.1,52.3"/>
		<path fill="#D0D0D0" d="M53.7,28.6c0.3-0.4,0.7-0.7,1-1.1c-0.1-0.1-0.2-0.1-0.3-0.2C54.2,27.8,54,28.2,53.7,28.6"/>
		<path fill="#D0D0D0" d="M66.5,57.8c0-0.3,0-0.6-0.1-1c0-0.5-0.1-0.7-0.5-0.6c0.1,0.2,0.2,0.4,0.3,0.6
			C66.3,57.1,66.4,57.4,66.5,57.8"/>
		<path fill="#D0D0D0" d="M60.7,69c-0.2,0-0.4,0.1-0.7,0.1c0.7,1,1.7,0,2.4,0.6c0,0,0,0,0.1,0C62,69.2,61.5,68.9,60.7,69"/>
		<path fill="#D0D0D0" d="M56.7,23.6c-0.2,1.2-0.6,2.3-1.2,3.4c0.1,0,0.2,0.1,0.3,0.2c0.5-1.5,1-2.9,1.3-4.4
			c0.8-3.8,0.6-7.5-1.5-10.6c0.8,1.7,1.2,3.5,1.4,5.4C57,19.6,56.9,21.6,56.7,23.6"/>
		<path fill="#D0D0D0" d="M33.7,8.5c0.2,0,0.4,0,0.6,0c-1-0.1-2-0.1-3.1,0.1c-1.5,0.3-2.8,1-3.8,2.4c-0.2,0.2-0.4,0.5-0.2,0.9
			c0.2-0.1,0.3-0.2,0.5-0.4C29.4,9.7,31.3,8.7,33.7,8.5"/>
		<path fill="#D0D0D0" d="M66.2,63.7c0.5-1.5,0.5-3.1,0.4-4.7c0-0.4-0.1-0.8-0.1-1.3c-0.1-0.3-0.2-0.7-0.3-1
			c-0.1-0.2-0.2-0.4-0.3-0.6c-0.1,0-0.1,0-0.2,0c-0.7,0.2-1.4,0.4-1.8,1c-0.1,0.2-0.3,0.2-0.7,0.5c0.2-1.4,0.3-2.5,0.5-3.6
			c0-0.2,0.1-0.4,0.2-0.5c0.5-0.3,0.4-0.7,0.4-1.2c0-0.3,0-0.6,0-1c0.3,0.3,0.5,0.6,0.8,0.8c0,0,0,0,0,0c-0.9-3.9-2.1-7.8-3.8-11.5
			c-0.4-0.7-0.9-1.3-1.4-2c-1.5-2-2.9-4-4.2-6.2c-0.7-1.2-1.6-2.4-3.5-2.4c0.5-0.6,1-1.1,1.5-1.6c0.2-0.4,0.5-0.8,0.7-1.3
			c0.1,0.1,0.2,0.1,0.3,0.2c0.2-0.2,0.4-0.4,0.6-0.6c0,0,0.1,0,0.1,0.1c0.6-1,1.1-2.2,1.2-3.4c0.3-2,0.4-4,0.2-6.1
			c-0.2-1.9-0.6-3.7-1.4-5.4c-0.4-0.6-0.8-1.2-1.4-1.7c-1.1-1.1-2.2-2-3.7-2.3c-2.6-0.5-5.2-0.1-7.6,1.1c-1,0.5-1.7,1.4-2.3,2.4
			c-0.1,0.2-0.2,0.3-0.4,0.7c-0.2-0.5-0.2-0.9-0.4-1.2c-0.1-0.2-0.1-0.4-0.2-0.5c-0.4-0.4-0.8-0.8-1.3-1c-1.2-0.7-2.5-1.1-3.9-1.2
			c-0.2,0-0.4,0-0.6,0c-2.3,0.3-4.3,1.2-5.9,3c4.4-3,8.6-2.5,12.5,1.5c0.2-0.2,0.3-0.3,0.4-0.4c1.1-1.2,2.5-1.8,4-2.1
			c4.4-0.7,8.5,1.5,9.7,6.1c0.6,2.3,0.6,4.7,0.2,7c-0.6,3.3-2.2,5.8-5.3,7.3c-0.1,0.1-0.2,0.2-0.3,0.2c0.7,0.3,1.4,0.4,2.1,0.8
			c2.1,1.2,3.8,2.9,5.3,4.9c2.7,3.8,4.5,8,6,12.4c0.4,1.3,0.4,2.6-0.1,3.9c-0.1,0.4-0.3,0.8-0.4,1.2c-0.4,1.2-0.8,2.5-1.1,3.7
			c-0.1,0.5-0.2,1-0.1,1.6c0.1,1.4,1.1,2.1,2.4,1.8c0.5-0.1,0.9-0.4,1.4-0.5c0.2-0.1,0.4-0.2,0.7-0.3c0.2,2.9-0.4,5.5-2.2,7.6
			c-0.6-0.1-1-0.2-1.5-0.3c0-0.1-0.1-0.3-0.1-0.4c-0.3-1.2-1.1-1.7-2.3-1.4c-0.6,0.1-1.1,0.5-1.6,0.8c-0.6,0.4-1.1,0.8-1.7,1.2
			c-0.4,0.3-0.8,0.2-1-0.2c-0.1-0.2-0.3-0.3-0.4-0.5c-0.4-0.5-1-0.7-1.6-0.7c-1,0.1-1.6,0.6-2,1.4c-0.4,0.6-0.6,1.3-0.9,2
			c-0.6,1.6-1.1,3.1-2.4,4.3c-0.8,0.7-1.7,1.1-2.5,1.5c-0.2,0.1-1,0.6-1.4,0.8c0.7,0,1.3,0,2,0c1.2,0,2.3-0.1,3.5-0.2
			c0.8,0,1.4-0.3,1.7-1.1c0.3-0.9,0.7-1.8,1.1-2.7c0.4-0.9,0.7-1.8,1.5-2.5c0.9-0.8,2-0.7,2.7,0.3c0.7,0.8,0.9,0.9,1.8,0.4
			c0.4-0.2,0.7-0.5,1-0.8c0.4-0.3,0.9-0.7,1.4-0.9c0,0,0,0,0.1-0.1c0,0,0,0,0,0c0.2-0.1,0.4-0.1,0.7-0.1c0.7-0.1,1.3,0.3,1.8,0.7
			C65.2,67.7,65.5,66,66.2,63.7"/>
		<path fill="#D0D0D0" d="M42.2,56.4c-1.2-0.1-2.2-0.3-3-1c-0.3-0.3-0.6-0.6-0.8-0.9c-0.1-0.2-0.1-0.5,0-0.8c0.1-0.1,0.4-0.1,0.7,0
			c0.7,0.1,1.4,0.3,2.1,0.4c0.9,0.2,1.7-0.1,2.3-0.7c0.8-0.6,1.5-1.3,2.2-2c0.4-0.4,1-0.7,1.4-1c0.2-0.2,0.5-0.3,0.7-0.5
			c1.9-2.3,3.9-4.6,5.8-6.9c0.5-0.6,1-1.3,1.7-1.6c0.2-0.1,0.3-0.4,0.4-0.6c0.1-0.1,0.3-0.3,0.4-0.3c0.1,0,0.3,0.2,0.4,0.3
			c0.2,0.4,0.1,0.9-0.1,1.2c-0.6,1-1.1,2-1.9,2.9c-1.9,2.3-3.9,4.6-5.9,6.8c-0.9,1-1.8,1.9-2.8,2.8c-0.7,0.7-1.5,1.1-2.5,1.4
			C42.9,56.3,42.5,56.4,42.2,56.4"/>
		<path fill="#38303E" d="M63.1,71.8c1.2,0.5,1.5,1.3,0.7,2.3c-0.7,0.9-1.5,1.7-2.4,2.4c-3.2,2.3-6.7,3.7-10.6,4.2
			c-0.1,0-0.2,0-0.3,0c-0.7,0-1.5,0-1.8-0.7c-0.3-0.7-0.1-1.5,0.4-2.1c0.9-1,1.5-2.2,2.1-3.5c0.6-1.2,1.2-2.4,1.8-3.6
			c0.3-0.6,0.7-0.9,1.4-1c0.7-0.1,1.1,0.2,1.5,0.7c0.2,0.3,0.5,0.5,0.8,0.7c0.5,0.2,0.9,0,1.4-0.4c0.6-0.4,1.2-0.9,1.8-1.2
			c1.7-0.8,2.8-0.2,3.1,1.7C63,71.5,63,71.6,63.1,71.8"/>
		<path fill="#38303E" d="M30,82.9c-0.2,0.4-0.4,0.6-0.5,0.9c-0.3,0.5-0.7,0.7-1.2,0.7c-0.5,0-0.8-0.4-1-0.9
			c-0.1-0.3-0.2-0.6-0.3-0.9c-0.2-0.4-0.5-0.5-0.8-0.3c-0.4,0.2-0.7,0.5-1,0.7c-0.5,0.3-0.9,0.7-1.5,0.9c-1,0.4-1.6-0.1-1.5-1.2
			c0.1-0.6,0.2-1.2,0.5-1.8c0.3-0.6,0.7-1.2,1.2-1.8c0.8-1.1,1.7-2.1,2.5-3.2c0.4-0.6,0.9-0.7,1.5-0.6c0.2,0.1,0.4,0.1,0.6,0.2
			c1.1,0.3,2.3,0.6,3.5,0.3c0.9,1.7,1.8,3.3,2.3,5.2c0.1,0.6,0.1,1.2-0.1,1.8c-0.4,1.4-2.2,1.9-3.3,0.8C30.6,83.6,30.3,83.3,30,82.9
			"/>
		<path fill="#232026" d="M32.2,84.4c1.1-1.1,1.2-2.3,0.7-3.6c-1.2-3.3-3.3-4.4-6.7-3.8c-0.1,0-0.2,0-0.5,0c0.4-0.6,0.8-1,1.1-1.5
			c0.9,0.2,1.7,0.4,2.6,0.5c0.8,0.1,1.7,0.1,2.7,0.1c0.1,0.2,0.4,0.6,0.5,0.9c0.5,1.1,1,2.2,1.4,3.3c0.3,0.8,0.3,1.7,0.1,2.5
			C33.8,83.9,33.2,84.4,32.2,84.4"/>
		<path fill="#232026" d="M48.7,79.8c-0.2-0.6,0-1.5,0.3-2.1c0.7-1.3,1.4-2.7,2.1-4c0.4-0.9,0.7-1.8,1-2.7c0.4-1,1.4-1.7,2.4-1.6
			c0.5,0,0.8,0.4,1.2,0.9c-0.2-0.1-0.3-0.1-0.4-0.1c-1-0.3-1.8,0-2.3,0.9c-0.2,0.3-0.3,0.7-0.5,1.1c-0.7,2-1.6,3.9-3,5.5
			C49.2,78.2,48.7,79.1,48.7,79.8"/>
		<path fill="#232026" d="M56.2,70.9c0.8,0.2,1.4-0.2,1.9-0.7c0.4-0.3,0.8-0.6,1.2-0.9c0.7-0.5,1.5-0.6,2.4-0.4
			c0.4,0.1,0.9,0.6,1,1.3c-0.2-0.3-0.4-0.4-0.7-0.6c-1.1-0.3-2.1-0.1-2.9,0.7c-0.4,0.3-0.8,0.7-1.2,1C57.2,71.7,56.8,71.5,56.2,70.9
			"/>
		<path fill="#232026" d="M31.6,80.5c-2-0.6-3.9-0.6-6-0.3c0.1-0.3,0.2-0.5,0.3-0.5c0.4-0.2,0.7-0.3,1.1-0.4c1.6-0.3,3.1-0.1,4.4,1
			C31.5,80.3,31.5,80.4,31.6,80.5"/>
		<path fill="#232026" d="M27.1,82.8c-0.9-0.1-1.5,0.4-2.1,0.9c-0.5,0.4-1.1,0.7-1.8,0.7c-0.1,0-0.3-0.1-0.4-0.2
			c1.2-0.1,2-0.9,2.8-1.7C26.2,81.9,26.6,82,27.1,82.8"/>
		<path fill="#232026" d="M30.3,83.1c-0.5,0.7-0.8,1.7-2.1,1.3c0.9-0.2,1.3-0.6,1.5-1.3C29.8,82.8,29.9,82.8,30.3,83.1"/>
		<path fill="#232026" d="M64.2,72.9c-0.1-0.4-0.1-0.5-0.5-0.8c-0.2-0.1-0.4-0.3-0.7-0.4c-0.1,0,0.1-0.1,0.2-0.1
			C64,71.6,64.3,72.1,64.2,72.9"/>
		<path fill="#0A111E" d="M27.3,28.4c-0.3-0.6-0.5-1.2-0.9-1.8c-1.1-1.6-1.6-3.4-1.9-5.3c-0.4-2.2-0.3-4.5,0-6.7
			c0.4-2.9,2-5.2,4.1-7.1c2.2-2,4.9-3.4,7.7-4.2c3.3-1,6.7-1.2,10.1-0.8C47,2.6,47.5,2.8,48.1,3c2.4,0.7,4.7,1.6,6.6,3.3
			c3.7,3.4,5.7,7.5,5.2,12.6c-0.2,1.9-0.5,3.8-1.2,5.6c-0.5,1.3-1.1,2.4-2.1,3.5c0.3,0.3,0.5,0.6,0.8,0.8c1.5,1,3,2,4.4,3.1
			c3.1,2.3,6.1,4.6,8.7,7.4c0.8,0.8,1.5,1.7,2.1,2.6c1,1.2,1.1,2.7,0.6,4.1c-0.3,0.7-0.6,1.5-1,2.1C71,50,69.7,52,68,53.9
			c-0.4,0.5-0.6,1-0.5,1.6c0.1,3-0.1,5.9-1,8.7c-0.4,1.3-1,2.4-1.9,3.5c0.8-1.7,1.5-3.4,1.6-5.3c0.1-1.9-0.1-3.8-0.5-5.8
			c-0.3,0.3-0.5,0.6-0.8,0.8c-0.5,0.5-1.1,0.9-1.7,1.3c-0.6,0.4-1.1,0.1-1.1-0.6c0-0.5,0.1-1,0.3-1.5c0.5-1.9,1-3.7,1.4-5.6
			c0.3-1.1,0.2-2.3-0.3-3.4c-0.3-1.1-0.6-1.7-0.9-2.7c-0.4-1.3-0.9-2.6-1.6-3.8c-0.2-0.3-0.4-0.6-0.5-1c-1.9-3.8-4.6-6.8-7.8-9.7
			c-0.3,0.1-0.5,0.2-0.8,0.3c-0.3,0.1-0.6,0.2-1,0.3c0.9-0.9,1.7-1.7,2.4-2.5c1.8-1.9,3-4.2,3.4-6.9c0.4-2.8-0.1-5.5-1.4-8.1
			c-0.2-0.3-0.4-0.7-0.5-1c-1.3-2.5-3.4-3.8-6.2-4c-1.5-0.1-3,0.1-4.4,0.6c-1.4,0.5-2.5,1.3-3.4,2.5c-0.2,0.2-0.3,0.4-0.6,0.7
			c-0.3-0.3-0.5-0.6-0.8-0.9C38.2,10.4,37,9.3,35.4,9C32.5,8.5,30,9.1,28,11.2c-0.8,0.8-1.2,1.7-1.5,2.7c-1.2,3.9-0.9,7.8,0.8,11.5
			c0.8,1.9,2.2,3.3,3.8,4.5c0.2,0.2,0.4,0.3,0.6,0.4c0,0,0.1,0.1,0.1,0.1c-4.5,4.4-7.5,9.6-9.5,15.4c-0.8,2.3-1.4,4.5-1.7,6.9
			c-0.3,2.2-0.1,4.4,0.2,6.6c0.5,3.6,1.2,6.7,3,9.8c0.1,0.1,0.4,0.6,0.5,0.9c-0.3-0.2-0.6-0.6-0.8-0.7c-1-0.9-1.5-1.5-2.2-2.6
			c-2.4-3.7-2.8-8.2-2.6-12.5c0.1-3.2,0.9-6.2,1.7-9.3c0.3-1.2,0.6-2.5,1-3.7c0.5-1.5,0.2-2.8-0.6-4.1c-1-1.6-2-3.2-3-4.9
			c-2-3.3-3.2-6.8-3.9-10.6c-0.5-2.7-0.6-5.5-0.2-8.3c0.2-1.4,0.3-2.8,0.9-4.2c0.2-0.4,0.3-0.8,0.6-1.2c0.3-0.5,0.7-0.6,1.2-0.2
			c0.3,0.2,0.6,0.6,0.8,0.9c0.3,0.7,0.5,1.4,0.6,2.1c0.6,3,1.4,5.9,2.5,8.7c0.7,1.6,1.7,3.1,2.8,4.4c1.2,1.4,2.6,2.6,3.8,3.9
			c0.1,0.1,0.3,0.2,0.5,0.3C27.2,28.4,27.3,28.4,27.3,28.4"/>
		<path fill="#656573" d="M51.6,17.9c-0.1,2.6-1.7,4.7-4,5.2c-1.3,0.3-2.4,0-3.4-0.8C41.4,20,42,15,45.4,13.5
			c2.4-1.1,5.2,0.2,5.9,2.9C51.4,16.9,51.5,17.4,51.6,17.9"/>
		<path fill="#656573" d="M29.1,18.5c0-1.5,0.5-2.8,1.5-3.9c1.3-1.3,2.8-1.8,4.6-1.3c1.8,0.6,2.7,1.9,2.9,3.7
			c0.2,1.6-0.2,3.1-1.3,4.4c-1.2,1.4-2.8,2-4.6,1.5c-1.6-0.4-2.8-2-3-3.8C29.2,19,29.1,18.7,29.1,18.5"/>
		<path fill="#353341" d="M43.3,17.4c0.1-2,1.7-3.5,3.6-3.5c1.8,0.1,3.2,1.7,3.1,3.6c-0.1,2-1.7,3.5-3.5,3.5
			C44.6,20.9,43.2,19.3,43.3,17.4"/>
		<path fill="#353341" d="M36.7,17.2c0,1.9-1.6,3.5-3.5,3.5c-1.8,0-3.4-1.5-3.4-3.3c0-1.9,1.6-3.5,3.5-3.5
			C35.2,13.9,36.7,15.4,36.7,17.2"/>
		<path fill="#E4E4E4" d="M34.9,17.2c-0.7,0-1.3-0.4-1.5-0.9c-0.2-0.6,0.1-1.3,0.8-1.6c0,0,0.1,0,0.1,0c0.7-0.3,1.4-0.3,1.9,0.2
			c0.4,0.4,0.5,0.8,0.3,1.3C36.3,16.8,35.6,17.2,34.9,17.2"/>
		<path fill="#E4E4E4" d="M48.4,17.1c-0.8,0-1.4-0.4-1.5-0.9c-0.1-0.6,0.3-1.2,1-1.5c0.6-0.2,1.3-0.2,1.8,0.3
			c0.3,0.3,0.4,0.7,0.2,1.2C49.5,16.8,49,17,48.4,17.1"/>
		<path fill="#E4E4E4" d="M35.7,18.3c-0.3,0.2-0.4,0.4-0.6,0.4c-0.2,0-0.3-0.2-0.5-0.3c0.2-0.1,0.3-0.4,0.5-0.4
			C35.3,17.9,35.4,18.1,35.7,18.3"/>
		<path fill="#E4E4E4" d="M49,18.2c-0.2,0.4-0.5,0.5-0.8,0.3c-0.1-0.1-0.1-0.4,0-0.5C48.5,17.8,48.8,17.9,49,18.2"/>
		<path fill="#56000E" d="M38.3,26.5c-0.1-1.1,0.3-1.6,1.4-1.5c1.2,0.2,2.3,0.3,3.5,0.5c0.2,0.9-0.8,1.3-1,2.1
			c-0.6-0.6-1-1.2-1.8-1.3C39.8,26.3,39,26.4,38.3,26.5"/>
		<path fill="#D78381" d="M40.4,27.9c-0.6-0.1-1.2-0.2-1.6-0.6c-0.5-0.4-0.4-0.9,0.1-1.3c0.7-0.4,1.4-0.5,2.1-0.3
			c0.5,0.2,0.9,0.5,1.1,1c0.2,0.4,0.1,0.7-0.4,0.9C41.3,27.8,40.8,27.8,40.4,27.9"/>
		<path fill="#A35859" d="M40.2,25.6c1.2,0,1.6,0.4,2,1.4c-0.5,0.5-1.2,0.8-2.1,0.7C40.6,27.1,41.5,26.4,40.2,25.6"/>
		<path fill="#656573" d="M37.5,25.3c-0.4-0.1-0.9-0.2-1.4-0.3c0-0.2,0.1-0.5,0.1-0.7c0.6-1.7,1.6-2.7,3.4-3.3
			c1.2-0.4,2.3-0.1,3.3,0.7c1.2,1,1.7,2.4,1.4,3.9c-0.3,1.5-1.3,2.8-2.8,3.3c-1.5,0.5-3.3-0.3-3.8-1.8C37.5,26.6,37.6,26,37.5,25.3
			 M38.9,25.4c-0.6,1.2-0.4,1.7,0.6,2.2c1.3,0.6,3-0.2,3.5-1.8C41.6,25.6,40.3,25.5,38.9,25.4"/>
		<path fill="#372E3E" d="M44.3,25.8c-0.6,2.3-2.4,3.3-4.1,3.2c0.3-0.1,0.8-0.2,1.1-0.4c0.5-0.2,0.8-1,0.9-1.6c0,0,0.7-0.9,0.8-1.3
			C43,25.8,43.9,25.8,44.3,25.8"/>
		<path fill="#372E3E" d="M37.6,26.1c0-0.3,0-0.5,0-0.8c0.3,0,1,0.1,1.4,0.1c-0.2,0.3-0.2,0.5-0.3,0.9
			C38.3,26.2,37.9,26.1,37.6,26.1"/>
		<path fill="#E4E4E4" d="M37.7,22.6c0.2-0.2,0.4-0.3,0.6-0.5c0,0,0.1,0.1,0.1,0.1c-0.2,0.2-0.4,0.4-0.5,0.5
			C37.9,22.7,37.8,22.7,37.7,22.6"/>
		<path fill="#EBD266" d="M55.1,40.4c0,0.7-0.2,1.3-0.6,1.9c-0.9,1.1-1.8,2.3-2.8,3.4c-2.1,2.3-4.4,4.5-6.9,6.4
			c-0.9,0.6-1.8,1.3-2.7,1.7c-1.2,0.6-2.1,0.4-3-0.6c-2.2-2.4-4.2-5-5.9-7.8c-0.4-0.7-0.9-1.2-1.4-1.8c-1-1-1.6-2.3-1.8-3.8
			c0-0.2,0-0.5,0.1-0.7c0.5-1.9,2.7-3.3,4.7-3c1.3,0.2,2.6,0.5,3.9,0.7c2.4,0.3,4.8,0.1,7.2-0.3c1.3-0.2,2.5-0.5,3.8-0.7
			C52.3,35.4,55.1,37.9,55.1,40.4"/>
		<path fill="#A1333E" d="M41.4,55.7c-0.9-0.2-1.7-0.3-2.3-0.8c-0.6-0.5-1.3-1.1-1.8-1.7c-2.3-2.9-4.5-5.8-6.7-8.7
			c-0.6-0.8-1.1-1.8-1.7-2.7c-0.7-1.2-0.6-2.4,0.3-3.5c0.8-0.9,1.5-1.9,2.3-2.8c0.6-0.7,1.3-0.8,2.3-0.6c3.8,0.9,7.6,1.3,11.5,1
			c1.6-0.1,3.2-0.6,4.8-1.1c1.3-0.5,2.3-0.2,3.2,0.7c1.3,1.2,2.4,2.6,3.1,4.3c0.3,0.7,0.3,1.4-0.2,2.1c-0.6,0.8-1.1,1.7-1.7,2.4
			c-2.6,2.8-5.2,5.6-7.8,8.3c-1.1,1.1-2.3,2.1-3.9,2.7C42.3,55.6,41.8,55.7,41.4,55.7 M38,38.4c0.9,1,0.8,2.1,0.6,3.2
			c-0.3,1.2-0.5,2.4-0.7,3.6c-0.2,1.3,0.7,2.6,2.1,3.1c0-0.5,0.1-0.9,0.1-1.4c0-0.7,0-1.4,0-2.1c0.1-0.8,0.7-1.2,1.6-1.2
			c0.8,0,1.4,0.3,1.6,1.1c0.1,0.6,0.1,1.2,0.2,1.7c0,0.5,0,1,0.3,1.5c0.3-0.3,0.6-0.5,0.8-0.8c1-1,1.4-2.2,1-3.6
			c-0.3-0.9-0.4-1.9-0.6-2.9c-0.2-0.8-0.1-1.4,0.6-1.9c0.1-0.1,0.1-0.2,0.3-0.4C43.1,38.9,40.6,38.9,38,38.4 M49.8,45.7
			c1.4-1.5,2.6-2.8,3.8-4.1c0.3-0.3,0.4-0.8,0.2-1.2c-0.5-0.9-0.9-1.8-1.4-2.6c-0.6-0.9-1-1-2-0.7c-0.9,0.3-1.8,0.6-2.7,0.9
			c-0.2,0.1-0.4,0.2-0.6,0.3c0.9,0.3,1.3,1,1.5,1.7c0.3,0.8,0.6,1.7,0.8,2.6C49.5,43.5,49.6,44.5,49.8,45.7 M36.8,38.2
			c0-0.1,0-0.1-0.1-0.2c-1-0.2-2-0.5-3-0.6c-0.7-0.1-1.2,0.1-1.6,0.6c-0.4,0.5-0.7,1-1.1,1.4c-0.4,0.5-0.4,1,0,1.5
			c0.8,1.1,1.5,2.2,2.3,3.3c0.1,0.1,0.2,0.1,0.3,0.2c0.4-1.4,0.7-2.9,1.1-4.3C35,39.2,35.5,38.3,36.8,38.2 M43.2,51.8
			c-1.2-0.1-2.6-0.2-3.9-0.3C40.3,52.8,41.4,53.3,43.2,51.8"/>
	</g>
	<g>
		<g>
			<path fill="#A1333E" d="M26,23h-2.1V10.7C27.8,3.9,35.1-0.2,42.8,0c11.7,0.3,17.6,10.2,17.9,10.7v11.8h-2.1V10.7
				c-0.8-1.1-5.6-7.5-14.3-8.4C33.3,1.2,26.3,10.3,26,10.7V23z"/>
		</g>
		<g>
			<g>
				<path fill="#D8596C" d="M24.6,23.3L24.6,23.3c-2.1,0-3.8-1.7-3.8-3.8v-5c0-2.1,1.7-3.8,3.8-3.8h0V23.3z"/>
			</g>
			<g>
				<path fill="#A1333E" d="M25.5,24.3h1.3c0.5,0,0.9-0.4,0.9-0.9V10.5c0-0.5-0.4-0.9-0.9-0.9h-1.3c-0.5,0-0.9,0.4-0.9,0.9v12.9
					C24.6,23.9,25,24.3,25.5,24.3z"/>
			</g>
		</g>
		<g>
			<path fill="#D8596C" d="M40.3,31.5c-0.4-0.1-0.8-0.5-0.8-1c0-0.6,0.4-1.1,1-1.1l3.9-0.2c5.6-0.2,10.8-3.2,13.7-8
				c0.3-0.5,1-0.6,1.4-0.3c0.5,0.3,0.6,1,0.3,1.4c-3.3,5.4-9.1,8.7-15.4,8.9l-3.9,0.2C40.5,31.5,40.4,31.5,40.3,31.5z"/>
		</g>
		<g>
			<g>
				<path fill="#D8596C" d="M59.3,10.7L59.3,10.7c2.1,0,3.8,1.7,3.8,3.8v5c0,2.1-1.7,3.8-3.8,3.8h0V10.7z"/>
			</g>
			<g>
				<path fill="#A1333E" d="M58.5,9.7h-1.3c-0.5,0-0.9,0.4-0.9,0.9v12.9c0,0.5,0.4,0.9,0.9,0.9h1.3c0.5,0,0.9-0.4,0.9-0.9V10.5
					C59.3,10.1,58.9,9.7,58.5,9.7z"/>
			</g>
		</g>
	</g>
</g>
<g opacity="0.5">
	<g>
		<path fill="#444242" d="M10.6,90.8v12.6H8.9V92.2H3.1v11.3H1.4V90.8H10.6z"/>
		<path fill="#444242" d="M21.6,98.8c0,3.4-2.3,4.8-4.5,4.8c-2.5,0-4.4-1.8-4.4-4.7c0-3,2-4.8,4.5-4.8C19.8,94.1,21.6,96,21.6,98.8z
			 M14.4,98.9c0,2,1.1,3.5,2.8,3.5c1.6,0,2.8-1.5,2.8-3.5c0-1.5-0.8-3.5-2.7-3.5C15.2,95.4,14.4,97.2,14.4,98.9z"/>
		<path fill="#444242" d="M30.6,94.3v7.8l0.9,0l-0.1,4.1h-1.3l-0.1-2.9h-6.3l-0.1,2.9h-1.3l-0.1-4.1l0.8,0c0.4-0.6,0.7-1.2,0.9-1.9
			c0.4-1.1,0.5-2.3,0.5-3.6v-2.4H30.6z M26,97.1c0,1.2-0.2,2.4-0.5,3.4c-0.2,0.6-0.5,1.2-0.7,1.7H29v-6.6h-3V97.1z"/>
		<path fill="#444242" d="M40.9,94.3v7.8l0.9,0l-0.1,4.1h-1.3l-0.1-2.9h-6.3l-0.1,2.9h-1.3l-0.1-4.1l0.8,0c0.4-0.6,0.7-1.2,0.9-1.9
			c0.4-1.1,0.5-2.3,0.5-3.6v-2.4H40.9z M36.3,97.1c0,1.2-0.2,2.4-0.5,3.4c-0.2,0.6-0.5,1.2-0.7,1.7h4.2v-6.6h-3V97.1z"/>
		<path fill="#444242" d="M44.6,99.2c0,2.2,1.5,3.2,3.1,3.2c1.2,0,1.9-0.2,2.5-0.5l0.3,1.2c-0.6,0.3-1.6,0.6-3,0.6
			c-2.8,0-4.5-1.8-4.5-4.6s1.6-4.9,4.3-4.9c3,0,3.8,2.6,3.8,4.3c0,0.3,0,0.6-0.1,0.8H44.6z M49.5,98c0-1.1-0.4-2.7-2.3-2.7
			c-1.7,0-2.4,1.5-2.5,2.7H49.5z"/>
		<path fill="#444242" d="M53.1,97.3c0-1.2,0-2.1-0.1-3h1.5l0.1,1.6h0c0.7-1.1,1.7-1.8,3.2-1.8c2.2,0,3.8,1.9,3.8,4.6
			c0,3.3-2,4.9-4.1,4.9c-1.2,0-2.3-0.5-2.8-1.4h0v4.9h-1.6V97.3z M54.8,99.7c0,0.2,0,0.5,0.1,0.7c0.3,1.1,1.3,1.9,2.5,1.9
			c1.7,0,2.8-1.4,2.8-3.5c0-1.8-1-3.4-2.7-3.4c-1.1,0-2.2,0.8-2.5,2c-0.1,0.2-0.1,0.5-0.1,0.7V99.7z"/>
		<path fill="#444242" d="M64.4,94.3l3,4h0.3v-4h1.6v4h0.3l3-4h1.9L71,98.5c1.4,0.2,2.2,1,2.7,2.4c0.3,0.9,0.6,1.8,1,2.6H73
			c-0.3-0.5-0.6-1.3-0.8-2.1c-0.6-1.5-1.4-1.9-2.6-1.9h-0.3v4h-1.6v-4h-0.3c-1.3,0-2,0.5-2.6,2c-0.3,0.8-0.5,1.5-0.9,2.1h-1.6
			c0.4-0.7,0.7-1.7,1-2.5c0.6-1.5,1.4-2.3,2.7-2.4l-3.6-4.1H64.4z"/>
		<path fill="#444242" d="M77.8,94.3v3.9h0.4l3.4-3.9h2l-4,4.1c1.5,0.2,2.3,1.1,3.1,2.8c0.2,0.6,0.6,1.5,1,2.2H82
			c-0.2-0.4-0.6-1.1-0.8-1.9c-0.6-1.5-1.5-2.1-3-2.1h-0.3v4h-1.6v-9.1H77.8z"/>
		<path fill="#444242" d="M90.4,103.4l-0.1-1.1h-0.1c-0.5,0.7-1.5,1.4-2.8,1.4c-1.8,0-2.8-1.3-2.8-2.6c0-2.2,2-3.4,5.5-3.4v-0.2
			c0-0.8-0.2-2.1-2.1-2.1c-0.8,0-1.7,0.3-2.4,0.7l-0.4-1.1c0.8-0.5,1.8-0.8,3-0.8c2.8,0,3.5,1.9,3.5,3.7v3.4c0,0.8,0,1.6,0.1,2.2
			H90.4z M90.1,98.8c-1.8,0-3.8,0.3-3.8,2c0,1.1,0.7,1.6,1.6,1.6c1.2,0,1.9-0.8,2.2-1.5c0.1-0.2,0.1-0.4,0.1-0.5V98.8z"/>
	</g>
</g>
</svg>
