<svg xmlns="http://www.w3.org/2000/svg" xmlns:xlink="http://www.w3.org/1999/xlink" viewBox="0 0 132.3 154.1"><defs><style>.cls-1{fill:#fff;}.cls-2{fill:url(#linear-gradient);}.cls-3{fill:url(#linear-gradient-2);}.cls-4{fill:url(#linear-gradient-3);}.cls-5{fill:#132251;}.cls-6{fill:#5436c9;}.cls-7{fill:url(#linear-gradient-4);}</style><linearGradient id="linear-gradient" x1="-8.12" y1="-3.27" x2="67.99" y2="60.05" gradientUnits="userSpaceOnUse"><stop offset="0" stop-color="#e5a099"/><stop offset="1" stop-color="#d75887"/></linearGradient><linearGradient id="linear-gradient-2" x1="94.76" y1="92.53" x2="104.21" y2="162.32" xlink:href="#linear-gradient"/><linearGradient id="linear-gradient-3" x1="-121.19" y1="359.27" x2="-121.19" y2="421.51" gradientTransform="translate(-123.96 -280.18) rotate(-45)" gradientUnits="userSpaceOnUse"><stop offset="0" stop-color="#f3f6ff"/><stop offset="1" stop-color="#ced7fd"/></linearGradient><linearGradient id="linear-gradient-4" x1="15.4" y1="124.76" x2="34.72" y2="152.36" xlink:href="#linear-gradient"/></defs><title>object</title><g id="Слой_2" data-name="Слой 2"><g id="Слой_1-2" data-name="Слой 1"><polygon class="cls-1" points="64.04 72.38 62.39 74.03 48.31 50.94 49.96 49.29 64.04 72.38"/><path class="cls-2" d="M64.47,34.78,33.8,65.45,0,10H0a34.11,34.11,0,0,1,53.25,6.37Z"/><polygon class="cls-1" points="68.26 81.72 69.91 80.06 83.99 103.16 82.34 104.81 68.26 81.72"/><path class="cls-3" d="M67.83,119.32,98.5,88.65l33.8,55.45h0a34.1,34.1,0,0,1-53.24-6.36Z"/><path class="cls-4" d="M69.56,39.82l-55,55,34,34,55-55c5.58-5.59,2.5-17.72-6.89-27.11S75.14,34.24,69.56,39.82Z"/><path class="cls-5" d="M41.64,101.73c9.39,9.38,12.47,21.52,6.88,27.1s-17.71,2.5-27.1-6.88S9,100.43,14.54,94.84,32.26,92.34,41.64,101.73Z"/><path class="cls-6" d="M38.2,105.17c6.18,6.19,8.22,14.19,4.53,17.87s-11.68,1.65-17.86-4.54-8.22-14.19-4.54-17.87S32,99,38.2,105.17Z"/><rect class="cls-6" x="13.65" y="103.4" width="20.94" height="31.69" transform="translate(-77.25 51.99) rotate(-45)"/><path class="cls-5" d="M23.39,120c6.18,6.19,8.22,14.19,4.53,17.87s-11.68,1.65-17.86-4.54-8.22-14.19-4.54-17.87S17.2,113.79,23.39,120Z"/><path class="cls-7" d="M21.12,122.25c4.07,4.08,5.41,9.35,3,11.78s-7.7,1.09-11.78-3-5.42-9.35-3-11.78S17,118.17,21.12,122.25Z"/></g></g></svg>