<?xml version="1.0" encoding="utf-8"?>
<!-- Generator: Adobe Illustrator 22.1.0, SVG Export Plug-In . SVG Version: 6.00 Build 0)  -->
<svg version="1.1" id="Слой_1" xmlns="http://www.w3.org/2000/svg" xmlns:xlink="http://www.w3.org/1999/xlink" x="0px" y="0px"
	 viewBox="0 0 23.3 44.5" enable-background="new 0 0 23.3 44.5" xml:space="preserve">
<g>
	<path fill="#D25B36" d="M9.3,12.5c0.7,0.7,2.1,0.6,3,0.1c-1.5-1.2-2.2-3.5-1.1-5.3c0.3,1.1,1.4,2,2.4,2.5c1.2,0.6,2.2,0.2,2.6-1.1
		c0.4,1,1,1.8,1.3,2.7c0.4,1.2-0.1,2.4-0.3,3.6l0.1,0.1c0.1,0,0.2-0.1,0.4-0.1c4.7-3.2-0.3-11.3-0.3-11.3s-0.3,2-3.4,1.2
		c-3.1-0.9-0.7-4.6-0.7-4.6C3,0.2,8,10.8,8,10.8c-4.2,0-3.5-1.9-3.3-2.2c-0.3,0.5-2.4,4,0.6,6.1c0.9,0.3,2.7,0.9,4.8,1.1
		C9.1,15,8.6,13.6,9.3,12.5z"/>
	<path fill="#E5AE55" d="M17.5,11.4c-0.3-1-1-1.8-1.3-2.7c-0.4,1.3-1.4,1.7-2.6,1.1c-1-0.5-2-1.4-2.4-2.5c-1.2,1.8-0.4,4.1,1.1,5.3
		c-0.8,0.5-2.2,0.6-3-0.1C8.6,13.6,9.1,15,10,15.8c2.2,0.2,4.7,0.2,7.3-0.7L17.2,15C17.5,13.8,17.9,12.6,17.5,11.4z"/>
	<path fill="#2B456D" d="M17.3,15.1c-2.5,0.9-5.1,1-7.3,0.7c-2.1-0.2-3.9-0.8-4.8-1.1c-0.5-0.2-0.8-0.3-0.8-0.3l2.1,9.6
		c0,0,4.7,5,10.6,0l1.7-9.6c-0.4,0.2-0.8,0.4-1.2,0.5C17.5,15,17.4,15.1,17.3,15.1z"/>
	<path fill="#DA8265" d="M6.6,24.1l3.2,14.7h4.7l2.6-14.7C11.3,29.1,6.6,24.1,6.6,24.1z"/>
	<polygon fill="#2B456D" points="10.4,41.5 13.6,44.3 14.6,38.8 9.8,38.8 	"/>
</g>
</svg>
