<svg xmlns="http://www.w3.org/2000/svg" viewBox="0 0 332.2 332.2"><defs><style>.cls-1{fill:#c211a1;}</style></defs><title>payment-bg-item-4</title><g id="Слой_2" data-name="Слой 2"><g id="Слой_1-2" data-name="Слой 1"><path class="cls-1" d="M0,150.61,150.61,0a166.69,166.69,0,0,0-47,11.3L11.3,103.66A166.69,166.69,0,0,0,0,150.61Z"/><path class="cls-1" d="M6,212.54,212.54,6A167,167,0,0,0,182.69.16L.16,182.69A167,167,0,0,0,6,212.54Z"/><path class="cls-1" d="M27.62,258.76,258.76,27.62A165.11,165.11,0,0,0,236,14.74L14.74,236A165.11,165.11,0,0,0,27.62,258.76Z"/><path class="cls-1" d="M48.07,283.61c3.81,3.81,7.77,7.38,11.84,10.74L294.35,59.91c-3.36-4.07-6.93-8-10.74-11.84-2.19-2.19-4.44-4.3-6.72-6.34L41.73,276.89C43.77,279.17,45.88,281.42,48.07,283.61Z"/><path class="cls-1" d="M102.32,319.83,319.83,102.32a165.5,165.5,0,0,0-12.05-23.6L78.72,307.78A165.5,165.5,0,0,0,102.32,319.83Z"/><path class="cls-1" d="M157.83,332.2,332.2,157.83a167.18,167.18,0,0,0-4.47-31.18L126.65,327.73A167.18,167.18,0,0,0,157.83,332.2Z"/><path class="cls-1" d="M246.19,311.72l65.53-65.53A165.75,165.75,0,0,0,330.31,192L192,330.31A165.75,165.75,0,0,0,246.19,311.72Z"/></g></g></svg>