<svg xmlns="http://www.w3.org/2000/svg" viewBox="0 0 70.2 70.2"><defs><style>.cls-1{fill:#22274d;}</style></defs><title>payment-status-bg</title><g id="Слой_2" data-name="Слой 2"><g id="Слой_1-2" data-name="Слой 1"><g id="no"><path class="cls-1" d="M47,70.2H23.21A23.23,23.23,0,0,1,0,47V23.21A23.23,23.23,0,0,1,23.21,0H44.32a5.33,5.33,0,0,1,0,10.66H23.21A12.56,12.56,0,0,0,10.66,23.21V47A12.56,12.56,0,0,0,23.21,59.54H47A12.56,12.56,0,0,0,59.54,47V25.88a5.33,5.33,0,1,1,10.66,0V47A23.23,23.23,0,0,1,47,70.2Z"/></g></g></g></svg>