<svg xmlns="http://www.w3.org/2000/svg" xmlns:xlink="http://www.w3.org/1999/xlink" viewBox="0 0 600.96 451.45"><defs><style>.cls-1{fill:none;}.cls-2{isolation:isolate;}.cls-3{fill:#e8e4f8;}.cls-3,.cls-55{opacity:0.5;}.cls-4{fill:#2e2563;}.cls-5{fill:#423497;}.cls-6{fill:#5658da;}.cls-7{fill:#6567db;}.cls-8{fill:#4243a3;}.cls-9{clip-path:url(#clip-path);}.cls-10{fill:#4e6265;}.cls-11{fill:#d5e9ec;}.cls-12{fill:#4e6266;}.cls-13{fill:#d5e8eb;}.cls-14{fill:#54686b;}.cls-15{fill:#576b6d;}.cls-16{fill:#5d7074;}.cls-17{fill:#5f7276;}.cls-18{fill:#5a6e70;}.cls-19{fill:#5e7174;}.cls-20{fill:#d4e7ea;}.cls-21{fill:#627579;}.cls-22{fill:#627578;}.cls-23{fill:#809395;}.cls-24{fill:#5e7275;}.cls-25{fill:#708286;}.cls-26{fill:#677b7e;}.cls-27{fill:#d5e9eb;}.cls-28{fill:#506468;}.cls-29{fill:#d0e3e6;}.cls-30{fill:#cfe1e6;}.cls-31{fill:#cee1e4;}.cls-32{fill:#d1e4e8;}.cls-33{fill:#c6dadd;}.cls-34{fill:#cadde0;}.cls-35{fill:#d3e6e9;}.cls-36{fill:#c8dcde;}.cls-37{fill:#c1d5d8;}.cls-38{fill:#c1d4d7;}.cls-39{fill:#bbcfd2;}.cls-40{fill:#667a7d;}.cls-41{fill:#6f8185;}.cls-42{fill:#4f6367;}.cls-43{fill:#52666a;}.cls-44{fill:#6d8083;}.cls-45{fill:#54696b;}.cls-46{fill:#5c6f72;}.cls-47{fill:#697d80;}.cls-48{fill:#65797c;}.cls-49{fill:#cde0e3;}.cls-50{fill:#cbdfe1;}.cls-51{fill:#d0e4e7;}.cls-52{fill:#e6e3fb;}.cls-53{fill:#edcd63;}.cls-54,.cls-58{fill:#fff;}.cls-55{fill:#15253d;mix-blend-mode:soft-light;}.cls-56{fill:#382c7d;}.cls-57{fill:#edc180;}.cls-58{opacity:0.1;}.cls-59{fill:#45369e;}.cls-60{fill:#8b8e9f;}.cls-61{fill:#000018;}.cls-62{fill:#02061c;}.cls-63{fill:#e5e5e6;}.cls-64{fill:#807e9c;}.cls-65{fill:#7e7d9a;}.cls-66{fill:#817f9e;}.cls-67{fill:#83809f;}.cls-68{fill:#111227;}.cls-69{fill:#9795b3;}.cls-70{fill:#807f9c;}.cls-71{fill:#0d0e23;}.cls-72{fill:#131328;}.cls-73{fill:#0e0e24;}.cls-74{fill:#1b1c30;}.cls-75{fill:#555664;}.cls-76{fill:#b7b8be;}.cls-77{fill:#1f2033;}.cls-78{fill:#4b4c5b;}.cls-79{fill:#252639;}.cls-80{fill:#c9c9ce;}.cls-81{fill:#5b5d6c;}.cls-82{fill:#cccdd1;}.cls-83{fill:#404152;}.cls-84{fill:#9296a7;}.cls-85{fill:#c1bddd;}.cls-86{fill:#25273c;}.cls-87{fill:#38394d;}.cls-88{fill:#4d4f62;}.cls-89{fill:#17192e;}.cls-90{fill:#e7e7e7;}.cls-91{fill:#a8a5c5;}.cls-92{fill:#5e5c6a;}.cls-93{fill:#575564;}.cls-94{fill:#a2a1a8;}.cls-95{fill:#111226;}.cls-96{fill:#242538;}.cls-97{fill:#c5c5c8;}.cls-98{fill:#d2d3d4;}.cls-99{fill:#d8d9da;}.cls-100{fill:#3c3c49;}.cls-101{fill:#2c2d3f;}.cls-102{fill:#7e7c9b;}.cls-103{fill:#9692b3;}.cls-104{fill:#807f9e;}.cls-105{fill:#5b5b69;}.cls-106{fill:#393947;}.cls-107{fill:#b6b5a3;}.cls-108{fill:#d3d2b4;}.cls-109{opacity:0.3;}</style><clipPath id="clip-path"><circle class="cls-1" cx="489.62" cy="212.64" r="55" transform="translate(-6.95 408.49) rotate(-45)"/></clipPath></defs><title>payment-image</title><g class="cls-2"><g id="Слой_2" data-name="Слой 2"><g id="Слой_1-2" data-name="Слой 1"><path class="cls-3" d="M384.29,396.74S324.2,434,297.76,393.13s-4.81-52.88-31.25-63.69-76.92-24-74.51-45.67,31.24-42.06,31.24-73.31-33.5-99.88-7.34-123.25,44.6,1.87,74.65-23.37S336.21,2.55,371.07.14s36.05,26.44,62.49,37.26,74.51-21.63,105.76,2.4S562.16,127.53,561,197.24s52.47,118.35,24.93,139.51S398.71,348.67,384.29,396.74Z"/><path class="cls-4" d="M601,79.41V428.66a22.78,22.78,0,0,1-22.78,22.79H401.65a22.79,22.79,0,0,1-22.77-22.79V79.41a22.79,22.79,0,0,1,22.77-22.79H578.18A22.79,22.79,0,0,1,601,79.41Z"/><path class="cls-5" d="M508.13,437H471.71a8.51,8.51,0,0,1-8.51-8.51h0a8.51,8.51,0,0,1,8.51-8.51h36.42a8.51,8.51,0,0,1,8.51,8.51h0A8.51,8.51,0,0,1,508.13,437Z"/><path class="cls-6" d="M587.24,88V397.33a11.07,11.07,0,0,1-11.06,11.06H403.65a11.08,11.08,0,0,1-11.06-11.06V88A11.06,11.06,0,0,1,403.65,77H576.18A11.06,11.06,0,0,1,587.24,88Z"/><path class="cls-7" d="M566.5,77.52l-173.91,288V88A11.06,11.06,0,0,1,403.65,77H564Z"/><circle class="cls-8" cx="489.92" cy="212.94" r="55" transform="translate(-7.08 408.79) rotate(-45)"/><g class="cls-9"><path class="cls-10" d="M487.6,194.18a6.24,6.24,0,0,1,.95.81c.69.87,1.22,1,2.11.11a2.64,2.64,0,0,1,3.37-.25,10.35,10.35,0,0,0,5.85,1.57c1.52-.08,2.39.92,3.15,2.06a21.6,21.6,0,0,0,2.49,3.62,15.17,15.17,0,0,0,4,2.74c2.8,1.41,4.06,4.17,5.64,6.64.14.21,0,.53-.14.5-1.94-.31-.73,1.08-.93,1.7-.28.89.56,1.78.09,2.72-.7-.2-.41-1-1-1.27a15.17,15.17,0,0,0-.87,7.74,38.43,38.43,0,0,0,2.14,7.66c-1.29.06-2.29-.81-3.41-.33,0,1.11,1.38,2.13.7,3s-1.87.88-2.87,1.2-1.2.67-.58,1.61c2,3.05,2.28,6.59,2.57,10.11a4,4,0,0,0,.2,1.55,1.9,1.9,0,0,1-.69,2.5c-.74.58-1.44,1.22-2.17,1.84a2.27,2.27,0,0,1-1.5,1.07,2.12,2.12,0,0,0-1.71,2.47,41,41,0,0,1-.36,4.57,2.6,2.6,0,0,1-1.74,2.44,32.48,32.48,0,0,0-6.72,3.85,4,4,0,0,1-2.44.36,1.94,1.94,0,0,1-.48-.09,7.37,7.37,0,0,0-1.87-.23,1.3,1.3,0,0,1-.64-.32c-.43-.7-.12-1.3.22-1.92.67-1.19,1.39-2.36,2.16-3.49.08-.12.16-.25.23-.38l-.24.38c-.68,1.07-1.41,2.09-2,3.16-.63-.19-.56-.65-.59-1.06a22.82,22.82,0,0,1,1-6.7c1.5-6.25,5.24-11.54,7.15-17.7-.56-.26-1.13.08-1.68.3a5.89,5.89,0,0,1-4.78-.14,1.87,1.87,0,0,0-1.94,0,4.55,4.55,0,0,1-4,.34,32,32,0,0,0-4.06-.69c1.55,3.74,2.84,7.37,4.4,10.88,1.25,2.8,2.3,5.68,3.65,8.44a3.63,3.63,0,0,1,.32,2.16c-.23,1.73.09,3.48-.1,5.21-.65,1.64-2,1.23-3.24,1.1-1.23-1.29-1.47-3.1-2.36-4.58-.49-.91-.79-1.9-1.19-2.85-.51-1.65-1.09-3.28-1.63-4.92-1.38-4.43-2.5-13.15-2-15.74-.51,2.46.46,10.8,2,15.95.6,1.62,1.12,3.27,1.65,4.91.4.93.73,1.9,1.19,2.81.59,1.38,1.48,2.65,1.64,4.2-.34.75-1.15.6-1.74.89a2.26,2.26,0,0,1-.51.08c-1,0-2.08,0-3.11,0a1.36,1.36,0,0,1-.49-.12,10.66,10.66,0,0,1-4.08-5.1,31,31,0,0,1,.5-6.94,2.12,2.12,0,0,0,0-1.22c-.84-1.84-2.51-2.86-4-4-2.31-1.75-1.57-4.2-1.39-6.45a20.63,20.63,0,0,1,1.78-6.21c.59-1.84.53-1.93-1.44-2.17-3.15-.67-3.15-.67-2.34-3.93a1.31,1.31,0,0,0,0-.44c-.43-.12-.58.21-.82.4-.48.38-.91,1.12-1.6.68s-.37-1.23-.26-1.89c.42-2.53.9-5,1.27-7.59a2.94,2.94,0,0,0-3-3.51,1.76,1.76,0,0,1,2.24-1.13c1.88.43,3.43-.14,3.8-2,.73-3.59,2.85-4.77,6.28-5.31,4.22-.67,6.21-4.18,7.75-7.8.48-1.14.49-2.58,2.18-1,.4.36.43-.19.49-.48a.38.38,0,0,1,.25-.26c.29,0,.68,0,.45-.51s-.67-.8-.65-1.37-.17-.75-.41-1.06l-.62-.67c0-.25,0-.45.29-.25,1,.05,1-.59.79-1.26-.11-.3-.51-.49-.77-.72,0-.24,0-.46.31-.25"/><path class="cls-11" d="M473.37,208.46c.67-1,2-1.63,2.9-2.37,1.1-.87,2-1.92,3.1-2.81a43.4,43.4,0,0,1,3.64-2.5,17,17,0,0,1,4-2.18l-2.36-1.34a10,10,0,0,1,.27,2.24l.95-1.65a6.55,6.55,0,0,0-2.39,2.14,10.26,10.26,0,0,1-2,1.91c-1.69,1.21-3.48,2.39-4.42,4.31a2,2,0,0,0,1.66,2.89,5.47,5.47,0,0,0,4.1-1.7,1.94,1.94,0,0,0-1.87-3.21,63.93,63.93,0,0,0-9.22,3.37,5.33,5.33,0,0,0-3,3.11c-.62,1.53-1.17,3.1-1.75,4.65a1.92,1.92,0,0,0,1.34,2.35,1.94,1.94,0,0,0,2.35-1.33l1.46-3.88a3,3,0,0,1,.44-1,6.2,6.2,0,0,1,1.79-.87,57.84,57.84,0,0,1,7.65-2.69l-1.87-3.2a1.64,1.64,0,0,1-1.38.57l1.65,2.89c.73-1.49,2.18-2.29,3.47-3.25a13.1,13.1,0,0,0,2.13-1.87c.58-.69,1-1.5,1.88-1.87a1.87,1.87,0,0,0,1-1.66,15.46,15.46,0,0,0-.41-3.25,1.93,1.93,0,0,0-2.36-1.34,19.4,19.4,0,0,0-4.59,2.37c-1.5,1-3,1.94-4.42,3.07-1.2,1-2.2,2.16-3.45,3.06a12.18,12.18,0,0,0-3.43,3.12c-1.36,2.07,2,4,3.31,1.93Z"/><path class="cls-10" d="M472,234.56c.59,0,1.08-1.18,1.7-.21.4.63,1.11,1.34.19,2.13-2,2.62-2,5.74-2.44,8.81a3.64,3.64,0,0,0,2.08,4.1c1.18,1.46,3,2.32,3.82,4.15-.29,2.07-.38,4.16-.71,6.21a3.49,3.49,0,0,0,.16,2,8.05,8.05,0,0,0,2.05,3.1c.41.4,1.12.7.83,1.52-1,.87-2.15.29-3.22.52-.89.15-1.79.16-2.69.27a11.37,11.37,0,0,0-3.24.22,2.26,2.26,0,0,1-.51.08,9.35,9.35,0,0,0-2.05.15c-1.2.27-2.44.24-3.65.47-.56,0-1.13.08-1.54-.42a59,59,0,0,1,1.89-11.27c.91-3.67,1.65-7.38,2.77-11a35.29,35.29,0,0,1,3.8-8,5.84,5.84,0,0,1,2.21-1.94l-1.45-.92"/><path class="cls-10" d="M508.59,252.06c.56-.28,1.13-.55,1.67-.86a3.09,3.09,0,0,0,1.55-3.1,45,45,0,0,0-1.51-9.83,5.81,5.81,0,0,1,1.79,2.77c2.33,5.92,4.27,11.92,4.83,18.34.26,2.85,1.05,5.66,1.14,8.56a1.64,1.64,0,0,1-1.46.44,2.25,2.25,0,0,1-.52-.07c-1-.37-2-.11-3-.3a8.42,8.42,0,0,0-2.74-.24,3.05,3.05,0,0,1-.74-.08,5,5,0,0,0-1.91-.25,2.56,2.56,0,0,1-.73-.09,12,12,0,0,0-2.87-.26,2.66,2.66,0,0,1-.49-.1,8.41,8.41,0,0,0-2.5-.16c-1.15-.09-2.33.21-3.45-.23-.63-1,.21-1.33.77-1.7,1.54-1,3.31-1.63,4.88-2.63.72-.46,1.35-.93,1.32-1.81-.06-1.55.43-3,.33-4.58a2.45,2.45,0,0,1,1.85-2.9,14.92,14.92,0,0,0,1.83-.92"/><path class="cls-12" d="M479.21,197.17a2,2,0,0,1-1,2.11,58.81,58.81,0,0,0-6.16,5c-1.13.94-2.36,2.39-2.23,3.51.28,2.38-1.52,3.41-2.33,5a5,5,0,0,0-.15,2.64c0,.49-.05.63-.52.71-.72.12-.48-.41-.48-.69,0-1.61-.4-3.31,1.36-4.41a1.29,1.29,0,0,0,.43-1.57,3.8,3.8,0,0,1,1.5-4.48c2.93-2,5.14-4.87,8.1-6.84l1.53-1"/><path class="cls-13" d="M508.59,252.06c-.14.15-.26.39-.43.44-3,.86-2.91,3.33-3,5.71,0,.73-.08,1.47-.09,2.2a1.66,1.66,0,0,1-.64,1.54c-1.51.77-2.58,2.24-4.38,2.55a4.71,4.71,0,0,0-2.64,1.86c-.56.14-1.18.51-1.55-.31a24.51,24.51,0,0,1,6.64-3.85,2.22,2.22,0,0,0,1.63-2.24c.07-1.67.36-3.33.33-5a2.12,2.12,0,0,1,1.76-2.25,19,19,0,0,0,1.92-.68l.44.05"/><path class="cls-14" d="M484.11,201.51c-.82,3.24-3.12,5.94-5.58,6.31a27.22,27.22,0,0,0,5.26-6.32c.11-.14.21-.13.32,0"/><path class="cls-14" d="M487.6,194.18l-.31.25c-2.57-.79-4,1.25-5.73,2.39a3.63,3.63,0,0,0-.66.86c-.12.14-.23.14-.34,0-.42-.86-.08-1.27.74-1.69a19,19,0,0,0,2.69-1.9c1.24-1,2.43-1.11,3.61.09"/><path class="cls-15" d="M470.45,212.64c.58,1.24.14,2-1.22,2.61.35-1,.63-1.8.91-2.61.1-.14.21-.13.31,0"/><path class="cls-16" d="M477.42,203.75c-.57.71-1.08,1.49-2.21,1.59l1.87-1.94c.31-.07.47,0,.34.35"/><path class="cls-17" d="M487.27,196.41l-.29.25c-.73-.09-1.32-.64-2.08-.67,1-1,1.62,0,2.37.42"/><path class="cls-18" d="M484.11,201.51h-.32a7.35,7.35,0,0,1,1.21-2.1c0,.93.05,1.73-.89,2.11"/><path class="cls-19" d="M482.53,199.28a5.33,5.33,0,0,1,1.58-2,7.2,7.2,0,0,1-1.28,2.34c-.2,0-.22-.21-.3-.35"/><path class="cls-18" d="M482.53,199.28l.3.35a1.42,1.42,0,0,1-1.22,1.23c-.12-.87.72-1,.92-1.58"/><path class="cls-20" d="M487.6,197.33a1.1,1.1,0,0,1,1.12,1l-.71.09a1,1,0,0,1-.41-1.06"/><path class="cls-21" d="M488.21,200.27l-.25.26a2.56,2.56,0,0,1-1-1.23c.79-.07,1,.5,1.23,1"/><path class="cls-22" d="M477.42,203.75l-.34-.35,1.39-1.72a3.16,3.16,0,0,1-1.05,2.07"/><path class="cls-23" d="M471.71,206.19c.13-.74.48-1,1.19-1.18a2.44,2.44,0,0,1-1.19,1.18"/><path class="cls-24" d="M480.56,197.68h.34a1.56,1.56,0,0,1-.76,1.12c-.39-.58,0-.85.42-1.12"/><path class="cls-25" d="M470.74,211.35c0-.43.1-.84.82-.92-.16.5-.2.93-.84.9Z"/><path class="cls-26" d="M470.45,212.64h-.31c.19-.44.14-1,.6-1.29l0,0a1.24,1.24,0,0,1-.27,1.31"/><path class="cls-11" d="M485.93,235.17c-1.95,0-3.92,0-5.87-.07-1.71-.09-2-.6-1.38-2.11a42.46,42.46,0,0,1-5.33-.37c-1.23-.19-1.67-.65-1.34-1.87a2.94,2.94,0,0,0,.22-2c-1.88,1.22-1-.54-.94-1,.39-4.07.78-8.14,1.32-12.18.34-2.49,1.88-3.93,4.39-4.57,4.45-1.14,6.82.08,8.33,4.56a15.85,15.85,0,0,1,1,8.37c0,.15,0,.4-.12.44-1.58.68-1.07,2.48-1.95,3.57-.62.76-.69,1.62.57,2.06a9.16,9.16,0,0,1,2.42,1.16c3.77,2.78,6.57.18,9.52-1.64,1-.62.31-1.88.11-2.1-.73-.81-.76-2-1.64-2.66a5,5,0,0,1-1.9-5.05c.39-2.69.47-5.42,1.49-8a6.6,6.6,0,0,1,2.81-3.11,1.13,1.13,0,0,1,1.67.18,1.85,1.85,0,0,0,1.7.67c2.56-.14,3.71,1.51,4.74,3.48a22.71,22.71,0,0,1,2.48,9.53c.08,1.45-.4,2.88.32,4.36.4.84-.58,1-1.33,1.16.43.76,1.19,1,1.81,1.5s.81.94-.05,1.23a25,25,0,0,0-5.45,2.45c-1.86,1.18-3.2.18-4.75,0-.46-.06-.88-.29-1.41,0a10,10,0,0,1,.68,1.4c.12.37.62.8.19,1.13a1.52,1.52,0,0,1-1.21.14,13.75,13.75,0,0,0-9.44.38c-.37.15-.73.17-.91-.31.42-.9-.06-.91-.73-.72"/><path class="cls-11" d="M490.72,266h-.24c-.58-.27-.6-.73-.4-1.25,0-1.91,0-3.81.06-5.72A6.67,6.67,0,0,0,489,256c-2.42-5-4.28-10.15-6.45-15.22l-1.42-3.28a39.69,39.69,0,0,1,5.15,1,4.62,4.62,0,0,0,3.9-.37c.67-.36,1.18-1,2.17.1.59.65,2.36.84,3.74.28,1-.42,2.08-1.17,3.39-.6-3.21,8.37-8.42,16.11-8.56,25.61l2.11-3.13c.27-.05.46,0,.29.32-.93,1.76-2.3,3.3-2.61,5.36"/><path class="cls-11" d="M498.7,205a10,10,0,0,0,2.63,3.33,5.74,5.74,0,0,1-3.82-2.45c-.57-.75-1-1.6-1.56-2.37-1.34-1.84-2.94-3-5.45-1.53.41-1.26,1.67-1.51,2-2.59-1.1-.24-1.65.58-2.38,1.16-.35-1,.53-1.33.71-1.92a9.12,9.12,0,0,1,5.15-1,3.5,3.5,0,0,1,2.52,1.72,19,19,0,0,0,6.86,5.91,8.57,8.57,0,0,0,1.16.71,2.41,2.41,0,0,1,.54.41c1.29,1.26,3.2,1.2,4.62,2.18.39.33.69.7.44,1.25.3.75,1.11,1.23,1.13,2.19-1.64-2.25-4-3-6.55-3.12-.12.08-.27,0-.39,0a.84.84,0,0,1,.39.19c.82.32,1.62.7,2.46.95a6.26,6.26,0,0,1,4.06,4c-4.62-2.46-9.66-4.23-13.29-8.24-.32-.35-.62-.72-.92-1.08-.12,0-.19-.27-.33-.1a.37.37,0,0,0,.05.41"/><path class="cls-27" d="M512.09,209.8l-.6-1a5.79,5.79,0,0,0-3.15-1.54,4.59,4.59,0,0,1-1.69-.75l-.27-.26c-.45-.24-.75-.67-1.2-.91a17.35,17.35,0,0,1-6-5.2c-.28-.39-.64-.72-.53-1.26.38-.59.86-.58,1.4-.23s1.05.94,1.54,1.42l.1,0a.84.84,0,0,0,0-.12,2.4,2.4,0,0,1-.19-.29c-.68-1.27-1.87-1.41-3.12-1.43a1.35,1.35,0,0,1-.94-.68c.06-.28.19-.43.5-.28,2.7-.61,3.53-.38,4.7,2.05,1.07,2.23,3.11,3.56,4.56,5.42a1.37,1.37,0,0,0,.83.41c2.72.4,4.05,2.38,5.3,4.49-.4.53-.81-.13-1.17.11"/><path class="cls-11" d="M494.84,227a11.12,11.12,0,0,1-1.4,1.75c-.79.63-1.29,1.91-2.4,1.81-1.7-.16-2.84-1.5-4.1-2.52-.39-.32-.05-.51.13-.74,2.62-3.41,4.09-3.52,7.14-.55.14.14.39.16.63.25"/><path class="cls-28" d="M498.74,199a23.39,23.39,0,0,0,6.67,6.29.26.26,0,0,1,0,.43,14.36,14.36,0,0,1-6.43-5.13c-1.67-2.66-3.79-3-6.44-2.12a6.23,6.23,0,0,1-1.71.19l-.37,0a.76.76,0,0,1,.49-.9c2.16-.76,4.34-1.39,6.53-.09.33.15.82,0,.91.56.34.16.59.37.38.79"/><path class="cls-20" d="M473.55,249.66c-2.07-1-3.2-2.32-2.53-4.82s.21-5.07,1.67-7.3c.31-.47.46-1.11,1.22-1.06-.42,2.15-1.42,4.13-1.73,6.32A40.18,40.18,0,0,0,472,247c0,1.11,1,1.49,1.58,2.21a.25.25,0,0,1,0,.41"/><path class="cls-20" d="M497.45,197.64a9.32,9.32,0,0,0-7,1,1.63,1.63,0,0,1,.32-2.54,5.06,5.06,0,0,1,3.93,0c1.05.46,2.11.88,3.19,1.24l-.42.32"/><path class="cls-29" d="M481.92,254.27a47.8,47.8,0,0,1-2.12-16.68,92.54,92.54,0,0,0,2.42,16.3c.17.34,0,.4-.3.38"/><path class="cls-30" d="M476.75,262a3.15,3.15,0,0,1-.41-2.62c.38-2,.51-4,.75-6-.14-.33,0-.39.3-.31.85,1.17-.13,2.3-.11,3.46,0,1.71-.47,3.4-.26,5.13-.07.13-.08.32-.27.35"/><path class="cls-29" d="M502.61,243.48c.93-2.53,2.1-5,2.81-7.6a19.19,19.19,0,0,1-2.56,7.93.41.41,0,0,1-.25-.33"/><path class="cls-31" d="M477.39,253l-.3.31c-1.1-1.3-2.72-2.1-3.54-3.67,0-.14,0-.27,0-.41a10.8,10.8,0,0,1,3.8,3.77"/><path class="cls-32" d="M476.75,262l.27-.35c.62,2,2.49,3.07,3.54,4.75a.73.73,0,0,0-.29.07c-.36.1-.49-.16-.62-.41-1-1.31-2.59-2.24-2.9-4.06"/><path class="cls-31" d="M481.92,254.27l.3-.38a22.76,22.76,0,0,1,1.59,4.76c.16.34,0,.41-.31.39-.53-1.59-1.05-3.18-1.58-4.77"/><path class="cls-32" d="M486.32,265.73l-1.62-4.09c-.19-.33,0-.36.26-.34l2.07,4.41a.25.25,0,0,1,0,.36h0c-.36.15-.49-.12-.64-.35"/><path class="cls-31" d="M497.78,253.68q-1.15,1.88-2.29,3.77c-.27,0-.47,0-.29-.34l2.3-3.77c.26,0,.47,0,.28.34"/><path class="cls-33" d="M485,261.3l-.26.34a7.52,7.52,0,0,1-1.2-2.6l.31-.39A11.32,11.32,0,0,1,485,261.3"/><path class="cls-34" d="M501.84,246.32l-1.24,2.55c-.28,0-.47,0-.31-.35l1.26-2.56c.21,0,.23.21.29.36"/><path class="cls-35" d="M501.84,246.32l-.29-.36c.35-.83.7-1.65,1.06-2.48l.25.33a10,10,0,0,1-1,2.51"/><path class="cls-36" d="M497.78,253.68c-.1-.11-.19-.23-.28-.34.35-.55.7-1.1,1.06-1.65.16-.16.3-.14.43.05Z"/><path class="cls-37" d="M500.29,248.52l.31.35a4.16,4.16,0,0,1-.9,1.65c-.21,0-.23-.21-.3-.36l.89-1.64"/><path class="cls-38" d="M495.2,257.11l.29.34a2.19,2.19,0,0,1-1.08,1.31c-.09-.82.48-1.18.79-1.65"/><path class="cls-39" d="M493.33,260.67l-.29-.32a3.12,3.12,0,0,1,1-1.34c.17.91-.41,1.23-.73,1.66"/><path class="cls-40" d="M485.93,235.17c.43-.31,1-.67,1.35-.17s-.4.59-.62.89a.77.77,0,0,0-.73-.72"/><path class="cls-34" d="M499.4,250.16l.3.36a2.65,2.65,0,0,1-.71,1.22l-.43-.05.84-1.53"/><path class="cls-41" d="M498.7,205l-1-1.36a1.54,1.54,0,0,1,1.26,1.05c-.1.1-.19.21-.28.31"/><path class="cls-42" d="M506.67,209.11a1.37,1.37,0,0,1-1-.49c.46-.29.69.17,1,.25Z"/><path class="cls-42" d="M499.71,217a3.43,3.43,0,0,1,3.19,3.28,3,3,0,0,1-3,2.54c-1.68,0-2.58-1-2.51-2.92.06-1.58,1.14-2.94,2.29-2.9"/><path class="cls-43" d="M478,222.51a2.79,2.79,0,0,1,.82-4,2.29,2.29,0,0,1,3.44.64,2.89,2.89,0,0,1-.81,4.32,2.57,2.57,0,0,1-1.87.06h0c-.16-.42-1.65-.18-.61-1.2a.87.87,0,0,1,.36,0c.09,0,.28.12.13-.15a3.13,3.13,0,0,1-.31-1.59s-.07-.06-.09-.05-.07.06-.1.11c-.41.6.2,1.71-1,1.9"/><path class="cls-44" d="M479.33,222.47c-.41.25-.41.25.28,1-.75,0-1.15-.5-1.59-1,.76-.7-.16-1.87.7-2.55.7.72.32,1.7.61,2.51"/><path class="cls-44" d="M479.6,223.48l1.87-.06a1.27,1.27,0,0,1-1.87.06"/><path class="cls-45" d="M506.65,206.54c1.05.23,2.11.41,3.14.72.79.23,1.55.6,1.7,1.57-1.57-.85-3.58-.79-4.84-2.29"/><path class="cls-46" d="M500.05,204.49c.35,0,.48,0,.53,0a36.45,36.45,0,0,1,3.09,2.87c-1.62-.36-2.49-1.63-3.62-2.88"/><path class="cls-16" d="M496.81,200.23,495.76,199c.74-.21,1,.4,1.37.9.13.34,0,.41-.32.33"/><path class="cls-47" d="M496.81,200.23l.32-.33,1,1.38a1.85,1.85,0,0,1-1.32-1.05"/><path class="cls-22" d="M505.38,205.71l0-.43a2.18,2.18,0,0,1,1,1,1,1,0,0,1-1-.57"/><path class="cls-18" d="M498.74,199c-.13-.26-.26-.53-.38-.79,2.06-.46,2.6-.2,3.54,1.71-.9.2-1.36-.52-2-.94a.92.92,0,0,0-1.2,0"/><path class="cls-19" d="M499.94,199l2,.94h0c.17.35.28.67-.32.64-.57-.5-1.43-.7-1.65-1.57"/><path class="cls-48" d="M501.59,200.54c.11-.21.21-.43.32-.64a1,1,0,0,1,.56,1.17c-.45.06-.63-.29-.88-.53"/><path class="cls-49" d="M499.58,221.47a1.79,1.79,0,0,1-.71-2.82c.4,1-.29,2.21.71,2.82"/><path class="cls-20" d="M500.66,218.61c0,.32,0,.64-.45.67a.43.43,0,0,1-.52-.43c0-.41.12-.73.57-.77s.37.28.4.53"/><path class="cls-50" d="M479.33,222.47c-1.14-.61-.71-1.6-.61-2.51l.92-.77c.19,1.08-.33,2.11.26,3,0,.53-.22.53-.58.27Z"/><path class="cls-44" d="M479.32,222.47c.22-.05.5.05.58-.27a2.86,2.86,0,0,1,.73.14.2.2,0,0,1-.05.36,1,1,0,0,1-1.26-.23"/><path class="cls-51" d="M480.58,219.25c.63,0,.83.23.86.64,0,.1-.22.32-.26.3-.36-.15-.49-.48-.6-.94"/></g><path class="cls-52" d="M492.78,268.54a.67.67,0,0,1,0-1.34c1.73-.08,3.49-.26,5.22-.51a.65.65,0,0,1,.75.56.67.67,0,0,1-.56.76c-1.77.26-3.57.44-5.35.53Zm-8-.16h-.08a53.38,53.38,0,0,1-5.33-.75.67.67,0,0,1,.25-1.31c1.71.33,3.46.58,5.2.74a.67.67,0,0,1,0,1.33Zm21-2.1a.67.67,0,0,1-.21-1.31c1.68-.5,3.34-1.09,4.95-1.75a.67.67,0,0,1,.51,1.23c-1.65.68-3.36,1.28-5.07,1.8Zm-34-.71a.67.67,0,0,1-.24,0c-1.69-.59-3.37-1.26-5-2a.67.67,0,0,1,.56-1.21c1.58.73,3.22,1.39,4.87,2a.67.67,0,0,1-.2,1.3ZM518,261a.68.68,0,0,1-.59-.33.66.66,0,0,1,.23-.91c1.5-.89,3-1.87,4.38-2.9a.67.67,0,0,1,.93.15.66.66,0,0,1-.14.93,53.51,53.51,0,0,1-4.49,3A.75.75,0,0,1,518,261Zm-58-1.22a.65.65,0,0,1-.38-.11,53.57,53.57,0,0,1-4.36-3.15.66.66,0,0,1-.11-.93.67.67,0,0,1,.94-.11c1.36,1.09,2.8,2.12,4.26,3.07a.68.68,0,0,1,.19.93A.67.67,0,0,1,460,259.73Zm68.5-6.87a.62.62,0,0,1-.49-.2.66.66,0,0,1,0-.94c1.24-1.22,2.44-2.51,3.56-3.85a.67.67,0,0,1,1,.86c-1.15,1.37-2.38,2.7-3.65,3.94A.6.6,0,0,1,528.46,252.86Zm-78.66-1.64a.68.68,0,0,1-.51-.22c-1.22-1.3-2.39-2.68-3.48-4.09a.68.68,0,0,1,.12-.94.67.67,0,0,1,.94.13c1.06,1.37,2.2,2.72,3.4,4a.69.69,0,0,1,0,.95A.74.74,0,0,1,449.8,251.22Zm86.94-8.71a.65.65,0,0,1-.37-.1.66.66,0,0,1-.21-.92c.91-1.48,1.77-3,2.54-4.59a.67.67,0,0,1,1.2.59c-.79,1.6-1.67,3.18-2.61,4.71A.66.66,0,0,1,536.74,242.51Zm-94.78-2a.67.67,0,0,1-.6-.34c-.87-1.55-1.68-3.17-2.4-4.81a.67.67,0,0,1,.34-.88.67.67,0,0,1,.88.34,51.49,51.49,0,0,0,2.35,4.7.67.67,0,0,1-.26.91A.68.68,0,0,1,442,240.53ZM542.3,230.48l-.22,0a.67.67,0,0,1-.43-.84,51.93,51.93,0,0,0,1.37-5.07.66.66,0,0,1,.79-.51.67.67,0,0,1,.51.79c-.38,1.75-.85,3.5-1.4,5.2A.68.68,0,0,1,542.3,230.48Zm-105.39-2.2a.67.67,0,0,1-.66-.49c-.47-1.72-.87-3.48-1.17-5.25a.67.67,0,0,1,1.31-.23c.3,1.73.69,3.45,1.15,5.12a.66.66,0,0,1-.47.82A.41.41,0,0,1,436.91,228.28Zm107.9-10.81h-.07a.66.66,0,0,1-.61-.71c.12-1.74.15-3.5.11-5.24v-.23a.67.67,0,0,1,1.33,0v.21c0,1.8,0,3.6-.11,5.38A.68.68,0,0,1,544.81,217.47ZM435,215.12a.63.63,0,0,1-.68-.6v-.11c0-1.75,0-3.52.1-5.26a.67.67,0,0,1,1.34.09c-.12,1.7-.15,3.43-.11,5.14A.72.72,0,0,1,435,215.12ZM544.1,204a.67.67,0,0,1-.67-.55c-.3-1.72-.69-3.44-1.16-5.12a.66.66,0,0,1,.46-.82.68.68,0,0,1,.83.46c.47,1.72.87,3.48,1.18,5.25a.67.67,0,0,1-.54.77Zm-107.94-2-.15,0a.68.68,0,0,1-.52-.79c.38-1.75.85-3.5,1.39-5.2a.67.67,0,1,1,1.27.41c-.53,1.65-1,3.36-1.35,5.07A.68.68,0,0,1,436.16,202Zm104.08-10.65a.65.65,0,0,1-.62-.4c-.71-1.58-1.5-3.16-2.36-4.68a.67.67,0,0,1,1.16-.66c.88,1.56,1.69,3.18,2.41,4.8a.67.67,0,0,1-.33.88A.62.62,0,0,1,540.24,191.33Zm-99.73-1.88a.67.67,0,0,1-.62-1c.78-1.6,1.66-3.18,2.6-4.71a.66.66,0,1,1,1.13.7c-.91,1.49-1.77,3-2.53,4.6A.67.67,0,0,1,440.51,189.45ZM533.45,180a.71.71,0,0,1-.55-.26,51.65,51.65,0,0,0-3.41-4,.67.67,0,1,1,1-.92c1.22,1.3,2.4,2.68,3.49,4.09a.68.68,0,0,1-.12.94A.71.71,0,0,1,533.45,180Zm-85.72-1.62a.71.71,0,0,1-.45-.16.67.67,0,0,1-.08-.94c1.14-1.37,2.37-2.7,3.64-4a.67.67,0,1,1,.94,1c-1.24,1.22-2.44,2.52-3.56,3.86A.66.66,0,0,1,447.73,178.34Zm76.41-7.81a.71.71,0,0,1-.44-.15c-1.36-1.08-2.8-2.11-4.26-3.06a.67.67,0,0,1,.73-1.12c1.5,1,3,2,4.36,3.14a.66.66,0,0,1,.11.93A.69.69,0,0,1,524.14,170.53Zm-66.75-1.27a.65.65,0,0,1-.55-.27.66.66,0,0,1,.14-.93c1.43-1.06,2.94-2.06,4.48-3a.67.67,0,0,1,.91.24.66.66,0,0,1-.23.91c-1.5.9-3,1.87-4.37,2.9A.62.62,0,0,1,457.39,169.26Zm55.45-5.67a.59.59,0,0,1-.29-.07c-1.59-.72-3.23-1.38-4.88-2a.67.67,0,0,1-.41-.85.67.67,0,0,1,.85-.41c1.69.58,3.36,1.26,5,2a.67.67,0,0,1-.26,1.28Zm-43.91-.83a.66.66,0,0,1-.63-.42.67.67,0,0,1,.36-.87c1.65-.68,3.36-1.29,5.06-1.81a.67.67,0,0,1,.39,1.28c-1.67.51-3.33,1.1-4.94,1.77A1,1,0,0,1,468.93,162.76Zm31.28-3.2h-.14c-1.71-.33-3.46-.57-5.2-.73a.66.66,0,0,1,.12-1.32c1.78.16,3.57.41,5.33.74a.66.66,0,0,1,.53.78A.67.67,0,0,1,500.21,159.56Zm-18.51-.34a.67.67,0,0,1-.68-.57.68.68,0,0,1,.56-.76c1.77-.26,3.57-.45,5.35-.54h0a.67.67,0,0,1,.05,1.33c-1.74.09-3.5.27-5.22.53Z"/><circle class="cls-53" cx="489.92" cy="270.43" r="12.43"/><path class="cls-8" d="M489.36,276.32l-5.54-5a1.13,1.13,0,0,1,1.51-1.68l3.79,3.41,6.07-7.36a1.13,1.13,0,0,1,1.59-.15,1.12,1.12,0,0,1,.15,1.58Z"/><path class="cls-54" d="M520.6,371.43h2.73v-5.87h-2.25v-1.47a7,7,0,0,0,2.88-.92h1.73v8.26H528v1.9h-7.4Z"/><path class="cls-54" d="M529.83,368.21c0-3.46,1.55-5.23,3.91-5.23s3.9,1.77,3.9,5.23-1.55,5.31-3.9,5.31S529.83,371.65,529.83,368.21Zm5.71,0c0-2.64-.8-3.41-1.8-3.41s-1.81.77-1.81,3.41.8,3.49,1.81,3.49S535.54,370.84,535.54,368.21Zm-3,0a1.2,1.2,0,1,1,1.2,1.22A1.16,1.16,0,0,1,532.54,368.18Z"/><path class="cls-54" d="M539.43,368.21c0-3.46,1.55-5.23,3.91-5.23s3.9,1.77,3.9,5.23-1.55,5.31-3.9,5.31S539.43,371.65,539.43,368.21Zm5.72,0c0-2.64-.8-3.41-1.81-3.41s-1.81.77-1.81,3.41.8,3.49,1.81,3.49S545.15,370.84,545.15,368.21Zm-3,0a1.2,1.2,0,1,1,1.2,1.22A1.16,1.16,0,0,1,542.14,368.18Z"/><path class="cls-54" d="M548.42,371.72l3-2.78.82.76-2.59,3.19Zm.12-6.08a2.39,2.39,0,1,1,4.75,0,2.39,2.39,0,1,1-4.75,0Zm3.13,0c0-1.09-.36-1.4-.76-1.4s-.76.31-.76,1.4.36,1.44.76,1.44S551.67,366.73,551.67,365.64Zm.92,5.18a2.39,2.39,0,1,1,4.75,0,2.39,2.39,0,1,1-4.75,0Zm1.1-4.28,2.59-3.19,1.21,1.17-3,2.77Zm2,4.28c0-1.1-.36-1.4-.76-1.4s-.76.3-.76,1.4.36,1.44.76,1.44S555.73,371.91,555.73,370.82Z"/><path class="cls-4" d="M561.39,345.52a6.05,6.05,0,0,1-1.77,4.29,6.13,6.13,0,0,1-4.3,1.77H424.51a6.06,6.06,0,0,1,0-12.12H555.32A6.06,6.06,0,0,1,561.39,345.52Z"/><rect class="cls-6" x="440.58" y="339.46" width="1.33" height="12.12"/><rect class="cls-6" x="465.17" y="339.46" width="1.33" height="12.12"/><rect class="cls-6" x="489.76" y="339.46" width="1.33" height="12.12"/><rect class="cls-6" x="514.37" y="339.46" width="1.33" height="12.12"/><rect class="cls-6" x="538.96" y="339.46" width="1.33" height="12.12"/><path class="cls-55" d="M422.19,108.55V240.22a10.58,10.58,0,0,1-10.58,10.58h-35V98h35A10.58,10.58,0,0,1,422.19,108.55Z"/><path class="cls-4" d="M411.69,107.73V228.31A9.69,9.69,0,0,1,402,238H212.16a9.69,9.69,0,0,1-9.69-9.69V107.73A9.69,9.69,0,0,1,212.16,98H402A9.69,9.69,0,0,1,411.69,107.73Z"/><rect class="cls-56" x="218.57" y="121.85" width="121.66" height="7.71"/><path class="cls-57" d="M221.19,167.74a3.69,3.69,0,0,1-1.33-.24v-6.82a3.5,3.5,0,0,1,1.33-.25h14a3.66,3.66,0,0,1,0,7.31Z"/><path class="cls-57" d="M254,158.1v4.2H242.72a7.7,7.7,0,0,0-7.52-6h-14a4.12,4.12,0,0,0-1,.13,5.7,5.7,0,0,1,5.49-4.12h22.57A5.8,5.8,0,0,1,254,158.1Z"/><path class="cls-57" d="M242.56,166.46H254v5.36a5.8,5.8,0,0,1-5.78,5.82H225.64a5.8,5.8,0,0,1-5.78-5.82v0a7.48,7.48,0,0,0,1.33.12h14A7.7,7.7,0,0,0,242.56,166.46Z"/><rect class="cls-56" x="218.57" y="190.66" width="169" height="10.39"/><rect class="cls-56" x="319.27" y="210.06" width="68.29" height="9.7"/><path class="cls-58" d="M319.46,98c-20.79,27.63-69.07,84.37-117,87.07V107.73A9.69,9.69,0,0,1,212.16,98Z"/><rect class="cls-59" x="348.1" y="112.59" width="43.93" height="24.26" rx="5.71"/><path class="cls-60" d="M56,221.48c-1.26,4.31-4.75,6.76-8.22,8.8-7.32,4.3-15.33,7.54-20.44,14.85-.7,1-1.91.46-2.79.91.31,2.09-.46,4-1,5.94a18.2,18.2,0,0,0,2.1,15c.28.28.54.56.81.84a25,25,0,0,1,3.9,2.23c1.32.7,2.83,1.05,3.91,2.17l-.08-.1A5.56,5.56,0,0,0,37,274.36c1.59.85,3.37,1.24,4.95,2.12s3.46,1.13,5.18,1.73c6,1.72,8.05,3.94,8.1,8.9-1.85,2.53-2.83,5.63-5.12,7.87-.24,8.24,1.3,10.35,9.57,13a6.7,6.7,0,0,1,2.15,0c14.69,5.23,28.87,2.42,42.9-2.71a39.75,39.75,0,0,0,11.44-7.06c14.43-11.88,26.88-25.65,38.73-40,2.93-3.56,5.66-7.39,9.75-9.83,6.23-8,12.79-15.75,14.93-26.07.29-1.39,1.19-3,0-4.14-1.41-1.4-3,0-4.42.43a5.67,5.67,0,0,0-2.64,1.44c-.33,3.58-3.34,2.37-5.34,3a4.08,4.08,0,0,0-1.65.58c-1.07,2.26-3.09,1.92-5,1.81-9.45-1.18-19-1.42-28.38-3.15A35.12,35.12,0,0,0,124,222c-.83.07-2.06.07-2.29.68-1.06,2.67-2.32,1-3.56.32A17.67,17.67,0,0,0,116,221.9a6.88,6.88,0,0,0-1.08-.37c-1.68-.21-3.32-.53-4.47-2-1.93-2-4-3.78-5.55-6.13-1.92-3-1.86-5.87,1-8.17,4.79-3.89,9.23-8.38,15.76-9.41,1.5-.23,3-1.2,2.67-2.88-.27-1.5-2.26-.44-2.79-.85-2.65-2-5.84-1.37-8.68-2.26-1.8,2.13-4,3.62-6.87,3.62.16.56-.31-.13-.15.41s.58.63.89.92a3.86,3.86,0,0,0-1.27,0,10.81,10.81,0,0,0-3.77,1c-13.62,7-28,12.57-39.93,22.61a7.16,7.16,0,0,1-3,1.58,4.25,4.25,0,0,0-2.69,1.5"/><path class="cls-61" d="M202.72,227.81V215.64a7.19,7.19,0,0,1,.13-1.35c-1.07.35-2.16.67-3.28.93-3.18-.73-6.17,1.55-9.81.49,1.85-2.29,4.32-2.92,6.76-3.46a13.58,13.58,0,0,0,5.6-2.21L214,206c-2.53-2.36-5.16-2.21-7.52-2.88-1.25-1.48-3-.35-4.43-.86-2-.27-4.18-.14-5.71-1.9a2.13,2.13,0,0,0-2.25.37c-.35.2-.68.43-1,.65-5.46,1.35-10.55.82-15-2.94a2,2,0,0,0-1.2,0c-1.06.69-1.06,2.94-3,2.28-1.71-.58-1.85-2.25-2-3.78a11.39,11.39,0,0,0-.28-1.75c1.15-3.22,5.62-6.17,8.64-5.46,1.33.31,2.25.39,2.72-1.1.45-5.39,2.27-10.47,3.6-15.66a13.5,13.5,0,0,1,1.73-4c2.76-4.27,7.15-4,9.59.49.72,1.33.12,3.69,2.64,3.79a28.84,28.84,0,0,0,0-10.56c-3.32-13.34-11.59-22-24.35-27.09-11.44-4.54-22.78-1.85-34.2-.77-.63,1,.36,1.22.81,1.72-.47,1.9-2.49.91-3.47,1.85-1,1.14-3,.67-3.78,2.29.16,1.11,2.45,0,1.92,1.84-9.75,9.56-13.55,21.64-14.75,34.84-.56,6.21-3.73,10.49-9.76,12.46,3.22,3.07,7.64,1.75,11.33,3.12-.22.92-1,1.8-1.69,1.79-7.92-.11-12.22,6-17.67,10.12-3.38,2.56-3.19,5.43-1.1,8.71a30.93,30.93,0,0,0,6.37,7.08c1.61,1.21,3.73.79,5.43,1.7,1.11.77,2.22-.51,3.33,0,1.15.78,2.58,0,3.74.67,13.13.72,26.09,3.15,39.25,3.51.18-2.32,2.65-1.32,3.62-2.51l1.69-.1a7.4,7.4,0,0,0,5.35-3.37l6.8-2.24a38.84,38.84,0,0,1-5.56,15.46c-2.91,5-6.94,9.21-9.11,14.62,1.47-.11,3.05.59,4.36-.6.7-.65.36-2.39,1.72-2.2,4.88.68,8.46-3.92,13.31-3.13,7.15-2.75,13.51-6.84,19.64-11.24A6.38,6.38,0,0,1,202.72,227.81Z"/><path class="cls-62" d="M25.67,267c.19-.67.75-1.6.49-2-3.61-5.36-2.1-10.86-.42-16.29.47-1.52,0-2.1-1.16-2.68-5.08.1-9-2.82-13.08-5.16-1.57-.89-3.21-1.84-4.67-.17s-.87,3.39.31,5.11A19.55,19.55,0,0,0,14.25,252c.41,1.36-.58,1.34-1.4,1.35-2.55,0-5.09,0-7.64,0-4.39.23-4.39.23-4.23,5.85,2.27,3.9,6.46,2.28,9.69,3.39,1.15.75,2.55,0,3.74.66s-.31.68-.21,1.06l-3.55,1.61c-1.33.72-2.77,1.3-3.56,2.72,2.71,4.47,6.42,5.41,11.68,2.7,2.41-1.24,4.61-2.89,6.9-4.36"/><path class="cls-63" d="M199.66,173.29c.09-3.53-1.13-6.63-4.33-8.14a5.54,5.54,0,0,0-7.77,2.65c-3.21,6.63-5.35,13.61-5.3,21.1a13.43,13.43,0,0,0,.53,3.5c1,3.11,1.72,6.24.76,9.52a17.91,17.91,0,0,0,10.53,0,1.51,1.51,0,0,1,.3-.64,21,21,0,0,0,2.72-7.87,23.86,23.86,0,0,1,1.14-3.37c.1-1.93.88-3.81.42-5.78,0-.5,0-1,0-1.5,1.48-3.05,2.44-6.16,1-9.51"/><path class="cls-62" d="M59.67,308c0-.15,0-.39-.09-.41C53.8,305.37,50.87,301,50.1,295c-2.22,3.62-1.88,8.08-4.29,11.77A15.15,15.15,0,0,1,37,313.29c-2.25.7-5.75.86-5.05,4.12.53,2.45,3.51,3.5,6.19,3.71,6.55.5,11.22-3.22,15.7-7.22,2.06-1.83,3.89-3.91,5.83-5.87"/><path class="cls-64" d="M56,221.48c.95-.13,2,.14,2.71-.78-1.88-2.28-4.8-2.54-7.25-3.72-3.46-1.68-6.72-3.55-8.29-7.31-.68-1.63-1.14-3.42,0-5s3.08-1.22,4.82-.93c3.14.52,6.09,2,9.37,1.75,2-.56,2.91-1.77,2.51-3.86-5.89-5.41-9-12.36-10.82-20a25.69,25.69,0,0,1-.37-9.53c.14-1,.35-2.15,1.52-2.44,1-.24,1.55.61,2.09,1.29,3.52,4.48,7.82,8.21,11.78,12.26,1.53,1.56,2.35,2.93,1.45,5.35-2.07,5.63.13,10.14,4.45,13.86a1.94,1.94,0,0,0,2.1-1.13c0-.29.13-.64,0-.84-4-5.1-4.3-10.32-.52-15.69a8.08,8.08,0,0,0-.39-2.58c-1.86-4.4-2.14-9.4-5-13.45-1.56.43-.45,2-1.17,2.77a42.11,42.11,0,0,0,3.87,11c-2.22,1-3.15-.91-4.24-2.05-4-4.2-7.83-8.56-11.82-12.77-2.93-3.1-4-2.85-5.88,1s-1.83,8.23-.81,12.33c2,8,4.68,15.82,11.63,21.86-3.79-.16-6.73-1.41-9.79-2.12-2.43-.57-4.86-1-6.84,1.23s-2,5-1,7.73C43,217,49.52,219.28,56,221.48"/><path class="cls-65" d="M198.66,184.3c-1,1.84-1.76,3.72-1.1,5.86,5.49-.51,9.51-3.81,13.46-7.19,1.54-1.31,2.84-2.92,4.67-3.86s2.74-.2,2.57,1.81a5.94,5.94,0,0,1-.87,2.9c-4.16,5.84-6.64,13-13.22,16.94a3.66,3.66,0,0,0-1.94,2.24c1.36,1.54,2.81-.21,4.2.13,5-4.06,8.63-9.27,11.68-14.9a36.35,36.35,0,0,0,2.12-4.29c1.13-2.92,2.15-6.38-.94-8.31s-5.57,1.06-7.44,3c-2.67,2.77-5.78,4.75-8.86,6.91-2.28,1.59-3.5,1.37-4.33-1.23"/><path class="cls-66" d="M79.89,152A126.16,126.16,0,0,0,75.38,134c-.8-2.29-2-4.56-4.47-4.89-2.67-.35-4.51,1.61-5.88,3.79a21.87,21.87,0,0,0-3.58,12.36c.13,4.74-.68,9.55.77,14.22,2.27-2.44.59-5.66,1.65-8.34.8-4,0-8.12,1.43-12,1-2.72,1.92-6.36,5.06-6.33,2.92,0,2.94,3.82,3.71,6.2,1.06,3.3,1.64,6.74,2.45,10.12.4,1.65.8,3.42,2.54,4.35.81-.15,1.24-.53.83-1.4"/><path class="cls-67" d="M79.89,152,79,153.2c-1.4,2-.14,3.93.31,5.82,2.55,10.65,8.43,19.39,15.83,27.21,2,2.12,3.54,4.63,5.74,6.56,1.42,1.25,2.87,2.5,4.94,2.47,2.8-.26.22-1.18.22-1.77-12-10.9-22-23-25.35-39.49a12.55,12.55,0,0,0-.75-2"/><path class="cls-68" d="M55.22,287.11c1.83-1.42,2.19-3,.46-4.74-2.36-2.32-4.62-4.86-8.29-5-.47,1.1.34,1.49,1.09,1.74s1.17.4.37,1.08c-1.76,1.8-3.71.26-6,.25,3.15,4.55,7.88,5.4,12.36,6.7"/><path class="cls-69" d="M202.12,210c-3.41.79-7,.73-10.26,2.48a8.76,8.76,0,0,0-4.54,5.21c4.27-1.12,8.53-.32,12.26-2.51q1.26-2.59,2.54-5.18"/><path class="cls-70" d="M63,150.58c-1.56,2.84-.36,5.93-.81,8.86q1.41,6,2.83,12.09c.89-.74.67-1.79.79-2.75,1.26-1.35,1-3,.69-4.52-1-4.58-.76-9.52-3.5-13.68"/><path class="cls-71" d="M184,242.51c-3.08.06-6.57-2-8.89,2.12-.39.69-2.74.51-4.14.36-2.62-.27-2.46,1.13-2,2.87a1.14,1.14,0,0,1,.41.12c2.74,1.84.81-2.81,3-2.12a35,35,0,0,0,5.45.86c-.12-4.61,4.74-1.89,6.17-4.21"/><path class="cls-72" d="M199.66,173.29l-1,9.51c.53-.08,1.32.13,1.44-.58,1.06-6.48,2.6-13,.3-19.49-.51,3.5.83,7.14-.78,10.56"/><path class="cls-73" d="M48.85,280.16c.34-.33,1.87.24.93-1a10.59,10.59,0,0,0-2.39-1.79c-1.71-.59-3.43-1.16-5.15-1.74-1.34-.27-2.92-1.47-3.58.92l10.19,3.63"/><path class="cls-74" d="M1,259.21c.68-2.57.14-6.17,4.64-5.57.19-.3.12-.51-.22-.62C-.12,253-1,254.26,1,259.21"/><path class="cls-75" d="M5.4,253a6.45,6.45,0,0,1,.21.62c2.74.06,5.48.22,8.22.14,1.66-.05,2.74-.6.42-1.79-2.75,2-6,.13-8.85,1"/><path class="cls-76" d="M137.38,142.57c1.93-3-1.36-.84-1.63-1.66-.43-.67-1.33-.32-1.83-.85-.85-.09-1.95-.27-2.16.72s.87.83,1.54,1c1.35.34,2.9-.38,4.08.79"/><path class="cls-77" d="M38.66,276.53c.94-1.31,2.38-.65,3.58-.92-1.68-.8-3.32-1.76-5.27-1.77-.9-.44-1,0-.88.76l2.57,1.93"/><path class="cls-78" d="M133.92,140.06c.31.94,1,1.05,1.83.85,1-1,2.82-.95,3.48-2.47-2-.25-3.44,1.39-5.31,1.62"/><path class="cls-79" d="M30.79,269.53c-1.28-.95-2.35-2.46-4.31-1.7.63,1.53,2,2.08,3.39,2.61.95.34,1.11-.11.92-.91"/><path class="cls-80" d="M14.2,264.32a2,2,0,0,0,2.14-.78,10.7,10.7,0,0,0-5.67-.93l3.53,1.71"/><path class="cls-81" d="M30.79,269.53l-.92.91c1.34.93,2.63,2,4.42,1.79-.63-1.59-2.17-2-3.5-2.7"/><path class="cls-82" d="M142.7,136.59l-.81-1.72h-2.56c1,.93,1.88,2,3.37,1.72"/><path class="cls-74" d="M7.08,268.65l3.57-2.72c-1.79.11-3.34.54-3.57,2.72"/><path class="cls-83" d="M36.09,274.6l.88-.76-2.76-1.71c-1.67,2.58.73,2.05,1.88,2.47"/><path class="cls-84" d="M116.66,241.63c-12.19-.68-22.41,3.34-32.88,6.88-10.82,3.65-17.3,11.65-23.6,20.19-.87,1.18-1,2.67-1.48,4-2.13,6.26.1,10.11,5.9,12.86,2.94,1.39,5.38,3.8,8.47,5.18,12.47,5.6,24.35,4.64,35.16-3.67,7.78-6,15.94-11.62,21.23-20.36,3.36-5.55,3.68-10.85.48-16.43-.14-.25-.46-.44-.51-.7-1.41-8-6.8-9.27-12.77-8"/><path class="cls-85" d="M63,150.58q1.41,9.1,2.81,18.2l4.41,14c3,.81,6.56-.59,9.09,2.2,1.2.81,2.25,1.81,3.36,2.73,1.59,1.33,3,2.62,4.17-.4.44-1.09,1.32-.84,2-.08a19.08,19.08,0,0,1,3.74,4.63c-.73-.84-1.2-2-2.07-2.87-2.48-2.53-2.94-2.46-4.73,1.22-2.69-1.44-4.48-4-7.09-5.51s-5.13-3.31-7.63.1c-5.11,6.58-5,9.3.77,16.5-.66,2.08-2.16,1.22-3.53,1.1a2.79,2.79,0,0,0-3.18,2.3c-.28,1.19.06,1.51,2.46,2.85-3.15-1.29-5.73-4.64-9.73-2.83l-9.72-2.12c-2.14-.47-4.36-1.13-6,.94s-1,4.08-.29,6.2c1,3.09,3.3,5.08,6,6.6a40.08,40.08,0,0,0,10.85,4.37c.79.14,1.49.93,2.39.08,12.79-12.15,29.26-17.9,44.64-25.53C92.7,183.87,82,171,79,153.2c-1.6-6-3.08-12-4.84-17.93-.54-1.84-1-4.41-3.42-4.55s-3.64,2.09-4.79,3.9c-3.14,4.91-2.72,10.5-2.87,16"/><path class="cls-86" d="M122.6,223.08l-3.5-1.62a3.79,3.79,0,0,0-2,1.9c1.51,1.65,3.23,2.77,5.41,2.37,1.43-1-2.81-1.71.11-2.65"/><path class="cls-87" d="M172.51,220.61c-2.67-.29-3,3.07-5.36,3.36,1.93.44,3.67-.36,5.41-.92,2.38-.77-.07-1.62-.05-2.44"/><path class="cls-88" d="M165.47,224.09c-1.65.19-4.57-1.46-3.62,2.5,1.66-.18,4.43,1.25,3.62-2.5"/><path class="cls-89" d="M117.08,223.36a3.59,3.59,0,0,0,2-1.9c-1.71-1.71-2.3.95-3.58.92l1.56,1"/><path class="cls-89" d="M115.56,222.4C114,221,112,221,110.1,220.69c1.43,1.81,3.47,1.69,5.46,1.71"/><path class="cls-90" d="M141.54,180.2c-3.82,3-3.61,8.09-6.34,11.67-.94,1.22.11,2.17,1.55,2.24s3.15,0,5.2,0c-2.38,2.64-5.06,2.93-7.9,3,3.36,4.11,13.65,4.84,23.9,1.79l-1.29,2.43c1.4.13,3.3,1.76,3.69-1.2,1.49-1.13,5.19-1.23,1.85-4.53-.77-.77.52-1.79,1.48-2.16,8.1-3.16,9.65-9.7,9.68-17.49a61.56,61.56,0,0,0-1.08-10.73c-1.11-6.42-2.65-8.53-8.06-9.11-5.1-.55-10.06.21-13.52,5-3.07,4.23-3.25,9.54-5.58,14-.2.37-.43.72-.65,1.09a5,5,0,0,1-2.93,4.06"/><path class="cls-91" d="M202.23,203a22.67,22.67,0,0,0,11-10.74c1.79-3.63,5.23-6.3,6-10.51.3-1.61.8-3.27-.74-4.42s-2.83.19-3.82,1.09c-5.19,4.71-10.65,9-17.18,11.74-.52.79-1.94,1-1.52,2.39,1.48,2.66-1.48,5.26-.11,7.92,0,2,.37,3.36,2.93,2.55a11.51,11.51,0,0,1,3.37,0"/><path class="cls-92" d="M194.08,202c-2.39.13-4.78.41-7.15.32-1.13,0-3.06.66-3.11-1.68,1.89-3-.85-5.87-.18-8.84-.44-1-.26-2.22-1.38-2.86-5.07-.65-6.29-.31-12.06,3.79-1.38,1,.58,1.49.58,2.32,1.54,2.48,4.29,2.79,6.69,3.72,4.62,4.69,11.09,5.94,16.61,3.23"/><path class="cls-93" d="M170.73,197a20.55,20.55,0,0,0,.43,2.49,3.35,3.35,0,0,0,3.79,2.65c2.51-.18,1.69-2.14,2-3.51-2.22,0-3.75-2.59-6.22-1.63"/><path class="cls-94" d="M185.93,215.13c-1.92.53-4.27.38-4.58,3-.09.75.39,1.79,1,1.67,2.35-.47,2.32-3.11,3.61-4.67"/><path class="cls-95" d="M170.73,197c2,.77,3.56,3.3,6.22,1.63a2.32,2.32,0,0,0,.52.07c-1.82-2-4.37-2.64-6.7-3.72,0,.67,0,1.35,0,2"/><path class="cls-96" d="M195.93,200.47c.23-2.63,2.5-5.24.11-7.92-.55,2.92-1.1,5.85-1.66,8.77.52-.28,1-.56,1.55-.85"/><path class="cls-97" d="M162.81,202.17l6.25.32c-1.41-3.2-3.53-2.15-5.41-1.91-.59.36-1.36.63-.84,1.59"/><path class="cls-98" d="M162.81,202.17l.84-1.59-3.3-.48c-.84,1.58-2.39,1-3.69,1.2,1.86,1.62,4.08.72,6.15.87"/><path class="cls-99" d="M141.54,180.2c3.55.5,3.71-1.44,2.93-4.06a7.88,7.88,0,0,0-2.93,4.06"/><path class="cls-100" d="M188.17,179.42a9.14,9.14,0,0,0-1.48,7.24,3.08,3.08,0,0,0,2.53,2.64c1.27.1,1.92-1,2.5-2a9.89,9.89,0,0,0,.53-7.56c-.72-2.44-2.53-3.12-4.1-.26l.27.24Z"/><path class="cls-101" d="M183.64,191.76c-1.83,3,1,5.88.18,8.85.74.12,1.86.82,1.55-.84-.52-2.68-.46-5.49-1.73-8"/><path class="cls-85" d="M70.09,202.17l-3.58-6.46c-1-1.77-1.5-4.18-.5-5.45,3.37-4.26.23-6.21-2.27-8.8-3.83-4-8.1-7.56-11.31-12.13-2-2.87-3.25-1.78-4.37.89a12.65,12.65,0,0,0-.66,6.44c1.09,9.92,3.9,19.06,12.24,25.52a3.42,3.42,0,0,0,4.78,1.55c1.85-.9,3.85-.82,5.67-1.56"/><path class="cls-102" d="M70.09,202.17c-3.48-1.09-7,2.31-10.45,0l-1.71,2.53c4.24-.24,7.26,3.76,11.62,3.73A1.79,1.79,0,0,0,68,206.81c-1.13-.36-2.41-.65-2-2.21.39-1.37,1.54-1.39,2.81-1.23,1.53.2,3.93,1.39,3.07-2.07l-1.82.87"/><path class="cls-103" d="M71.14,184.79c2.78-1.73,5.32-1.1,7.74.77.37-.28.9-.39,1-1-2.83-2.53-6.07-3-9.6-1.82.3.67.59,1.35.89,2"/><path class="cls-104" d="M79.85,184.59l-1,1c1.69,1.56,3.35,3.18,5.1,4.67.81.7,1.42,2.22,2.72,1.68s.72-1.95.56-3.07c-.05-.33.29-.72.53-1.29,3.21,1.64,3.89,5.73,7.66,6.66-2.14-2.77-4-5.89-6.5-8.21-3.06-2.79-2.73.87-3.52,2.56l-5.58-4"/><path class="cls-105" d="M160.2,170.8c-4.1,1.82-6.24,8.13-3.59,11.4,2.32,2.86,4.48,1.85,6.07-1a9.6,9.6,0,0,1-3.16-5.66c-.11-1.05.79-1.33,1.41-1.83.85-1.23-.29-2-.73-2.87"/><path class="cls-106" d="M158.47,175.22c1.21,2.11-.35,6.19,4.21,5.94,1.65-2.48,1.2-5.22.67-7.83-.28-1.36-.88-3.23-3.15-2.53-1.09,1.3.5,1.73.83,2.56-.62.95-2.11.68-2.56,1.86"/><path class="cls-107" d="M188.17,179.42c-.5,1.44-.06,2.23,1.53,2.09.62-.06,1.11-.53.92-1.15-.39-1.31-1.5-1-2.47-.91Z"/><path class="cls-108" d="M158.47,175.22c1.1-.28,2.81.28,2.56-1.86-1.06.34-3.6-1.37-2.56,1.86"/></g></g></g></svg>