<?xml version="1.0" encoding="utf-8"?>
<!-- Generator: Adobe Illustrator 23.1.0, SVG Export Plug-In . SVG Version: 6.00 Build 0)  -->
<svg version="1.1" id="Слой_1" xmlns="http://www.w3.org/2000/svg" xmlns:xlink="http://www.w3.org/1999/xlink" x="0px" y="0px"
	 viewBox="0 0 464 464" style="enable-background:new 0 0 464 464;" xml:space="preserve">
<style type="text/css">
	.st0{clip-path:url(#SVGID_2_);}
	.st1{clip-path:url(#SVGID_4_);}
	.st2{fill:#C211A1;}
</style>
<g>
	<defs>
		<rect id="SVGID_1_" width="464" height="464"/>
	</defs>
	<clipPath id="SVGID_2_">
		<use xlink:href="#SVGID_1_"  style="overflow:visible;"/>
	</clipPath>
	<g class="st0">
		<defs>
			
				<rect id="SVGID_3_" x="-887" y="-886.8" transform="matrix(-1.836970e-16 1 -1 -1.836970e-16 -422.9535 270.9533)" width="1080" height="1621.6"/>
		</defs>
		<clipPath id="SVGID_4_">
			<use xlink:href="#SVGID_3_"  style="overflow:visible;"/>
		</clipPath>
		<g class="st1">
			<g>
				<g>
					
						<rect x="195" y="531.2" transform="matrix(0.7071 -0.7071 0.7071 0.7071 -224.7287 548.298)" class="st2" width="708.9" height="28.5"/>
				</g>
				<g>
					
						<rect x="151.3" y="487.5" transform="matrix(0.7071 -0.7071 0.7071 0.7071 -206.6378 504.6226)" class="st2" width="708.9" height="28.5"/>
				</g>
				<g>
					
						<rect x="107.7" y="443.8" transform="matrix(0.7071 -0.7071 0.7071 0.7071 -188.5469 460.945)" class="st2" width="708.9" height="28.5"/>
				</g>
				<g>
					
						<rect x="64" y="400.1" transform="matrix(0.7071 -0.7071 0.7071 0.7071 -170.4559 417.2715)" class="st2" width="708.9" height="28.5"/>
				</g>
				<g>
					
						<rect x="20.3" y="356.5" transform="matrix(0.7071 -0.7071 0.7071 0.7071 -152.3649 373.5964)" class="st2" width="708.9" height="28.5"/>
				</g>
				<g>
					
						<rect x="-23.4" y="312.8" transform="matrix(0.7071 -0.7071 0.7071 0.7071 -134.274 329.9211)" class="st2" width="708.9" height="28.5"/>
				</g>
				<g>
					
						<rect x="-67" y="269.1" transform="matrix(0.7071 -0.7071 0.7071 0.7071 -116.1831 286.2457)" class="st2" width="708.9" height="28.5"/>
				</g>
				<g>
					
						<rect x="-110.7" y="225.4" transform="matrix(0.7071 -0.7071 0.7071 0.7071 -98.0921 242.5703)" class="st2" width="708.9" height="28.5"/>
				</g>
			</g>
		</g>
	</g>
</g>
</svg>
