<svg xmlns="http://www.w3.org/2000/svg" xmlns:xlink="http://www.w3.org/1999/xlink" viewBox="0 0 230.71 256.3"><defs><style>.cls-1{fill:none;}.cls-2{fill:#232026;}.cls-3{fill:#38303e;}.cls-4{fill:#e8e8e8;}.cls-5{fill:#d3d3d3;}.cls-6{fill:#fff;}.cls-7{fill:#be2f3c;}.cls-8{fill:#2e8abb;}.cls-9{opacity:0.47;}.cls-10{clip-path:url(#clip-path);}.cls-11{fill:#2a80ac;}.cls-12{fill:#277da8;}.cls-13{fill:#656574;}.cls-14{fill:#32303f;}.cls-15{fill:#e7e7e7;}.cls-16{fill:#c2bddf;}.cls-17{fill:#918dae;}</style><clipPath id="clip-path"><rect class="cls-1" x="131.01" y="73.69" width="99.7" height="108.36"/></clipPath></defs><title>penguin-2</title><g id="Слой_2" data-name="Слой 2"><g id="Слой_1-2" data-name="Слой 1"><path class="cls-2" d="M95,254.14l1.88-.08c2.33-.08,2.83-.42,3.23-2.76a19.41,19.41,0,0,0-.89-9.14c-1.79-5.83-3.2-11.78-4.75-17.69-.05-.19.16-.45.47-1.24a24.24,24.24,0,0,1,1.26,2.66c1.57,4.86,3.13,9.73,4.62,14.61,1,3.32,2,6.65,1.67,10.2a5.56,5.56,0,0,1-2.33,4.44c-1.94,1.32-3.6,1-5.16-1"/><path class="cls-2" d="M145,253.37c-1.28,2.34-2.66,3.1-4.76,2.9a3.67,3.67,0,0,1-3.36-3.13,11.48,11.48,0,0,1-.35-4.07,67.83,67.83,0,0,1,1.73-8.85c1.32-4.75,2.91-9.42,4.41-14.12.2-.65.49-1.28.74-1.92l.59.11a25.89,25.89,0,0,1-.4,3.87c-1.23,4.78-2.68,9.51-3.83,14.3a34.18,34.18,0,0,0-1.07,7.83c0,3.91,1.54,5.16,5.13,3.51.23-.11.49-.18,1.17-.43"/><path class="cls-2" d="M157.19,252.08c.13-1.86,1.06-3,2.88-3.05a8.55,8.55,0,0,1,3.62.89,18,18,0,0,1,3.13,2.21,4.43,4.43,0,0,0,5.1.6c1-.49,2-.89,3-1.33a3.81,3.81,0,0,1-4,4.07,13.23,13.23,0,0,1-4.42-1.13,9.87,9.87,0,0,1-2.25-1.56c-2-1.46-4-2.21-6.3-.69a1.29,1.29,0,0,1-.53.11c-.07,0-.15-.08-.22-.12"/><path class="cls-2" d="M66.54,254a4.41,4.41,0,0,1,1-.19,8.77,8.77,0,0,0,6.51-2.42c.84-.7,1.62-1.47,2.48-2.16,2-1.62,2.77-1.59,5,.12,0,.16-.05.45-.13.47a25.4,25.4,0,0,0-7.5,3.85c-2.22,1.47-4.68,2.49-7.34.33"/><path class="cls-2" d="M93.9,249.6c-1.54,1.76-2.89,3.29-4.22,4.85a4.23,4.23,0,0,1-4.37,1.6,2,2,0,0,1-1.9-2.05,4,4,0,0,1,.82.12c2.51,1,3.36.77,4.69-1.51,1-1.62,1.9-3.15,4-3.24a3.47,3.47,0,0,1,1,.23"/><path class="cls-2" d="M145.57,252.09c1.37-2.29,2.78-2.34,4.47-.15,1.55,2,1.55,2,4.07,1.28a1.81,1.81,0,0,1,.52,0c-.34,2.06-1.72,3-3.52,2.23a5.7,5.7,0,0,1-1.76-1.26c-1.75-1.76-1.73-1.78-3.78-2.09"/><path class="cls-3" d="M91,250.64l-1.7,2.66c-1.81,2.85-4.52,3.05-6.73.45-.65-.76-1.15-1.66-1.77-2.44-1.53-1.93-2.94-2.14-5-.71-.74.52-1.34,1.26-2.11,1.74a21.16,21.16,0,0,1-4.29,2.35c-3.12,1-5.49-.54-5.91-3.81a16.71,16.71,0,0,1,1.9-10.11c2.57-4.84,5.36-9.57,8.09-14.33.82-1.43,1.75-2.79,2.63-4.18.6-.95,1.24-1.85,2.74-1.69v2.28c4.92,2.24,10.37,3.33,14.44,2.83-.07-1.09-.14-2.21-.21-3.33l.55-.19a16.58,16.58,0,0,1,1.12,2.28c1.87,6,3.82,12,5.46,18.12a49,49,0,0,1,1,7.89,5.69,5.69,0,0,1-.17,1.63c-.7,3.6-4,4.74-6.79,2.3a17.91,17.91,0,0,1-1.74-2.11c-.4-.47-.83-.91-1.48-1.63"/><path class="cls-3" d="M148.26,250.68c-.65.7-1.08,1.14-1.47,1.61s-.83,1.22-1.34,1.74a4.41,4.41,0,0,1-4.74,1.38,3.65,3.65,0,0,1-2.49-3.9,46.56,46.56,0,0,1,.93-9.24c1.51-5.94,3.46-11.76,5.27-17.61a4.68,4.68,0,0,1,1.56-2.34v3.37c5.16,1.06,9.59-1.66,14.55-2.55-.11-.91-.21-1.66-.3-2.39.28-.11.49-.27.57-.22.74.47,1.7.82,2.13,1.5,4,6.24,8.12,12.42,11.19,19.2a18,18,0,0,1,1.64,9.36c-.38,3.61-2.74,5.18-6.16,4a20.87,20.87,0,0,1-3.61-1.92,7.87,7.87,0,0,1-1.25-1.07c-2.78-2.67-4.92-2.77-7.06.77a5.61,5.61,0,0,1-3.19,2.85c-1.9.56-2.89.33-4.06-1.27-.72-1-1.36-2.07-2.17-3.31"/><path class="cls-2" d="M165.83,239.59a41.26,41.26,0,0,0-21.31,1.53c3.29-3.79,15.84-4.71,21.31-1.53"/><path class="cls-2" d="M70.93,241.05c3.7-3,16.53-2.88,22,.56a106.79,106.79,0,0,0-11.07-1.34,104.29,104.29,0,0,0-10.9.78"/><path class="cls-4" d="M130.54,65.79l3.16,4.92a5.4,5.4,0,0,0,.44.69c.5.57,1.84.59,1.45,1.68a7.35,7.35,0,0,1-1.66,2.39c-2.21,2.31-4.47,4.59-6.75,6.83-.83.81-1.8,1.49-3.18,2.61a23.81,23.81,0,0,1,2.76.27,1,1,0,0,1,.61.76,1,1,0,0,1-.48.87,20.82,20.82,0,0,1-2.31.55,10.43,10.43,0,0,1-1.23,2.48,18.57,18.57,0,0,0-4.61,12.36c-.22,7.14-.49,14.3-.16,21.43a49.59,49.59,0,0,0,10,27.23,39.2,39.2,0,0,0,9.74,8.79c6,4.1,12.45,7.72,18.77,11.41,4.92,2.87,10.53,3.6,16,4.77,1.34.28,2.71.44,4,.73a21.81,21.81,0,0,0,9.81-.19,8.27,8.27,0,0,1,2.42-.24c1.19.08,1.93.81,1.61,2C189,185.55,187,192.94,180.63,198c-1.8,1.41-3.61,2.83-5.51,4.09a4,4,0,0,0-1.62,2.37c-1.55,4.5-3.19,9-4.87,13.41-1,2.73-3.17,4.42-5.7,5.68a29.12,29.12,0,0,1-19,2.39,6.54,6.54,0,0,1-4.77-3.78c-.53-1.06-1-2.16-1.55-3.39-11.78,1.18-23.55,2-35.54-.41-.78,1.36-1.61,2.75-2.37,4.18a6.69,6.69,0,0,1-5.16,3.67c-7,1.1-13.49-.54-19.67-3.61-2.12-1.05-3.34-3.16-4.24-5.27a94.35,94.35,0,0,1-3.76-10A20.24,20.24,0,0,0,61.41,198c-5.75-5.58-8.84-12.67-10.57-20.44-1.49-6.72-1.45-13.44-.92-20.24.83-10.51,3.75-20.48,7.49-30.29C61.9,115.26,67.35,104,74.79,93.77c2.75-3.76,5.83-7.29,8.82-10.88a10.4,10.4,0,0,1,2.47-2.16,2.88,2.88,0,0,1,2.18-.52c.41.17.43,1.33.71,2.36l3.07.65c1.49-1.7,1.49-1.7,2.68,0,.27-.75.54-1.37.73-2a30.27,30.27,0,0,1,13.87-18.08c4.44-2.68,9.16-3.63,14.17-1.61.85.34,1.73.59,2.6.88.07,0,.17,0,.47-.12-3.44-3.84-5-8.41-5.61-13.36A19.2,19.2,0,0,1,133.24,28.7a21.81,21.81,0,0,1,4.23-1.18c1.53-.22,3.25-.95,4.5.82.16.22.69.17,1,.27,6.56,1.87,10.21,6.44,11.79,12.87,1.73,7.05.2,13.19-4.24,19.07-2.57,3.39-6,4.54-9.47,5.93-1.24.51-2.89.08-4.35,0-2.05-.16-4.1-.42-6.2-.65M149.87,48a19.83,19.83,0,0,0-2.65-9.14c-1.54-2.63-4.19-4-7-5.09-2-.75-3.75.35-5.49,1.06a18.06,18.06,0,0,0-3.36,1.86,11.67,11.67,0,0,0-5.19,7.18c-.69,3-2,6.14.61,9,.18.19.21.51.36.74A50.72,50.72,0,0,0,131,59.19,8.1,8.1,0,0,0,140,61.91,14.07,14.07,0,0,0,149.87,48"/><path class="cls-4" d="M100.26,28.27c6.65-.3,12.75,5.3,14.4,11.07,2.14,7.53.66,14.27-3.51,20.64a4,4,0,0,1-.5.65c-5,4.77-10.56,7.46-17.63,5.71a13.82,13.82,0,0,1-7.73-5.41c-4.22-5.57-5.14-11.79-3.72-18.6,1.9-9.11,11.89-14.6,18.69-14.06M86.05,43.38a36.43,36.43,0,0,0,0,4.15,55.31,55.31,0,0,0,1.12,7,8.38,8.38,0,0,0,3.74,5.27c9,5.5,17.66-.22,19.37-7.24a16.44,16.44,0,0,0-1-11.24c-2.35-5.07-5.37-6.9-10.89-6.32-3.55.38-6.75,1.59-9,4.64-.89,1.2-2,2.25-3.33,3.71"/><path class="cls-5" d="M139.24,173.08c2,1.31,3.72,2.34,6,2.64,2.41.32,4.7,1.45,7.09,2.08a66.55,66.55,0,0,0,6.71,1.39c2.08.33,4.15.56,5.95,1.81a3.62,3.62,0,0,0,1.8.5,23.57,23.57,0,0,0,10.52-1.43c.9-.36,1.79-1.1,2.63.19.12.19.87.07,1.28,0,2-.57,4-.66,5.93-1.9,1.1-.72,2.78-.68,3.57-2,1.23.59.91,1.45.72,2.23-2.16,8.95-5.66,17.13-13.92,22.2a11.89,11.89,0,0,0-5.5,7.69,105.35,105.35,0,0,1-3.67,10.06,9,9,0,0,1-5.37,5.18c-3.41,1.37-6.85,2.6-11.08,2.57,1.67-.71,2.92-1.29,4.21-1.79,5.89-2.26,7.68-7.6,6.7-12.93a30.05,30.05,0,0,0-1.33-5,3.62,3.62,0,0,1,1-4.41,39.43,39.43,0,0,0,4.34-5,6.13,6.13,0,0,0,1.5-5.1c-.45-2.13-1.39-3.13-3.53-3.08-8.4.2-16.37-1.76-24.08-4.82a56.17,56.17,0,0,1-25.53-20.58c-7.06-10.06-10.79-21.2-10.33-33.53a72.1,72.1,0,0,1,8-31.16c3.33-6.34,8.22-11.43,13.51-16.15.75-.67,1.56-1.45,2.43-.2,0,.17,0,.3,0,.35-1.94,1.88-2.83,4.4-4.12,6.68a28.24,28.24,0,0,0-1.71,3.91c-.81,2-1.8,4.44-4.6,4.9a2,2,0,0,0-1.12,1.06c-1.17,2.28-2.26,4.59-3.39,6.91l1.39,1.5c-4.77,7.37-4.4,15.22-2.33,23.13a99.33,99.33,0,0,0,10.26,23.93,39.29,39.29,0,0,0,12.54,12.92c1.29.86,2.63,1.67,3.9,2.57s1.11,1.74-.28,2.74m-23.63-28.8-.49.2c.44,1,.87,2.05,1.31,3.08l.52-.21c-.45-1-.89-2-1.34-3.07"/><path class="cls-5" d="M78,208.27c7.5,4,15.16,7.62,23.45,9.3,0,3.8-2.94,7.55-6.27,8.21-.79-5.05-4-8.15-8.35-10.42-2.42-1.26-4.67-2.85-7-4.32-.91-.59-1.77-1.27-2.65-1.91.27-.28.54-.57.8-.86"/><path class="cls-6" d="M115.61,144.28c.45,1,.89,2.05,1.34,3.07l-.52.21c-.44-1-.87-2.06-1.31-3.08l.49-.2"/><path class="cls-7" d="M230.54,120.32a61.33,61.33,0,0,1-50.78,60.91,58.6,58.6,0,0,1-66.77-44c-8.62-35.05,14.82-70.3,50.46-75.65a58.43,58.43,0,0,1,66.08,46.68,57.76,57.76,0,0,1,1,6.53c.16,1.81,0,3.65,0,5.49"/><path class="cls-8" d="M76.09,80.37c-5.56-4.76-8.67-10.85-10.55-17.55A55,55,0,0,1,65.1,33,24.27,24.27,0,0,1,70,23.56c1.72-2,2.37-2,3.75.33,1.81,0,3.64.14,5.45,0a54,54,0,0,0,5.43-1.1l-4.92-9.37a27,27,0,0,1,2.15-1.92A59.24,59.24,0,0,1,112.16.29a60,60,0,0,1,32.07,5.55,89.49,89.49,0,0,1,8.7,5.23A16.94,16.94,0,0,1,155,12.9a8.25,8.25,0,0,1-1,1.22,9.48,9.48,0,0,0-3.83,6.12,16.06,16.06,0,0,1-1.62,3.63c.78.86,1.59,1,2.59-.07,1.53-1.58,3.11-3.12,4.76-4.57,2.06-1.81,2.79-1.8,4.52.32,4.95,6,8.6,12.72,9.74,20.6.82,5.67,1,11.3-.54,16.89-.38,1.4-.84,2.77-1.3,4.29-12.28.4-22.83,5.19-32.7,12-1.47-2.08-2.79-4.15-4.32-6a16.72,16.72,0,0,0-22-4.09,26.35,26.35,0,0,0-8.76,8.59,41.08,41.08,0,0,0-5.1,11.51c-.62,2.19-.65,2.21-2.76,2-4.37-.45-4.36-.44-7.22,2.83a142.29,142.29,0,0,0-31,58.48c-3.54,13.63-2.79,27.25,1.11,40.71a69.91,69.91,0,0,0,2.81,6.83c-.9-1-1.46-1.5-1.92-2.1a46.85,46.85,0,0,1-10-27.16,111.08,111.08,0,0,1,3.78-32.36c.22-.86.4-1.74.76-3.27-1.52.79-2.53,1.29-3.53,1.82-3.79,2-7.53,4.18-11.39,6.05a31,31,0,0,1-25.6.94,45.74,45.74,0,0,1-8.14-3.89c-3.53-2.24-3.12-5.53.71-7.26a18.1,18.1,0,0,1,3.4-1.05,98.41,98.41,0,0,0,24.57-9.37c6.72-3.62,12.47-8.67,18.23-13.64C53.7,99.07,58,95.19,62.44,91.53a28.27,28.27,0,0,1,6.66-4.32c3.27-1.39,5.29-3.76,7-6.84m5.39-33.9c-.22,8.1,2.37,13.78,8.54,17.43,3.81,2.25,7.93,3.27,12.34,1.55,9.76-3.81,14.89-13.59,12.55-24-1.26-5.66-4.51-10-9.85-12a16.34,16.34,0,0,0-20,6.52c-2.27,3.55-3.77,7.32-3.58,10.59m39.59.77c0,5.82,1.72,10.21,5.25,13.89a15.35,15.35,0,0,0,22.14.48c5.35-5.34,7.81-11.86,6.36-19.51-2.47-13-16.76-18.17-26.9-9.71-4.81,4-6.64,9.47-6.85,14.85"/><path class="cls-8" d="M170.66,167.88c-26.28-.42-47.39-21.19-47.15-47.7.23-26.18,21.83-46.73,48.06-46.32,25.46.39,47.06,21,46.7,47.79-.33,25.79-21.24,46.24-47.61,46.23m.23-13.33a33.73,33.73,0,1,0-34.16-34,33.64,33.64,0,0,0,34.16,34"/><path class="cls-8" d="M149.81,135.54V106.8c2.84-1.23,5.56-.45,8.23-.07,1.4.21,2.06,1.5,2.27,2.83a32.79,32.79,0,0,1,.42,4.64c.06,4.11,0,8.22,0,12.51h4.52c0-2.26,0-4.52,0-6.78s.58-3,2.73-3.36a12.82,12.82,0,0,1,4.1,0c2.32.38,3,1.35,3,3.77,0,2.08,0,4.17,0,6.42h5.25c.07-.71.18-1.41.2-2.12.08-3.48.12-7,.19-10.44.11-5.09,1.59-6.71,6.58-7.24a25.18,25.18,0,0,1,3-.16,9.15,9.15,0,0,1,1.83.42c0,.93,0,1.83,0,2.72q-.49,12.09-1,24.16c-.09,2-.26,2.2-2.27,2.18q-18.71-.22-37.4-.5c-.44,0-.88-.11-1.71-.22"/><g class="cls-9"><g class="cls-10"><path class="cls-11" d="M208.4,73.68c2.25,2,4.17,3.38,5.75,5.1a60.8,60.8,0,0,1,12.64,19.8A71.22,71.22,0,0,1,230.18,113a56.09,56.09,0,0,1-.7,19.13A60.74,60.74,0,0,1,218,158a61.72,61.72,0,0,1-45.18,24c-14.19.55-26.87-3.59-38.37-11.71-1.08-.77-2-1.76-3.39-3a13.21,13.21,0,0,1,2.05-.25c7.52.5,14.49-1.9,21.41-4.29,5.76-2,10.8-5.38,15.85-8.73a113,113,0,0,0,16.85-13.64,48.14,48.14,0,0,0,9.52-13c2.66-5.42,5.73-10.65,7.45-16.51a80,80,0,0,0,3.53-19.14c.21-5.12.35-10.24.53-15.36,0-.63.09-1.26.2-2.67"/></g></g><path class="cls-12" d="M72,86.57c-1.83,3-3.61,6-5.51,8.86A123,123,0,0,0,52.5,126a6.12,6.12,0,0,1-3,4c-5.19,2.71-10.32,5.54-15.58,8.11A24.19,24.19,0,0,1,17,140a90.91,90.91,0,0,1-10.72-3.3,16.8,16.8,0,0,1-4.93-3.4c-1.79-1.63-1.69-2.53,0-4.78a42,42,0,0,0,12.46,4.63A22.67,22.67,0,0,0,26,132.07c9.28-3.54,16.89-9.45,23.47-16.77a70.7,70.7,0,0,0,9.46-13.79c2.78-5.12,6.64-9.42,10.58-13.64a14,14,0,0,1,2.36-1.69c.08.13.15.26.22.39"/><path class="cls-12" d="M135.51,73.18c3.94-6.7,28.41-21.18,34.8-20.64a25.76,25.76,0,0,1-1.79,7.86c-.21.56-1.51.81-2.35,1-3.11.71-6.31,1.09-9.34,2a81.62,81.62,0,0,0-18.72,8.37c-.73.46-1.53.82-2.6,1.38"/><path class="cls-12" d="M69.11,25.25c.35.07.7,0,.85.18,2.18,2.34,4.79,2.11,7.34,1,3.3-1.4,6.84-1,10.21-1.76.46-.1,1,.19,1.91.4-.58.52-.83.93-1.16,1-4.35,1.08-8.7,2.12-13.06,3.16a6.06,6.06,0,0,1-4.51-.65c-1.24-.71-2.19-1.67-1.58-3.36"/><path class="cls-12" d="M164.69,26.17a2.78,2.78,0,0,1-1.88,3.29,7.36,7.36,0,0,1-5.62.3c-4-1.36-8-2.83-12.68-4.48,1-.51,1.49-.92,1.86-.86a29.83,29.83,0,0,1,3.71.88c2.27.68,4.53,1.41,6.78,2.14a7.09,7.09,0,0,0,6.31-.72,9.13,9.13,0,0,1,1.52-.55"/><path class="cls-12" d="M84.12,89.66c-2.41-5-2.41-5-8.55-8.3.75-.28,1.33-.73,1.72-.6,3.59,1.23,7.16,2.56,11.14,4l-4.31,4.9"/><path class="cls-13" d="M151,48a16,16,0,0,1-6.74,12.77,11.72,11.72,0,0,1-17-3.26c-4.59-7-2.46-17.6,4.51-22.21a11.7,11.7,0,0,1,16.79,3.43A16.31,16.31,0,0,1,151,48"/><path class="cls-13" d="M85.44,48.91A16.21,16.21,0,0,1,89.8,37.49c7.11-7.62,17.69-4.87,20.86,4.27a16.41,16.41,0,0,1-2,15.19c-3.3,4.86-8.67,7-13.76,5.68s-8.77-6.06-9.32-11.71c-.06-.64-.06-1.28-.09-2"/><path class="cls-13" d="M109.69,77.5l-3.2-.55c.55-5.72,2.11-10.73,6.91-14.14a7.9,7.9,0,0,1,9.5.26c3.83,2.72,5.48,6.75,6.52,11.12a2,2,0,0,1,0,.81c-.8,4.58-6.15,9.32-10.85,9.64q-6.52.44-8.44-5.82c-.13-.44-.28-.86-.44-1.32"/><path class="cls-14" d="M87.44,47.73c0-4.09,1-6.7,3.06-8.83,2.59-2.69,5.74-4,9.45-3a9.35,9.35,0,0,1,7.13,7.23A11.3,11.3,0,0,1,103,55c-3.14,2.27-6.55,2.8-10.08,1a9.32,9.32,0,0,1-5.43-8.32"/><path class="cls-14" d="M146.66,46.75a10.33,10.33,0,0,1-5.75,8.86,9.06,9.06,0,0,1-13.11-5.25,11.15,11.15,0,0,1,4.84-13.07c6.46-3.77,14,.74,14,9.46"/><path class="cls-14" d="M129.32,75.47c-1.41,4-3.55,6.85-7.62,8.22-2.69-4.22-6.7-4.58-11.27-4-.06-.91-.11-1.64-.16-2.35l19-1.9"/><path class="cls-15" d="M142.53,37.81a14.9,14.9,0,0,1,2.89,1.24,3.18,3.18,0,0,1,0,5.34,5.18,5.18,0,0,1-5.47.47,3.37,3.37,0,0,1,.07-6.35,16.23,16.23,0,0,1,2.55-.7"/><path class="cls-15" d="M107.48,41.54a3.36,3.36,0,0,1-1.72,2.88,5.27,5.27,0,0,1-5,.46,3.37,3.37,0,0,1-.52-6.2,5.11,5.11,0,0,1,5.45-.07,3.22,3.22,0,0,1,1.76,2.93"/><path class="cls-15" d="M144.85,49a10,10,0,0,1-2.21,1.26,1.45,1.45,0,0,1-1.77-1.5,1.2,1.2,0,0,1,1.55-1.09A11.94,11.94,0,0,1,144.85,49"/><path class="cls-15" d="M105.05,49.4a10.35,10.35,0,0,1-2.37.74c-.76,0-1.43-.41-1.31-1.33a1.26,1.26,0,0,1,1.78-1.07c.55.18.95.8,1.9,1.66"/><path class="cls-16" d="M165.94,23c-.71,3.79-2.11,5.09-5.77,5a36.55,36.55,0,0,1-6.49-.87c-2.85-.59-5.66-1.39-8.7-2.16a13,13,0,0,1,1.07-1.39,17.71,17.71,0,0,0,4.25-6.64A10.23,10.23,0,0,1,156.38,11a23,23,0,0,1,8.53-1.8,7.92,7.92,0,0,1,2.17.21c3.13.8,4,2.79,2.38,5.85,1.24,1.36,3.18,2.57,1.77,5-1.17,2-3.22,2.23-5.29,2.77"/><path class="cls-16" d="M69.37,23.1a39.36,39.36,0,0,1-3.85-1c-3.43-1.33-3.89-4-1.19-6.51l.61-.52c-1-3.42-.36-4.75,3.09-5.43a16,16,0,0,1,13.34,3.47A4.78,4.78,0,0,1,82.86,15a27.57,27.57,0,0,0,6.62,9.93c-5.13,1.32-9.91,2.66-15,2.44-3.31-.15-4.28-.89-5.13-4.27"/><path class="cls-17" d="M70,22.67a4.45,4.45,0,0,0,4.58,2.51c3-.17,6-.5,9-.66a10.2,10.2,0,0,1,4.16.63,6.09,6.09,0,0,1-1.19.61c-2.57.68-5.12,1.41-7.71,1.94a19.53,19.53,0,0,1-4.64.37c-3.75-.16-5-1.4-5.34-5.2a23.83,23.83,0,0,1-3.61-1.09c-2.67-1.28-3-3.7-.81-6.13a8.18,8.18,0,0,1,.06,1.1c-.22,2.11.21,3,2.16,3.4a41.27,41.27,0,0,0,5.45.58,27.86,27.86,0,0,1,8.54,1.68c-1.68.92-3.41.17-5.1.24s-3.41,0-5.58,0"/><path class="cls-17" d="M146.86,25.36c2.88-1.31,5.84-.72,8.79-.55,1.64.1,3.28.32,4.92.35a4,4,0,0,0,3.86-2.26c-3.67-.76-7.16.17-10.67-.47a5.8,5.8,0,0,1,1.35-.61c2.52-.39,5-.76,7.59-1.07,1.45-.19,2.93-.17,4.36-.41,2.79-.48,3.14-.95,3.18-3.74,1.81,1.63,1.81,3.4-.28,4.72A22.75,22.75,0,0,1,165.63,23c-.28,3.72-1.51,5.09-5.45,5.06A42.77,42.77,0,0,1,152.35,27c-1.86-.36-3.66-1.05-5.49-1.59"/><path class="cls-17" d="M67.16,9.41c-.6,2.83-.35,3.44,1.74,4.26,1.18.47,2.46.69,3.68,1,2.68.77,5.4,1.46,7.67,3.69-3.15-.82-6-1.62-8.92-2.3a37.28,37.28,0,0,0-4.6-.71,2.57,2.57,0,0,1-2.37-1.92,2.5,2.5,0,0,1,1.1-2.85c.42-.33.86-.62,1.7-1.21"/><path class="cls-17" d="M154.6,18.1c2.12-2,4.85-2.7,7.58-3.43a28.76,28.76,0,0,0,3.68-1.07c2-.83,2.25-1.65,1.32-4.23a15.9,15.9,0,0,1,2.24,1.53,2.48,2.48,0,0,1-.82,4.24,6.54,6.54,0,0,1-1.32.33L154.6,18.1"/></g></g></svg>