<svg xmlns="http://www.w3.org/2000/svg" xmlns:xlink="http://www.w3.org/1999/xlink" viewBox="0 0 215.79 212.5"><defs><style>.cls-1{fill:none;}.cls-2{isolation:isolate;}.cls-3{clip-path:url(#clip-path);}.cls-4{fill:#4b3df9;opacity:0.2;mix-blend-mode:multiply;}.cls-5{fill:#fff;}</style><clipPath id="clip-path" transform="translate(0 -0.75)"><path class="cls-1" d="M177.81,74.63a75,75,0,0,1-23.3,54.55c-.74.71-1.49,1.4-2.28,2.08-1.54,1.36-3.14,2.64-4.79,3.86s-3.15,2.22-4.8,3.25a72.6,72.6,0,0,1-18.41,8.15l-1.07.28a70.42,70.42,0,0,1-12.06,2.14q-3.25.31-6.59.32c-.24,0-.48,0-.73,0h-.89c-.93,0-1.83,0-2.75-.12s-1.6-.11-2.39-.18h-.06a72.68,72.68,0,0,1-11.36-2c-1.08-.29-2.12-.57-3.17-.92a71.42,71.42,0,0,1-17.68-8.22c-1-.65-2-1.31-3-2-2-1.41-3.89-2.92-5.73-4.52-.77-.67-1.52-1.35-2.26-2.07A74.93,74.93,0,0,1,31.2,74.63C31.2,33.41,64,0,104.51,0S177.81,33.41,177.81,74.63Z"/></clipPath></defs><title>penguin-profile</title><g class="cls-2"><g id="Слой_2" data-name="Слой 2"><g id="Слой_1-2" data-name="Слой 1"><g class="cls-3"><path class="cls-4" d="M177.46,75.38a75,75,0,0,1-23.3,54.55c-.74.71-1.49,1.41-2.28,2.08-1.54,1.36-3.13,2.64-4.79,3.86s-3.15,2.23-4.79,3.25a72.12,72.12,0,0,1-18.42,8.15c-.36.11-.71.2-1.07.29a71.4,71.4,0,0,1-12.06,2.14q-3.25.31-6.59.31h-.73c-.29,0-.59,0-.89,0-.93,0-1.83,0-2.75-.12s-1.59-.1-2.39-.18c0,0-.05,0-.06,0a71.53,71.53,0,0,1-11.36-2c-1.08-.28-2.12-.57-3.17-.92a71.06,71.06,0,0,1-17.68-8.22c-1-.65-2-1.31-3-2q-3-2.13-5.73-4.52c-.77-.68-1.52-1.36-2.26-2.08A74.93,74.93,0,0,1,30.85,75.38C30.85,34.16,63.68.75,104.16.75S177.46,34.16,177.46,75.38Z" transform="translate(0 -0.75)"/><path class="cls-5" d="M19.36,96c1.41,1.68,2.74,3.33,4.13,4.91,2.54,2.9,5.1,5.78,7.71,8.62a16.65,16.65,0,0,0,4.25,3.35,7.53,7.53,0,0,0,7.19.25,50.41,50.41,0,0,0,4.47-2.39q5.78-3.49,11.19-7.54a22.31,22.31,0,0,0,6.83-7.44,13.88,13.88,0,0,1,.81-1.25c-.18-.28-.35-.56-.54-.83a40.8,40.8,0,0,1-7.35-19,43.52,43.52,0,0,1,8.59-31.81A41.71,41.71,0,0,1,85.16,28.54a37.12,37.12,0,0,1,9.18-2.18,93.19,93.19,0,0,1,18.14-.22,47.74,47.74,0,0,1,14.27,2.93c12.59,5,20.48,14.23,23.52,27.55,2.94,12.93,0,24.72-7.53,35.43-.66.94-1.38,1.83-2.11,2.79a9.19,9.19,0,0,0,3.55,2.54,49.27,49.27,0,0,1,8.59,5,58.87,58.87,0,0,0,15.8,8,21.43,21.43,0,0,0,4,.8,8.61,8.61,0,0,0,6.09-1.83,30.44,30.44,0,0,0,7.05-6.87c1.63-2.15,3.39-4.21,5.14-6.38a8.06,8.06,0,0,0-.76-.3l-19.6-5.88c-1.55-.46-1.15-.34-1.23-3-.1-3-.06-6.06.07-9.09,0-.83,0-1.54,0-2.39L168,75.07a2.78,2.78,0,0,1-2.18-3.25,4.39,4.39,0,0,1,.38-1.28A6,6,0,0,1,173,67.36a19.7,19.7,0,0,1,2.1.67,4.83,4.83,0,0,0,4.53-.4c.47-.3,1-.56,1.43-.84a6.92,6.92,0,0,1,5.5-.86,4.36,4.36,0,0,0,4.36-1,12.57,12.57,0,0,1,2-1.45,5.19,5.19,0,0,1,5-.6,7.24,7.24,0,0,0,1.8.48,7.06,7.06,0,0,0,3.25-.32,11.83,11.83,0,0,1,2.25-.52,5.43,5.43,0,0,1,4.17,1.54,17.14,17.14,0,0,0,2,1.53c2.49,1.6,3.88,3.75,3.47,6.78a3.94,3.94,0,0,0,.5,2.69,4,4,0,0,1,.55,2.25c-.09,5-.15,9.94-.25,14.91a2.19,2.19,0,0,1-.42,1.23c-1.78,2.42-3.62,4.79-5.39,7.21a1.22,1.22,0,0,1-1.51.51c-1.72-.53-3.45-1-5.17-1.55l-.83-.22a32.4,32.4,0,0,0-3.39,5.32,18,18,0,0,0-1.11,2.91,57.32,57.32,0,0,1-3.17,8.23c-1.1,2.56-2.16,5.15-3.46,7.61a30.44,30.44,0,0,1-12.44,13.1,12.44,12.44,0,0,1-12.42,0c-1-.53-2-1.14-3-1.71l-1-.58c.34,1.64.65,3.12.95,4.61a99.48,99.48,0,0,1,1.74,13.32,92.27,92.27,0,0,1,0,12.88,63.15,63.15,0,0,1-5.05,21.45,35,35,0,0,1-5.73,9,5.28,5.28,0,0,0-.77,1.21,52.51,52.51,0,0,1-3.46,7.36,21.26,21.26,0,0,1-4.62,5.67,6.69,6.69,0,0,1-4.48,1.71c-.47,0-1.24,0-1.7,0a11.5,11.5,0,0,1-6.81-1.85,1.79,1.79,0,0,0-1.73-.2,69.1,69.1,0,0,1-14.46,3.26,78.74,78.74,0,0,1-14.4.37,75.6,75.6,0,0,1-19.06-3.7,1.21,1.21,0,0,0-1.22.14c-2.94,2.06-6.27,2.14-9.63,1.92a8.53,8.53,0,0,1-3.36-1.54,18.3,18.3,0,0,1-4.65-5.63c-1.13-2.09-2.08-4.28-3.13-6.41a3.76,3.76,0,0,0-.86-1.26c-6.22-5.19-10.07-12-12.74-19.55a47.36,47.36,0,0,1-2.48-14.61c-.06-2.13-.31-4.25-.34-6.38a61.73,61.73,0,0,1,2.22-17.26l1.13-4.22c0-.17.06-.34.13-.74-.57.42-1,.72-1.39,1a23.9,23.9,0,0,1-6.07,3.33,13.69,13.69,0,0,1-15.53-4.63,48,48,0,0,1-6.58-11.22c-2.59-5.91-4.68-12-6.74-18.11a36,36,0,0,0-4.25-8.45A21.49,21.49,0,0,0,4.78,93a4.57,4.57,0,0,0-1.44-1c-.9-.42-1.84-.73-2.75-1.13-.75-.33-.78-.73-.11-1.17,1.08-.71,2.18-1.38,3.27-2.07.35-.21.66-.47,1-.66a2.66,2.66,0,0,1,1.09-.39c3.63,0,7.27,0,10.91,0a2.79,2.79,0,0,1,.81.12l7,2.23c.14.05.29.07.42.12.91.36,1,.83.24,1.43-1,.78-2,1.55-3,2.28a2.67,2.67,0,0,0-1,1.3A2.69,2.69,0,0,1,19.36,96m135.76,94.55s.18-.4.23-.46c.17-.33.34-.65.5-1a45.63,45.63,0,0,0,2.63-7.35,80.82,80.82,0,0,0,2.13-27.23A103.4,103.4,0,0,0,158,137.9a94.57,94.57,0,0,0-9.23-24.25,53.07,53.07,0,0,0-9-12.15c-1.47-1.44-3.13-2.7-4.71-4-.76-.63-.82-1.15-.14-1.85.49-.51,1-1,1.47-1.51,9.24-10.78,12.19-23.18,9-37A26.69,26.69,0,0,0,138,43.79c-5.36-5.21-11.7-7.22-19-5.78a25.6,25.6,0,0,0-12.5,6.69c-1.41,1.31-1.16,1.36-2.73.08-4.58-3.73-9.65-6.35-15.57-7a19.39,19.39,0,0,0-14,3.62,24.23,24.23,0,0,0-8,10.46,40.33,40.33,0,0,0-3,16.61A55.14,55.14,0,0,0,65.71,84,57.31,57.31,0,0,0,71.4,96.69c.58,1,.54,1.13-.29,1.88-.58.52-1.18,1-1.74,1.56a59.11,59.11,0,0,0-12.06,16.45A89.73,89.73,0,0,0,47.59,163a65.79,65.79,0,0,0,1.95,12.8c1.65,6.37,4.13,12.3,8.28,17.34.49.6,1,1.15,1.54,1.73a1.38,1.38,0,0,0,0-.81c-.7-2.82-1.45-5.63-2.09-8.47a11.27,11.27,0,0,1,.44-6.93,4.73,4.73,0,0,1,4.18-3.09c.3,0,.5-.09.76-.1,3-.1,5.14,1.14,5.94,3.83a13.25,13.25,0,0,0,.63,1.69,2.75,2.75,0,0,0,1.17,1.34,11.17,11.17,0,0,0,.14-1.41c0-1.27-.16-2.54-.12-3.8.06-1.72.51-3.34,2.21-4.08,3.49-1.54,7.36-.08,8.3,3.95.23,1,.37,2,.56,3,.27-.71.52-1.41.8-2.08A4.1,4.1,0,0,1,85,175.37a9.87,9.87,0,0,1,4.36-.1,3.08,3.08,0,0,1,2.61,2.52,6.59,6.59,0,0,1,.2.88,24.18,24.18,0,0,1-.09,8.14,62.77,62.77,0,0,1-4.25,13.75A23.17,23.17,0,0,1,83,208.28s0,.07,0,.19a74.52,74.52,0,0,0,23.74,3.8,73.38,73.38,0,0,0,23.86-3.87c-2.32-2.1-3.49-4.73-4.75-7.3a61.81,61.81,0,0,1-3.25-9.15,32.54,32.54,0,0,1-1.45-6.77,22.2,22.2,0,0,1,.32-7.36,3.34,3.34,0,0,1,2.77-2.68,8.83,8.83,0,0,1,3.51,0,4.42,4.42,0,0,1,3.5,2.75c.21.54.44,1.08.69,1.7.22-1.08.37-2.07.63-3a5.43,5.43,0,0,1,4.87-4.06,11.07,11.07,0,0,1,2.63.2,3.19,3.19,0,0,1,2.48,2,7.79,7.79,0,0,1,.51,2.38c.07,1.31,0,2.62,0,3.92,0,.38-.08.8.24,1.13a4,4,0,0,0,1.43-2.5,5.39,5.39,0,0,1,5-4.22c3.1-.36,5.54.77,6.49,4.14a12.16,12.16,0,0,1,.23,5.33c-.29,1.72-.86,3.93-1.23,5.64m.75,1.16a8.51,8.51,0,0,0,.55-.88c.21-.34.43-.67.63-1A45.92,45.92,0,0,0,161.78,178a78,78,0,0,0,2.29-22.53,106.82,106.82,0,0,0-1.15-12.26,98.38,98.38,0,0,0-7.6-25.88A66.61,66.61,0,0,0,144,99.65c-1.27-1.4-2.68-2.66-4.05-4-.73-.7-.76-.82-.07-1.61.42-.48.81-1,1.19-1.48,7.59-10.12,10.89-21.45,8.54-34.09-2.52-13.6-10.21-23.15-22.82-28.47-5.7-2.41-11.74-3.2-17.85-3.41a81.58,81.58,0,0,0-13.53.4A38.79,38.79,0,0,0,84.9,29.65,42.46,42.46,0,0,0,63.25,50.26a41.73,41.73,0,0,0-4.11,25.22,40.2,40.2,0,0,0,7.18,17.75c.76,1.07.74,1.31.05,2.39-2.53,4-5.08,8-7.56,12.11a53.37,53.37,0,0,0-5,10.44c-2.56,7.39-4.9,14.86-6.82,22.45a57.72,57.72,0,0,0-1.77,15.87c.08,2.46.29,4.92.37,7.38a46.5,46.5,0,0,0,5.12,19.42c.1.19.22.37.33.56-.25-1-.62-2-1-3a70.39,70.39,0,0,1-3.59-24.57,92.27,92.27,0,0,1,9.62-39.55A60.2,60.2,0,0,1,70.47,97.82a2,2,0,0,0,.23-.29c-.16-.29-.32-.58-.47-.87-1-2-2.18-4-3.08-6.07-4.27-9.85-6.07-20.09-4.29-30.81a33,33,0,0,1,5-13.15C73.33,38.48,82.11,35,91.53,37.34a32.37,32.37,0,0,1,12.4,6.31l1.09.86c1.66-1.28,3.15-2.55,4.76-3.64a23.68,23.68,0,0,1,12.89-4.31,21.11,21.11,0,0,1,13.93,4.68A28.31,28.31,0,0,1,146.13,56a39.6,39.6,0,0,1,.64,19.61,39.74,39.74,0,0,1-10.62,20.27c-.2.2-.38.42-.6.66l.46.38a37.71,37.71,0,0,1,5.54,5A60.78,60.78,0,0,1,151,115.7a102.69,102.69,0,0,1,10.7,40.59,85.19,85.19,0,0,1-.79,18.67,55.27,55.27,0,0,1-4.37,15c-.12.25-.58,1.48-.67,1.74m45.38-92.52a7.75,7.75,0,0,0-1.85-.52A17.09,17.09,0,0,1,194.2,97c-1.46-.72-2.37-.48-3.2.5-1.47,1.77-3,3.49-4.38,5.33a32.93,32.93,0,0,1-7.16,7.08,9.9,9.9,0,0,1-7.32,2.13,21.2,21.2,0,0,1-4-.82,57.69,57.69,0,0,1-13.32-6.33c-2.27-1.5-4.55-3-6.85-4.48-1-.66-2.16-1.2-3.24-1.8a1.22,1.22,0,0,0,.34.72,66.48,66.48,0,0,1,9.41,14,94.32,94.32,0,0,1,7,18.56,1.91,1.91,0,0,0,.87,1.35c1.61.89,3.16,1.89,4.81,2.71a11.94,11.94,0,0,0,10.91-.23,29.46,29.46,0,0,0,12.05-12.66c1.21-2.26,2.14-4.66,3.19-7a68.75,68.75,0,0,0,3.37-8.62,20.35,20.35,0,0,1,3-6.2c.48-.66.94-1.33,1.5-2.12M60.47,103l-.17-.17c-.4.29-.81.56-1.18.88a79.84,79.84,0,0,1-9.9,6.87q-2.92,1.8-6,3.32a8.41,8.41,0,0,1-8.7-.47,22.65,22.65,0,0,1-3.72-3,115.2,115.2,0,0,1-8.93-10.06c-1-1.25-2.09-2.41-3.18-3.56A2.24,2.24,0,0,0,17.08,96c-2.23,0-4.47,0-6.7-.11-.68,0-1.35-.13-2.18-.21.15.29.22.45.31.59a38.48,38.48,0,0,1,3.86,7.86c2,5.81,4,11.61,6.39,17.24a46.23,46.23,0,0,0,6.83,11.71c2.92,3.47,6.56,5.31,11.15,4.79a13.34,13.34,0,0,0,5.75-1.74c1.78-1.11,3.46-2.39,5.19-3.57a2.21,2.21,0,0,0,.86-1.25c.5-1.68,1.05-3.34,1.54-5A100.48,100.48,0,0,1,54.41,114a81.63,81.63,0,0,1,5.48-10c.21-.33.39-.68.58-1m61.44,78.28a9.67,9.67,0,0,0,0,1.79,36.6,36.6,0,0,0,.79,5.41,61.48,61.48,0,0,0,5.8,15.77,11.49,11.49,0,0,0,10.19,6.31,5.11,5.11,0,0,0,3.64-1.3,21.12,21.12,0,0,0,2.88-2.95A34.47,34.47,0,0,0,151,194.55c.43-1.54.88-3.08,1.25-4.64s.78-3.38,1.1-5.08a11.17,11.17,0,0,0-.16-5c-.44-1.6-1.2-2.87-2.76-3.22a3.78,3.78,0,0,0-4.27,2,13.53,13.53,0,0,0-.66,1.78,5.71,5.71,0,0,1-2.15,3,1.91,1.91,0,0,1-3.19-1.26,5.41,5.41,0,0,1-.13-1.33c0-.79.12-1.57.11-2.35a15.84,15.84,0,0,0-.19-2.67,2.64,2.64,0,0,0-2.33-2.22,3.13,3.13,0,0,0-2.61.9,5.88,5.88,0,0,0-1.83,4c-.13,1-.16,2.08-.23,3.12a1.58,1.58,0,0,1-1.08,1.53,1.52,1.52,0,0,1-1.8-.49,3.76,3.76,0,0,1-.62-1.15c-.32-.93-.48-1.93-.87-2.83-.87-2-1.71-2.5-3.91-2.42a2.08,2.08,0,0,0-2.31,1.94c-.19,1-.29,2-.42,3.12m-48.52-1.1a1.1,1.1,0,0,1,0,.32,12.3,12.3,0,0,1-.27,2.11,1.7,1.7,0,0,1-2.27,1.19,3.8,3.8,0,0,1-1.23-.71,6,6,0,0,1-1.71-2.7,12.12,12.12,0,0,0-.66-1.77,3.78,3.78,0,0,0-4.17-2,3.55,3.55,0,0,0-2.62,2.46,10.23,10.23,0,0,0-.37,6.28c.66,2.83,1.4,5.64,2.11,8.46a37.15,37.15,0,0,0,5,11.25,18.11,18.11,0,0,0,3.52,4,5.74,5.74,0,0,0,3.92,1.5,11.16,11.16,0,0,0,8.7-4.11,29.26,29.26,0,0,0,4.28-8.17c1-2.56,1.77-5.21,2.55-7.86a26.85,26.85,0,0,0,1.06-10.95,7.58,7.58,0,0,0-.45-2,1.86,1.86,0,0,0-.92-1c-1.66-.58-4-.6-5,2-.36,1-.58,2-.93,3a3.41,3.41,0,0,1-.79,1.29,1.58,1.58,0,0,1-2.68-1c-.07-.4,0-.82-.06-1.23-.17-1.25-.31-2.51-.57-3.75a4.28,4.28,0,0,0-1.9-2.65,2.81,2.81,0,0,0-4.53,1.79,12,12,0,0,0-.17,2.33c0,.63.08,1.26.13,1.9m128.84-92a4.34,4.34,0,0,0,.7-1.09,6.61,6.61,0,0,0,.14-1.88c-.06-.92-.28-1.84-.32-2.77a1.65,1.65,0,0,1,1.51-1.7,4,4,0,0,1,3.09,1.15c.36.33.68.68,1,1a.61.61,0,0,0,.89.12,2.31,2.31,0,0,1,2.06-.34,1.48,1.48,0,0,0,1.84-1.39,2.28,2.28,0,0,1,.81-2.06,2.71,2.71,0,0,0,.55-3.3,6.62,6.62,0,0,1-.7-4,5.57,5.57,0,0,0-2.56-5.14c-.9-.69-1.87-1.31-2.72-2a4.58,4.58,0,0,0-3.89-1.11,7.3,7.3,0,0,0-1.28.33,7.58,7.58,0,0,1-5.58-.08c-.13-.06-.28-.07-.42-.12a4,4,0,0,0-2.69,0,9.5,9.5,0,0,0-3,1.82A7.42,7.42,0,0,1,189.21,67a6.45,6.45,0,0,1-3.15-.17,5.75,5.75,0,0,0-3.95.5c-.68.37-1.37.73-2,1.15a5.7,5.7,0,0,1-5.37.46c-.75-.29-1.55-.45-2.31-.72-1.93-.7-4.8,1.24-5.46,3a2.5,2.5,0,0,0-.13.54,2,2,0,0,0,.72,2.09,2.15,2.15,0,0,0,2.37-.14c.3-.22.59-.46.9-.65a2,2,0,0,1,2.71.16,3.55,3.55,0,0,1,1.33,2.13,6.08,6.08,0,0,0,.16.87c.11.29.25.66.48.78s.68-.08.92-.4.4-.54.62-.78a1.65,1.65,0,0,1,2.27-.45c.68.36,1.36.74,2,1.16a2.25,2.25,0,0,1,1,3,3.53,3.53,0,0,0-.28.85c0,.3,0,.74.19.89a1,1,0,0,0,.9,0,10.72,10.72,0,0,0,1.54-1.24c.37-.35.66-.8,1-1.18a2.79,2.79,0,0,1,3.12-.77,5.28,5.28,0,0,1,2.47,1.6,1.06,1.06,0,0,0,1.14.46c1.8-.49,3,.41,4.08,1.74.18.24.31.53.5.77.45.6,1.05.51,1.36-.18a1.33,1.33,0,0,1,1.87-.81A2.91,2.91,0,0,1,202,85c-.09.51-.3,1-.43,1.5a1.27,1.27,0,0,0,.69,1.68m6.2,12.09V98.94l0-5.94c0-2.65,0-5.3,0-8,0-.36.05-.71-.31-1-.57-.46-1.06-1-1.61-1.52a2.56,2.56,0,0,0-2.75-.66c0,.52,0,1,0,1.46a21.91,21.91,0,0,1,.23,2.89,5.39,5.39,0,0,1-.66,2.08,1.38,1.38,0,0,1-1.62.68,1.46,1.46,0,0,1-1.2-1.3,8.41,8.41,0,0,1,.16-1.86,10.33,10.33,0,0,0,.27-1.52,1.56,1.56,0,0,0-1.58-1.62.66.66,0,0,0-.16.26,1.4,1.4,0,0,1-1.2,1.29,1.74,1.74,0,0,1-1.74-.73c-.25-.32-.43-.69-.67-1a2.8,2.8,0,0,0-3-1.32,1.85,1.85,0,0,1-2-.7,4.27,4.27,0,0,0-2-1.35,2,2,0,0,0-2.37.66,15.05,15.05,0,0,1-1.4,1.58,6,6,0,0,1-1.56,1,1.58,1.58,0,0,1-1.83-.39A1.68,1.68,0,0,1,181,80.2c.09-.32.24-.62.35-.94a1.66,1.66,0,0,0-.7-1.92c-.51-.32-1.06-.59-1.58-.89-.73-.43-.92-.4-1.49.27a8.81,8.81,0,0,1-.79.93,1.56,1.56,0,0,1-2.71-.85c-.09-.36-.13-.73-.2-1.1a2.47,2.47,0,0,0-1.21-1.78,1.37,1.37,0,0,0-.92-.17,1.87,1.87,0,0,0-1.43,1.93c0,2.61-.1,5.23-.13,7.84,0,1.71,0,3.43,0,5.24l38.21,11.47m1-1a5.55,5.55,0,0,0,.45-.42c1.45-1.92,2.92-3.83,4.33-5.79a2.47,2.47,0,0,0,.42-1.33c.06-3.66.08-7.32.11-11a3.09,3.09,0,0,0-.11-.63c-.54.22-.37.63-.4,1a3.15,3.15,0,0,1-.25,1.38,3.05,3.05,0,0,1-2.62,1.39c-.26,0-.51-.05-.77-.05-.86,0-1.12.24-1.13,1.1,0,1.08,0,2.17,0,3.25v11.1M5.1,88,1.56,90.19l6.27,2.54a7.85,7.85,0,0,1,1.34-.29c3.45,0,6.89.12,10.33.17a4.57,4.57,0,0,0,.71-.13c-1.09-1.49-2.11-2.84-3.08-4.23a1.54,1.54,0,0,0-1.64-.7,24.55,24.55,0,0,1-4.37.09,49.83,49.83,0,0,0-5,0c.62,1.19,1.17,2.23,1.72,3.27a3.86,3.86,0,0,1,.36.81.59.59,0,0,1-.2.54.61.61,0,0,1-.57-.13,3.14,3.14,0,0,1-.46-.75L5.1,88m147.67,88.8a9.91,9.91,0,0,1,1.77,5.7,18.13,18.13,0,0,1-.7,5c-1.09,4.17-1.91,8.43-3.75,12.37-1.67,3.6-3.49,7.08-6.51,9.73-1.4,1-.18.3-.07.29a12.41,12.41,0,0,0,3.63-3.43,59.38,59.38,0,0,0,3.21-5.22,33,33,0,0,0,2.08-4.8c.63-1.83,1.09-3.72,1.55-5.6.5-2.08,1-4.18,1.38-6.29a11.25,11.25,0,0,0-.59-5.69,3.6,3.6,0,0,0-2-2M68.69,208.68a37.14,37.14,0,0,1-7.06-13.34c-1-3.16-1.72-6.41-2.48-9.64a11.45,11.45,0,0,1,0-5.55,29.76,29.76,0,0,1,1.17-3.1A3.1,3.1,0,0,0,58.63,179a9.43,9.43,0,0,0-.49,5.83q1.22,5.39,2.71,10.72a33.85,33.85,0,0,0,5.71,11.16,7.7,7.7,0,0,0,2.13,2m-48.47-115L8.06,93.37l-.36,1.4c.76,0,1.38.09,2,.1,3,0,6.07.08,9.1.1.76,0,1.19-.43,1.42-1.31m4.11-3.81c-2.1-.64-3.94-1.37-5.87-1.81l-.12.2c.95,1.3,1.9,2.6,2.91,4l3.08-2.35m117.83,93c-.06-.61-.18-1.19-.18-1.77,0-.89.06-1.78.13-2.67a6.81,6.81,0,0,0-.36-3.07,2.31,2.31,0,0,0-2-1.77c1.29,1.41,1.31,3.43,1.28,4.7,0,.67-.06,1.33-.06,2a8.87,8.87,0,0,0,.08,1.71c.09.51.33,1,1.07.87m-70.76.08c.86-.19,1-.85,1-1.53,0-1.46-.12-2.91,0-4.36a12.5,12.5,0,0,1,.56-2.46,6,6,0,0,1,.33-.74,2.28,2.28,0,0,0-1.52,1.67,11.6,11.6,0,0,0-.29,2.42c0,1.62,0,3.25,0,5M127.85,176a3.3,3.3,0,0,1,.78.73,10.77,10.77,0,0,1,1.4,3.46c.09.33.2.66.31,1,.18.52.41,1.06,1.21.95,0-1.38-1.06-5.75-3.7-6.13M81.9,182.2a1.11,1.11,0,0,0,1.1-.83c.26-.77.43-1.58.7-2.34s.63-1.53,1-2.3c-2,1.25-2.1,3.43-2.75,5.47" transform="translate(0 -0.75)"/><path class="cls-5" d="M75.72,60a15.87,15.87,0,0,1,3.84-10.49,10.7,10.7,0,0,1,8.69-3.85,11.2,11.2,0,0,1,7.57,3.41,16,16,0,0,1,4.67,9.65A16.64,16.64,0,0,1,99,68.46a12.76,12.76,0,0,1-4.22,5.07A10.73,10.73,0,0,1,81.65,73a15.51,15.51,0,0,1-5.56-9.63c-.21-1.09-.25-2.22-.37-3.33m3.08,7.9c2.45,4.84,7.41,7.45,11.94,6.35,4-1,8.09-5.41,8.15-8.81A13,13,0,0,1,78.8,67.94m7.28-17.16A3.34,3.34,0,0,0,83.31,52a2.37,2.37,0,0,0,.37,3.53A3.7,3.7,0,0,0,88.57,55a2.39,2.39,0,0,0-.3-3.54,3.1,3.1,0,0,0-2.19-.71m-3.93,11.6a6.25,6.25,0,0,0,1.17-.4,1.43,1.43,0,0,0,.8-1.37,1.49,1.49,0,0,0-1-1.32,2.35,2.35,0,0,0-2,.09,1.64,1.64,0,0,0-1,1.59,1.72,1.72,0,0,0,1.45,1.33c.15,0,.3,0,.63.08" transform="translate(0 -0.75)"/><path class="cls-5" d="M110,60a16.21,16.21,0,0,1,3.9-10.49,10.54,10.54,0,0,1,8.79-3.83,11.52,11.52,0,0,1,7.7,3.67,15.78,15.78,0,0,1,4.35,8.86,16.45,16.45,0,0,1-2,11.32,11.46,11.46,0,0,1-8.09,5.81,10.46,10.46,0,0,1-7.48-1.56,14.81,14.81,0,0,1-6.49-9.37A42.58,42.58,0,0,1,110,60m23.32,5.31c-4.56,7-13.87,8.5-20.16,2.57,1.62,3.77,6,6.93,10.3,6.61a11.24,11.24,0,0,0,9.86-9.18M120.5,50.62a4.33,4.33,0,0,0-2.72,1.24,2.39,2.39,0,0,0,.42,3.75,3.68,3.68,0,0,0,4.63-.46,2.37,2.37,0,0,0-.33-3.75,10.26,10.26,0,0,0-2-.78m-3.82,8.49-.06-.14a7.08,7.08,0,0,0-1.56.68,1.39,1.39,0,0,0,.25,2.45,2.36,2.36,0,0,0,2.12,0,1.68,1.68,0,0,0,1.07-1.55,1.71,1.71,0,0,0-1.27-1.39,3.47,3.47,0,0,0-.55-.08" transform="translate(0 -0.75)"/><path class="cls-5" d="M105.06,92.84a13.3,13.3,0,0,1-5.55-1.24,7.52,7.52,0,0,1-2.84-2.25,11.44,11.44,0,0,1-2.47-5.54,2.23,2.23,0,0,1,.25-1.5,22.74,22.74,0,0,1,4.64-5.94,10.58,10.58,0,0,1,6.35-2.8,7.82,7.82,0,0,1,4.66,1.06,12,12,0,0,1,2,1.42,28.61,28.61,0,0,1,4.5,5.07,1,1,0,0,1,.1,1.19,13.14,13.14,0,0,0-.73,2.33,10.67,10.67,0,0,1-3.37,5.52,11.6,11.6,0,0,1-7.51,2.68m-10-9.74a4.4,4.4,0,0,0,.49.41,24.65,24.65,0,0,0,7.52,3,8.57,8.57,0,0,0,6.05-1c1.44-.8,2.87-1.63,4.3-2.47.75-.44,1.48-.92,2.23-1.39a2.48,2.48,0,0,0-.22-.48,23.12,23.12,0,0,0-5-5.18,8.1,8.1,0,0,0-9.91.45,19.76,19.76,0,0,0-5.48,6.61m20.13.08c-.66.4-1.19.73-1.74,1-1.47.83-2.93,1.68-4.43,2.48a8.54,8.54,0,0,1-4.68,1,17.7,17.7,0,0,1-6.61-1.94l-2.48-1.22a9.68,9.68,0,0,0,3,5.05,10.63,10.63,0,0,0,9,2.1,9.6,9.6,0,0,0,8-8.46" transform="translate(0 -0.75)"/><path class="cls-5" d="M208.06,79.22a5.61,5.61,0,0,1-1.22-.57,1.47,1.47,0,0,1,0-2.39,2.13,2.13,0,0,1,2.28-.31,1.61,1.61,0,0,1,1.1,1.52,1.56,1.56,0,0,1-1,1.44,8.19,8.19,0,0,1-1.15.31m.2-2.43c-.59,0-1.07.36-1,.75s.58.64,1,.63,1-.39,1-.73-.42-.65-1-.65" transform="translate(0 -0.75)"/><path class="cls-5" d="M176.87,74a6.62,6.62,0,0,1-1.18-.51,1,1,0,0,1-.15-1.54,2.1,2.1,0,0,1,2.51-.34,1,1,0,0,1,.19,1.61,7.36,7.36,0,0,1-1.37.78m.56-1.31c0-.11,0-.21-.05-.32-.36,0-.75-.19-1.07.44l1.12-.12" transform="translate(0 -0.75)"/><path class="cls-5" d="M192.51,74.24a1.43,1.43,0,0,1-1.36,1.47,1.4,1.4,0,0,1-1.32-1.37A1.37,1.37,0,0,1,191.14,73a1.32,1.32,0,0,1,1.37,1.29m-1.32-.37a2.06,2.06,0,0,0-.28.51c0,.06.17.17.27.25.1-.13.24-.24.28-.38s-.14-.21-.27-.38" transform="translate(0 -0.75)"/><path class="cls-5" d="M202.85,67.37a.89.89,0,0,1,1,.85,1.21,1.21,0,0,1-1.14,1,.94.94,0,0,1-1-.81,1.12,1.12,0,0,1,1.19-1" transform="translate(0 -0.75)"/></g></g></g></g></svg>