<?xml version="1.0" encoding="utf-8"?>
<!-- Generator: Adobe Illustrator 23.1.0, SVG Export Plug-In . SVG Version: 6.00 Build 0)  -->
<svg version="1.1" id="Слой_1" xmlns="http://www.w3.org/2000/svg" xmlns:xlink="http://www.w3.org/1999/xlink" x="0px" y="0px"
	 viewBox="0 0 560 600" style="enable-background:new 0 0 560 600;" xml:space="preserve">
<style type="text/css">
	.st0{clip-path:url(#SVGID_2_);}
	.st1{clip-path:url(#SVGID_4_);}
	.st2{clip-path:url(#SVGID_6_);}
	.st3{clip-path:url(#SVGID_4_);fill:#F6E55C;}
	.st4{clip-path:url(#SVGID_10_);}
	.st5{clip-path:url(#SVGID_4_);fill:#141619;}
	.st6{clip-path:url(#SVGID_4_);fill:#C2BDDC;}
	.st7{clip-path:url(#SVGID_4_);fill:#8E8BAB;}
	.st8{clip-path:url(#SVGID_4_);fill:#E8E8E8;}
	.st9{clip-path:url(#SVGID_4_);fill:#D2D2D3;}
	.st10{clip-path:url(#SVGID_4_);fill:#242124;}
	.st11{opacity:0.38;clip-path:url(#SVGID_4_);}
	.st12{clip-path:url(#SVGID_14_);fill:#639ED7;}
	.st13{clip-path:url(#SVGID_4_);fill:#382F3E;}
	.st14{clip-path:url(#SVGID_4_);fill:#4F4E4F;}
	.st15{clip-path:url(#SVGID_4_);fill:#727272;}
	.st16{clip-path:url(#SVGID_4_);fill:#818282;}
	.st17{clip-path:url(#SVGID_4_);fill:#676774;}
	.st18{clip-path:url(#SVGID_4_);fill:#353542;}
	.st19{clip-path:url(#SVGID_4_);fill:#38303E;}
	.st20{clip-path:url(#SVGID_4_);fill:#E7E7E7;}
	.st21{clip-path:url(#SVGID_4_);fill:#E6B764;}
	.st22{clip-path:url(#SVGID_4_);fill:#EDD666;}
	.st23{opacity:0.3;clip-path:url(#SVGID_4_);}
	.st24{clip-path:url(#SVGID_16_);}
</style>
<g>
	<defs>
		<rect id="SVGID_1_" x="1.3" y="0.2" width="558.7" height="599.8"/>
	</defs>
	<clipPath id="SVGID_2_">
		<use xlink:href="#SVGID_1_"  style="overflow:visible;"/>
	</clipPath>
	<g class="st0">
		<defs>
			<rect id="SVGID_3_" x="-622.2" y="-416.9" width="1922.5" height="1218.9"/>
		</defs>
		<clipPath id="SVGID_4_">
			<use xlink:href="#SVGID_3_"  style="overflow:visible;"/>
		</clipPath>
		<g class="st1">
			<g>
				<defs>
					<rect id="SVGID_5_" x="-613.8" y="36.2" width="122.8" height="115.7"/>
				</defs>
				<clipPath id="SVGID_6_">
					<use xlink:href="#SVGID_5_"  style="overflow:visible;"/>
				</clipPath>
				<g class="st2">
					<defs>
						<rect id="SVGID_7_" x="-613.8" y="36.2" width="122.8" height="115.7"/>
					</defs>
					<clipPath id="SVGID_8_">
						<use xlink:href="#SVGID_7_"  style="overflow:visible;"/>
					</clipPath>
				</g>
			</g>
		</g>
		<path class="st3" d="M-552.3,117.8c-14,0-25.3-10.7-25.3-23.8c0-13.1,11.4-23.8,25.3-23.8S-527,80.9-527,94.1
			C-527,107.2-538.4,117.8-552.3,117.8 M-552.3,71.9c-13,0-23.6,9.9-23.6,22.2c0,12.2,10.6,22.2,23.6,22.2s23.6-9.9,23.6-22.2
			C-528.8,81.8-539.4,71.9-552.3,71.9"/>
		<path class="st3" d="M-546.1,107h-12.6c-4.1,0-7.5-3.2-7.5-7.1V88.1c0-3.9,3.4-7.1,7.5-7.1h12.6c4.1,0,7.5,3.2,7.5,7.1V100
			C-538.6,103.9-541.9,107-546.1,107 M-558.6,82.4c-3.4,0-6.1,2.6-6.1,5.7V100c0,3.2,2.7,5.7,6.1,5.7h12.6c3.4,0,6.1-2.6,6.1-5.7
			V88.1c0-3.2-2.7-5.7-6.1-5.7H-558.6z"/>
		<path class="st3" d="M-552.3,102.1c-4.7,0-8.6-3.6-8.6-8c0-4.4,3.8-8,8.6-8c4.7,0,8.6,3.6,8.6,8
			C-543.8,98.5-547.6,102.1-552.3,102.1 M-552.3,87.3c-3.9,0-7.2,3-7.2,6.7c0,3.7,3.2,6.7,7.2,6.7c3.9,0,7.2-3,7.2-6.7
			C-545.2,90.3-548.4,87.3-552.3,87.3"/>
		<path class="st3" d="M-542.6,86.4c0,0.7-0.6,1.2-1.3,1.2c-0.7,0-1.3-0.5-1.3-1.2c0-0.7,0.6-1.2,1.3-1.2
			C-543.2,85.2-542.6,85.7-542.6,86.4"/>
		<path class="st3" d="M-552.3,117.8c-14,0-25.3-10.7-25.3-23.8c0-13.1,11.4-23.8,25.3-23.8S-527,80.9-527,94.1
			C-527,107.2-538.4,117.8-552.3,117.8 M-552.3,71.9c-13,0-23.6,9.9-23.6,22.2c0,12.2,10.6,22.2,23.6,22.2s23.6-9.9,23.6-22.2
			C-528.8,81.8-539.4,71.9-552.3,71.9"/>
		<path class="st3" d="M-546.1,107h-12.6c-4.1,0-7.5-3.2-7.5-7.1V88.1c0-3.9,3.4-7.1,7.5-7.1h12.6c4.1,0,7.5,3.2,7.5,7.1V100
			C-538.6,103.9-541.9,107-546.1,107 M-558.6,82.4c-3.4,0-6.1,2.6-6.1,5.7V100c0,3.2,2.7,5.7,6.1,5.7h12.6c3.4,0,6.1-2.6,6.1-5.7
			V88.1c0-3.2-2.7-5.7-6.1-5.7H-558.6z"/>
		<path class="st3" d="M-552.3,102.1c-4.7,0-8.6-3.6-8.6-8c0-4.4,3.8-8,8.6-8c4.7,0,8.6,3.6,8.6,8
			C-543.8,98.5-547.6,102.1-552.3,102.1 M-552.3,87.3c-3.9,0-7.2,3-7.2,6.7c0,3.7,3.2,6.7,7.2,6.7c3.9,0,7.2-3,7.2-6.7
			C-545.2,90.3-548.4,87.3-552.3,87.3"/>
		<path class="st3" d="M-542.6,86.4c0,0.7-0.6,1.2-1.3,1.2c-0.7,0-1.3-0.5-1.3-1.2c0-0.7,0.6-1.2,1.3-1.2
			C-543.2,85.2-542.6,85.7-542.6,86.4"/>
		<g class="st1">
			<g>
				<defs>
					<rect id="SVGID_9_" x="-613.8" y="-28" width="122.8" height="115.7"/>
				</defs>
				<clipPath id="SVGID_10_">
					<use xlink:href="#SVGID_9_"  style="overflow:visible;"/>
				</clipPath>
				<g class="st4">
					<defs>
						<rect id="SVGID_11_" x="-613.8" y="-28" width="122.8" height="115.7"/>
					</defs>
					<clipPath id="SVGID_12_">
						<use xlink:href="#SVGID_11_"  style="overflow:visible;"/>
					</clipPath>
				</g>
			</g>
		</g>
		<path class="st3" d="M-552.3,53.7c-14,0-25.3-10.7-25.3-23.8c0-13.1,11.4-23.8,25.3-23.8S-527,16.8-527,29.9
			C-527,43-538.4,53.7-552.3,53.7 M-552.3,7.8c-13,0-23.6,9.9-23.6,22.2c0,12.2,10.6,22.2,23.6,22.2s23.6-9.9,23.6-22.2
			C-528.8,17.7-539.4,7.8-552.3,7.8"/>
		<path class="st3" d="M-567,22.9h5.3c0.2,0,0.4,0.1,0.5,0.3c1.2,2.5,2.7,4.7,4.5,6.7c0.2,0.2,0.5,0.2,0.6,0
			c0.6-1.3,1.6-4.4-0.4-6.6c-0.2-0.2-0.1-0.5,0.1-0.6c2-0.8,4-0.9,5.9-0.1c0.4,0.2,0.7,0.5,0.7,1l0.5,6.4c0,0.3,0.3,0.5,0.6,0.5
			c2.2-0.4,3.5-3.6,4.8-6.8c0.2-0.4,0.6-0.7,1-0.7h4.9c0.4,0,0.7,0.3,0.6,0.7c-0.5,2.3-2.9,5.3-4.2,6.8c-0.4,0.5-0.5,1.2,0,1.7
			l4.4,4.9c0.3,0.4,0,0.9-0.4,0.9h-5.5c-0.5,0-0.9-0.2-1.2-0.5l-3.9-3c-0.2-0.2-0.6-0.3-0.8-0.1c-0.5,0.5-0.4,1.2-0.7,2.8
			c-0.1,0.5-0.5,0.8-1,0.8h-3.8c-0.5,0-1.1-0.1-1.6-0.3c-2.2-1-8.1-4.4-11.4-14C-567.7,23.2-567.4,22.9-567,22.9"/>
		<path class="st3" d="M-552.3,53.7c-14,0-25.3-10.7-25.3-23.8c0-13.1,11.4-23.8,25.3-23.8S-527,16.8-527,29.9
			C-527,43-538.4,53.7-552.3,53.7 M-552.3,7.8c-13,0-23.6,9.9-23.6,22.2c0,12.2,10.6,22.2,23.6,22.2s23.6-9.9,23.6-22.2
			C-528.8,17.7-539.4,7.8-552.3,7.8"/>
		<path class="st3" d="M-567,22.9h5.3c0.2,0,0.4,0.1,0.5,0.3c1.2,2.5,2.7,4.7,4.5,6.7c0.2,0.2,0.5,0.2,0.6,0
			c0.6-1.3,1.6-4.4-0.4-6.6c-0.2-0.2-0.1-0.5,0.1-0.6c2-0.8,4-0.9,5.9-0.1c0.4,0.2,0.7,0.5,0.7,1l0.5,6.4c0,0.3,0.3,0.5,0.6,0.5
			c2.2-0.4,3.5-3.6,4.8-6.8c0.2-0.4,0.6-0.7,1-0.7h4.9c0.4,0,0.7,0.3,0.6,0.7c-0.5,2.3-2.9,5.3-4.2,6.8c-0.4,0.5-0.5,1.2,0,1.7
			l4.4,4.9c0.3,0.4,0,0.9-0.4,0.9h-5.5c-0.5,0-0.9-0.2-1.2-0.5l-3.9-3c-0.2-0.2-0.6-0.3-0.8-0.1c-0.5,0.5-0.4,1.2-0.7,2.8
			c-0.1,0.5-0.5,0.8-1,0.8h-3.8c-0.5,0-1.1-0.1-1.6-0.3c-2.2-1-8.1-4.4-11.4-14C-567.7,23.2-567.4,22.9-567,22.9"/>
		<path class="st5" d="M451.4,278.7c0.7,0.1,1.3,0.1,1.9,0.2c0.1-0.3,0.2-0.5,0.1-0.6c-7.2-13.6-14.3-27.2-21.6-40.7
			c-1.2-2.3-3.1-4.4-5-6.3c-3.9-4.1-7.9-8-11.8-12c-0.5-0.5-1.1-1-1.2-1.5c0-2.4-2-3-3.8-3.9c-3.1-1.4-6.3-2.8-9.4-4.3
			c-0.8-0.4-1.6-1-2.4-1.5c1.1-1.7,2.5-1.6,3.8-1.3c2.4,0.5,4.9,0.9,7.1,1.8c5.5,2.3,11.1,4.6,16.4,7.3c10.6,5.3,21,10.9,31.5,16.3
			c7.4,3.8,15.2,6.7,23.2,9.2c5.8,1.9,11.9,2.9,18.1,3.3c5.6,0.3,10.8-1.2,16.1-2.9c6-1.9,10.6-5.3,14.3-10
			c4.9-6.2,9.3-12.6,12.3-19.9c0.9-2.2,2.5-4.2,4-6.2c1.3-1.7,5.6-1.7,8.1,0c2,1.3,3.2,3.2,4.1,5.3c1.7,4.3,2.2,8.8,2.1,13.4
			c-0.1,18.3-5.6,35.3-14.7,51.4c-6.4,11.2-13.8,21.7-24.2,30.1c-1.9,1.5-3.8,2.9-5.8,4.4c-5.3,3.9-11.4,5.3-18,5
			c-8.8-0.5-16.9-3.1-23.5-9c-6.1-5.4-11.9-11.1-17.3-17.2c-1.6-1.8-2.7-3.9-3.9-5.9C451.1,281.8,450.9,280.3,451.4,278.7"/>
		<path class="st6" d="M9.2,184.1c1.2-1.6,2.6-3.1,4.2-4.5"/>
		<path class="st6" d="M25.7,172.5C25.7,172.5,25.7,172.5,25.7,172.5c1.2-0.3,2.5-0.6,3.7-0.9"/>
		<path class="st6" d="M38.2,107.9c-1.1,3.2-1.7,6.7-2,10.4c-0.1,1.8-0.1,3.5,0,5.2c0-0.9-0.1-1.7,0-2.6
			C36.3,116.3,37,112,38.2,107.9"/>
		<path class="st6" d="M6.3,226.8c-1.9-3.9-3.3-8.2-4.1-12.8c-0.8-4.6-0.9-9.1-0.3-13.3"/>
		<path class="st6" d="M16.9,305.7c-0.2-0.2-0.3-0.4-0.5-0.7C16.5,305.3,16.7,305.5,16.9,305.7"/>
		<path class="st6" d="M19.5,309c-0.1-0.2-0.3-0.3-0.4-0.5C19.2,308.7,19.4,308.8,19.5,309"/>
		<path class="st6" d="M14.9,259c1.3-0.9,2.7-1.8,4.2-2.5"/>
		<path class="st6" d="M18.2,307.4c-0.2-0.2-0.4-0.5-0.6-0.7C17.9,307,18,307.2,18.2,307.4"/>
		<path class="st6" d="M15.5,303.8c0-0.1-0.1-0.1-0.1-0.2C15.4,303.7,15.4,303.7,15.5,303.8"/>
		<path class="st6" d="M32.6,172.1c-12.2,7.2-17.3,18-16.5,31.1c0.5,7.7,4.3,14.6,9.1,20.8c5.6,7.2,12.4,13.2,20.8,17.7
			c6.9,3.7,14.1,6.9,21.7,9.4c0.7,0.2,1.5,0.4,2.5,0.7c0-0.9,0-1.6-0.1-2.2c-1.2-6.6-0.2-13,2.6-19.2c1.5-3.3,3.7-6.3,6.7-8.6
			c7.7-6,16.3-10,26.6-9.9c0.4,0,0.8-0.1,1.5-0.2c-0.4-0.8-0.7-1.5-1-2.1c-1-1.9-2.3-3.7-3-5.7c-1.1-3.3-3.3-5.5-6.3-7.3
			c-8-5-15.9-10.2-23.8-15.5c-2.5-1.7-4.9-3.5-7.1-5.3c0.4,0.4,0.7,0.9,1.2,1.4c-3.8-1.3-6.9-2.6-10.2-3.5c-7.8-2.2-15.9-2.7-24-2.4
			c-0.2,0-0.3,0-0.5,0c0.2,0.1-1,0.3-0.7,0.5C31.8,171.9,32.9,172,32.6,172.1"/>
		<path class="st6" d="M22,256.4c-6,7.5-5.2,15.5-2.2,24.1c1.6,4.7,4.6,8.7,8,12.4c12.4,13.7,28,22.5,46.3,27.2c0.4,0.1,0.8,0,1.3,0
			c-12.8-15.8-9.2-33.8,5.9-45.4c-2.1-0.8-4.1-1.4-6-2.3c-9.1-4.2-18.3-8.4-27.4-12.9c-5.7-2.8-11.4-5.7-16.9-8.8
			c0.4,0.3,0.8,0.7,1.3,1c-2.7,0.9-5.3,1.8-7.8,2.7C23.4,254.9,22.2,256.1,22,256.4"/>
		<path class="st6" d="M112.5,339.7c0.2,0.4,0.5,0.8,0.8,1.2c2.1-1.3,3.4-3.2,4.2-5.8c-1,0.4-2.2,0.7-3.4,0.9
			C113.6,337.3,113.1,338.4,112.5,339.7"/>
		<path class="st6" d="M176.6,192.9c-1.3-4.9-2.5-9.9-4.3-14.6c-3.9-10.4-8.1-20.7-12.2-31.1c-1-2.6-3.1-4.5-6-5.1
			c-1.6-0.4-2.5-1.2-3.3-2.4c-3.2-5.1-6.4-10.2-9.8-15.1c-8.9-12.7-18.9-24.4-32.5-32.9c-9-5.5-18.4-10-29.2-11.4
			c-3.1-0.4-6.5-0.4-9.5-0.1c-0.2,0.2-0.8,0.4-0.9,0.5c-7.5,3.4-10.1,9.7-12.6,16.6c-5.1,14.3-3.8,28.3,3.1,41.8
			c1.6,3,3.2,6.1,5.2,8.8c9.2,12.5,20.3,23.3,33.6,32.1c0.5,0.3,0.9,0.5,1.6,0.9c0.3-0.8,0.7-1.4,0.9-2
			c4.2-14.6,16.1-24.1,32.2-25.7c8.2-0.8,16.3-0.5,24.1,2.7c3.6,1.5,6.3,4,8.7,6.8c0.2,0.2,0.5,0.5,0.5,0.8c0.1,0.9,0.6,2.1,0.1,2.6
			c-0.4,0.5-1.9,0.6-2.7,0.3c-2-0.7-3.9-1.6-5.8-2.6c-7.9-4.2-16.3-4.9-25.1-3.8c-20.7,2.5-29.2,20.6-25.1,35.1
			c2.3,8,6.7,15,12.2,21.3c4.6,5.3,9.8,10.1,14.8,15.1c2.4,2.4,4.8,4.9,7,7.6c-4.2-0.7-7.9-2.5-11.4-4.4c-4.9-2.7-8.9-6.4-12.7-10.3
			c-4.5-4.6-10.2-6.3-16.7-5.3c-6.8,1.1-12.8,4.1-17.7,8.6c-5.4,5.1-7,11.7-6.3,18.7c0.9,8.8,5.7,15.9,12,22.1
			c5.3,5.3,12.2,8.5,19.1,11.6c6.9,3.1,14.2,5.2,21.7,6.5c0.7,0.1,1.3,0.3,1.9,0.5c0.4,0.1,0.8,0.3,1.2,0.4l0,0.6
			c-1,0.1-1.9,0.2-2.9,0.2c-4.9-0.2-9.9-0.2-14.8-0.8c-7.7-0.9-15.2-2.9-21.7-7.1c-2-1.3-3.8-1.3-5.9-0.5c-2.9,1.1-5.3,2.7-7.1,5.1
			c-8.8,11.9-7,23.7,3.6,33c7.9,6.9,17.4,10.8,28.2,11.2c2.3,0.1,4.4,0.3,6.4,1.2c0.6-2.5,1.3-4.9,2.1-7.3c1.2-3.7,2.8-7.3,4-11.1
			c7-22.5,17.3-43.6,30.4-63.5c4-6.1,8.3-12,12.4-18.1c3.6-5.3,6.2-11,8-17C177.7,206.7,178.4,199.8,176.6,192.9"/>
		<path class="st7" d="M16.4,305c-0.3-0.4-0.6-0.8-0.9-1.2C15.8,304.2,16.1,304.6,16.4,305"/>
		<path class="st7" d="M117.6,335.1c1.5-0.6,2.8-1.6,3.5-3.2c-0.8-0.6-1.6-1.1-2.4-1.4c-0.3,1.2-0.6,2.5-0.9,3.7
			C117.8,334.4,117.7,334.7,117.6,335.1"/>
		<path class="st7" d="M17.7,306.7c-0.3-0.3-0.5-0.7-0.8-1C17.1,306,17.4,306.4,17.7,306.7"/>
		<path class="st7" d="M1.9,200.7c0.5-2.7,1.3-5.4,2.5-8.1c0.7-1.5,1.4-2.9,2.1-4.3c0.8-1.5,1.7-3,2.7-4.3"/>
		<path class="st7" d="M19.1,308.5c-0.3-0.4-0.6-0.7-0.9-1.1C18.5,307.8,18.8,308.2,19.1,308.5"/>
		<path class="st7" d="M66.2,175.8c-0.4-0.5-0.8-1-1.3-1.4c-9.1-8.8-16.3-18.8-22-29.7c-3.6-6.7-6.2-13.7-6.8-21.2"/>
		<path class="st7" d="M19,256.4c0.4-0.2,0.9-0.4,1.4-0.6c1.4-0.5,2.8-1,4.3-1.5c0.2-0.1,0.4-0.2,0.6-0.2"/>
		<path class="st7" d="M29.5,171.6c1.1-0.2,2.2-0.2,3.4-0.3"/>
		<path class="st7" d="M84,318c-10.7-9.3-12.4-21.1-3.6-33c1.8-2.4,4.2-4,7.1-5.1c2.2-0.8,3.9-0.8,5.9,0.5c6.5,4.2,14,6.2,21.7,7.1
			c4.9,0.6,9.8,0.6,14.8,0.8c1,0,1.9-0.1,2.9-0.2l0-0.6c-0.4-0.1-0.8-0.3-1.2-0.4c-0.6-0.2-1.3-0.4-1.9-0.5
			c-7.5-1.3-14.8-3.4-21.7-6.5c-6.9-3.1-13.7-6.3-19.1-11.6c-6.3-6.3-11.1-13.3-12-22.1c-0.7-7,0.9-13.6,6.3-18.7
			c4.9-4.5,10.8-7.5,17.7-8.6c6.5-1.1,12.2,0.7,16.7,5.3c3.8,3.9,7.8,7.6,12.7,10.3c3.5,1.9,7.2,3.7,11.4,4.4
			c-2.2-2.7-4.6-5.1-7-7.6c-5-5-10.2-9.8-14.8-15.1c-5.5-6.3-9.9-13.3-12.2-21.3c-4.1-14.5,4.4-32.6,25.1-35.1
			c8.8-1.1,17.2-0.4,25.1,3.8c1.9,1,3.8,1.9,5.8,2.6c0.8,0.3,2.3,0.2,2.7-0.3c0.4-0.5,0-1.7-0.1-2.6c0-0.3-0.3-0.5-0.5-0.8
			c-2.4-2.8-5.1-5.2-8.7-6.8c-7.7-3.3-15.9-3.6-24.1-2.7c-16.1,1.6-27.9,11.1-32.2,25.7c-0.2,0.7-0.5,1.3-0.9,2
			c-0.7-0.4-1.2-0.6-1.6-0.9c-13.3-8.7-24.4-19.5-33.6-32.1c-2-2.8-3.7-5.8-5.2-8.8c-6.9-13.5-8.2-27.5-3.1-41.8
			c2.5-6.9,6.2-12.4,13.2-16.7c0.2-0.1,0.5-0.2,0.8-0.4c-4.9,0.5-9.5,2-13.7,4.8c-9,6.1-15.3,13.7-18.4,23c-1.2,4.1-1.8,8.4-2,13
			c0,0.9,0,1.8,0,2.6c0.5,7.5,3.2,14.5,6.8,21.2c5.8,10.9,12.9,21,22,29.7c0.4,0.4,0.8,0.9,1.3,1.4c2.3,1.9,4.6,3.7,7.2,5.3
			c7.9,5.3,15.8,10.4,23.8,15.5c3,1.9,5.3,4,6.3,7.3c0.6,2,2,3.8,3,5.7c0.3,0.6,0.6,1.3,1,2.1c-0.7,0.1-1.1,0.2-1.5,0.2
			c-10.3-0.1-18.9,3.9-26.6,9.9c-3,2.3-5.2,5.2-6.7,8.6c-2.8,6.2-3.8,12.5-2.6,19.2c0.1,0.7,0.1,1.3,0.1,2.2
			c-1.1-0.3-1.8-0.4-2.5-0.7c-7.5-2.5-14.7-5.6-21.7-9.4c-8.4-4.5-15.2-10.5-20.8-17.7c-4.8-6.2-8.6-13.1-9.1-20.8
			c-0.8-13.1,4.4-23.9,16.5-31.1c0.3-0.2,1.6-0.8,1.9-0.8c-0.5,0-1.2,0-1.7,0.1c-1.1,0-2.2,0.1-3.4,0.3c-1.3,0.3-2.5,0.5-3.7,0.9
			c-4.7,1.7-8.8,4-12.3,7c-1.6,1.5-3,3-4.2,4.5c-1,1.3-1.9,2.7-2.7,4.3c-0.7,1.4-1.4,2.9-2.1,4.3c-1.2,2.7-2,5.4-2.5,8.1
			c-0.6,4.2-0.5,8.7,0.3,13.3c0.8,4.6,2.2,8.8,4.1,12.8c2.4,4.6,5.7,8.7,9.7,12.3c4.1,3.7,8.8,6.8,13.3,10.2
			c0.6,0.5,1.2,0.9,1.8,1.5c5.5,3.1,11.2,6,16.9,8.8c9,4.5,18.2,8.6,27.4,12.9c1.9,0.9,3.9,1.5,6,2.3c-15.1,11.6-18.7,29.6-5.9,45.4
			c-0.5,0-1,0.1-1.3,0c-18.3-4.7-34-13.5-46.3-27.2c-3.3-3.7-6.4-7.7-8-12.4c-3-8.6-3.8-16.6,2.2-24.1c0.2-0.3,1.4-1.4,2.7-2
			c-1.4,0.5-2.9,1-4.3,1.5c-0.5,0.2-0.9,0.4-1.4,0.6c-1.5,0.7-2.9,1.6-4.2,2.5c-1.9,1.5-3.5,3.4-4.7,5.6c-3.4,6.5-4.7,13.4-3.1,20.6
			c1.5,6.7,4.4,12.8,8.3,18.4c0,0.1,0.1,0.1,0.1,0.2c0.3,0.4,0.6,0.8,0.9,1.2c0.2,0.2,0.3,0.4,0.5,0.7c0.3,0.4,0.5,0.7,0.8,1
			c0.2,0.2,0.4,0.5,0.6,0.7c0.3,0.4,0.6,0.7,0.9,1.1c0.1,0.2,0.3,0.3,0.4,0.5c1.3,1.5,2.6,3,4,4.4c12.9,12.9,29.2,20.1,46.9,24.6
			c8.2,2.1,16.7,3.2,25,4.4c4.2,0.6,8.4,0.9,12.7,0.2c2-0.3,3.7-0.9,5.1-1.7c-0.3-0.4-0.6-0.8-0.8-1.2c0.6-1.3,1.1-2.5,1.7-3.7
			c1.2-0.2,2.3-0.5,3.4-0.9c0.1-0.3,0.2-0.6,0.3-1c0.3-1.2,0.6-2.5,0.9-3.7c-2-0.9-4.2-1.1-6.4-1.2C101.4,328.8,91.9,324.9,84,318"
			/>
		<path class="st8" d="M399.4,199c12.9,11.5,24.2,24,33.2,38.2c7,11.1,14.3,22.2,20,34c2.4,5,4.7,10,7.1,15
			c4.9,10.2,7.4,21,9.4,31.9c1.2,6.4,2.6,12.8,3.4,19.3c0.9,7,1.5,14.1,1.7,21.1c0.4,10.5,0.7,21.1,0.3,31.6
			c-0.5,13.5-1.9,26.9-5.7,40c-1.4,4.9-3.2,9.6-5.7,14.1c-7.9,14.3-16.9,27.8-28.2,40c-10.3,11-21.7,20.8-36,27
			c-17.4,7.6-35.3,13.8-54.6,16.1c-9.4,1.1-18.9,2-28.3,3.2c-13.6,1.6-27.3,2-41,1.8c-9.5-0.2-19-0.1-28.4-1.6
			c-15.8-2.5-30.3-7.9-43.5-16.7c-21.9-14.6-39.3-32.9-52.2-55c-6.3-10.8-10.8-22.2-12.4-34.5c-0.5-4.4-2.2-8.6-3.2-12.9
			c-3.9-15.5-4.8-31.2-3.5-47.1c1.4-17.2,4-34.1,8.2-50.9c3.1-12.2,7.4-24.1,13.3-35.4c10.9-20.8,22.1-41.4,35.7-60.8
			c1.5-2.2,2.8-4.6,4.1-6.9c2.1-3.6,2.3-7.2,0.2-10.9c-2.2-4-4.4-8.1-6.8-12c-6.8-11.2-13.2-22.5-17.8-34.7
			c-4.8-12.6-6.2-25.6-4.8-38.9c1.1-10.6,3.3-20.9,8.4-30.4c10.4-19.4,24.3-35.8,45-46.6c11.2-5.8,23.1-9.5,36-10.4
			c7.2-0.5,14.1-2.4,21.1-3.9c10-2.1,20-3.4,30.3-3.6c10.3-0.2,20.6-0.7,30.9-0.6c13.8,0.1,27.2,2.5,40,7.1
			c13.9,4.9,25.9,12.5,34.6,24.1c5.4,7.1,9.1,15,11.8,23.3c3.9,12.3,6.8,24.7,6.9,37.6c0,2.6,0.4,5.3,0.4,7.9
			c0.2,13-2.4,25.6-7,37.8c-0.6,1.7-1.4,3.4-1.9,5.1c-4.5,13.6-11.8,25.7-20.8,37C399.6,198.5,399.5,198.7,399.4,199"/>
		<path class="st9" d="M156.9,360.1c-0.1,1.1-0.2,1.6-0.2,2.1c-0.3,11.2-0.1,22.3,1.1,33.5c1.2,11.2,2.4,22.4,5,33.5
			c3.5,15.2,8.2,30,15.5,44c3.2,6.1,7.2,11.9,10.8,17.8c0.7,1.2,1.5,2.4,2,3.6c1,2.2,0.5,4.2-1.3,5.8c-1.9,1.8-4.3,2.1-6.5,1.1
			c-1.6-0.8-3.2-2.1-4.2-3.4c-2.1-2.6-3.8-5.5-5.6-8.3c-0.6-1-1.3-1.7-2.5-1.8c-2.3-0.2-3.9-1.5-5.2-3.2c-0.9-1.2-1.8-2.4-2.4-3.8
			c-7.7-16.3-15-32.7-19.7-50c-4.7-17.2-6.7-34.6-5.7-52.3c0.6-10,1.9-19.9,4.3-29.7c0.5-1.9,0.3-3.4-1.1-4.9
			c-1.3-1.3-2.6-2.7-3.3-4.3c-1.1-2.5-2.1-5.1-2.6-7.7c-0.8-3.9,2.8-6.7,6.9-5.6c0.6,0.2,1.2,0.4,2.1,0.7c0.1-0.7,0.1-1.3,0.1-1.9
			c0.4-2.7,1.8-4.1,4.5-4.8c1.3-0.3,2.5-0.7,3.7-1.2c3.7-1.4,7.5,0.6,7.9,4.4c0.1,0.6,0,1.3-0.1,1.9c-0.9,3.3,0.5,5.7,3,8
			c10.1,9.3,20.4,18.3,32.9,24.9c9.2,4.9,18.9,8.1,29.5,8.6c6.8,0.3,13.6,0.8,20.5,1.2c4.2,0.2,6.5,3,5.8,6.8
			c-0.1,0.5-0.3,1-0.4,1.6c0.7,0.1,1.3,0.2,1.8,0.2c14.4-0.3,28.6-2,42.3-6.4c8-2.5,15-6.7,21.1-12.1c2.2-2,3.9-4.6,5.7-7
			c1.9-2.6,1.7-5.3,0.4-8.1c-0.4-1-1-1.9-1.2-2.9c-0.6-2.5,0.3-4.9,2.3-6.2c2.1-1.3,5-1.2,7.2,0.5c0.8,0.6,1.5,1.3,2.1,2
			c0.5,0.7,1,1.4,1.6,2.4c0.5-0.5,1-0.9,1.2-1.4c6.3-11.1,12.7-22.3,19-33.5c0.7-1.2,1-2.1,0.1-3.5c-6.8-11.3-8.6-23.6-8-36.4
			c0.6-13.1,3.9-25.6,10.1-37.4c4.9-9.5,11.3-18,20.3-24.4c3.6-2.6,7.5-4.6,11.8-6c3-0.9,5.5-0.6,8.2,1.1c4.5,2.9,8.3,6.5,11.9,10.2
			c6.9,7.1,13.2,14.6,19.1,22.5c4.3,5.8,6.3,11.7,5.7,18.9c-1.3,14.3-5.1,27.8-12.5,40.3c-4.1,7.1-9.3,13.4-15.9,18.6
			c-4.5,3.5-9.5,6.4-15.2,7.8c-8.2,2-16,1.3-23.3-3c-0.7-0.4-1.3-0.8-2.2-1.3c-0.5,0.7-0.9,1.3-1.3,1.9c-7.8,13.7-15.5,27.3-23.2,41
			c-0.8,1.4-1.3,2.9-1.4,4.5c-0.3,3.8-1.8,7.2-3.9,10.3c-3.9,5.7-9.2,10.1-15.6,13.2c-9.8,4.8-20.3,7.8-31.1,9.6
			c-9,1.5-18,2.4-27.1,1.9c-8-0.4-16.1-1.1-24.1-2c-13.8-1.6-27.3-4.7-40.1-9.9c-13.3-5.3-25.6-12-37.3-20
			C159.1,361.5,158.2,361,156.9,360.1"/>
		<path class="st9" d="M232,46.5c10.2-4.2,20.6-5.5,31.3-5.5c10.7,0,21.3,0.5,31.6,4.3c-0.2-3.3,1.6-5.8,3.9-8
			c0.6-0.6,0.9-1.4,1.1-2.2c0.5-1.8,0.8-3.7,1.4-5.5c0.8-2.7,3.4-4.4,6-4.1c2.9,0.4,5,2.6,4.8,5.6c-0.2,3-0.7,6.1-1.4,9
			c-0.3,1.4-1.4,2.6-2.3,3.8c-0.9,1.2-1.9,2.3-2.8,3.3c1,1.6,1.9,3,2.8,4.5c1.7,2.8,0.7,5.3-0.9,7.7c-1.7,2.5-5.1,3.3-8,2.1
			c-1.3-0.6-2.6-1.2-3.7-2.1c-4.5-3.4-9.8-4.9-15.4-5.6c-8.5-1.1-17-1.4-25.5-0.6c-17.3,1.7-31.9,8.7-43.3,21.2
			c-9.4,10.3-16,21.9-18.9,35.2c-2,9-2.2,18.2-1.5,27.4c0.6,8.6,2.6,16.8,5,25.1c3.2,10.9,8.8,20.7,15.4,30
			c4.1,5.7,8.7,11,13.1,16.4c1.3,1.6,2.6,3.2,2.6,5.3c0.1,4-3.9,6.8-7.8,5.2c-2-0.8-3.8-2.3-5.2-3.8c-6.4-7-12.1-14.4-17.1-22.2
			c-0.9-1.4-1.7-2.6-3.6-3c-1.9-0.5-3.2-2-4-3.6c-0.6-1.2-1.2-2.5-1.6-3.8c-3.4-9.7-7-19.4-8.9-29.4c-0.8-4.1-1.2-8.3-1.7-12.5
			c-0.2-1.6-0.4-3-1.4-4.4c-1.9-2.7-1.9-5.8-1.7-8.9c0.5-8.6,2.8-16.8,5.4-25c4.1-13.4,9.3-26.4,15.6-39c1.5-3.1,3.1-6.1,7.1-7.1
			c0.8-0.2,1.3-1.1,2-1.7c4.7-3.9,9.3-7.9,14.1-11.7c1.6-1.3,3.6-2.2,5.5-2.9c4.4-1.6,7.8,0.6,7.9,5.1C232.1,45.3,232,45.7,232,46.5
			"/>
		<path class="st9" d="M200.9,454.4c0.1-4.5,0.7-8.9,2.2-13.1c3.3-8.9,9.8-14.4,19.6-16.5c3.6-0.8,7.2-0.5,10.7,0.4
			c3.7,0.9,5.5,3.5,4.8,6.5c-0.7,2.8-3.5,4.2-7.1,3.7c-6.2-0.8-11.1,1.2-14.1,5.9c-0.8,1.2-1.4,2.3-0.6,3.8c0.8,1.6,0.4,3.3-0.6,4.8
			c-2.1,3.4-2.3,7-1.5,10.7c1.3,5.8,3.5,11.3,6.4,16.6c2.4,4.4,4.6,8.9,6.7,13.4c3.6,7.5,7.9,14.5,14.8,19.7c4.3,3.2,9,5.8,14.6,6.9
			c4.2,0.8,7.8-0.1,10.7-3c1.8-1.7,3.5-3.6,5.3-5.3c1.8-1.8,3.8-3,6.6-2.4c3.4,0.7,5.3,3.7,4.4,7c-0.1,0.5-0.3,1-0.6,1.5
			c-6.4,8.7-14.1,15.3-26.2,14c-3.5-0.4-6.8-1.1-10-2.4c-9.1-3.8-17-9.3-23.6-16.4c-7.9-8.7-13.8-18.3-16.7-29.6
			c-1.7-6.6-4.4-13.1-5.2-19.9C201.2,458.6,201.1,456.5,200.9,454.4"/>
		<path class="st9" d="M384.1,501.8c1.1-0.9,2.2-2,3.4-2.8c3.9-2.8,9.3-1,9.8,3.4c0.2,1.6-0.5,3.7-1.5,5c-3.9,5-9.1,7.6-15.9,7
			c-5.2-0.5-8.8-4.1-9.2-8.9c-0.3-3.4,0.6-6.7,1.8-9.9c1.9-5.4,4-10.7,6-16.1c2.5-6.4,3.4-13,2.5-19.9c-1-7.4-0.9-14.9,0.9-22.3
			c3.2-13.3,16.8-19.9,28.3-18c1.8,0.3,3.6,0.4,5.2,1c3.2,1.1,4.7,4,3.7,6.8c-1,2.7-3.5,3.7-7,3.3c-3-0.3-6.1-0.5-8.9,0.2
			c-4.8,1.2-7.6,4.6-8.9,9.1c-1.5,5.2-1.8,10.4-1.1,15.7c1.4,10.4,0.5,20.6-3.8,30.4c-1.8,4.1-3.2,8.3-4.7,12.5
			c-0.4,1.1-0.7,2.2-1,3.2C383.8,501.6,384,501.7,384.1,501.8"/>
		<path class="st9" d="M252.1,226.9c-1.1,0.5-2.1,1-3.1,1.5c-13.5,6.1-25.8,14-36.7,23.7c-5.9,5.3-12,10.4-17,16.6
			c-0.8,0.9-2.1,1.8-3.3,1.9c-2.2,0.2-3,1.5-3.9,3c-0.4,0.7-0.7,1.6-1.2,2.3c-1.3,1.9-3.7,2.9-5.8,2.4c-2.4-0.6-3.9-1.9-4.4-4.3
			c-0.6-2.9,0.1-5.4,1.7-7.8c4.6-6.9,9.8-13.3,15.9-19.1c7.9-7.5,16.7-14,26-20c5.1-3.3,10.5-6,15.7-9.1c2-1.2,3.5-1,5.3,0.6
			C244.6,221.4,248.3,224,252.1,226.9"/>
		<path class="st9" d="M446.3,438.4c-6,2-7.4,1.6-10.7-3.4c-1.8,2.9-3.4,5.5-5.1,8.2c-0.7,1.2-1.3,2.5-2.1,3.6c-2,2.6-5.3,3.4-8,2.1
			c-2.7-1.3-4.1-4.4-2.8-7.3c2.7-5.8,5.7-11.5,10.7-15.9c2.1-1.9,4.7-3.3,7.5-4c4.7-1.1,8.6,0.2,11.8,3.6c2.4,2.6,2.3,5.5,1.6,8.8
			c0.7-1,1.4-2,2.1-3c3.2-4.6,7.5-7.8,13.4-8.8c2.9-0.5,5.6-0.2,8,1.4c2.1,1.4,2.9,3.9,2.1,6.2c-0.8,2.2-3.4,4-5.8,3.4
			c-3.5-0.9-5.4,0.8-6.9,3.1c-2,2.9-3.7,6-5.3,9.1c-0.9,1.8-2.3,3.1-4,4.1c-2.6,1.5-5.4,1.2-7.4-0.7c-2-1.9-2.6-4.9-1.2-7.3
			C444.7,440.6,445.3,439.7,446.3,438.4"/>
		<path class="st9" d="M254.9,450.6c0,1.9,0,3.8,0,5.7c0,0.7,0.1,1.5,0,2.2c-0.3,3.1-2.7,5.5-5.7,5.7c-2.8,0.2-5.6-1.9-6.4-4.7
			c-0.3-1.2-0.4-2.5-0.5-3.8c-0.4-6.7-0.7-13.5,1.1-20.1c1.9-6.9,6.1-12.1,13-15.3c4.3-2,8.8-2.1,13.4-0.7c1.8,0.5,3.2,1.5,4,3.1
			c0.9,1.9,0.8,3.7-0.5,5.4c-1.3,1.6-3.3,2.4-5.4,1.9c-2.5-0.6-4.8-0.9-7.1,0.6c-2.5,1.6-4,3.9-5,6.6
			C254.5,441.6,254.8,446.1,254.9,450.6"/>
		<path class="st9" d="M297.7,424c4.5,0.2,8.6,0.8,12.1,3.2c2,1.4,3.2,3.3,2.8,5.7c-0.7,3.8-5,5.5-8.6,3.6
			c-5.9-3.1-13.4-1.3-16.3,4.3c-1.9,3.8-3,7.9-4.4,11.9c-0.4,1.1-0.6,2.3-1.1,3.3c-1.4,2.6-4.1,3.8-7,3.2c-2.5-0.5-4.5-2.8-4.6-5.6
			c0-0.5-0.1-1.1,0.1-1.6c1.6-6.3,3.2-12.7,6.9-18.4c3.2-4.8,7.7-7.9,13.6-9C293.3,424.3,295.7,424.2,297.7,424"/>
		<path class="st10" d="M207.8,446c0.4-3,0.6-6.1,1.3-9c1-4.1,3.7-7.1,7.2-9.6c5.2-3.7,18.8-3,22.7,3.5c1.9,3.2,0.8,6.3,1.7,9.9
			c0.5,2,1.4,4,2.4,5.9c1.1,2,2.6,2.5,4.8,2c1.7-0.4,2.8-1.7,2.7-3.9c-0.1-2.3-0.6-4.6-0.6-6.9c-0.1-3.4-0.2-6.7,0.2-10.1
			c0.7-5.7,8.2-9.4,14.3-8.5c3.6,0.4,7.6,1.8,8.7,3c1.1,1.3-0.4,1.4,0.8,4.6c1.3,3.6,2.2,7.3,1.8,11.1c-0.2,1.9,0,3.8,0.3,5.7
			c0.4,2.5,2.4,3.2,4.3,1.5c1.2-1.1,2.2-2.7,2.8-4.2c0.9-2.3,1.3-4.7,2.2-7c2.5-6.8,13.2-9.3,20.6-7.8c2.7,0.6,0.4,1.5,1.8,3.5
			c2.9,4.2,3.8,9,3.9,13.9c0.1,6.7-1.2,13.2-2.8,19.7c-3.9,15.6-9.7,30.5-18.8,44.1c-5.1,7.6-11.2,14.2-20.1,18.1
			c-10.3,4.5-19.8,1.8-27-4.4c-5.1-4.4-9.4-9.4-12.8-15c-7-11.2-12.9-22.9-16.8-35.4C210.5,462.5,208,454.5,207.8,446"/>
		<path class="st10" d="M400.6,520.3c-4.2,0.2-8.6-0.3-12.6-2.6c-4.1-2.3-6.3-5.5-6.6-10c-0.4-5,0.5-9.9,1.7-14.7
			c1-4,2.3-7.9,3.6-11.8c4.2-13.1,6.1-26.3,3.7-39.9c-0.6-3.7-0.7-7.3,0.3-11c1-3.6,3-6.3,6.5-8.1c4-2,11.8-2.9,16.5-1.6
			c5.5,1.5,5.2,4.7,5.7,10c0.1,1.2,0.2,2.5,0.7,3.7c0.9,2,3,2.4,4.5,0.7c1.1-1.3,1.8-2.9,2.7-4.3c1.1-2,1.9-4.1,3.1-5.9
			c2.5-3.8,9.3-4.4,13.7-3.4c3.3,0.7,4.7,2.7,5.6,5.6c0.8,2.5-1.1,5-0.5,7.6c0.2,1.2-0.2,2.8,1.5,3.1c1.6,0.3,2.9-0.6,3.7-1.8
			c1-1.5,1.7-3.2,2.5-4.8c0.9-1.7,1.5-3.5,2.6-5.1c2.9-4.5,11.9-5.2,16.4-2c2.6,1.8,0.7,3.8,1.6,6.8c1.8,5.6,2.7,11.2,2.4,17.1
			c-0.5,11-4.1,21-10.9,29.7c-4.4,5.6-9.7,10.8-15,15.7c-9.7,8.9-20.4,16.5-32.6,22.1C414.8,518.4,408.2,520.5,400.6,520.3"/>
		<g class="st11">
			<g>
				<defs>
					<rect id="SVGID_13_" x="363" y="144.8" width="72.5" height="113.9"/>
				</defs>
				<clipPath id="SVGID_14_">
					<use xlink:href="#SVGID_13_"  style="overflow:visible;"/>
				</clipPath>
				<path class="st12" d="M435.5,188.8c0.1,18-5.4,34.5-15.2,49.8c-4.4,6.9-9,13.5-17.2,16.1c-3.5,1.1-7.8,3-11.4,3.7
					c-3.4,0.7-8.7,0-11.3-3.2c-0.1-0.1-3.4-0.8-3.5-0.9c-8.2-4.5-7.5-12.8-9.7-21c-2.4-8.8-3.6-17.8-4.2-26.9
					c-0.3-4.9,0.3-9.7,2-14.3c2.9-7.9,6-15.7,8.9-23.5c0.5-1.4,0.9-2.8,1.4-4.2c0.1-0.4,0.2-0.8,0.5-1.2
					c4.9-8.5,11.8-14.8,21.9-17.5c9.9-2.7,20.7-0.2,27.4,9.3c6.5,9.3,10.5,19.3,10.3,30.6C435.5,186.7,435.5,187.8,435.5,188.8"/>
			</g>
		</g>
		<path class="st13" d="M252,449.5c1.4,0,2.8-0.8,3.3-2c0.4-1,0.4-2,0.3-3.1c-0.3-3.5-0.6-6.9-0.7-10.4c-0.1-1.9,0.2-3.8,0.5-5.7
			c1-5.6,5.6-8.8,11.5-8.1c1.7,0.2,3.4,0.4,4.9,0.9c3.3,1.1,5.7,3.2,6.9,6.4c1.3,3.4,2,6.9,1.7,10.5c-0.2,2.7-0.5,5.5,0.8,7.9
			c1.7,1.4,3.2,0.9,4.3-0.3c1.2-1.3,2.1-2.9,2.8-4.6c0.9-2.2,1.2-4.5,2.1-6.7c2.5-6.6,9.2-10,16.4-8.4c2.2,0.5,3.7,1.9,5,3.5
			c3,3.9,4.1,8.4,4.4,13.1c0.4,8.4-1.5,16.5-3.7,24.6c-3.8,14.4-9.5,28.1-18,40.7c-5.1,7.6-11.2,14.2-20.2,18
			c-9.9,4.1-18.6,2.3-26.4-4.4c-6.4-5.5-11.5-12.1-15.6-19.3c-5-8.7-9.5-17.7-12.8-27.1c-2.9-8.3-5.6-16.7-6-25.5
			c-0.2-3.3,0-6.7,0.4-10.1c0.5-4.5,3.2-8,6.8-10.9c5.8-4.6,16.7-3.2,20.4,3.1c1.9,3.3,3.7,6.4,4.6,10.1c0.4,1.9,1.1,3.7,2.3,5.4
			C248.8,448.8,250.4,449.5,252,449.5"/>
		<path class="st13" d="M427.3,437L427.3,437c0.7,0,1.4-0.2,2-0.6c1.7-1.4,2.3-3.4,3.2-5.1c1-2.1,2-4.2,3.4-6.1
			c3.8-5.2,13.1-5.1,16.2,2.3c1,2.5,1.2,5.3,1.8,8c0.1,0.2,0.1,0.5,0.1,0.7c0.3,2.1,3.1,3,4.7,1.5c0.3-0.3,0.5-0.6,0.7-0.9
			c1.1-1.6,1.8-3.4,2.6-5.1c0.8-1.5,1.4-3.1,2.3-4.6c2.9-4.7,8.3-5.6,12.9-2.2c2.6,2,4.3,4.5,5.3,7.5c4.3,14.2,2.1,27.7-5.2,40.7
			c-2.7,4.8-6.4,8.9-10.2,12.9c-11.8,12.2-25.1,22.6-40.8,30.1c-7.8,3.7-15.9,5.7-24.6,4.9c-5-0.4-9.4-1.9-12.6-5.8
			c-1.4-1.7-2.2-3.6-2.5-5.8c-0.7-5.4,0.5-10.6,1.7-15.8c0.8-3.3,1.8-6.5,2.9-9.7c5-14.1,6.6-28.4,4.2-43.1
			c-0.4-2.6-0.2-5.5,0.1-8.1c0.6-5.1,3.8-8.4,8.7-10.4c3.3-1.3,6.7-2.4,10.4-1.4c5.4,1.5,8.7,5.1,9.3,10.4c0.2,1.4,0.2,2.9,0.9,4.3
			C425.4,436.4,426.3,436.9,427.3,437"/>
		<path class="st14" d="M396.8,146.6c1.8-0.8,3.6-1.8,5.5-2.3c7-1.8,13.5-0.4,19.4,3.5c7.7,5,12.8,11.9,15.4,20.1
			c5.9,18.2,5.4,36.4-0.9,54.4c-2.9,8.3-6.8,16-12.5,22.9c-6.1,7.4-13.5,12.9-23.5,14.7c-5.8,1-13.2-0.3-19-3
			c1.1-0.4,2.8-0.3,3.4-0.4c1.2,0.2,2.2,0.4,3,0.4c9,0.6,16-3.8,22.3-9.2c10.4-8.8,16.5-20.1,20-32.7c1.6-5.9,3.1-11.9,3.2-18
			c0.2-10.4-0.6-20.7-4.6-30.5c-2.1-5-5.3-9.2-9.4-13c-4.9-4.6-10.8-6.7-17.6-6.6c-1.5,0-3,0-4.5,0
			C396.9,146.8,396.8,146.7,396.8,146.6"/>
		<path class="st15" d="M357.5,279c-1.5-0.2-2.7-0.5-3.8-0.4c-5.9,0.3-8.3-1.7-8.6-7.7c4.7-7.3,9.4-14.8,14.2-22.3
			c1.9-2.9,4.5-3.7,7.8-2.2c1.8,0.8,3.6,2.2,4.9,3.6c1.5,1.6,1.7,3.7,0.5,5.6c-4.5,7.4-9,14.8-13.6,22.1
			C358.6,278.3,357.8,278.7,357.5,279"/>
		<path class="st15" d="M299.6,378.6c-5,0-9.1-1.3-12.6-5c1.2-0.7,2.2-1.3,3.2-1.9c0.3-0.5,0.7-1.2,1.3-2.1c2,1.3,3.9,2.4,5.9,3.7
			c0.9,1.1,1.9,2.3,3.1,3.6C300.2,377.4,299.9,377.9,299.6,378.6"/>
		<path class="st16" d="M399.9,141.6c4,0.2,4.7,0.6,8.3,1c0.3,0,5,1.4,5.3,1.5c-2.3-0.2-4.3,0.3-7.2,0.7c-4.9,0.9-3.9,1.1-6.9,2.3
			c-7,2.1-12.1,6.7-16.6,11.9c-8.2,9.5-12.9,20.7-15.5,32.5c-1.2,5.4-2.2,11-2.4,16.5c-0.5,11.7,1,23.1,6.4,33.9
			c2.9,5.8,7,10.7,12.8,14.3c0.7,0.5,1.5,0.9,2.2,1.4c0.2,0.1,3.5,1.8,3.6,2c-0.3,0.1-3.3-0.8-4.3-1c-4-0.8-7.7-1.9-11.8-2.8
			c-1.7-0.4-1.5-1.9-1.7-3.1c-0.6-3.5-3.8-6.3-7.6-6.4c-1,0-2,0.2-2.9,0.5c-2.3,0.9-2.3,0.9-3.7-0.9c-6.6-8.6-9.7-18.3-10.4-28.9
			c-1.1-16.9,2.3-32.9,9.8-48.2c2.8-5.6,6.6-10.7,11-15.5C374.6,146.9,386.2,140.6,399.9,141.6"/>
		<path class="st16" d="M346.4,269.8c5.7,0.6,9.8,3.6,12.9,8.1c0.8,1.1,0.7,2.2,0,3.3c-1.1,1.8-2.2,3.7-3.4,5.5
			c-6.6,10.8-13.2,21.6-19.8,32.3c-0.7,1.1-1.5,2.1-2.5,2.9c-0.5,0.4-1.7,0.8-2.1,0.5c-1.8-1.4-3.6-0.4-5.4-0.2
			c-3,0.3-5.8,0.1-8.6-1c-3.5-1.4-4.1-4.1-2.2-7.2c7.5-11.9,14.9-23.8,22.3-35.7c1.2-1.9,2.4-3.8,3.5-5.8
			C342.2,270.4,343.9,269.6,346.4,269.8"/>
		<path class="st16" d="M299.8,378.3c-0.4-0.3-0.8-0.5-1.1-0.8c-0.7-0.8-1.3-1.7-2.1-2.4c-1-0.9-2.1-1.7-3.1-2.6
			c1.2-0.3,2.5-0.6,3.7-0.9c0.6-0.2,1.3-0.3,2-0.4c1.9-0.4,4.1-0.4,5.1-2.5c0.1-0.2,0.9-0.3,1.1-0.2c0.2,0.2,0.4,0.8,0.3,1.1
			c-1.6,2.7-3.2,5.3-4.8,7.9C300.6,377.7,300.2,378,299.8,378.3"/>
		<path class="st5" d="M105.8,376.2c0.6-8.6,1.1-17.2,1.7-25.9c1.3-18.8,6.7-36.7,12.8-54.5c5.6-16.1,13.2-31.3,22.3-45.9
			c5.1-8.2,10.6-16.1,16-24.1c5.3-7.8,9.4-16,11.2-25.2c0.6-3,0.7-5.9-0.4-8.7c-2.7-7-5.4-14.1-8.4-21
			c-7.9-18.3-11.1-37.2-10.4-56.9c0.3-8.3,1-16.6,3-24.8c3.6-15.4,11.2-29.1,21.2-41.6c5.3-6.7,11-13.1,18.1-18.2
			c5.9-4.2,12.3-7.7,19.1-10.6c16.3-7.1,33.4-11.5,50.9-14.8c7.8-1.5,15.7-2.1,23.6-3c4.1-0.4,8.3-0.5,12.4-0.8
			c16.3-1,32.1,1.6,47.8,5.5c18,4.4,34,12.5,48.3,23.4c6.7,5.1,12.2,11.2,16.3,18.4c3,5.3,6.7,11.7,8.5,17.5
			c2.4,6.4,6.8,24,6.8,24.4c-0.3-0.3-4.9-18.7-7.6-23.4c-2.5-4.3-5.7-7.9-8.5-10.6c-9.7-9.3-21.5-14.9-34.9-17.8
			c-13.8-3-27.2-1.4-40.1,3.7c-5.6,2.2-10.2,5.7-14.2,9.9c-4.7,5-8.8,10.4-12.3,16.2c-1.3,2.2-1.4,2.2-3.2,0.4
			c-5.4-5.3-11.2-10-17.8-13.9c-7.3-4.2-14.9-7.6-23.5-8.9c-9.2-1.4-18.2-0.2-26.8,2.7c-6.2,2.1-12.3,4.7-18,7.7
			c-13.1,6.9-22.6,17.1-30.2,29.1c-5.5,8.7-9,18.1-9.9,28.3c-0.7,7.8,0.2,15.6,1.4,23.3c3,18.6,11.8,34.5,24.3,48.9
			c11.4,13.2,24.4,24.7,38.5,35.2c1.2,0.9,2.3,2,3.4,3c-1.4,0.5-2.8,1.1-4.2,1.6c-14.9,4.7-28.9,11-40.4,21.3
			c-3.8,3.4-7.6,6.8-11.3,10.4c-2.3,2.2-2.2,2.3,0.2,4.4c7.2,6.5,15.6,11.7,23.8,17.1c15.9,10.3,33.4,17.6,51.8,23.1
			c13.1,3.9,26.4,7.4,39.6,11c2.6,0.7,2.6,0.7,3.4-1.8c1.5-5,4.8-8.2,10.4-9.2c0.5-0.1,1.1-0.3,1.6-0.2c1.5,0.1,2,0.9,1.3,2.1
			c-0.9,1.5-1.9,2.9-2.8,4.3c-1.2,1.8-2.3,3.6-3.4,5.4c-0.6,1-0.4,1.6,0.8,1.8c5.4,1,10.8,2,16.2,2.8c0.6,0.1,1.4-0.8,2-1.3
			c0.6-0.4,1.1-0.9,1.6-1.4c0.4,0.6,1.1,1.1,1.3,1.7c1.8,5.3,2.9,10.6,2.4,16.2c-1.2,12.8-8,22.5-18.9,30
			c-8.5,5.8-18.1,8.6-28.1,10.7c-12.5,2.5-25.2,4-38.1,3.3c-13.9-0.8-27.7-2.1-41.2-5.6c-2.7-0.7-5.4-1.5-7.9-2.6
			c-20.6-8.4-38.7-19.9-51.9-37.4c-0.6-0.9-1.3-1.7-2.1-2.5c-0.6-0.6-1.3-1.1-1.9-1.6c-0.3,0.7-0.8,1.4-1,2.2
			c-0.8,3.8-1.8,7.6-2.3,11.5c-1.1,8.7-1.9,17.4-2.9,26.1c-0.9,8.3-1.2,16.7,0.2,24.9c1.3,7.8,3.1,15.5,4.9,23.2
			c5.2,21.8,14.8,41.9,28.2,60.4c5.1,7,11,13.4,17.4,19.3c5.9,5.4,12.1,10.7,18.5,15.6c9.8,7.6,20.8,14.5,32.6,18.6
			c2.7,1.1,4.2,1.8,7,2.5c0.3,0.1,1.5,0.4,2.5,0.5c0.8,0.1,2.4,0.3,2.1,0.3c-6.9,0-13.3-1.2-18.4-2.4c-13.9-3-36.4-9.1-52.4-18.3
			c-13.1-7.5-24.5-17-35.1-27.4c-12.8-12.6-23.5-26.5-32.2-41.9c-5.7-10.2-8.8-21.1-11-32.4C107.1,398.6,106.2,387.4,105.8,376.2"/>
		<path class="st17" d="M220.9,115.1c0.1-11,2.1-18.5,6.5-25.3c11.8-18.2,35.8-22.2,53.4-8.8c10.9,8.3,16.4,19.3,17.5,32.2
			c0.9,11.2-2,21.6-9.7,30.4c-7.4,8.5-17.1,12.8-28.9,12.3c-8.3-0.3-15.7-3.4-22-8.4C226.3,138.2,221.2,126.1,220.9,115.1"/>
		<path class="st17" d="M395.5,102.8c0,7.9-2,15.2-6.6,21.9c-11.7,17-34.7,19.7-50.4,5.8c-16-14-17.6-39.6-3.4-55.2
			c7-7.7,15.9-11.6,26.7-10.9c9.9,0.7,17.9,5.1,24.1,12.3C392.4,84.4,395.4,93.2,395.5,102.8"/>
		<path class="st17" d="M314.8,195.3c-4.1-0.8-3.1-0.7-7.2-1.7c-6.7-1.7-11.2-6-14.3-11.6c-1.4-2.5-2.7-5.1-3.8-7.7
			c-0.4-1.1-0.4-2.5,0-3.6c2.7-8.1,7.2-15.3,13.6-21.2c8.2-7.5,18.1-9.5,28.9-6.4c9.7,2.8,17.3,8.7,24.3,15.4
			c1.1,1.1,1.5,2.2,0.4,3.6c-0.6,0.8-0.8,1.9-0.8,2.9c-0.1,15.4-12.7,28.6-29.1,30.3c-1.7,0.2-3.5,0.3-5.2,0.4
			c-1.2,0.1-2.5,0.1-3.7,0C316.6,195.5,315.2,195.4,314.8,195.3"/>
		<path class="st18" d="M270.7,86.1c10.8,0.3,18.8,5.1,23.9,13.9c4.7,8.3,5.3,17.1,3,26.1c-2.6,10.2-8.2,18.7-17.4,24.8
			c-6.7,4.5-14.3,6.7-22.5,5.4c-10-1.6-16.8-7.1-20.8-15.7c-5.1-11.1-4-22,1.3-32.7c4.2-8.6,10.8-15.2,20.1-19.2
			C262.3,86.9,266.4,86,270.7,86.1"/>
		<path class="st18" d="M396.1,104.9c-0.7,12.1-6,22.6-17.3,30c-6.5,4.2-13.7,5.8-21.4,4.1c-9.3-2.1-15-8-18-16.3
			c-5.7-15.8,2.6-35.3,18.3-43.2c11.2-5.6,23.9-3.7,31.5,4.8c3.9,4.4,6,9.6,6.7,15.2C396,101.1,396,102.7,396.1,104.9"/>
		<path class="st19" d="M355.9,164.9c0-1,0.3-2.1,0.8-2.9c0.2-0.3,0.4-0.6,0.5-0.9c-0.9,1.3-2,2.7-2.8,3.2c-0.6,0.4-1.2,0.9-1.8,1.4
			c-5.4,4.5-9.8,7.4-15.6,11.1c-3.1,2-8.6,4.1-12.4,4c-4.7-0.1-9.2-0.7-13.8-1.4c-5.5-0.9-10.9-2.4-16.1-4.2
			c-1.3-0.4-2.5-0.8-3.8-1.2c-0.2-0.1-0.9-0.3-1.6-0.5c0,0.2,0.1,0.3,0.1,0.5c1.1,2.7,2.4,5.2,3.8,7.7c1.5,2.7,3.3,5.1,5.5,7
			c3.7-1.5,8.9-3.1,12-3.6c8.5-1.2,16.1,0,21.6,7c0.3,0.4,0.7,0.9,1.2,1.4C346.6,189.7,355.8,178.1,355.9,164.9"/>
		<path class="st20" d="M251.9,105.5c-3.3-0.1-6.4-0.9-8.9-3.1c-4.1-3.4-4.1-8.6-0.1-12.2c4.9-4.2,13.8-4.4,18.9-0.3
			c4.2,3.4,4.3,8.9,0.1,12.4C259,104.7,255.6,105.5,251.9,105.5"/>
		<path class="st20" d="M354.5,95.2c-2.9-0.2-5.6-0.7-7.9-2.2c-4.4-2.9-4.6-7.7-0.4-10.8c4.5-3.4,12.5-3.2,16.8,0.3
			c3.6,2.9,3.6,7.2-0.1,10.1C360.4,94.4,357.5,95,354.5,95.2"/>
		<path class="st20" d="M240.4,123.6c-4.7,0-8.5-2.9-8.6-6.4c-0.1-3.3,3.5-6.5,7.9-6.9c2.5-0.3,4.9,0,7,1.4c3.6,2.5,4,6.6,0.7,9.5
			C245.7,122.8,243.2,123.7,240.4,123.6"/>
		<path class="st20" d="M341,113.4c-0.2,0-0.5,0-0.9-0.1c-3.8-0.4-6.5-2.3-6.9-5c-0.4-2.8,1.7-5.5,5.3-6.8c2.8-1,5.7-1,8.4,0.3
			c3.6,1.8,4.3,5.6,1.6,8.4C346.9,112.1,343.9,113.3,341,113.4"/>
		<path class="st21" d="M521.8,249c-1.8,0-3.6,0-5.3,0c-3.6,0.1-6.9-1-9.9-2.9c-4.6-2.9-7.7-6.9-10-11.5c-3.8-7.6-5.2-15.6-4.8-23.9
			c0.3-6.6,1.8-12.9,4.8-18.9c2.6-5.2,6.1-9.7,11.5-12.7c2.7-1.5,5.5-2.3,8.6-2.3c3.9,0,7.8,0,11.7-0.1c1.6,0,2.7,0.5,3.5,1.8
			c3.9,5.4,6.6,11.2,7.9,17.6c1,4.9,1.7,9.8,2.1,14.7c0.4,5.9-0.5,11.8-2.1,17.5c-1.9,6.7-5.1,12.9-8.6,19c-0.7,1.1-1.6,1.7-3,1.7
			C526,249.1,523.9,249.1,521.8,249L521.8,249z"/>
		<path class="st22" d="M554.1,212c-0.2,8.4-1.7,16.1-5.7,23.3c-2.1,3.7-4.7,7.1-8.3,9.7c-2.6,1.9-5.5,3.2-8.8,3.7
			c-4.4,0.7-8.5-0.4-12.2-2.6c-3.4-2-6.1-4.8-8.2-8c-3.1-4.5-4.9-9.5-6-14.7c-2-9.9-1.3-19.5,2.5-29c2.2-5.5,5.4-10.3,10.3-14
			c2.9-2.2,6.2-3.5,9.9-3.9c3.8-0.4,7.3,0.5,10.6,2.3c4.6,2.5,7.8,6.3,10.3,10.6c3.3,5.8,4.9,12,5.5,18.6
			C554,209.5,554.1,211,554.1,212"/>
		<path class="st21" d="M508.6,213.9c0-7.5,1.3-14.2,4.4-20.5c1.7-3.5,4-6.7,7.3-9.2c5.9-4.6,13-4.6,18.8,0c1,0.8,1.9,1.7,2.8,2.6
			c2.6,2.8,4.5,6,5.7,9.6c4.4,12.1,4.1,24.1-1.2,35.9c-1.7,3.8-4.1,7.2-7.5,9.8c-3.6,2.8-7.7,4.2-12.4,3.1c-3.1-0.7-5.7-2.2-7.9-4.3
			c-2.8-2.6-4.8-5.8-6.3-9.2C509.6,225.8,508.5,219.7,508.6,213.9 M510,212.5c0,7.5,1.2,14,4.3,20.2c1.6,3.1,3.6,5.9,6.4,8.2
			c2.7,2.2,5.8,3.5,9.4,3.3c3.5-0.2,6.4-1.7,9-4c3.3-2.9,5.5-6.6,7-10.5c3.3-8.3,3.9-16.8,2.3-25.5c-0.8-4.2-2.1-8.3-4.3-12.1
			c-1.7-3-3.9-5.6-6.8-7.6c-2.8-1.9-5.9-2.7-9.4-2.2c-3,0.4-5.4,1.8-7.6,3.7c-3,2.6-5,5.8-6.6,9.2C511.1,200.9,509.9,207,510,212.5"
			/>
		<g class="st23">
			<g>
				<defs>
					<rect id="SVGID_15_" x="114.6" y="501.1" width="412.4" height="131.1"/>
				</defs>
				<clipPath id="SVGID_16_">
					<use xlink:href="#SVGID_15_"  style="overflow:visible;"/>
				</clipPath>
				<g class="st24">
					<defs>
						<rect id="SVGID_17_" x="114.6" y="501.1" width="412.4" height="131.1"/>
					</defs>
					<clipPath id="SVGID_18_">
						<use xlink:href="#SVGID_17_"  style="overflow:visible;"/>
					</clipPath>
				</g>
			</g>
		</g>
	</g>
</g>
</svg>
