<svg xmlns="http://www.w3.org/2000/svg" viewBox="0 0 268.29 316.1"><defs><style>.cls-1{fill:#e6e6e7;}.cls-2{fill:#d1d1d2;}.cls-3{fill:#c1bcdb;}.cls-4{fill:#222221;}.cls-5{fill:#676774;}.cls-6{fill:#382f3d;}.cls-7{fill:#353442;}.cls-8{fill:#38303e;}.cls-9{fill:#8d8aaa;}.cls-10{fill:#5488b8;}.cls-11{fill:#e6e6e6;}.cls-12{fill:#4a7fa7;}.cls-13{fill:#201d37;}.cls-14{fill:#303071;}</style></defs><title>penguin-1</title><g id="Слой_2" data-name="Слой 2"><g id="Слой_1-2" data-name="Слой 1"><path class="cls-1" d="M221.52,115.27c.58.76,1,1.42,1.57,2A180.36,180.36,0,0,1,255.6,172.5c2,5.22,4,10.42,6.07,15.61,2.44,6.11,3.11,12.59,4,19,.52,3.83.72,7.72.91,11.6.49,10.13-1.4,19.94-4.4,29.56-1.29,4.12-3,8.12-4.49,12.17-1,2.78-2,5.59-3.19,8.31a41.64,41.64,0,0,1-10,14.35c-6.88,6.38-13.91,12.6-20.91,18.86a10.3,10.3,0,0,1-2.49,1.55,121,121,0,0,1-32.49,9.8c-7.93,1.25-15.83,2.74-23.88,2.77-5.69,0-11.37-.23-17.05-.39-7.44-.21-14.67-1.95-21.81-3.73A56.83,56.83,0,0,1,95,292.58c-2.95-3.59-5.81-7.36-7.19-12a9.81,9.81,0,0,0-1.49-2.24C78,266,72.05,252.66,69.92,237.83a68,68,0,0,1,.43-18.89A164.11,164.11,0,0,1,80.8,180.13a220.41,220.41,0,0,1,12.31-26.45c5.51-9.78,9.12-20.38,12.32-31.12a21.9,21.9,0,0,0-.33-13.31,151.41,151.41,0,0,0-5.77-15.72A62.86,62.86,0,0,1,94,61.86a38.22,38.22,0,0,1,10.24-23.35,66.61,66.61,0,0,1,31.11-18.79c6.39-1.86,12.83-3.69,19.52-4.14a75.7,75.7,0,0,1,8.81-.38c6,.28,12.08-.06,18.12-.19,8.56-.19,17.2-1.09,25.55,1.44,5.4,1.64,10.79,3.38,15.61,6.61a28.73,28.73,0,0,1,9.74,11.69c4,8.06,5.59,16.69,6.25,25.59,1.09,14.9-2.22,28.87-8.88,42.08a106.07,106.07,0,0,1-6.39,10c-.63,1-1.41,1.84-2.16,2.82"/><path class="cls-2" d="M142.71,133.66c-1.52.53-2.5.93-3.52,1.21a50.68,50.68,0,0,0-26.82,18.25c-2.06,2.63-3.91,5.42-5.83,8.15a13.23,13.23,0,0,1-4.31,4.2c-.63-2.39.37-4.27.89-6.07-2.87-1.32-3.79,1.58-5.79,2.53a18.08,18.08,0,0,1,3.23-8.08c5.71-8.73,13.89-14.33,23.34-18.18,3.81-1.55,7.93-2.33,11.91-3.47a9.61,9.61,0,0,0,1-.49c-2.43-2.3-5.59-3.13-7.94-5.1a76.36,76.36,0,0,1-6.66-6.32c-2.16-2.29-4.11-4.78-6.56-7,1,1.9,2,3.78,3,5.69a61.28,61.28,0,0,1,2.63,5.89c-4.5-3.2-7.11-7.89-10-12.36a61.55,61.55,0,0,1-7.33-14.75c-1.63-5.1-2.73-10.37-4.22-15.54-.07,9.83,2.85,19.27,3.59,29.12-.39-.63-.83-1.24-1.17-1.89-2.64-5-3.62-10.55-4.89-16a55,55,0,0,1-.07-24.16c.63-3,.73-6.08,1.11-9.12.19-1.51.46-3,.73-4.54a3,3,0,0,1,.47-1.53c2-2,1.81-4.75,2.67-7.14.51-1.42.8-3,2.26-4l1.19.75a3.26,3.26,0,0,0,.58-.46A30.43,30.43,0,0,1,115,35.78a16.71,16.71,0,0,0,3-2.68c2.37-2.21,4.69-4.47,7.12-6.6a2.47,2.47,0,0,1,3.11-.6L126.31,29c.77-.29,1.17-.4,1.54-.58a53.91,53.91,0,0,1,21.39-5.26,33.42,33.42,0,0,1,7.48.87,9.18,9.18,0,0,1,2.57,1.4c-.41,1.36-1.16,1.23-1.88,1.08-10.38-2.16-19.81.9-28.9,5.43-11.75,5.85-17.63,15.94-20.44,28.37-3,13.38-.78,25.92,4.87,38.17a82.35,82.35,0,0,0,21.9,28.22c2,1.7,4,3.36,6,5.06.52.45,1,1,1.87,1.94"/><path class="cls-2" d="M189.93,212.25a3,3,0,0,0,0-.64c-.2-1-.66-2.08.41-2.7s2.09-.08,3,.6A4.36,4.36,0,0,1,195,215a11.26,11.26,0,0,1-2.22,3.34A22.74,22.74,0,0,1,184,224a124.25,124.25,0,0,1-24.43,5.79c-3.65.54-7.34,1-11,1.19a79,79,0,0,1-46.36-11.12A107.69,107.69,0,0,1,82,204.91a30.45,30.45,0,0,1-3.56-4.06c-1.11-1.54-.68-2.13,1.66-2.35-.29-2.79-.58-5.58-.89-8.6a6.47,6.47,0,0,1,3.85,2.38c3,3.13,5.85,6.35,8.82,9.48,2.6,2.75,5.28,5.42,7.94,8.1a5.45,5.45,0,0,0,1.26,1c7.5,4,15,8,23.3,10a74.27,74.27,0,0,0,22.3,1.67c9.73-.64,19-3.4,28.27-6,4.08-1.12,8.11-2.44,12.17-3.65.86-.25,1.75-.42,2.81-.67"/><path class="cls-2" d="M210.47,207.37l24.17-4.05a30.91,30.91,0,0,0,14.89-6.62c1.36-1.12,2.7-2.49,4.8-1.86a1.54,1.54,0,0,0,1-.26c1.68-.84,3.39-1.64,5-2.6.55-.33.84-1.1,1.24-1.67l.71.19c.33.94.74,1.86,1,2.82,1.42,5.42,1.06,5.9-3.26,9.33-11,8.79-24,12.46-37.66,14.21-2.86.37-5.74.63-8.62.75a25.45,25.45,0,0,1-5.37-.36,7,7,0,0,1-4.56-2.67,3.87,3.87,0,0,1,0-5.21,18.33,18.33,0,0,1,3.46-3,2.61,2.61,0,0,1,1.94,0,4.62,4.62,0,0,1,1.31,1"/><path class="cls-2" d="M221.52,115.67l6.31,6.94c-1.3-.49-2.47-.87-3.59-1.37a10.27,10.27,0,0,0-9.12.18c-4.56,2.18-9.17,4.23-13.79,6.27-1.16.52-2.3,1.3-4.24.91,2.09-1.78,3.82-3.3,5.6-4.75,3.29-2.69,6.62-5.31,9.9-8A49.2,49.2,0,0,0,225.09,100,126.06,126.06,0,0,0,236,69.53c.93-4.2,1.11-8.57,1.58-12.88.11-1,0-1.94.13-2.9,3.7,15.75-.1,43-16.2,61.92"/><path class="cls-2" d="M196.85,104.59a11,11,0,0,1-1.8,5.62,16.56,16.56,0,0,1-12.67,7.3,39.23,39.23,0,0,1-9.12-.41,12.28,12.28,0,0,1-8.62-6,31.94,31.94,0,0,1-2.58-5.33,14.24,14.24,0,0,1-.44-3.2c1.32-.55,1.66.14,2,.78.71,1.35,1.37,2.74,2.09,4.09,3.05,5.67,9.5,7.11,14.09,6.15,1.66-.35,3.26-.87,5-.4.69.17,1.65-.52,2.42-.91,1.81-.91,3.05-2.82,5.39-2.86.43,0,.87-1,1.25-1.63.75-1.2,1.26-2.61,3-3.24"/><path class="cls-3" d="M18.53,150.05c-2.1-1.5-3.81-2.81-5.6-4C4.2,140.28.54,131.74,0,121.7a18,18,0,0,1,1.68-7.29c3.91-9.66,11.93-13.77,21.8-12.64,3.82.44,7.61,1.2,11.73,1.87-.43-.69-.69-1.2-1-1.65-3.26-4.21-6.56-8.38-9-13.16a41.23,41.23,0,0,1-4.6-13.5,27.92,27.92,0,0,1,6.17-21.77C31.12,48.14,37.2,46.14,44.17,47a24.39,24.39,0,0,1,8.9,3A60,60,0,0,1,69.23,63,213.2,213.2,0,0,1,91.12,91.87c1,1.6,2.15,3.12,1.37,5.26-.19.53.29,1.37.58,2,1.34,3,2.85,5.84,4.06,8.84,2.59,6.41,3.31,12.91.29,19.43.13,2.73-1.27,4.65-3,6.67-1.36,1.6-2,3.82-2.94,5.76-3.91,7.93-7.92,15.8-11.71,23.78-3.71,7.82-7.2,15.74-10.79,23.62-1.38,3-2.74,6.06-4.18,9.24,1,.31,1.75.49,2.47.78a2.58,2.58,0,0,1,1.79,2.46,2.67,2.67,0,0,1-1.89,2.69,6.48,6.48,0,0,1-2.11.34,83.26,83.26,0,0,1-16.15-1.33c-11.11-1.87-21.13-6.6-30.76-12.14a31.21,31.21,0,0,1-14-17.38,16.75,16.75,0,0,1,2.85-16.59,12.9,12.9,0,0,1,7.27-4.43c1.22-.3,2.46-.49,4.19-.83"/><path class="cls-4" d="M170.44,266.47a59.34,59.34,0,0,1-3.82,15.85q-2.76,7.64-5.72,15.18A35.22,35.22,0,0,1,152.52,310c-8.09,7.94-16.8,6.26-23.44-1.47a38.65,38.65,0,0,1-5.51-8.64c-4.31-9.13-8.2-18.45-10.67-28.28a17,17,0,0,1-.27-8.82,10.66,10.66,0,0,1,9.1-7.77,6.23,6.23,0,0,1,6.51,3.46,68.48,68.48,0,0,1,2.7,6.76c.32.84.49,1.74.87,2.55a2.26,2.26,0,0,0,2.44,1.33,1.89,1.89,0,0,0,1.81-1.73c.2-2.14.28-4.29.3-6.44,0-1-.3-2-.34-2.95-.14-3.37,1.19-5.42,4.15-6.51a7,7,0,0,1,8.26,2.23,12.2,12.2,0,0,1,2,8.76,23.39,23.39,0,0,0-.31,3.22c0,.61.5,1.65.87,1.69a2.82,2.82,0,0,0,2.06-.75,4.85,4.85,0,0,0,.83-2c.53-1.62,1-3.29,1.57-4.88,1.05-2.72,2.88-4.67,6-4.66,3.31,0,6.08,1.35,7.33,4.57a50.61,50.61,0,0,1,1.63,6.77"/><path class="cls-4" d="M234,261.09c.7-1.25,1.22-2.27,1.84-3.24a25.18,25.18,0,0,1,3-4.45c3.14-3.18,7.62-2,8.89,2.26.53,1.79.77,3.67,1.15,5.49,1.77.25,2.42-.9,3.06-2s1.18-2.45,2-3.55a5.79,5.79,0,0,1,8-1.82,6.52,6.52,0,0,1,2.6,4.28,31,31,0,0,1-4.19,24.39,51.62,51.62,0,0,1-5.84,7.43,81.17,81.17,0,0,1-19.86,15.74,37.14,37.14,0,0,1-11.13,4.07,14.05,14.05,0,0,1-6.94-.46c-3.3-1.06-4.84-3.63-5.34-6.87a24.38,24.38,0,0,1,.83-9.38,37.62,37.62,0,0,1,1.1-3.9,66.54,66.54,0,0,0,3.58-27.17,25.11,25.11,0,0,1,0-3.78c.29-3.66,2.86-6.19,6.87-6.87,3.16-.54,6,1.2,7.46,4.53.74,1.69.83,3.72,2.88,5.27"/><path class="cls-5" d="M124.22,67.61c.07-7.76,2-13.33,6.4-17.94,6.78-7.18,17.28-8.22,25.65-2.6,11.19,7.51,14.45,23.87,7,35.06-6.87,10.3-20.43,12.18-30,4.06a24.78,24.78,0,0,1-9.06-18.58"/><path class="cls-5" d="M222.45,61.05a20.92,20.92,0,0,1-3.15,10.84,18.55,18.55,0,0,1-26.75,5.91,23.22,23.22,0,0,1-7.25-30c6.83-12.26,22.31-13.7,31.71-2.68,3.69,4.33,5.48,9.46,5.44,15.93"/><path class="cls-5" d="M196.1,98.13c.72-1.43,1.26-2.51,1.91-3.82,1.89,3.73-.53,12.29-4.54,16.33-5.91,6-13.6,6.66-21.83,3.59-4.73-1.77-9.35-8.17-9.11-12.18a16.51,16.51,0,0,1,6.48,1c8.05,3.52,15.64,2.31,22.85-2.37,1-.64,2-1.26,3-1.86.46-.28,1-.5,1.26-.66"/><path class="cls-6" d="M173.21,266.47a59.32,59.32,0,0,1-3.81,15.85c-1.84,5.09-3.76,10.15-5.72,15.18A35.35,35.35,0,0,1,155.3,310c-8.09,7.94-16.8,6.26-23.45-1.47a38.61,38.61,0,0,1-5.5-8.64,154.33,154.33,0,0,1-10.67-28.28,16.81,16.81,0,0,1-.27-8.82A10.65,10.65,0,0,1,124.5,255a6.23,6.23,0,0,1,6.51,3.46,66.11,66.11,0,0,1,2.7,6.76c.32.84.5,1.74.88,2.55a2.26,2.26,0,0,0,2.44,1.33,1.89,1.89,0,0,0,1.81-1.73c.19-2.14.27-4.29.29-6.44,0-1-.29-2-.33-2.95-.15-3.37,1.19-5.42,4.15-6.51a7,7,0,0,1,8.25,2.23,12.25,12.25,0,0,1,2,8.76,23.39,23.39,0,0,0-.31,3.22c0,.61.5,1.65.87,1.69a2.84,2.84,0,0,0,2.06-.75,4.71,4.71,0,0,0,.82-2c.54-1.62,1-3.29,1.58-4.88,1.05-2.72,2.88-4.67,6-4.66,3.31,0,6.08,1.35,7.33,4.57a49.12,49.12,0,0,1,1.63,6.77"/><path class="cls-6" d="M236.65,261.09c.7-1.25,1.22-2.27,1.83-3.24a25.22,25.22,0,0,1,3-4.45c3.14-3.18,7.61-2,8.89,2.26.53,1.79.77,3.67,1.14,5.49,1.77.25,2.43-.9,3.07-2s1.17-2.45,1.94-3.55a5.81,5.81,0,0,1,8.06-1.82,6.56,6.56,0,0,1,2.6,4.28,31,31,0,0,1-4.2,24.39,50.86,50.86,0,0,1-5.83,7.43,81,81,0,0,1-19.87,15.74,37,37,0,0,1-11.12,4.07,14.09,14.09,0,0,1-7-.46c-3.3-1.06-4.83-3.63-5.33-6.87a24.18,24.18,0,0,1,.83-9.38,37.62,37.62,0,0,1,1.1-3.9,66.71,66.71,0,0,0,3.58-27.17,25.11,25.11,0,0,1,0-3.78c.29-3.66,2.85-6.19,6.87-6.87,3.16-.54,6,1.2,7.45,4.53.74,1.69.84,3.72,2.89,5.27"/><path class="cls-4" d="M138,132.63c-14.84,1.66-25.57,9.71-34.89,20.27.24.37.32.66.51.79,7.06,5,13.86,10.48,21.26,14.91,12.42,7.44,26,12.4,39.89,16.36,8.08,2.29,16.3,3.77,24.52,5.34a26.27,26.27,0,0,1,2.62.63c3.68,1.13,6.87,2.85,7.89,7,.26-.12.52-.16.56-.27,1.27-3.68,4-5.81,7.39-7.46,4.53-2.23,9.07-4.45,13.42-7a48.38,48.38,0,0,0,13.52-12.37c6.09-7.81,6.87-16.58,3.69-25.86-2.65-7.75-6.71-14.75-11.26-21.5-.6-.89-1.17-1.81-2-3.11a4.58,4.58,0,0,1,2.73,1.61c5,5.55,11.16,9.68,17.11,14.07,8.05,5.93,14.67,13.11,19,22.23,3.42,7.32,5.16,15,4,23.12a16.27,16.27,0,0,1-6.32,11.23,62.2,62.2,0,0,1-14.24,8.28,104.06,104.06,0,0,1-37.37,7.7,10.32,10.32,0,0,1-9.7-5.58c-.32.48-.61.85-.83,1.26a17.77,17.77,0,0,1-5.34,6,32.08,32.08,0,0,1-11.4,5.43c-8.84,2.13-17.69,4.21-26.56,6.18a50.1,50.1,0,0,1-7.25.8c-3.42.24-6.85.56-10.27.51-20.16-.29-37.23-7.54-50.66-22.82-1.91-2.17-3.76-4.38-5.65-6.56,0-.06-.15-.08-.6-.29-.26,1-.54,2-.76,3-1.71,7.6-2.35,15.33-3,23.06-.6,7.18.32,14.26,1.48,21.28A113.16,113.16,0,0,0,98.2,287.15,72.39,72.39,0,0,0,126.38,311c.77.38,1.52.81,2.27,1.22-.07.21-.15.42-.23.62a51.56,51.56,0,0,1-6.18-1.65c-12-4.75-23.3-10.74-32.75-19.64a160.33,160.33,0,0,1-13.55-14.74c-8.33-10.11-12-22.26-14.47-34.87a95.9,95.9,0,0,1-1.87-24,125.29,125.29,0,0,1,5-29c2.22-7.33,4.47-14.65,6.88-21.92,2.86-8.63,7.69-16.27,12.41-24,3-4.92,6.17-9.77,8.93-14.84,4.65-8.52,4.52-7.86,1.45-17-2.11-6.32-4.73-12.47-7.32-18.61a48.44,48.44,0,0,1-3.64-17.92C83,63.5,84.48,52.59,88.9,42.17a62.75,62.75,0,0,1,15.46-21.61c7.44-6.95,16.35-11,25.88-14.12a121.59,121.59,0,0,1,45-6.26A88.22,88.22,0,0,1,210,9.48c8.78,4.4,15.33,11.33,20.28,19.75a19.53,19.53,0,0,1,2.12,6.1c-.45-.48-.91-.95-1.33-1.45a58,58,0,0,0-11-10A23.15,23.15,0,0,0,208.15,20,36.54,36.54,0,0,0,185,25.84c-5.15,3.28-9.34,7.35-11.67,13.12a18.71,18.71,0,0,1-1.12,1.88,28.46,28.46,0,0,0-1.78-2.37,43.88,43.88,0,0,0-13.25-10.15,31.19,31.19,0,0,0-16.37-2.56c-9.89.91-18.31,5.16-25.68,11.61-3.66,3.21-7.24,6.45-9.77,10.77a44.42,44.42,0,0,0-5.78,26.55c1.15,14.68,7.7,27.1,17.08,38.11,5.15,6,10.68,11.77,17.26,16.34,1.19.82,2.38,1.63,3.54,2.47.19.14.26.44.59,1"/><path class="cls-7" d="M124.23,64.29a22.23,22.23,0,0,1,8.37-16.43c7.42-6.18,18.56-6,26.37,1.21.53.49,1,1,1.5,1.56,5.46,5.42,6.41,11.67,3.27,18.56-3.65,8-11.39,14.45-21.28,13.79a23.7,23.7,0,0,1-11.21-3.51c-5.38-3.37-7.48-8.28-7-15.18"/><path class="cls-7" d="M200,74.29c-7.36.1-13.71-3.83-16.44-10.21a9.78,9.78,0,0,1-.88-3.11C182,51.66,185.76,42.1,196,38.61c6.19-2.12,12-.86,17.13,2.93,6.95,5.09,8.83,13.09,5.07,20.88-3,6.32-9.38,12.07-18.21,11.87"/><path class="cls-8" d="M198.43,96.56c1,7.14-4.42,15.9-10.63,17.7a14.21,14.21,0,0,0-20.4-3.11c-2.32-2.43-4.33-4.91-5.08-8.1,2,0,3.77,0,5.54,0a33.11,33.11,0,0,1,11.08,1.83c2,.69,4.44.28,6.68.23.42,0,.82-.64,1.23-1,2.4-2,4.76-4.12,7.24-6.06a8.23,8.23,0,0,1,2.4-.74c.65-.21,1.28-.5,1.94-.76"/><path class="cls-9" d="M88.53,97.21a18.31,18.31,0,0,0-11.62-3.88,15.9,15.9,0,0,0-15.24,11.2C58.84,113,60.1,120.65,66,127.25c3.79,4.21,8.08,8,12.16,11.93.62.61,1.29,1.16,2,1.74l-.3.53a30.73,30.73,0,0,1-4.61-1.89,77.56,77.56,0,0,1-8.78-5.81c-7-5.6-18.44-3.66-22.87,4.05A15.34,15.34,0,0,0,45.16,155,38.54,38.54,0,0,0,60.4,166c2.22.92,4.38,2,6.93,3.15a2.85,2.85,0,0,1-2.84.41c-2.88-.76-5.79-1.42-8.58-2.44a11.75,11.75,0,0,0-12.58,3.35,11.59,11.59,0,0,0-2.08,12.64,15.29,15.29,0,0,0,6.6,7.3,40.52,40.52,0,0,0,12.9,4.71c.53.11,1,.23,1.57.36.08,0,.14.11.54.46l-1.19,7.33c-3.66.88-7.07.41-10.43-.08a77.79,77.79,0,0,1-33.95-13.27c-7.13-5-11.88-11.53-13.55-20.11a19.85,19.85,0,0,1,.79-11.2A11.81,11.81,0,0,1,11.24,152c.09.3.23.52.17.61-3.21,4.87-2.81,9.89-.57,14.95,2.9,6.57,7.71,11.53,13.62,15.41a61.56,61.56,0,0,0,15.16,6.75c-3.43-4.78-5.13-9.38-3.62-14.64A21.52,21.52,0,0,1,44.93,163a61.19,61.19,0,0,0-14.11-8.34c-3.29-1.44-6.71-2.61-10.14-3.73-4.26-1.38-7.53-4.2-10.75-7.1A28.81,28.81,0,0,1,.09,124.19c-.7-8.9,3.21-15.69,10.67-20.47a8.33,8.33,0,0,1,2.21-1,9.67,9.67,0,0,1,3.27-.38c-.54.38-1.09.76-1.62,1.16-7.09,5.42-10.14,12.92-6.69,21.44a35.92,35.92,0,0,0,14,17.18c3.92,2.52,8.28,4.36,12.47,6.46a14.8,14.8,0,0,0,2.54.72c-.39-6.63.72-12.58,5.28-17.29,4.41-4.56,10-6.44,16.76-6.19-2-2.34-3.58-4.35-5.29-6.28-4.75-5.35-9.81-10.36-15.94-14.16a9.05,9.05,0,0,1-2.12-1.66C29.45,96.64,24.09,89.1,21.1,80.1,18.4,71.94,20,64.2,23.79,56.85,26,52.53,30,49.89,34.4,48a2.91,2.91,0,0,1,.77-.2c.16,0,.32.11.61.21-5,3.68-6.46,9-6.88,14.71a32,32,0,0,0,1.57,12.82C34.8,88.22,42,98.76,53.5,106a17.83,17.83,0,0,0,1.66.91c.14.07.35,0,.64,0a30.29,30.29,0,0,1,5.7-10,20.29,20.29,0,0,1,22.92-5.53c2.66,1.06,3.55,3,4.11,5.79"/><path class="cls-10" d="M158.79,214.9c.25-1.6.46-3.2.75-4.8a41.74,41.74,0,0,1,10.12-20.61,22.35,22.35,0,0,1,4.47-3.88c3.93-2.57,10.47-1.28,13.23,2.44,1.24,1.67,1.14,2.33-.59,3.42a20.31,20.31,0,0,0-8.48,9.9c-1.73,4.44-4,8.75-3.68,13.72.36,5.41-3.58,6.86-7.07,7.61a10.24,10.24,0,0,1-3,.08c-3.51-.25-5.17-1.91-5.5-5.42-.07-.81-.08-1.62-.12-2.43l-.15,0"/><path class="cls-5" d="M161.78,102.52A30,30,0,0,1,168.54,91c2.34-2.53,4.93-4.77,8.33-5.79a14.42,14.42,0,0,1,8.53,0,37.29,37.29,0,0,1,14,8.36,8.07,8.07,0,0,1,.89,1.23,26.43,26.43,0,0,1-1.92,2.57,37.64,37.64,0,0,1-11.31,8.22c-3.56,1.76-7.42,1.66-11.14,1.06-4.07-.66-8-1.92-12-3a11.05,11.05,0,0,1-2.15-1.18"/><path class="cls-11" d="M148.84,62.87c-2.14-.23-4.25-.64-5.9-2.26a4.86,4.86,0,0,1-.15-7.22c2.84-3,8.89-3.18,11.91-.39a5,5,0,0,1,.73,6.63c-1.57,2.31-4,3-6.59,3.24"/><path class="cls-11" d="M205.4,55.4a8.4,8.4,0,0,1-6-2,4.69,4.69,0,0,1,.31-7.47,8.05,8.05,0,0,1,10.38.63,4.59,4.59,0,0,1-.05,6.92,6.7,6.7,0,0,1-4.6,1.88"/><path class="cls-11" d="M206.77,62.38c-2.42,0-4.06-1-4.18-2.55s1.45-2.92,3.72-3.27a5.54,5.54,0,0,1,1.35-.05c1.87.13,3.27,1.23,3.32,2.58s-1.63,3-3.13,3.28a7.77,7.77,0,0,1-1.08,0"/><path class="cls-11" d="M150.15,69.8a10.86,10.86,0,0,1-2.5-1.35,2.36,2.36,0,0,1,.11-3.37,4.78,4.78,0,0,1,5.42-1,2.65,2.65,0,0,1,1.38,3.15c-.41,1.23-2.35,2.51-4.41,2.53"/><path class="cls-12" d="M175.34,207c-.41,3.71-.79,6.91-1.13,10.12a3.15,3.15,0,0,1-1.84,2.58c-.34-.36-.74-.62-.9-1-1.87-4.39-5.64-6.38-9.85-7.77-2.16-.72-2.2-.65-1.63-2.74.26-1,.56-1.89.85-2.84,4.63,2,9.2,4.14,14.5,1.64"/><path class="cls-12" d="M188.71,190.23c-4.3,1.44-6.82,4.32-9.11,7.84-1.77-2.85-3.25-5.36-4.86-7.78-.78-1.16-1.62-2.45-3.59-1.7.39-1.59,1-2.36,2.34-1.62,3.44,1.86,6.77,1.08,10.09-.33,2-.86,2.32-.81,3.54.9.51.7.89,1.49,1.59,2.69"/><path class="cls-13" d="M180.26,199.32c.06,5.29-4.27,10.19-11,10.29a10.29,10.29,0,0,1-10.21-10.44c.08-5.34,5.34-10.35,11.08-10,5.51.34,10,3.57,10.12,10.13"/><path class="cls-14" d="M167.61,186.73c6.11.28,10.37,3.92,10.44,10.05.06,5.77-4.65,10.19-11,10.32a10.21,10.21,0,0,1-10.21-10.4c0-5.34,5-10,10.74-10"/></g></g></svg>