<svg xmlns="http://www.w3.org/2000/svg" xmlns:xlink="http://www.w3.org/1999/xlink" viewBox="0 0 272.29 245.9"><defs><style>.cls-1{isolation:isolate;}.cls-2{mix-blend-mode:screen;}.cls-3{fill:url(#radial-gradient);}.cls-4{fill:url(#radial-gradient-2);}.cls-5{fill:url(#radial-gradient-3);}.cls-6{fill:url(#radial-gradient-4);}.cls-7{fill:url(#linear-gradient);}.cls-8{fill:url(#linear-gradient-2);}.cls-9{fill:url(#linear-gradient-3);}.cls-10{fill:url(#linear-gradient-4);}.cls-11{fill:#e2865c;}.cls-12{fill:url(#radial-gradient-5);}.cls-13{fill:url(#radial-gradient-6);}.cls-14{fill:url(#radial-gradient-7);}.cls-15{fill:url(#radial-gradient-8);}</style><radialGradient id="radial-gradient" cx="161.64" cy="-70.66" r="122.92" gradientTransform="translate(9.95 252.81) rotate(-23.79)" gradientUnits="userSpaceOnUse"><stop offset="0" stop-color="#4261fa"/><stop offset="0.05" stop-color="#3c58e2"/><stop offset="0.2" stop-color="#2c41a7"/><stop offset="0.35" stop-color="#1f2d74"/><stop offset="0.49" stop-color="#141d4a"/><stop offset="0.63" stop-color="#0b102a"/><stop offset="0.77" stop-color="#050713"/><stop offset="0.89" stop-color="#010205"/><stop offset="1"/></radialGradient><radialGradient id="radial-gradient-2" cx="161.64" cy="-70.66" r="69.16" gradientTransform="translate(-14.43 20.73) rotate(59.02)" xlink:href="#radial-gradient"/><radialGradient id="radial-gradient-3" cx="161.64" cy="-70.66" r="69.16" gradientTransform="translate(-14.43 20.73) rotate(59.02)" gradientUnits="userSpaceOnUse"><stop offset="0" stop-color="#72c9fc"/><stop offset="0.06" stop-color="#63afdb"/><stop offset="0.15" stop-color="#4c86a9"/><stop offset="0.26" stop-color="#38627b"/><stop offset="0.36" stop-color="#274455"/><stop offset="0.47" stop-color="#192b36"/><stop offset="0.59" stop-color="#0e181e"/><stop offset="0.71" stop-color="#060b0d"/><stop offset="0.84" stop-color="#010303"/><stop offset="1"/></radialGradient><radialGradient id="radial-gradient-4" cx="161.64" cy="-70.66" r="69.16" gradientTransform="translate(-14.43 20.73) rotate(59.02)" gradientUnits="userSpaceOnUse"><stop offset="0" stop-color="#fff"/><stop offset="0" stop-color="#fdfdfd"/><stop offset="0.08" stop-color="#c8c8c8"/><stop offset="0.17" stop-color="#9a9a9a"/><stop offset="0.26" stop-color="#707070"/><stop offset="0.35" stop-color="#4e4e4e"/><stop offset="0.45" stop-color="#313131"/><stop offset="0.56" stop-color="#1b1b1b"/><stop offset="0.67" stop-color="#0c0c0c"/><stop offset="0.81" stop-color="#030303"/><stop offset="1"/></radialGradient><linearGradient id="linear-gradient" x1="102.21" y1="-70.74" x2="221.9" y2="-70.74" gradientTransform="translate(9.6 253.06) rotate(-23.79)" gradientUnits="userSpaceOnUse"><stop offset="0" stop-color="#220658"/><stop offset="1" stop-color="#400b69"/></linearGradient><linearGradient id="linear-gradient-2" x1="135.59" y1="-107.29" x2="158.25" y2="-107.29" gradientTransform="translate(9.6 253.06) rotate(-23.79)" gradientUnits="userSpaceOnUse"><stop offset="0" stop-color="#7b31dc"/><stop offset="1" stop-color="#4100da"/></linearGradient><linearGradient id="linear-gradient-3" x1="115.34" y1="-64.35" x2="194.22" y2="-64.35" xlink:href="#linear-gradient-2"/><linearGradient id="linear-gradient-4" x1="194.21" y1="-81.77" x2="221.89" y2="-81.77" xlink:href="#linear-gradient-2"/><radialGradient id="radial-gradient-5" cx="395.09" cy="-875.33" r="107.33" gradientTransform="matrix(1.26, -0.67, 0.15, 0.29, -228.34, 645.69)" gradientUnits="userSpaceOnUse"><stop offset="0" stop-color="#e8a126"/><stop offset="0.01" stop-color="#e29d25"/><stop offset="0.17" stop-color="#a7741b"/><stop offset="0.32" stop-color="#745013"/><stop offset="0.47" stop-color="#4a340c"/><stop offset="0.62" stop-color="#2a1d07"/><stop offset="0.76" stop-color="#130d03"/><stop offset="0.89" stop-color="#050301"/><stop offset="1"/></radialGradient><radialGradient id="radial-gradient-6" cx="395.09" cy="-875.33" r="68.3" xlink:href="#radial-gradient-5"/><radialGradient id="radial-gradient-7" cx="395.09" cy="-875.33" r="68.3" gradientTransform="matrix(1.26, -0.67, 0.15, 0.29, -228.34, 645.69)" gradientUnits="userSpaceOnUse"><stop offset="0" stop-color="#f3d334"/><stop offset="0.04" stop-color="#dbbe2f"/><stop offset="0.14" stop-color="#a89224"/><stop offset="0.25" stop-color="#7b6b1a"/><stop offset="0.35" stop-color="#554a12"/><stop offset="0.47" stop-color="#362f0c"/><stop offset="0.58" stop-color="#1e1a06"/><stop offset="0.7" stop-color="#0d0c03"/><stop offset="0.84" stop-color="#030301"/><stop offset="1"/></radialGradient><radialGradient id="radial-gradient-8" cx="395.09" cy="-875.33" r="68.3" gradientTransform="matrix(1.26, -0.67, 0.15, 0.29, -228.34, 645.69)" xlink:href="#radial-gradient-4"/></defs><title>planet-1</title><g class="cls-1"><g id="Слой_2" data-name="Слой 2"><g id="Слой_1-2" data-name="Слой 1"><g class="cls-2"><path class="cls-3" d="M241.81,73.36A122.92,122.92,0,1,1,79.75,10.48,122.91,122.91,0,0,1,241.81,73.36Z"/></g><g class="cls-2"><circle class="cls-4" cx="129.34" cy="122.95" r="69.16" transform="translate(-8.82 235.9) rotate(-82.82)"/></g><g class="cls-2"><circle class="cls-5" cx="129.34" cy="122.95" r="69.16" transform="translate(-8.82 235.9) rotate(-82.82)"/></g><g class="cls-2"><circle class="cls-6" cx="129.34" cy="122.95" r="69.16" transform="translate(-8.82 235.9) rotate(-82.82)"/></g><path class="cls-7" d="M185.13,144.6A59.84,59.84,0,1,1,151,67.16,59.84,59.84,0,0,1,185.13,144.6Z"/><path class="cls-8" d="M109.6,89.06c3.86,3.61.27,5.63-.8,4.62s-2.15.19-.63,2.7c1.27,2.1-5.22-.45-4.77,2.1.37,2-5.94,6.85-9.28,5.56-4.9-1.89-4.79-7.09-.19-8.8s7.29-2,7.73-6C101.93,86.67,108.21,87.31,109.6,89.06Z"/><path class="cls-9" d="M134.08,130.58C146,118.43,154.54,117.31,157.37,109s-23.86-6.79-33.43-5.32c-17.14,2.62-6.21,10.37-18.2,16.86s-4.9,7.06,3.36,4.36,6.65,1.92,2.64,8.51-20.39,8.89-8.4,11.3,9.61,4.4-4.06,12S112.6,173,117.8,163.1c6.76-12.87,24.41-9.92,34.58-16.63s-5-5.4-.46-8.68,5.21-7.39-8.36-3.61S134.08,130.58,134.08,130.58Z"/><path class="cls-10" d="M189.09,119.66A59.85,59.85,0,0,0,151,67.16l-1.12-.4c-8.51,8.93,5,9.53,1.81,19.33-3.34,10.14,2.39,7.2,6.2,1.46s6.56-1.78,9.22,4.68S159.58,108,170.51,104s10.87-1.45,7.25,10.27C175.81,120.64,182.89,121.59,189.09,119.66Z"/><path class="cls-11" d="M206.37,66.21a19.59,19.59,0,0,0-7.46-2,43.54,43.54,0,0,0-13.12,1.2A111.92,111.92,0,0,0,167.7,71.3c.56.35,1.07.72,1.58,1.09l.57.5c1.1.91,2.08,1.77,2.94,2.59A107.09,107.09,0,0,1,187,73a38.55,38.55,0,0,1,10.77.13,10,10,0,0,1,4,1.38,3.36,3.36,0,0,1,1.63,2.12,5.71,5.71,0,0,1-.56,2.24,21.27,21.27,0,0,1-2.44,4,61,61,0,0,1-7.51,8c-1.75,1.57-3.57,3.07-5.46,4.55-4.12,3.31-8.5,6.39-13,9.36-13,8.66-26.53,16.58-40.27,24.28a466.27,466.27,0,0,1-42.13,21.21,167.74,167.74,0,0,1-17.51,6.63c-1.39.46-2.77.82-4.16,1.19a44.42,44.42,0,0,1-10.52,1.45,10.14,10.14,0,0,1-3.92-.77A2.72,2.72,0,0,1,54.29,157c-.63-1.66.44-5.33,2.27-8.42a60,60,0,0,1,6.67-9.17c1-1.14,2-2.29,3.08-3.41a66.07,66.07,0,0,1-1-6.62c-2.23,1.83-4.4,3.79-6.5,5.81a64,64,0,0,0-8.35,9.56,26.71,26.71,0,0,0-3.33,6,14.35,14.35,0,0,0-1,8.1,11.47,11.47,0,0,0,5.34,7.61A19.42,19.42,0,0,0,59,168.89a49.2,49.2,0,0,0,13.42-.43c3.25-.54,6.42-1.14,9.52-1.91,5-1.17,9.93-2.68,14.74-4.31a337.46,337.46,0,0,0,44.89-19.59,260,260,0,0,0,41.3-26.58c3.08-2.51,6.1-5,9.11-7.71,3.22-2.86,6.33-5.88,9.34-9.1A74.92,74.92,0,0,0,209.54,89a31.75,31.75,0,0,0,3.2-6.64,13.9,13.9,0,0,0-.05-9.5A13.48,13.48,0,0,0,206.37,66.21Z"/><g class="cls-2"><path class="cls-12" d="M271.29,59.14c9,17-44.19,62.85-118.83,102.51S10,219.74,1,202.78s44.2-62.85,118.84-102.51S262.28,42.19,271.29,59.14Z"/></g><g class="cls-2"><path class="cls-13" d="M222.15,85.26c5.73,10.78-28.13,40-75.63,65.23s-90.65,37-96.38,26.18,28.12-40,75.62-65.24S216.41,74.47,222.15,85.26Z"/></g><g class="cls-2"><path class="cls-14" d="M222.15,85.26c5.73,10.78-28.13,40-75.63,65.23s-90.65,37-96.38,26.18,28.12-40,75.62-65.24S216.41,74.47,222.15,85.26Z"/></g><g class="cls-2"><path class="cls-15" d="M222.15,85.26c5.73,10.78-28.13,40-75.63,65.23s-90.65,37-96.38,26.18,28.12-40,75.62-65.24S216.41,74.47,222.15,85.26Z"/></g></g></g></g></svg>