<svg xmlns="http://www.w3.org/2000/svg" viewBox="0 0 38.82 38.82"><defs><style>.cls-1{isolation:isolate;}.cls-2{fill:#4b3df9;opacity:0.3;mix-blend-mode:multiply;}.cls-3{fill:#2c1b77;}</style></defs><title>profile-image-3</title><g class="cls-1"><g id="Слой_2" data-name="Слой 2"><g id="Слой_1-2" data-name="Слой 1"><circle class="cls-2" cx="19.41" cy="19.41" r="19.41" transform="matrix(0.16, -0.99, 0.99, 0.16, -2.93, 35.36)"/><path class="cls-3" d="M18.09,28.83h-2.6a3,3,0,0,1-3-3V13a3,3,0,0,1,3-3h2.6a.76.76,0,1,1,0,1.51h-2.6A1.47,1.47,0,0,0,14,13V25.85a1.47,1.47,0,0,0,1.47,1.47h2.6a.76.76,0,1,1,0,1.51Z"/><path class="cls-3" d="M28.58,20.17h-10a.76.76,0,0,1,0-1.52h10a.76.76,0,1,1,0,1.52Z"/><path class="cls-3" d="M28.58,20.17a.75.75,0,0,1-.53-.23l-3.32-3.31a.77.77,0,0,1,0-1.07.75.75,0,0,1,1.07,0l3.32,3.31a.77.77,0,0,1,0,1.07A.76.76,0,0,1,28.58,20.17Z"/><path class="cls-3" d="M25.27,23.48a.75.75,0,0,1-.54-.22.77.77,0,0,1,0-1.07l3.32-3.32a.76.76,0,0,1,1.07,1.07L25.8,23.26A.73.73,0,0,1,25.27,23.48Z"/></g></g></g></svg>