<svg xmlns="http://www.w3.org/2000/svg" viewBox="0 0 38.82 38.82"><defs><style>.cls-1{isolation:isolate;}.cls-2{fill:#4b3df9;opacity:0.3;mix-blend-mode:multiply;}.cls-3{fill:#2c1b77;}</style></defs><title>profile-image-2</title><g class="cls-1"><g id="Слой_2" data-name="Слой 2"><g id="Слой_1-2" data-name="Слой 1"><circle class="cls-2" cx="19.41" cy="19.41" r="19.41" transform="matrix(0.16, -0.99, 0.99, 0.16, -2.93, 35.36)"/><path class="cls-3" d="M29.78,21H9.17a1.57,1.57,0,0,1,0-3.13H29.78a1.57,1.57,0,0,1,0,3.13Z"/><path class="cls-3" d="M29.78,21a1.6,1.6,0,0,1-1.11-.46l-6.83-6.84a1.56,1.56,0,0,1,2.21-2.21l6.83,6.84A1.57,1.57,0,0,1,29.78,21Z"/><path class="cls-3" d="M22.94,27.84a1.56,1.56,0,0,1-1.1-2.66l6.83-6.84a1.56,1.56,0,0,1,2.21,2.21l-6.83,6.84A1.59,1.59,0,0,1,22.94,27.84Z"/></g></g></g></svg>