<svg xmlns="http://www.w3.org/2000/svg" viewBox="0 0 38.44 38.44"><defs><style>.cls-1{isolation:isolate;}.cls-2{fill:#4b3df9;opacity:0.3;mix-blend-mode:multiply;}.cls-3{fill:#2c1b77;}</style></defs><title>profile-image-1</title><g class="cls-1"><g id="Слой_2" data-name="Слой 2"><g id="Слой_1-2" data-name="Слой 1"><circle class="cls-2" cx="19.22" cy="19.22" r="19.22"/><path class="cls-3" d="M19.22,24.36a5.14,5.14,0,1,1,5.14-5.14A5.15,5.15,0,0,1,19.22,24.36Zm0-8.78a3.64,3.64,0,1,0,3.64,3.64A3.65,3.65,0,0,0,19.22,15.58Z"/><path class="cls-3" d="M19.22,31.33A12.17,12.17,0,0,1,16.39,31a.75.75,0,0,1-.58-.73V28.43c-.23-.09-.46-.18-.69-.29l-1.3,1.3a.74.74,0,0,1-.92.11,12.17,12.17,0,0,1-4-4A.76.76,0,0,1,9,24.62l1.3-1.3c-.11-.23-.2-.46-.29-.69H8.17a.75.75,0,0,1-.73-.58,12.3,12.3,0,0,1,0-5.66.75.75,0,0,1,.73-.58H10c.09-.23.18-.46.29-.69L9,13.82a.76.76,0,0,1-.11-.93,12.17,12.17,0,0,1,4-4,.74.74,0,0,1,.92.11l1.3,1.3c.23-.11.46-.2.69-.29V8.17a.75.75,0,0,1,.58-.73,12.3,12.3,0,0,1,5.66,0,.75.75,0,0,1,.58.73V10c.23.09.47.18.69.29L24.62,9a.76.76,0,0,1,.93-.11,12.14,12.14,0,0,1,4,4,.76.76,0,0,1-.11.93l-1.3,1.3c.11.23.2.46.29.69h1.84a.75.75,0,0,1,.73.58,11.95,11.95,0,0,1,0,5.66.75.75,0,0,1-.73.58H28.43c-.09.23-.18.46-.29.69l1.3,1.3a.76.76,0,0,1,.11.93,12.14,12.14,0,0,1-4,4,.76.76,0,0,1-.93-.11l-1.3-1.3c-.22.11-.46.2-.69.29v1.84a.75.75,0,0,1-.58.73A12.17,12.17,0,0,1,19.22,31.33Zm-1.91-1.67a10.66,10.66,0,0,0,3.82,0V27.89a.73.73,0,0,1,.53-.71,9,9,0,0,0,1.46-.61.74.74,0,0,1,.88.13L25.25,28a10.66,10.66,0,0,0,2.7-2.7L26.7,24a.74.74,0,0,1-.13-.88,8.84,8.84,0,0,0,.61-1.46.73.73,0,0,1,.71-.53h1.77a10.81,10.81,0,0,0,0-3.82H27.89a.73.73,0,0,1-.71-.53,8.84,8.84,0,0,0-.61-1.46.74.74,0,0,1,.13-.88L28,13.19a10.66,10.66,0,0,0-2.7-2.7L24,11.74a.74.74,0,0,1-.88.13,8.14,8.14,0,0,0-1.46-.6.75.75,0,0,1-.53-.72V8.78a10.66,10.66,0,0,0-3.82,0v1.77a.75.75,0,0,1-.53.72,8.14,8.14,0,0,0-1.46.6.74.74,0,0,1-.88-.13l-1.25-1.25a10.82,10.82,0,0,0-2.7,2.7l1.25,1.25a.74.74,0,0,1,.13.88,8,8,0,0,0-.6,1.46.75.75,0,0,1-.72.53H8.78a10.81,10.81,0,0,0,0,3.82h1.77a.75.75,0,0,1,.72.53,8,8,0,0,0,.6,1.46.74.74,0,0,1-.13.88l-1.25,1.25a10.82,10.82,0,0,0,2.7,2.7l1.25-1.25a.74.74,0,0,1,.88-.13,9,9,0,0,0,1.46.61.73.73,0,0,1,.53.71Z"/></g></g></g></svg>