<svg xmlns="http://www.w3.org/2000/svg" xmlns:xlink="http://www.w3.org/1999/xlink" viewBox="0 0 193.01 193.01"><defs><style>.cls-1{isolation:isolate;}.cls-2{fill:url(#linear-gradient);}.cls-3,.cls-4{fill:#f0c63d;}.cls-4{mix-blend-mode:multiply;}.cls-5{fill:url(#linear-gradient-2);}.cls-6{fill:url(#linear-gradient-3);}.cls-7{fill:#132251;}.cls-8{fill:url(#linear-gradient-4);}.cls-9{fill:url(#linear-gradient-5);}</style><linearGradient id="linear-gradient" x1="99.6" y1="203.03" x2="104.14" y2="121.73" gradientUnits="userSpaceOnUse"><stop offset="0" stop-color="#e5a099"/><stop offset="1" stop-color="#d75887"/></linearGradient><linearGradient id="linear-gradient-2" x1="8.32" y1="84.03" x2="93.02" y2="102.94" xlink:href="#linear-gradient"/><linearGradient id="linear-gradient-3" x1="647.43" y1="455.71" x2="647.43" y2="659.34" gradientTransform="translate(19.08 -741.66) rotate(45)" gradientUnits="userSpaceOnUse"><stop offset="0" stop-color="#f3f6ff"/><stop offset="1" stop-color="#ced7fd"/></linearGradient><linearGradient id="linear-gradient-4" x1="162.41" y1="-15.18" x2="138.96" y2="79.35" xlink:href="#linear-gradient"/><linearGradient id="linear-gradient-5" x1="104.73" y1="69.25" x2="108.89" y2="168.7" xlink:href="#linear-gradient"/></defs><title>rocket</title><g class="cls-1"><g id="Слой_2" data-name="Слой 2"><g id="Слой_1-2" data-name="Слой 1"><path class="cls-2" d="M140.06,111l1.22,21.56a45.38,45.38,0,0,1-35.84,47l-43.08,9.19Z"/><path class="cls-3" d="M72.79,159.62l-19.7-19.7-19.7-19.7S19.08,121.67,11,149.67,0,193,0,193s15.35-2.9,43.34-11S72.79,159.62,72.79,159.62Z"/><path class="cls-4" d="M12,181c1.72-7.08,4.23-16.78,7.71-28.83,3.69-12.77,8.54-18.54,11.73-21.09L62,161.62c-2.5,3.06-8.25,8-21.13,11.68C28.77,176.79,19.07,179.3,12,181Z"/><path class="cls-4" d="M24.6,168.41c3.15-6.39,6.44-13,9.85-19.71A132.24,132.24,0,0,1,43,134l16,16a133.52,133.52,0,0,1-14.68,8.55Q34.22,163.7,24.6,168.41Z"/><path class="cls-5" d="M82,53,60.43,51.73A45.38,45.38,0,0,0,13.48,87.57L4.29,130.66Z"/><path class="cls-6" d="M74.62,145.16A35.61,35.61,0,0,1,47.85,118.4c-5.64-24.86-2.66-68.21,70.11-98,19.57-8,44.19-15,75.05-20.43-5.4,30.86-12.42,55.48-20.43,75.05C142.83,147.82,99.47,150.8,74.62,145.16Z"/><path class="cls-7" d="M80.94,145.25,64.35,128.66,47.76,112.07l-4,1.07a8.27,8.27,0,0,0-6.06-.72l-15.29,4.12a3,3,0,0,0-1.36,5.08l25.15,25.15L71.4,171.92a3,3,0,0,0,5.08-1.35l4.12-15.3a8.24,8.24,0,0,0-.73-6.05Z"/><path class="cls-8" d="M172.58,75.05a99.33,99.33,0,0,1-32.8-21.82A99.33,99.33,0,0,1,118,20.43c19.57-8,44.19-15,75.05-20.43C187.61,30.86,180.59,55.48,172.58,75.05Z"/><path class="cls-7" d="M127.24,109.27a30.75,30.75,0,1,1,0-43.49A30.77,30.77,0,0,1,127.24,109.27Z"/><path class="cls-9" d="M119.46,101.48a19.75,19.75,0,1,1,0-27.92A19.74,19.74,0,0,1,119.46,101.48Z"/></g></g></g></svg>