<?xml version="1.0" encoding="utf-8"?>
<!-- Generator: Adobe Illustrator 22.1.0, SVG Export Plug-In . SVG Version: 6.00 Build 0)  -->
<svg version="1.1" id="Слой_1" xmlns="http://www.w3.org/2000/svg" xmlns:xlink="http://www.w3.org/1999/xlink" x="0px" y="0px"
	 viewBox="0 0 45.7 73" enable-background="new 0 0 45.7 73" xml:space="preserve">
<g>
	<polygon fill="#FFFFFF" points="23.1,36.8 14.1,27.8 23.1,2.8 	"/>
	<polygon fill="#FFFFFF" points="23.1,36.8 32.1,27.8 23.1,2.8 	"/>
	<polygon fill="#FFFFFF" points="23.1,36.8 32.1,45.9 23.1,70.8 	"/>
	<polygon fill="#FFFFFF" points="23.1,36.8 14.1,45.9 23.1,70.8 	"/>
	<polygon fill="#FFFFFF" points="23.1,36.8 32.1,27.8 44.3,36.8 	"/>
	<polygon fill="#FFFFFF" points="23.1,36.8 32.1,45.9 44.3,36.8 	"/>
	<polygon fill="#FFFFFF" points="23.1,36.8 14.1,45.9 1.8,36.8 	"/>
	<polygon fill="#FFFFFF" points="23.1,36.8 14.1,27.8 1.8,36.8 	"/>
	<polygon fill="#FFD13E" points="22.8,36.5 13.2,26.8 22.8,0 	"/>
	<polygon fill="#FFD743" points="22.8,36.5 32.5,26.8 22.8,0 	"/>
	<polygon fill="#874C21" points="22.8,36.5 32.5,46.1 22.8,72.9 	"/>
	<polygon fill="#D69029" points="22.8,36.5 13.2,46.1 22.8,72.9 	"/>
	<polygon fill="#FDE74E" points="22.8,36.5 32.5,26.8 45.6,36.5 	"/>
	<polygon fill="#F1B330" points="22.8,36.5 32.5,46.1 45.6,36.5 	"/>
	<polygon fill="#995624" points="22.8,36.5 13.2,46.1 0.1,36.5 	"/>
	<polygon fill="#FFC932" points="22.8,36.5 13.2,26.8 0.1,36.5 	"/>
	<line fill="none" stroke="#FFFFFF" stroke-width="0.2" stroke-miterlimit="10" x1="22.8" y1="0" x2="22.8" y2="36.5"/>
	<line fill="none" stroke="#FFFFFF" stroke-width="0.2" stroke-miterlimit="10" x1="22.8" y1="36.5" x2="45.6" y2="36.5"/>
	<line fill="none" stroke="#FFFFFF" stroke-width="0.2" stroke-miterlimit="10" x1="32.5" y1="26.8" x2="22.8" y2="36.5"/>
	<line fill="none" stroke="#FFFFFF" stroke-width="0.2" stroke-miterlimit="10" x1="22.8" y1="0" x2="32.5" y2="26.8"/>
	<line fill="none" stroke="#FFFFFF" stroke-width="0.2" stroke-miterlimit="10" x1="32.5" y1="26.8" x2="45.6" y2="36.5"/>
	<line fill="none" stroke="#FFFFFF" stroke-width="0.2" stroke-miterlimit="10" x1="22.8" y1="72.9" x2="22.8" y2="36.5"/>
	<line fill="none" stroke="#FFFFFF" stroke-width="0.2" stroke-miterlimit="10" x1="22.8" y1="36.5" x2="0.1" y2="36.5"/>
	<line fill="none" stroke="#FFFFFF" stroke-width="0.2" stroke-miterlimit="10" x1="13.2" y1="46.1" x2="22.8" y2="36.5"/>
	<line fill="none" stroke="#FFFFFF" stroke-width="0.2" stroke-miterlimit="10" x1="22.8" y1="72.9" x2="13.2" y2="46.1"/>
	<line fill="none" stroke="#FFFFFF" stroke-width="0.2" stroke-miterlimit="10" x1="13.2" y1="46.1" x2="0.1" y2="36.5"/>
	<line fill="none" stroke="#FFFFFF" stroke-width="0.2" stroke-miterlimit="10" x1="22.8" y1="0" x2="22.8" y2="36.5"/>
	<line fill="none" stroke="#FFFFFF" stroke-width="0.2" stroke-miterlimit="10" x1="22.8" y1="36.5" x2="0.1" y2="36.5"/>
	<line fill="none" stroke="#FFFFFF" stroke-width="0.2" stroke-miterlimit="10" x1="13.2" y1="26.8" x2="22.8" y2="36.5"/>
	<line fill="none" stroke="#FFFFFF" stroke-width="0.2" stroke-miterlimit="10" x1="22.8" y1="0" x2="13.2" y2="26.8"/>
	<line fill="none" stroke="#FFFFFF" stroke-width="0.2" stroke-miterlimit="10" x1="13.2" y1="26.8" x2="0.1" y2="36.5"/>
	<line fill="none" stroke="#FFFFFF" stroke-width="0.2" stroke-miterlimit="10" x1="22.8" y1="72.9" x2="22.8" y2="36.5"/>
	<line fill="none" stroke="#FFFFFF" stroke-width="0.2" stroke-miterlimit="10" x1="22.8" y1="36.5" x2="45.6" y2="36.5"/>
	<line fill="none" stroke="#FFFFFF" stroke-width="0.2" stroke-miterlimit="10" x1="32.5" y1="46.1" x2="22.8" y2="36.5"/>
	<line fill="none" stroke="#FFFFFF" stroke-width="0.2" stroke-miterlimit="10" x1="22.8" y1="72.9" x2="32.5" y2="46.1"/>
	<line fill="none" stroke="#FFFFFF" stroke-width="0.2" stroke-miterlimit="10" x1="32.5" y1="46.1" x2="45.6" y2="36.5"/>
	<polygon fill="#F2D04D" points="23.1,36.8 14.6,28.3 23.1,4.7 	"/>
	<polygon fill="#F3D652" points="23.1,36.8 31.6,28.3 23.1,4.7 	"/>
	<polygon fill="#7A4C28" points="23.1,36.8 31.6,45.4 23.1,69 	"/>
	<polygon fill="#C48E36" points="23.1,36.8 14.6,45.4 23.1,69 	"/>
	<polygon fill="#F6E75C" points="23.1,36.8 31.6,28.3 43.2,36.8 	"/>
	<polygon fill="#E1B13F" points="23.1,36.8 31.6,45.4 43.2,36.8 	"/>
	<polygon fill="#88562B" points="23.1,36.8 14.6,45.4 3,36.8 	"/>
	<polygon fill="#F1C844" points="23.1,36.8 14.6,28.3 3,36.8 	"/>
	<line fill="none" stroke="#FFFFFF" stroke-width="0.2" stroke-miterlimit="10" x1="23.1" y1="4.7" x2="23.1" y2="36.8"/>
	<line fill="none" stroke="#FFFFFF" stroke-width="0.2" stroke-miterlimit="10" x1="23.1" y1="36.8" x2="43.2" y2="36.8"/>
	<line fill="none" stroke="#FFFFFF" stroke-width="0.2" stroke-miterlimit="10" x1="31.6" y1="28.3" x2="23.1" y2="36.8"/>
	<line fill="none" stroke="#FFFFFF" stroke-width="0.2" stroke-miterlimit="10" x1="23.1" y1="4.7" x2="31.6" y2="28.3"/>
	<line fill="none" stroke="#FFFFFF" stroke-width="0.2" stroke-miterlimit="10" x1="31.6" y1="28.3" x2="43.2" y2="36.8"/>
	<line fill="none" stroke="#FFFFFF" stroke-width="0.2" stroke-miterlimit="10" x1="23.1" y1="69" x2="23.1" y2="36.8"/>
	<line fill="none" stroke="#FFFFFF" stroke-width="0.2" stroke-miterlimit="10" x1="23.1" y1="36.8" x2="3" y2="36.8"/>
	<line fill="none" stroke="#FFFFFF" stroke-width="0.2" stroke-miterlimit="10" x1="14.6" y1="45.4" x2="23.1" y2="36.8"/>
	<line fill="none" stroke="#FFFFFF" stroke-width="0.2" stroke-miterlimit="10" x1="23.1" y1="69" x2="14.6" y2="45.4"/>
	<line fill="none" stroke="#FFFFFF" stroke-width="0.2" stroke-miterlimit="10" x1="14.6" y1="45.4" x2="3" y2="36.8"/>
	<line fill="none" stroke="#FFFFFF" stroke-width="0.2" stroke-miterlimit="10" x1="23.1" y1="4.7" x2="23.1" y2="36.8"/>
	<line fill="none" stroke="#FFFFFF" stroke-width="0.2" stroke-miterlimit="10" x1="23.1" y1="36.8" x2="3" y2="36.8"/>
	<line fill="none" stroke="#FFFFFF" stroke-width="0.2" stroke-miterlimit="10" x1="14.6" y1="28.3" x2="23.1" y2="36.8"/>
	<line fill="none" stroke="#FFFFFF" stroke-width="0.2" stroke-miterlimit="10" x1="23.1" y1="4.7" x2="14.6" y2="28.3"/>
	<line fill="none" stroke="#FFFFFF" stroke-width="0.2" stroke-miterlimit="10" x1="14.6" y1="28.3" x2="3" y2="36.8"/>
	<line fill="none" stroke="#FFFFFF" stroke-width="0.2" stroke-miterlimit="10" x1="23.1" y1="69" x2="23.1" y2="36.8"/>
	<line fill="none" stroke="#FFFFFF" stroke-width="0.2" stroke-miterlimit="10" x1="23.1" y1="36.8" x2="43.2" y2="36.8"/>
	<line fill="none" stroke="#FFFFFF" stroke-width="0.2" stroke-miterlimit="10" x1="31.6" y1="45.4" x2="23.1" y2="36.8"/>
	<line fill="none" stroke="#FFFFFF" stroke-width="0.2" stroke-miterlimit="10" x1="23.1" y1="69" x2="31.6" y2="45.4"/>
	<line fill="none" stroke="#FFFFFF" stroke-width="0.2" stroke-miterlimit="10" x1="31.6" y1="45.4" x2="43.2" y2="36.8"/>
</g>
</svg>
