<?xml version="1.0" encoding="utf-8"?>
<!-- Generator: Adobe Illustrator 22.1.0, SVG Export Plug-In . SVG Version: 6.00 Build 0)  -->
<svg version="1.1" id="Слой_1" xmlns="http://www.w3.org/2000/svg" xmlns:xlink="http://www.w3.org/1999/xlink" x="0px" y="0px"
	 viewBox="0 0 175 74.4" enable-background="new 0 0 175 74.4" xml:space="preserve">
<g>
	<g>
		<path fill="#E1B13F" d="M1.1,14.4c0-1.4,0.3-2.8,0.8-4S3.2,8,4.2,7.1s2-1.7,3.3-2.2c1.2-0.5,2.6-0.8,4-0.8c1.4,0,2.8,0.3,4,0.8
			c1.2,0.5,2.3,1.3,3.3,2.2s1.7,2,2.2,3.3s0.8,2.6,0.8,4c0,1.4-0.3,2.8-0.8,4s-1.3,2.3-2.2,3.2s-2,1.6-3.3,2.2
			c-1.2,0.5-2.6,0.8-4,0.8c-1.4,0-2.8-0.3-4-0.8c-1.2-0.5-2.3-1.3-3.3-2.2s-1.7-2-2.2-3.2S1.1,15.8,1.1,14.4z M4.6,14.4
			c0,1,0.2,1.8,0.5,2.7c0.4,0.8,0.9,1.5,1.5,2.2c0.6,0.6,1.3,1.1,2.2,1.5c0.8,0.4,1.7,0.5,2.7,0.5c0.9,0,1.8-0.2,2.7-0.5
			c0.8-0.4,1.6-0.8,2.2-1.5c0.6-0.6,1.1-1.3,1.5-2.2c0.4-0.8,0.5-1.7,0.5-2.7c0-0.9-0.2-1.8-0.5-2.7c-0.4-0.8-0.9-1.6-1.5-2.2
			c-0.6-0.6-1.3-1.1-2.2-1.5s-1.7-0.5-2.7-0.5c-1,0-1.8,0.2-2.7,0.5S7.2,8.9,6.6,9.5c-0.6,0.6-1.1,1.3-1.5,2.2
			C4.8,12.6,4.6,13.4,4.6,14.4z M8.5,14.4c0-0.4,0.1-0.8,0.2-1.1c0.2-0.4,0.4-0.7,0.6-0.9s0.6-0.5,0.9-0.6c0.4-0.2,0.7-0.2,1.1-0.2
			c0.4,0,0.8,0.1,1.1,0.2c0.4,0.2,0.7,0.4,0.9,0.6c0.3,0.3,0.5,0.6,0.6,0.9c0.2,0.4,0.2,0.7,0.2,1.1s-0.1,0.8-0.2,1.1
			c-0.2,0.4-0.4,0.7-0.6,0.9c-0.3,0.3-0.6,0.5-0.9,0.6c-0.4,0.2-0.7,0.2-1.1,0.2c-0.4,0-0.8-0.1-1.1-0.2c-0.4-0.2-0.7-0.4-0.9-0.6
			c-0.3-0.3-0.5-0.6-0.6-0.9C8.6,15.2,8.5,14.8,8.5,14.4z"/>
		<path fill="#E1B13F" d="M24.7,21.3l5.4-13.8l5.4,13.8H24.7z"/>
		<path fill="#E1B13F" d="M53.9,21.2h-3.4v-8.1L40.3,24.4h-0.9V4.3h3.4v12.2l11-12.4V21.2z"/>
		<path fill="#E1B13F" d="M61.3,15.6v8.8h-3.4V4.3h0.6l8.4,13.8l8.4-13.8h0.6l7,20.1h-3.4l-4.8-12.3l-7.7,12.6L61.3,15.6z"/>
		<path fill="#E1B13F" d="M95.9,14.3h-7.6v10.1h-3.4V4.3h14.5v20.1h-3.4V14.3z"/>
		<path fill="#E1B13F" d="M117.8,21.2h-3.4v-8.1l-10.1,11.2h-0.9V4.3h3.4v12.2l11-12.4V21.2z"/>
		<path fill="#E1B13F" d="M137.2,24.4h-3.6l-1.4-3.5h-6.8l-1.4,3.5h-3.6l1.4-3.5h-1.1v-3.2h2.4l5.4-13.4h0.8L137.2,24.4z
			 M126.7,17.7h4.2l-2.1-5.3L126.7,17.7z"/>
		<path fill="#E1B13F" d="M155.2,24.4h-16.8l8-20.1h0.8L155.2,24.4z M143.3,21.2h7l-3.5-8.8L143.3,21.2z"/>
		<path fill="#E1B13F" d="M173.2,24.4h-3.6l-1.4-3.5h-6.8l-1.4,3.5h-3.6l1.4-3.5h-1.1v-3.2h2.4l5.4-13.4h0.8L173.2,24.4z
			 M162.6,17.7h4.2l-2.1-5.3L162.6,17.7z"/>
	</g>
	<g>
		<path fill="#61A3BB" d="M26.1,55.5c-0.8,0.3-1.6,0.5-2.4,0.8c-0.8,0.3-1.5,0.5-2.3,0.8c2.2,0,4.3,0,6.2,0.1c2,0,3.8,0.1,5.4,0.2
			c0-1.3,0-2.7,0-4.2c0-1.6,0-3.2,0.1-4.9c0-1.7,0.1-3.4,0.1-5.1c0-1.7,0.1-3.4,0.1-4.9s0.1-3,0.1-4.3s0.1-2.4,0.2-3.4
			c1.3-0.6,2.6-1.3,4-1.9c1.3-0.6,2.6-1.3,4-1.9c-0.3,0.8-0.5,2-0.7,3.5s-0.3,3.2-0.5,5.1c-0.1,1.9-0.2,3.9-0.3,6
			c-0.1,2.1-0.1,4.1-0.1,6c0,1.9,0,3.7,0.1,5.3c0.1,1.6,0.2,2.8,0.3,3.7c-0.7,0.4-1.5,0.9-2.2,1.3c-0.8,0.4-1.5,0.9-2.2,1.3
			c-0.4,0.7-0.8,1.5-1.1,2.2c-0.4,0.7-0.7,1.4-1.1,2.1c-0.8-0.1-1.9-0.2-3.5-0.3c-1.6-0.1-3.4-0.3-5.5-0.4c-2.1-0.1-4.2-0.2-6.6-0.4
			C16,62.1,13.8,62,11.6,62s-4.2-0.1-6.1-0.2c-1.9-0.1-3.4-0.1-4.6-0.1c0.4-0.4,0.9-0.8,1.3-1.2c0.5-0.4,0.9-0.8,1.3-1.2
			c0.1-0.6,0.1-1.3,0.1-2.1c0-0.8,0-1.6,0-2.6c0-1.9-0.1-4.1-0.2-6.4c-0.1-2.4-0.3-4.6-0.4-6.8C2.9,39,2.7,37,2.5,35.2
			C2.2,33.3,2,32,1.7,31.1C1.9,31,2,30.9,2.2,30.9c0.2-0.1,0.4-0.1,0.5-0.2c0.2,1,0.4,2.4,0.6,4.3c0.2,1.8,0.4,3.9,0.5,6
			s0.3,4.4,0.4,6.7C4.3,50,4.4,52,4.4,53.9c0,0.9,0,1.8,0,2.5c0,0.8,0,1.5-0.1,2.1c0.1-0.2,0.3-0.3,0.4-0.4c0.1-0.1,0.3-0.2,0.4-0.4
			c0.1-0.7,0.1-1.6,0.2-2.6c0-1,0.1-2.1,0.1-3.3c0-1.9,0-3.9-0.1-6.1c-0.1-2.2-0.1-4.3-0.2-6.3c-0.1-2-0.2-3.9-0.3-5.6
			c-0.1-1.7-0.3-3-0.4-4c1.2-0.5,2.4-1.1,3.6-1.7c1.2-0.6,2.4-1.1,3.6-1.7c0.1,1,0.2,2.4,0.2,4c0.1,1.6,0.1,3.4,0.2,5.2
			s0.1,3.7,0.1,5.7c0,1.9,0,3.7,0,5.4c0,1.7,0,3.2,0,4.6c0,1.4-0.1,2.7-0.1,3.7c-0.7,0.3-1.4,0.6-2.1,0.9c-0.7,0.3-1.4,0.6-2.1,0.9
			c1,0,2.1,0,3.3-0.1c1.2,0,2.5-0.1,3.8-0.1h4.1c0.1-1.6,0.1-3.4,0.1-5.4c0-1.9,0-3.9,0-5.9c0-1.4,0-2.8,0-4.3c0-1.4,0-2.8,0-4.1
			c0-1.3,0-2.6-0.1-3.7c0-1.2-0.1-2.2-0.1-3.1c1.3-0.6,2.6-1.3,3.9-1.9c1.3-0.6,2.6-1.3,3.9-1.9c-0.2,0.6-0.3,1.6-0.4,2.9
			c-0.1,1.3-0.2,2.8-0.2,4.5c-0.1,1.7-0.1,3.5-0.1,5.5c0,1.9,0,3.8,0,5.7c0,2.1,0,4.1,0.1,5.9C25.9,53.1,26,54.5,26.1,55.5z"/>
		<path fill="#61A3BB" d="M44.2,31.7c-0.8,1.3-1.3,2.5-1.4,3.7s0.1,2.3,0.5,3.1c0.4,0.9,1,1.5,1.9,1.9C46,41,47,41,48,40.6l-0.5,0.4
			c-1.1,0.5-2.1,0.5-3,0.1c-0.9-0.4-1.5-1.1-1.9-2c-0.4-0.9-0.6-2-0.5-3.2c0.1-1.2,0.6-2.4,1.3-3.5L44.2,31.7z M54.3,33
			c-2.1-0.2-3.9-0.3-5.7-0.5c-1.7-0.2-3.2-0.4-4.4-0.7l3.3-5.1c1.6,0.2,3.5,0.3,5.7,0.5c2.2,0.1,4.6,0.2,7.1,0.4
			c2.5,0.1,5.1,0.2,7.8,0.3c2.7,0.1,5.3,0.1,7.9,0.1c2.6,0,5,0,7.3,0s4.4,0,6.1,0l-1.2,6.5c-0.8,0-1.7,0-2.7,0c-1,0-2,0-3.1,0
			c0,1-0.1,2.1-0.1,3.3c0,1.2,0,2.5,0,3.8c0,1.3,0,2.6,0,3.9c0,1.3,0,2.6,0.1,3.7c0,1.2,0.1,2.2,0.1,3.2s0.1,1.7,0.2,2.2l-4.9,2.2
			c0.9,0.1,1.9,0.2,3,0.4c1.1,0.2,2.1,0.5,3.1,0.8l-4.5,5.3c-1.2-0.5-2.3-0.9-3.5-1.2c-1.2-0.3-2.5-0.5-3.9-0.5l3.4-3.9
			c0.1-1.6,0.2-3.5,0.3-5.5c0.1-2,0.1-4,0.1-6c0-2,0-3.9-0.1-5.6c-0.1-1.8-0.2-3.2-0.3-4.4l3.5-2c-0.5,0-1.2,0-2,0
			c-0.8,0-1.6,0-2.5-0.1c-0.9,0-1.7-0.1-2.5-0.1s-1.5-0.1-2-0.1c-0.1,1.5-0.1,3.3-0.1,5.3c0,2,0,4,0,6c0,2,0.1,3.8,0.1,5.5
			c0.1,1.7,0.1,2.9,0.2,3.8l-4.9,2.2c0.9,0.1,1.8,0.2,2.7,0.4c0.9,0.2,1.9,0.5,2.9,0.8l-4.5,5.3c-1.1-0.5-2.2-0.9-3.3-1.2
			c-1.1-0.3-2.3-0.5-3.7-0.5l3.4-3.9c0.1-1.6,0.2-3.5,0.3-5.5c0.1-2.1,0.1-4.1,0.1-6.2c0-2,0-4-0.1-5.8c0-1.8-0.1-3.3-0.3-4.4
			l3.6-1.9c-0.6,0-1.3-0.1-2.1-0.1s-1.7-0.1-2.5-0.2c-0.9,0-1.7-0.1-2.5-0.2c-0.8-0.1-1.5-0.1-2-0.1c0,1-0.1,2.2-0.1,3.5
			c0,1.3,0,2.6,0,4c0,1.4,0,2.8,0,4.2c0,1.4,0,2.7,0,4c0,1.2,0.1,2.4,0.1,3.4s0.1,1.8,0.2,2.3l-4.9,2.2c0.9,0.1,1.8,0.2,2.7,0.4
			s1.9,0.5,2.9,0.8l-4.5,5.3c-1.1-0.5-2.2-0.9-3.3-1.2c-1.1-0.3-2.3-0.5-3.8-0.5l2-2.4c0.1-1.4,0.1-2.9,0.2-4.6c0-1.7,0-3.5-0.1-5.2
			c-0.1-1.7-0.2-3.4-0.3-4.9c-0.1-1.5-0.3-2.8-0.5-3.8L49,40c0.1,1.2,0.2,2.5,0.3,4c0.1,1.5,0.2,3.1,0.2,4.7s0.1,3.3,0,5
			c0,1.7-0.1,3.3-0.1,4.9l0.8-0.9c0.1-1.6,0.2-3.5,0.3-5.6c0.1-2.1,0.1-4.2,0.1-6.4c0-2.1,0-4.1-0.1-6c-0.1-1.9-0.2-3.4-0.3-4.5
			L54.3,33z"/>
		<path fill="#61A3BB" d="M93.9,34.3c0.6-0.4,1.3-0.7,1.9-1.1c0.7-0.4,1.3-0.7,1.9-1.1c-1.2-0.1-2.5-0.1-3.7-0.2
			c-1.2,0-2.4-0.1-3.5-0.1h-1.4c0.7-0.9,1.4-1.8,2-2.6c0.7-0.9,1.3-1.7,2-2.6c0.7,0,1.4,0,2.2,0c0.8,0,1.6,0,2.4,0
			c1.4,0,2.8,0,4.2,0.1c1.5,0,2.9,0.1,4.3,0.2c1.4,0.1,2.8,0.2,4.1,0.4c1.3,0.1,2.6,0.3,3.7,0.5c-0.3,1-0.7,2.1-1.1,3.1
			c-0.4,1.1-0.7,2.1-1.1,3.1c-1.5-0.3-3.2-0.7-5.2-0.9c-1.9-0.3-3.9-0.5-5.9-0.6c0,0.7-0.1,1.5-0.1,2.4c0,0.9-0.1,1.8-0.1,2.7
			c0,0.9-0.1,1.9-0.1,2.8c0,0.9,0,1.8,0,2.6c0.3-0.5,0.6-0.9,0.8-1.4c0.3-0.5,0.5-0.9,0.8-1.4c1.3,0.3,2.8,0.6,4.6,0.8
			c1.7,0.2,3.3,0.3,4.7,0.3l-2,6.5c-0.7-0.1-1.4-0.2-2.2-0.3c-0.8-0.1-1.6-0.3-2.3-0.4c-0.8-0.1-1.6-0.3-2.3-0.5s-1.4-0.4-2-0.6
			c0,1.9,0.1,3.6,0.2,5.1c0.1,1.5,0.1,2.7,0.2,3.6c-0.8,0.3-1.6,0.6-2.4,0.9c-0.8,0.3-1.6,0.6-2.4,0.9h1.2c1.2,0,2.5,0,3.9,0.1
			c1.4,0.1,2.8,0.1,4.2,0.2s2.8,0.2,4.1,0.4c1.3,0.1,2.6,0.3,3.7,0.5c-0.5,1-1,1.9-1.5,2.9c-0.5,0.9-1,1.9-1.5,2.8
			c-1.3-0.2-2.9-0.4-4.7-0.6c-1.8-0.2-3.6-0.4-5.5-0.5s-3.8-0.3-5.6-0.4c-1.9-0.1-3.5-0.2-5-0.2c0.4-0.4,0.9-0.8,1.3-1.2
			c0.4-0.4,0.8-0.8,1.3-1.2c0.1-1,0.2-2.1,0.2-3.4c0-1.3,0.1-2.7,0.1-4.2s0-3.1-0.1-4.6c0-1.6-0.1-3.1-0.2-4.5
			c-0.1-1.4-0.2-2.7-0.3-3.9c-0.1-1.2-0.2-2.1-0.4-2.8c0.2-0.1,0.3-0.2,0.4-0.3s0.3-0.2,0.4-0.3c0.1,0.7,0.2,1.5,0.3,2.5
			c0.1,1,0.2,2,0.2,3.2c0.1,1.2,0.1,2.4,0.2,3.6c0,1.3,0,2.5,0,3.8c0,2,0,3.9,0,5.7c0,1.8-0.1,3.4-0.2,4.7c0.2-0.2,0.3-0.3,0.4-0.4
			c0.1-0.1,0.3-0.2,0.4-0.4c0.2-1.5,0.3-3.1,0.3-5c0-1.9,0.1-3.8,0.1-5.8c0-2.6,0-4.9-0.1-7C94.1,38,94,36.1,93.9,34.3z"/>
		<path fill="#61A3BB" d="M119.3,57.8c0.2-1.7,0.3-3.8,0.3-6.1c0.1-2.3,0.1-4.6,0.1-6.9c0-2.1,0-4.1-0.1-6c0-1.8-0.1-3.3-0.3-4.4
			l3.7-2.1c-1.4-0.2-2.8-0.3-4.3-0.4c-1.4-0.1-2.8-0.1-4.1-0.1c0.7-0.9,1.4-1.7,2-2.6c0.7-0.9,1.3-1.7,2-2.6c2,0,4.1,0.1,6.2,0.2
			c2.1,0.2,4.2,0.4,6.2,0.6c2,0.3,3.9,0.6,5.8,0.9c1.8,0.4,3.4,0.8,4.8,1.2c0.1,0.6,0.1,1.4,0.2,2.2c0,0.8,0.1,1.7,0.1,2.6
			c0,0.9,0,1.8-0.1,2.7s-0.1,1.8-0.3,2.6c-0.1,0.8-0.3,1.6-0.5,2.3s-0.4,1.3-0.7,1.8c-0.8,0.4-1.6,0.9-2.4,1.3s-1.6,0.8-2.4,1.3
			c-0.3,0.6-0.7,1.2-1.1,1.8c-0.4,0.6-0.7,1.2-1.1,1.8c-1.1,0-2.3-0.1-3.6-0.3c-1.3-0.2-2.5-0.3-3.5-0.5c0,1,0.1,2,0.1,3
			c0,1,0.1,1.8,0.1,2.3c-0.8,0.3-1.6,0.7-2.4,1.1s-1.6,0.7-2.4,1.1c0.9,0.1,1.8,0.2,2.8,0.4c0.9,0.2,2,0.5,3.1,0.8
			c-0.7,0.9-1.5,1.8-2.2,2.7c-0.8,0.9-1.5,1.8-2.3,2.6c-1.1-0.5-2.4-0.9-3.7-1.2c-1.3-0.3-2.7-0.5-4.2-0.5c0.4-0.4,0.9-0.8,1.3-1.2
			c0.4-0.4,0.8-0.8,1.3-1.2c0.1-1,0.2-2.3,0.2-3.7c0-1.5,0.1-3,0.1-4.6c0-1.5,0-2.9-0.1-4.4s-0.1-2.9-0.2-4.3
			c-0.1-1.3-0.2-2.6-0.3-3.7c-0.1-1.1-0.2-2-0.4-2.7c0.2-0.1,0.3-0.2,0.5-0.3c0.2-0.1,0.3-0.2,0.5-0.3c0.1,0.7,0.2,1.6,0.3,2.7
			c0.1,1.1,0.1,2.2,0.2,3.5s0.1,2.6,0.1,3.9c0,1.4,0,2.7,0,4.1c0,1.8,0,3.4-0.1,5c0,1.6-0.1,3-0.2,4.1c0.2-0.2,0.3-0.3,0.4-0.4
			C119,58.1,119.1,57.9,119.3,57.8z M135,34.1c-1-0.3-2.3-0.5-3.8-0.7c-1.5-0.2-3.1-0.4-4.8-0.6c-0.1,1.4-0.1,3-0.1,4.7
			c0,1.7,0,3.5,0,5.2c0,0.5,0,1.1,0,1.6c0,0.5,0,1,0,1.5c0.3-0.4,0.6-0.9,0.9-1.2c1.2,0.3,2.5,0.7,4,0.9c1.5,0.3,2.9,0.4,4.3,0.5
			c0.1-0.5,0.2-1.1,0.3-1.8s0.1-1.4,0.1-2.2c0-0.8,0-1.5-0.1-2.3c0-0.8-0.1-1.5-0.2-2.2c-0.1-0.7-0.1-1.3-0.2-1.9
			C135.1,34.9,135.1,34.5,135,34.1z"/>
		<path fill="#61A3BB" d="M164.6,30.6c1.3-0.6,2.6-1.3,3.9-1.9c1.3-0.6,2.6-1.3,3.9-2c-0.2,0.6-0.4,1.6-0.6,3.1
			c-0.2,1.5-0.3,3.1-0.4,5.1c-0.1,1.9-0.2,4-0.3,6.1c-0.1,2.2-0.1,4.3-0.1,6.3c0,2.1,0,4.1,0.1,5.9s0.1,3.1,0.3,4
			c0.3,0.4,0.7,0.8,1.3,1.1c0.5,0.4,1,0.6,1.5,0.8c-0.7,0.7-1.4,1.4-2.1,2.2c-0.7,0.7-1.4,1.4-2.1,2.2c-1-0.4-2-0.9-3.1-1.6
			c-1.1-0.6-2-1.4-2.8-2.2v-2.1c0-1.6,0-3.5,0-5.5c0-2,0-4,0.1-6.1l-0.7,1.6c-0.4-0.1-1-0.2-1.8-0.3c-0.7-0.1-1.5-0.3-2.3-0.4
			c-0.8-0.1-1.6-0.3-2.4-0.5c-0.8-0.2-1.4-0.4-1.9-0.5c0,1.7,0,3.3,0,4.9c0,1.5,0,2.9-0.1,4.2c-0.7,0.3-1.4,0.7-2.1,1
			c-0.7,0.3-1.4,0.7-2.1,1c0.9,0.1,1.8,0.2,2.7,0.4c0.9,0.2,1.9,0.5,3.1,0.8c-0.8,0.9-1.6,1.8-2.3,2.7c-0.7,0.9-1.5,1.8-2.2,2.6
			c-1.1-0.5-2.4-0.9-3.7-1.2c-1.3-0.3-2.7-0.5-4.2-0.5c0.4-0.4,0.9-0.8,1.3-1.2c0.4-0.4,0.9-0.8,1.3-1.2c0.1-0.7,0.1-1.6,0.1-2.6
			c0-1,0-2.1,0-3.3c0-1.3,0-2.7-0.1-4.1s-0.1-2.9-0.2-4.4c-0.1-1.5-0.2-2.9-0.3-4.3c-0.1-1.4-0.2-2.7-0.4-3.9
			c-0.1-1.2-0.3-2.2-0.4-3.1c-0.1-0.9-0.3-1.6-0.4-2.1c0.2-0.1,0.3-0.1,0.5-0.2c0.2-0.1,0.3-0.2,0.5-0.2c0.2,0.8,0.3,1.9,0.5,3.4
			c0.2,1.5,0.3,3.2,0.4,5.1c0.1,1.9,0.2,3.8,0.3,5.9c0.1,2,0.2,4,0.2,5.8c0,1.5,0,2.9,0,4.2c0,1.3-0.1,2.4-0.1,3.2
			c0.2-0.2,0.3-0.3,0.4-0.4c0.1-0.1,0.3-0.2,0.4-0.4c0.1-1,0.2-2.1,0.2-3.5c0-1.4,0.1-2.8,0.1-4.4c0-1.8,0-3.7-0.1-5.7
			c0-2-0.1-3.9-0.2-5.7c-0.1-1.8-0.2-3.4-0.3-4.9s-0.2-2.6-0.3-3.3c1.2-0.6,2.4-1.2,3.6-1.8c1.2-0.6,2.4-1.2,3.6-1.8
			c0,0.8,0,1.8,0,3c0,1.2,0.1,2.4,0.1,3.7c0,1.3,0.1,2.7,0.1,4.2c0,1.5,0,2.9,0,4.3v2l1-2.8c0.7,0.3,1.8,0.6,3.4,0.8
			c1.5,0.3,3.1,0.5,4.8,0.7c0-2.3,0.1-4.4,0.2-6.3S164.6,32.3,164.6,30.6z"/>
	</g>
</g>
</svg>
