<?xml version="1.0" encoding="utf-8"?>
<!-- Generator: Adobe Illustrator 22.1.0, SVG Export Plug-In . SVG Version: 6.00 Build 0)  -->
<svg version="1.1" id="Слой_1" xmlns="http://www.w3.org/2000/svg" xmlns:xlink="http://www.w3.org/1999/xlink" x="0px" y="0px"
	 viewBox="0 0 23.3 44.5" enable-background="new 0 0 23.3 44.5" xml:space="preserve">
<g>
	<g>
		<path fill="#885ECA" d="M15.2,33.3h3.1c2,0,3.6-1.6,3.6-3.6V14.3c0-2-1.6-3.6-3.6-3.6h-3.1c-0.5,0-0.9,0.4-0.9,0.9
			c0,0.5,0.4,0.9,0.9,0.9h3.1c1,0,1.8,0.8,1.8,1.8v15.4c0,1-0.8,1.8-1.8,1.8h-3.1c-0.5,0-0.9,0.4-0.9,0.9
			C14.3,32.9,14.7,33.3,15.2,33.3z"/>
	</g>
	<g>
		<g>
			<path fill="#885ECA" d="M14.6,22.9h-12c-0.5,0-0.9-0.4-0.9-0.9c0-0.5,0.4-0.9,0.9-0.9h12c0.5,0,0.9,0.4,0.9,0.9
				C15.5,22.5,15.1,22.9,14.6,22.9z"/>
		</g>
		<g>
			<g>
				<path fill="#885ECA" d="M14.6,22.9c-0.2,0-0.5-0.1-0.6-0.3l-4-4c-0.4-0.4-0.4-0.9,0-1.3c0.4-0.4,0.9-0.4,1.3,0l4,4
					c0.4,0.4,0.4,0.9,0,1.3C15.1,22.8,14.8,22.9,14.6,22.9z"/>
			</g>
			<g>
				<path fill="#885ECA" d="M10.6,26.9c-0.2,0-0.5-0.1-0.6-0.3c-0.4-0.4-0.4-0.9,0-1.3l4-4c0.4-0.4,0.9-0.4,1.3,0
					c0.4,0.4,0.4,0.9,0,1.3l-4,4C11.1,26.8,10.9,26.9,10.6,26.9z"/>
			</g>
		</g>
	</g>
</g>
</svg>
