<svg xmlns="http://www.w3.org/2000/svg" viewBox="0 0 453.61 1087.15"><defs><style>.cls-1{fill:none;stroke:#61a4bc;stroke-miterlimit:10;stroke-width:10px;}</style></defs><title>sign-modal-lines</title><g id="Слой_2" data-name="Слой 2"><g id="Слой_1-2" data-name="Слой 1"><polyline class="cls-1" points="5 1087.15 5 295.36 136.14 151.41 5 3.31"/><polyline class="cls-1" points="27.13 1087.15 27.13 295.36 158.26 151.41 27.13 3.31"/><polyline class="cls-1" points="49.48 1087.15 49.48 295.36 180.62 151.41 49.48 3.31"/><polyline class="cls-1" points="71.61 1087.15 71.61 295.36 202.74 151.41 71.61 3.31"/><polyline class="cls-1" points="93.51 1087.15 93.51 295.36 224.65 151.41 93.51 3.31"/><polyline class="cls-1" points="115.64 1087.15 115.64 295.36 246.77 151.41 115.64 3.31"/><polyline class="cls-1" points="137.99 1087.15 137.99 295.36 269.13 151.41 137.99 3.31"/><polyline class="cls-1" points="160.12 1087.15 160.12 295.36 291.25 151.41 160.12 3.31"/><polyline class="cls-1" points="182.76 1087.15 182.76 295.36 313.89 151.42 182.76 3.31"/><polyline class="cls-1" points="204.88 1087.15 204.88 295.36 336.02 151.42 204.88 3.31"/><polyline class="cls-1" points="227.24 1087.15 227.24 295.36 358.37 151.42 227.24 3.31"/><polyline class="cls-1" points="249.37 1087.15 249.37 295.36 380.5 151.42 249.37 3.31"/><polyline class="cls-1" points="271.27 1087.15 271.27 295.36 402.4 151.42 271.27 3.31"/><polyline class="cls-1" points="315.75 1087.15 315.75 295.36 446.88 151.42 315.75 3.31"/><polyline class="cls-1" points="293.4 1087.15 293.4 295.36 424.53 151.42 293.4 3.31"/></g></g></svg>