<svg xmlns="http://www.w3.org/2000/svg" viewBox="0 0 50.55 50.55">
    <defs>
        <style>.cls-1{isolation:isolate;}.cls-2{mix-blend-mode:multiply;}.cls-3{fill:#61a3bb;}</style>
    </defs>
    <title>social-icon-vk</title>
    <g class="cls-1">
        <g id="Слой_2" data-name="Слой 2">
            <g id="Слой_1-2" data-name="Слой 1">
                <path class="cls-3" d="M61.73,86.77A25.27,25.27,0,1,1,87,61.5,25.3,25.3,0,0,1,61.73,86.77Zm0-48.8A23.53,23.53,0,1,0,85.26,61.5,23.56,23.56,0,0,0,61.73,38Z" transform="translate(-36.45 -36.23)"/>
                <path class="cls-3"
                      d="M47.05,54h5.31a.52.52,0,0,1,.47.31,31,31,0,0,0,4.49,7.15.36.36,0,0,0,.64,0c.55-1.36,1.58-4.67-.41-7a.41.41,0,0,1,.15-.65,7.18,7.18,0,0,1,5.91-.1,1.12,1.12,0,0,1,.67,1l.45,6.8a.49.49,0,0,0,.57.48c2.22-.47,3.53-3.79,4.82-7.25a1.08,1.08,0,0,1,1-.72H76a.65.65,0,0,1,.65.75c-.46,2.46-2.93,5.65-4.22,7.18a1.43,1.43,0,0,0,0,1.84L76.8,69a.58.58,0,0,1-.44,1H70.83a1.61,1.61,0,0,1-1.19-.53l-3.86-3.21a.53.53,0,0,0-.77-.07c-.48.58-.44,1.3-.67,2.93a1,1,0,0,1-1,.88H59.52A3.58,3.58,0,0,1,58,69.58c-2.17-1-8.09-4.67-11.42-14.87A.53.53,0,0,1,47.05,54Z"
                      transform="translate(-36.45 -36.23)"/>
                <path class="cls-3" d="M61.73,86.77A25.27,25.27,0,1,1,87,61.5,25.3,25.3,0,0,1,61.73,86.77Zm0-48.8A23.53,23.53,0,1,0,85.26,61.5,23.56,23.56,0,0,0,61.73,38Z" transform="translate(-36.45 -36.23)"/>
                <path class="cls-3"
                      d="M47.05,54h5.31a.52.52,0,0,1,.47.31,31,31,0,0,0,4.49,7.15.36.36,0,0,0,.64,0c.55-1.36,1.58-4.67-.41-7a.41.41,0,0,1,.15-.65,7.18,7.18,0,0,1,5.91-.1,1.12,1.12,0,0,1,.67,1l.45,6.8a.49.49,0,0,0,.57.48c2.22-.47,3.53-3.79,4.82-7.25a1.08,1.08,0,0,1,1-.72H76a.65.65,0,0,1,.65.75c-.46,2.46-2.93,5.65-4.22,7.18a1.43,1.43,0,0,0,0,1.84L76.8,69a.58.58,0,0,1-.44,1H70.83a1.61,1.61,0,0,1-1.19-.53l-3.86-3.21a.53.53,0,0,0-.77-.07c-.48.58-.44,1.3-.67,2.93a1,1,0,0,1-1,.88H59.52A3.58,3.58,0,0,1,58,69.58c-2.17-1-8.09-4.67-11.42-14.87A.53.53,0,0,1,47.05,54Z"
                      transform="translate(-36.45 -36.23)"/>
            </g>
        </g>
    </g>
</svg>