<svg xmlns="http://www.w3.org/2000/svg" viewBox="0 0 50.55 50.55">
    <defs>
        <style>.cls-1{isolation:isolate;}.cls-2{mix-blend-mode:multiply;}.cls-3{fill:#b75253;}</style>
    </defs>
    <title>social-icon-instagram</title>
    <g class="cls-1">
        <g id="Слой_2" data-name="Слой 2">
            <g id="Слой_1-2" data-name="Слой 1">
                <path class="cls-3" d="M61.73,86.89A25.27,25.27,0,1,1,87,61.62,25.31,25.31,0,0,1,61.73,86.89Zm0-48.8A23.53,23.53,0,1,0,85.26,61.62,23.56,23.56,0,0,0,61.73,38.09Z" transform="translate(-36.45 -36.35)"/>
                <path class="cls-3"
                      d="M68,75.39H55.45A7.5,7.5,0,0,1,48,67.89V55.34a7.5,7.5,0,0,1,7.49-7.49H68a7.5,7.5,0,0,1,7.5,7.49V67.89A7.5,7.5,0,0,1,68,75.39ZM55.45,49.24a6.11,6.11,0,0,0-6.1,6.1V67.89A6.11,6.11,0,0,0,55.45,74H68a6.11,6.11,0,0,0,6.1-6.11V55.34a6.11,6.11,0,0,0-6.1-6.1Z"
                      transform="translate(-36.45 -36.35)"/>
                <path class="cls-3" d="M61.73,70.16a8.54,8.54,0,1,1,8.54-8.54A8.55,8.55,0,0,1,61.73,70.16Zm0-15.69a7.15,7.15,0,1,0,7.14,7.15A7.16,7.16,0,0,0,61.73,54.47Z" transform="translate(-36.45 -36.35)"/>
                <path class="cls-3" d="M71.49,53.49a1.29,1.29,0,1,1-2.57,0,1.29,1.29,0,0,1,2.57,0Z" transform="translate(-36.45 -36.35)"/>
                <path class="cls-3" d="M61.73,86.89A25.27,25.27,0,1,1,87,61.62,25.31,25.31,0,0,1,61.73,86.89Zm0-48.8A23.53,23.53,0,1,0,85.26,61.62,23.56,23.56,0,0,0,61.73,38.09Z" transform="translate(-36.45 -36.35)"/>
                <path class="cls-3"
                      d="M68,75.39H55.45A7.5,7.5,0,0,1,48,67.89V55.34a7.5,7.5,0,0,1,7.49-7.49H68a7.5,7.5,0,0,1,7.5,7.49V67.89A7.5,7.5,0,0,1,68,75.39ZM55.45,49.24a6.11,6.11,0,0,0-6.1,6.1V67.89A6.11,6.11,0,0,0,55.45,74H68a6.11,6.11,0,0,0,6.1-6.11V55.34a6.11,6.11,0,0,0-6.1-6.1Z"
                      transform="translate(-36.45 -36.35)"/>
                <path class="cls-3" d="M61.73,70.16a8.54,8.54,0,1,1,8.54-8.54A8.55,8.55,0,0,1,61.73,70.16Zm0-15.69a7.15,7.15,0,1,0,7.14,7.15A7.16,7.16,0,0,0,61.73,54.47Z" transform="translate(-36.45 -36.35)"/>
                <path class="cls-3" d="M71.49,53.49a1.29,1.29,0,1,1-2.57,0,1.29,1.29,0,0,1,2.57,0Z" transform="translate(-36.45 -36.35)"/>
            </g>
        </g>
    </g>
</svg>