<svg xmlns="http://www.w3.org/2000/svg" viewBox="0 0 707.48 707.48"><defs><style>.cls-1{fill:#f9f5ef;}.cls-2{fill:#61a3bb;}</style></defs><title>start-modal-bg-1</title><g id="Слой_2" data-name="Слой 2"><g id="Слой_1-2" data-name="Слой 1"><circle class="cls-1" cx="353.74" cy="353.74" r="353.74"/><circle class="cls-2" cx="358.99" cy="78.52" r="4.52"/><path class="cls-2" d="M406.24,87a4.42,4.42,0,1,1,4.42-4.42A4.42,4.42,0,0,1,406.24,87Z"/><circle class="cls-2" cx="452.1" cy="94.67" r="4.31"/><path class="cls-2" d="M495.17,118.72a4.2,4.2,0,1,1,4.2-4.2A4.2,4.2,0,0,1,495.17,118.72Z"/><path class="cls-2" d="M534.19,145.57a4.1,4.1,0,1,1,4.09-4.09A4.1,4.1,0,0,1,534.19,145.57Z"/><circle class="cls-2" cx="568.02" cy="174.71" r="3.99" transform="matrix(0.39, -0.92, 0.92, 0.39, 188.02, 631.62)"/><path class="cls-2" d="M595.69,217.11a3.89,3.89,0,1,1,3.88-3.88A3.89,3.89,0,0,1,595.69,217.11Z"/><circle class="cls-2" cx="616.32" cy="255.93" r="3.78" transform="translate(265.51 823.62) rotate(-80.84)"/><path class="cls-2" d="M629.27,305.22a3.67,3.67,0,1,1,3.67-3.67A3.67,3.67,0,0,1,629.27,305.22Z"/><path class="cls-2" d="M634.16,352.28a3.56,3.56,0,1,1,3.57-3.56A3.56,3.56,0,0,1,634.16,352.28Z"/><path class="cls-2" d="M631,399.5a3.46,3.46,0,1,1,3.46-3.46A3.46,3.46,0,0,1,631,399.5Z"/><path class="cls-2" d="M619.71,445.46a3.35,3.35,0,1,1,3.35-3.35A3.35,3.35,0,0,1,619.71,445.46Z"/><path class="cls-2" d="M600.66,488.78a3.24,3.24,0,1,1,3.24-3.24A3.25,3.25,0,0,1,600.66,488.78Z"/><path class="cls-2" d="M574.41,528.18a3.14,3.14,0,1,1,3.14-3.14A3.14,3.14,0,0,1,574.41,528.18Z"/><path class="cls-2" d="M541.8,562.5a3,3,0,1,1,3-3A3,3,0,0,1,541.8,562.5Z"/><path class="cls-2" d="M503.79,590.76a2.93,2.93,0,1,1,2.93-2.93A2.93,2.93,0,0,1,503.79,590.76Z"/><path class="cls-2" d="M461.48,612.06a2.82,2.82,0,1,1,2.81-2.82A2.82,2.82,0,0,1,461.48,612.06Z"/><path class="cls-2" d="M416.1,625.74a2.71,2.71,0,1,1,2.71-2.71A2.71,2.71,0,0,1,416.1,625.74Z"/><path class="cls-2" d="M369,631.38a2.6,2.6,0,1,1,2.61-2.6A2.6,2.6,0,0,1,369,631.38Z"/><path class="cls-2" d="M321.65,629a2.5,2.5,0,1,1,2.5-2.5A2.5,2.5,0,0,1,321.65,629Z"/><path class="cls-2" d="M275.38,618.42a2.39,2.39,0,1,1,2.4-2.39A2.39,2.39,0,0,1,275.38,618.42Z"/><path class="cls-2" d="M231.61,600.06a2.29,2.29,0,1,1,2.29-2.29A2.29,2.29,0,0,1,231.61,600.06Z"/><path class="cls-2" d="M191.64,574.43a2.18,2.18,0,1,1,2.18-2.18A2.19,2.19,0,0,1,191.64,574.43Z"/><circle class="cls-2" cx="156.61" cy="540.26" r="2.07"/><circle class="cls-2" cx="358.99" cy="99.71" r="4.52"/><path class="cls-2" d="M405.68,108.34A4.35,4.35,0,1,1,410,104,4.35,4.35,0,0,1,405.68,108.34Z"/><circle class="cls-2" cx="450.78" cy="116.8" r="4.18"/><path class="cls-2" d="M492.74,141.73a4,4,0,1,1,4-4A4,4,0,0,1,492.74,141.73Z"/><path class="cls-2" d="M530.13,169.84A3.84,3.84,0,1,1,534,166,3.84,3.84,0,0,1,530.13,169.84Z"/><path class="cls-2" d="M561.73,204.31a3.67,3.67,0,1,1,3.66-3.67A3.67,3.67,0,0,1,561.73,204.31Z"/><path class="cls-2" d="M586.44,244a3.5,3.5,0,1,1,3.5-3.5A3.5,3.5,0,0,1,586.44,244Z"/><circle class="cls-2" cx="603.39" cy="284.2" r="3.32"/><path class="cls-2" d="M612,333.45a3.16,3.16,0,1,1,3.15-3.15A3.16,3.16,0,0,1,612,333.45Z"/><path class="cls-2" d="M612,380.16a3,3,0,1,1,3-3A3,3,0,0,1,612,380.16Z"/><path class="cls-2" d="M603.39,426.09a2.81,2.81,0,1,1,2.81-2.81A2.81,2.81,0,0,1,603.39,426.09Z"/><path class="cls-2" d="M586.44,469.63a2.64,2.64,0,1,1,2.64-2.64A2.64,2.64,0,0,1,586.44,469.63Z"/><path class="cls-2" d="M561.73,509.3a2.47,2.47,0,1,1,2.47-2.47A2.47,2.47,0,0,1,561.73,509.3Z"/><path class="cls-2" d="M530.13,543.77a2.3,2.3,0,1,1,2.3-2.3A2.3,2.3,0,0,1,530.13,543.77Z"/><path class="cls-2" d="M492.74,571.88a2.13,2.13,0,1,1,2.12-2.13A2.13,2.13,0,0,1,492.74,571.88Z"/><path class="cls-2" d="M450.79,592.63a1.95,1.95,0,1,1,1.95-2A2,2,0,0,1,450.79,592.63Z"/><circle class="cls-2" cx="405.69" cy="603.49" r="1.78"/><circle class="cls-2" cx="358.99" cy="607.77" r="1.61"/><circle class="cls-2" cx="358.99" cy="124.11" r="4.52"/><path class="cls-2" d="M403.8,132.59a4.12,4.12,0,1,1,4.11-4.11A4.11,4.11,0,0,1,403.8,132.59Z"/><path class="cls-2" d="M446.89,145.24a3.71,3.71,0,1,1,3.71-3.71A3.71,3.71,0,0,1,446.89,145.24Z"/><circle class="cls-2" cx="486.58" cy="162.78" r="3.3"/><path class="cls-2" d="M521.36,194.25a2.89,2.89,0,1,1,2.89-2.89A2.88,2.88,0,0,1,521.36,194.25Z"/><path class="cls-2" d="M549.94,228.63a2.48,2.48,0,1,1,2.48-2.48A2.48,2.48,0,0,1,549.94,228.63Z"/><path class="cls-2" d="M571.2,267.91a2.07,2.07,0,1,1,2.07-2.07A2.07,2.07,0,0,1,571.2,267.91Z"/><path class="cls-2" d="M584.25,310.59a1.67,1.67,0,0,1,0-3.33,1.67,1.67,0,1,1,0,3.33Z"/><circle class="cls-2" cx="588.62" cy="353.74" r="1.26"/></g></g></svg>