<svg xmlns="http://www.w3.org/2000/svg" viewBox="0 0 647.8 310.2"><defs><style>.cls-1{fill:none;stroke:#e07061;stroke-miterlimit:10;stroke-width:2px;}.cls-2{fill:#fff;}</style></defs><title>start-olymp-box</title><g id="Слой_2" data-name="Слой 2"><g id="Слой_1-2" data-name="Слой 1"><line class="cls-1" x1="74.81" y1="248.64" x2="74.81" y2="282.63"/><line class="cls-1" x1="57.81" y1="265.63" x2="91.8" y2="265.63"/><rect class="cls-2" x="545.86" y="270.52" width="2.78" height="9.24"/><rect class="cls-2" x="553" y="270.52" width="2.78" height="9.24"/><rect class="cls-2" x="560.13" y="270.52" width="2.78" height="9.24"/><rect class="cls-2" x="567.27" y="270.52" width="2.78" height="9.24"/><rect class="cls-2" x="574.41" y="270.52" width="2.78" height="9.24"/><rect class="cls-2" x="581.54" y="270.52" width="2.78" height="9.24"/><rect class="cls-2" x="588.68" y="270.52" width="2.78" height="9.24"/><rect class="cls-2" x="595.81" y="270.52" width="2.78" height="9.24"/><rect class="cls-2" x="602.95" y="270.52" width="2.78" height="9.24"/><rect class="cls-2" x="610.08" y="270.52" width="2.78" height="9.24"/><rect class="cls-2" x="69.42" y="54.67" width="2.78" height="9.24" transform="translate(130.09 -11.52) rotate(90)"/><rect class="cls-2" x="69.42" y="61.8" width="2.78" height="9.24" transform="translate(137.23 -4.38) rotate(90)"/><rect class="cls-2" x="69.42" y="68.94" width="2.78" height="9.24" transform="translate(144.36 2.75) rotate(90)"/><rect class="cls-2" x="69.42" y="76.08" width="2.78" height="9.24" transform="translate(151.5 9.89) rotate(90)"/><rect class="cls-2" x="69.42" y="83.21" width="2.78" height="9.24" transform="translate(158.63 17.02) rotate(90)"/><rect class="cls-2" x="69.42" y="90.35" width="2.78" height="9.24" transform="translate(165.77 24.16) rotate(90)"/><rect class="cls-2" x="69.42" y="97.48" width="2.78" height="9.24" transform="translate(172.9 31.29) rotate(90)"/><rect class="cls-2" x="69.42" y="104.62" width="2.78" height="9.24" transform="translate(180.04 38.43) rotate(90)"/><rect class="cls-2" x="69.42" y="111.75" width="2.78" height="9.24" transform="translate(187.17 45.56) rotate(90)"/><rect class="cls-2" x="69.42" y="118.89" width="2.78" height="9.24" transform="translate(194.31 52.7) rotate(90)"/><path class="cls-2" d="M647.12,310.2H31.93V27.45H647.12ZM44.66,297.47H634.39V40.18H44.66Z"/><path class="cls-2" d="M7.91,217.9A7.91,7.91,0,1,1,15.82,210,7.91,7.91,0,0,1,7.91,217.9Z"/><path class="cls-2" d="M7.91,263.43a7.91,7.91,0,1,1,7.91-7.91A7.91,7.91,0,0,1,7.91,263.43Z"/><path class="cls-2" d="M7.91,309a7.91,7.91,0,1,1,7.91-7.91A7.91,7.91,0,0,1,7.91,309Z"/><path class="cls-2" d="M473.83,5a5,5,0,1,1-5-5A5,5,0,0,1,473.83,5Z"/><path class="cls-2" d="M502.83,5a5,5,0,1,1-5-5A5,5,0,0,1,502.83,5Z"/><path class="cls-2" d="M531.82,5a5,5,0,1,1-5-5A5,5,0,0,1,531.82,5Z"/><path class="cls-2" d="M560.82,5a5,5,0,1,1-5-5A5,5,0,0,1,560.82,5Z"/><path class="cls-2" d="M589.81,5a5,5,0,1,1-5-5A5,5,0,0,1,589.81,5Z"/><path class="cls-2" d="M618.81,5a5,5,0,1,1-5-5A5,5,0,0,1,618.81,5Z"/><path class="cls-2" d="M647.8,5a5,5,0,1,1-5-5A5,5,0,0,1,647.8,5Z"/></g></g></svg>