<svg xmlns="http://www.w3.org/2000/svg" viewBox="0 0 184.04 10.07"><defs><style>.cls-1{fill:#fff;}</style></defs><g id="Слой_2" data-name="Слой 2"><g id="Слой_1-2" data-name="Слой 1"><path class="cls-1" d="M10.07,5A5,5,0,1,1,5,0,5,5,0,0,1,10.07,5Z"/><path class="cls-1" d="M39.07,5a5,5,0,1,1-5-5A5,5,0,0,1,39.07,5Z"/><path class="cls-1" d="M68.06,5a5,5,0,1,1-5-5A5,5,0,0,1,68.06,5Z"/><path class="cls-1" d="M97.06,5a5,5,0,1,1-5-5A5,5,0,0,1,97.06,5Z"/><path class="cls-1" d="M126.05,5a5,5,0,1,1-5-5A5,5,0,0,1,126.05,5Z"/><path class="cls-1" d="M155.05,5a5,5,0,1,1-5-5A5,5,0,0,1,155.05,5Z"/><path class="cls-1" d="M184,5a5,5,0,1,1-5-5A5,5,0,0,1,184,5Z"/></g></g></svg>