<svg xmlns="http://www.w3.org/2000/svg" viewBox="0 0 374.46 374.46"><defs><style>.cls-1{fill:#61a3bb;}.cls-2{fill:#f6e55c;}</style></defs><title>start-modal-bg-2</title><g id="Слой_2" data-name="Слой 2"><g id="Слой_1-2" data-name="Слой 1"><path class="cls-1" d="M187.23,374.46C84,374.46,0,290.47,0,187.23S84,0,187.23,0,374.46,84,374.46,187.23,290.47,374.46,187.23,374.46Zm0-370.84C86,3.62,3.62,86,3.62,187.23S86,370.84,187.23,370.84s183.61-82.37,183.61-183.61S288.47,3.62,187.23,3.62Z"/><path class="cls-2" d="M187.23,343.84c-86.35,0-156.61-70.26-156.61-156.61S100.88,30.62,187.23,30.62s156.61,70.26,156.61,156.61S273.58,343.84,187.23,343.84Zm0-300.83C107.71,43,43,107.71,43,187.23s64.7,144.21,144.22,144.21,144.21-64.69,144.21-144.21S266.75,43,187.23,43Z"/><path class="cls-1" d="M187.23,313.21a126,126,0,1,1,126-126A126.12,126.12,0,0,1,187.23,313.21Zm0-248.35A122.37,122.37,0,1,0,309.59,187.23,122.52,122.52,0,0,0,187.23,64.86Z"/><path class="cls-1" d="M187.23,282.59a95.36,95.36,0,1,1,95.36-95.36A95.47,95.47,0,0,1,187.23,282.59Zm0-187.1A91.74,91.74,0,1,0,279,187.23,91.84,91.84,0,0,0,187.23,95.49Z"/><path class="cls-1" d="M187.23,252A64.74,64.74,0,1,1,252,187.23,64.81,64.81,0,0,1,187.23,252Zm0-125.86a61.12,61.12,0,1,0,61.12,61.12A61.19,61.19,0,0,0,187.23,126.11Z"/><path class="cls-1" d="M187.23,221.34a34.12,34.12,0,1,1,34.11-34.11A34.15,34.15,0,0,1,187.23,221.34Zm0-64.61a30.5,30.5,0,1,0,30.5,30.5A30.53,30.53,0,0,0,187.23,156.73Z"/></g></g></svg>