<?xml version="1.0" encoding="utf-8"?>
<!-- Generator: Adobe Illustrator 24.0.0, SVG Export Plug-In . SVG Version: 6.00 Build 0)  -->
<svg version="1.1" id="Слой_1" xmlns="http://www.w3.org/2000/svg" xmlns:xlink="http://www.w3.org/1999/xlink" x="0px" y="0px"
	 viewBox="0 0 1922 1078" style="enable-background:new 0 0 1922 1078;" xml:space="preserve">
<style type="text/css">
	.st0{fill:#D25353;}
	.st1{fill:#90C78A;}
	.st2{opacity:0.5;}
	.st3{fill:#FFFFFF;}
	.st4{clip-path:url(#SVGID_2_);fill:#90C78A;}
	.st5{clip-path:url(#SVGID_2_);}
	.st6{fill:none;stroke:#FFFFFF;stroke-width:1.3474;stroke-miterlimit:10;}
</style>
<g>
	<rect x="0" y="0.04" class="st0" width="1921.99" height="1077.91"/>
	
		<ellipse transform="matrix(0.7071 -0.7071 0.7071 0.7071 -64.1216 365.3165)" class="st1" cx="408.92" cy="260.06" rx="190.17" ry="190.17"/>
	<g class="st2">
		<path class="st3" d="M126.83,23.37c0,2.17-2.15,3.92-4.81,3.92c-2.66,0-4.81-1.76-4.81-3.92c0-2.17,2.15-3.92,4.81-3.92
			C124.68,19.45,126.83,21.21,126.83,23.37z"/>
		<path class="st3" d="M337.69,23.37c0,2.17-2.15,3.92-4.81,3.92c-2.66,0-4.81-1.76-4.81-3.92c0-2.17,2.15-3.92,4.81-3.92
			C335.54,19.45,337.69,21.21,337.69,23.37z"/>
		<path class="st3" d="M548.56,23.37c0,2.17-2.15,3.92-4.81,3.92c-2.66,0-4.81-1.76-4.81-3.92c0-2.17,2.15-3.92,4.81-3.92
			C546.41,19.45,548.56,21.21,548.56,23.37z"/>
		<path class="st3" d="M759.42,23.37c0,2.17-2.15,3.92-4.81,3.92c-2.66,0-4.81-1.76-4.81-3.92c0-2.17,2.15-3.92,4.81-3.92
			C757.27,19.45,759.42,21.21,759.42,23.37z"/>
		<path class="st3" d="M970.29,23.37c0,2.17-2.15,3.92-4.81,3.92c-2.66,0-4.81-1.76-4.81-3.92c0-2.17,2.15-3.92,4.81-3.92
			C968.13,19.45,970.29,21.21,970.29,23.37z"/>
		<path class="st3" d="M1181.15,23.37c0,2.17-2.15,3.92-4.81,3.92c-2.66,0-4.81-1.76-4.81-3.92c0-2.17,2.15-3.92,4.81-3.92
			C1179,19.45,1181.15,21.21,1181.15,23.37z"/>
		<path class="st3" d="M1392.02,23.37c0,2.17-2.15,3.92-4.81,3.92c-2.66,0-4.81-1.76-4.81-3.92c0-2.17,2.15-3.92,4.81-3.92
			C1389.86,19.45,1392.02,21.21,1392.02,23.37z"/>
		<path class="st3" d="M1602.88,23.37c0,2.17-2.15,3.92-4.81,3.92c-2.66,0-4.81-1.76-4.81-3.92c0-2.17,2.15-3.92,4.81-3.92
			C1600.73,19.45,1602.88,21.21,1602.88,23.37z"/>
		<path class="st3" d="M1813.74,23.37c0,2.17-2.15,3.92-4.81,3.92c-2.66,0-4.81-1.76-4.81-3.92c0-2.17,2.15-3.92,4.81-3.92
			C1811.59,19.45,1813.74,21.21,1813.74,23.37z"/>
		<path class="st3" d="M126.83,195.25c0,2.17-2.15,3.92-4.81,3.92c-2.66,0-4.81-1.76-4.81-3.92c0-2.17,2.15-3.92,4.81-3.92
			C124.68,191.33,126.83,193.08,126.83,195.25z"/>
		<path class="st3" d="M337.69,195.25c0,2.17-2.15,3.92-4.81,3.92c-2.66,0-4.81-1.76-4.81-3.92c0-2.17,2.15-3.92,4.81-3.92
			C335.54,191.33,337.69,193.08,337.69,195.25z"/>
		<path class="st3" d="M548.56,195.25c0,2.17-2.15,3.92-4.81,3.92c-2.66,0-4.81-1.76-4.81-3.92c0-2.17,2.15-3.92,4.81-3.92
			C546.41,191.33,548.56,193.08,548.56,195.25z"/>
		<path class="st3" d="M759.42,195.25c0,2.17-2.15,3.92-4.81,3.92c-2.66,0-4.81-1.76-4.81-3.92c0-2.17,2.15-3.92,4.81-3.92
			C757.27,191.33,759.42,193.08,759.42,195.25z"/>
		<path class="st3" d="M970.29,195.25c0,2.17-2.15,3.92-4.81,3.92c-2.66,0-4.81-1.76-4.81-3.92c0-2.17,2.15-3.92,4.81-3.92
			C968.13,191.33,970.29,193.08,970.29,195.25z"/>
		<path class="st3" d="M1181.15,195.25c0,2.17-2.15,3.92-4.81,3.92c-2.66,0-4.81-1.76-4.81-3.92c0-2.17,2.15-3.92,4.81-3.92
			C1179,191.33,1181.15,193.08,1181.15,195.25z"/>
		<path class="st3" d="M1392.02,195.25c0,2.17-2.15,3.92-4.81,3.92c-2.66,0-4.81-1.76-4.81-3.92c0-2.17,2.15-3.92,4.81-3.92
			C1389.86,191.33,1392.02,193.08,1392.02,195.25z"/>
		<path class="st3" d="M1602.88,195.25c0,2.17-2.15,3.92-4.81,3.92c-2.66,0-4.81-1.76-4.81-3.92c0-2.17,2.15-3.92,4.81-3.92
			C1600.73,191.33,1602.88,193.08,1602.88,195.25z"/>
		<path class="st3" d="M1813.74,195.25c0,2.17-2.15,3.92-4.81,3.92c-2.66,0-4.81-1.76-4.81-3.92c0-2.17,2.15-3.92,4.81-3.92
			C1811.59,191.33,1813.74,193.08,1813.74,195.25z"/>
		<path class="st3" d="M126.83,367.12c0,2.17-2.15,3.92-4.81,3.92c-2.66,0-4.81-1.76-4.81-3.92c0-2.17,2.15-3.92,4.81-3.92
			C124.68,363.2,126.83,364.96,126.83,367.12z"/>
		<path class="st3" d="M337.69,367.12c0,2.17-2.15,3.92-4.81,3.92c-2.66,0-4.81-1.76-4.81-3.92c0-2.17,2.15-3.92,4.81-3.92
			C335.54,363.2,337.69,364.96,337.69,367.12z"/>
		<path class="st3" d="M548.56,367.12c0,2.17-2.15,3.92-4.81,3.92c-2.66,0-4.81-1.76-4.81-3.92c0-2.17,2.15-3.92,4.81-3.92
			C546.41,363.2,548.56,364.96,548.56,367.12z"/>
		<path class="st3" d="M759.42,367.12c0,2.17-2.15,3.92-4.81,3.92c-2.66,0-4.81-1.76-4.81-3.92c0-2.17,2.15-3.92,4.81-3.92
			C757.27,363.2,759.42,364.96,759.42,367.12z"/>
		<path class="st3" d="M970.29,367.12c0,2.17-2.15,3.92-4.81,3.92c-2.66,0-4.81-1.76-4.81-3.92c0-2.17,2.15-3.92,4.81-3.92
			C968.13,363.2,970.29,364.96,970.29,367.12z"/>
		<path class="st3" d="M1181.15,367.12c0,2.17-2.15,3.92-4.81,3.92c-2.66,0-4.81-1.76-4.81-3.92c0-2.17,2.15-3.92,4.81-3.92
			C1179,363.2,1181.15,364.96,1181.15,367.12z"/>
		<path class="st3" d="M1392.02,367.12c0,2.17-2.15,3.92-4.81,3.92c-2.66,0-4.81-1.76-4.81-3.92c0-2.17,2.15-3.92,4.81-3.92
			C1389.86,363.2,1392.02,364.96,1392.02,367.12z"/>
		<path class="st3" d="M1602.88,367.12c0,2.17-2.15,3.92-4.81,3.92c-2.66,0-4.81-1.76-4.81-3.92c0-2.17,2.15-3.92,4.81-3.92
			C1600.73,363.2,1602.88,364.96,1602.88,367.12z"/>
		<path class="st3" d="M1813.74,367.12c0,2.17-2.15,3.92-4.81,3.92c-2.66,0-4.81-1.76-4.81-3.92c0-2.17,2.15-3.92,4.81-3.92
			C1811.59,363.2,1813.74,364.96,1813.74,367.12z"/>
		<path class="st3" d="M126.83,539c0,2.17-2.15,3.92-4.81,3.92c-2.66,0-4.81-1.76-4.81-3.92s2.15-3.92,4.81-3.92
			C124.68,535.08,126.83,536.83,126.83,539z"/>
		<path class="st3" d="M337.69,539c0,2.17-2.15,3.92-4.81,3.92c-2.66,0-4.81-1.76-4.81-3.92s2.15-3.92,4.81-3.92
			C335.54,535.08,337.69,536.83,337.69,539z"/>
		<path class="st3" d="M548.56,539c0,2.17-2.15,3.92-4.81,3.92c-2.66,0-4.81-1.76-4.81-3.92s2.15-3.92,4.81-3.92
			C546.41,535.08,548.56,536.83,548.56,539z"/>
		<path class="st3" d="M759.42,539c0,2.17-2.15,3.92-4.81,3.92c-2.66,0-4.81-1.76-4.81-3.92s2.15-3.92,4.81-3.92
			C757.27,535.08,759.42,536.83,759.42,539z"/>
		<ellipse class="st3" cx="965.48" cy="539" rx="4.81" ry="3.92"/>
		<path class="st3" d="M1181.15,539c0,2.17-2.15,3.92-4.81,3.92c-2.66,0-4.81-1.76-4.81-3.92s2.15-3.92,4.81-3.92
			C1179,535.08,1181.15,536.83,1181.15,539z"/>
		<path class="st3" d="M1392.02,539c0,2.17-2.15,3.92-4.81,3.92c-2.66,0-4.81-1.76-4.81-3.92s2.15-3.92,4.81-3.92
			C1389.86,535.08,1392.02,536.83,1392.02,539z"/>
		<path class="st3" d="M1602.88,539c0,2.17-2.15,3.92-4.81,3.92c-2.66,0-4.81-1.76-4.81-3.92s2.15-3.92,4.81-3.92
			C1600.73,535.08,1602.88,536.83,1602.88,539z"/>
		<path class="st3" d="M1813.74,539c0,2.17-2.15,3.92-4.81,3.92c-2.66,0-4.81-1.76-4.81-3.92s2.15-3.92,4.81-3.92
			C1811.59,535.08,1813.74,536.83,1813.74,539z"/>
		<path class="st3" d="M126.83,710.88c0,2.17-2.15,3.92-4.81,3.92c-2.66,0-4.81-1.76-4.81-3.92c0-2.17,2.15-3.92,4.81-3.92
			C124.68,706.96,126.83,708.71,126.83,710.88z"/>
		<path class="st3" d="M337.69,710.88c0,2.17-2.15,3.92-4.81,3.92c-2.66,0-4.81-1.76-4.81-3.92c0-2.17,2.15-3.92,4.81-3.92
			C335.54,706.96,337.69,708.71,337.69,710.88z"/>
		<path class="st3" d="M548.56,710.88c0,2.17-2.15,3.92-4.81,3.92c-2.66,0-4.81-1.76-4.81-3.92c0-2.17,2.15-3.92,4.81-3.92
			C546.41,706.96,548.56,708.71,548.56,710.88z"/>
		<path class="st3" d="M759.42,710.88c0,2.17-2.15,3.92-4.81,3.92c-2.66,0-4.81-1.76-4.81-3.92c0-2.17,2.15-3.92,4.81-3.92
			C757.27,706.96,759.42,708.71,759.42,710.88z"/>
		<path class="st3" d="M970.29,710.88c0,2.17-2.15,3.92-4.81,3.92c-2.66,0-4.81-1.76-4.81-3.92c0-2.17,2.15-3.92,4.81-3.92
			C968.13,706.96,970.29,708.71,970.29,710.88z"/>
		<path class="st3" d="M1181.15,710.88c0,2.17-2.15,3.92-4.81,3.92c-2.66,0-4.81-1.76-4.81-3.92c0-2.17,2.15-3.92,4.81-3.92
			C1179,706.96,1181.15,708.71,1181.15,710.88z"/>
		<path class="st3" d="M1392.02,710.88c0,2.17-2.15,3.92-4.81,3.92c-2.66,0-4.81-1.76-4.81-3.92c0-2.17,2.15-3.92,4.81-3.92
			C1389.86,706.96,1392.02,708.71,1392.02,710.88z"/>
		<path class="st3" d="M1602.88,710.88c0,2.17-2.15,3.92-4.81,3.92c-2.66,0-4.81-1.76-4.81-3.92c0-2.17,2.15-3.92,4.81-3.92
			C1600.73,706.96,1602.88,708.71,1602.88,710.88z"/>
		<path class="st3" d="M1813.74,710.88c0,2.17-2.15,3.92-4.81,3.92c-2.66,0-4.81-1.76-4.81-3.92c0-2.17,2.15-3.92,4.81-3.92
			C1811.59,706.96,1813.74,708.71,1813.74,710.88z"/>
		<path class="st3" d="M126.83,882.75c0,2.17-2.15,3.92-4.81,3.92c-2.66,0-4.81-1.76-4.81-3.92c0-2.17,2.15-3.92,4.81-3.92
			C124.68,878.83,126.83,880.59,126.83,882.75z"/>
		<path class="st3" d="M337.69,882.75c0,2.17-2.15,3.92-4.81,3.92c-2.66,0-4.81-1.76-4.81-3.92c0-2.17,2.15-3.92,4.81-3.92
			C335.54,878.83,337.69,880.59,337.69,882.75z"/>
		<path class="st3" d="M548.56,882.75c0,2.17-2.15,3.92-4.81,3.92c-2.66,0-4.81-1.76-4.81-3.92c0-2.17,2.15-3.92,4.81-3.92
			C546.41,878.83,548.56,880.59,548.56,882.75z"/>
		<path class="st3" d="M759.42,882.75c0,2.17-2.15,3.92-4.81,3.92c-2.66,0-4.81-1.76-4.81-3.92c0-2.17,2.15-3.92,4.81-3.92
			C757.27,878.83,759.42,880.59,759.42,882.75z"/>
		<path class="st3" d="M970.29,882.75c0,2.17-2.15,3.92-4.81,3.92c-2.66,0-4.81-1.76-4.81-3.92c0-2.17,2.15-3.92,4.81-3.92
			C968.13,878.83,970.29,880.59,970.29,882.75z"/>
		<path class="st3" d="M1181.15,882.75c0,2.17-2.15,3.92-4.81,3.92c-2.66,0-4.81-1.76-4.81-3.92c0-2.17,2.15-3.92,4.81-3.92
			C1179,878.83,1181.15,880.59,1181.15,882.75z"/>
		<path class="st3" d="M1392.02,882.75c0,2.17-2.15,3.92-4.81,3.92c-2.66,0-4.81-1.76-4.81-3.92c0-2.17,2.15-3.92,4.81-3.92
			C1389.86,878.83,1392.02,880.59,1392.02,882.75z"/>
		<path class="st3" d="M1602.88,882.75c0,2.17-2.15,3.92-4.81,3.92c-2.66,0-4.81-1.76-4.81-3.92c0-2.17,2.15-3.92,4.81-3.92
			C1600.73,878.83,1602.88,880.59,1602.88,882.75z"/>
		<path class="st3" d="M1813.74,882.75c0,2.17-2.15,3.92-4.81,3.92c-2.66,0-4.81-1.76-4.81-3.92c0-2.17,2.15-3.92,4.81-3.92
			C1811.59,878.83,1813.74,880.59,1813.74,882.75z"/>
		<path class="st3" d="M126.83,1054.63c0,2.17-2.15,3.92-4.81,3.92c-2.66,0-4.81-1.76-4.81-3.92c0-2.17,2.15-3.92,4.81-3.92
			C124.68,1050.71,126.83,1052.46,126.83,1054.63z"/>
		<path class="st3" d="M337.69,1054.63c0,2.17-2.15,3.92-4.81,3.92c-2.66,0-4.81-1.76-4.81-3.92c0-2.17,2.15-3.92,4.81-3.92
			C335.54,1050.71,337.69,1052.46,337.69,1054.63z"/>
		<path class="st3" d="M548.56,1054.63c0,2.17-2.15,3.92-4.81,3.92c-2.66,0-4.81-1.76-4.81-3.92c0-2.17,2.15-3.92,4.81-3.92
			C546.41,1050.71,548.56,1052.46,548.56,1054.63z"/>
		<path class="st3" d="M759.42,1054.63c0,2.17-2.15,3.92-4.81,3.92c-2.66,0-4.81-1.76-4.81-3.92c0-2.17,2.15-3.92,4.81-3.92
			C757.27,1050.71,759.42,1052.46,759.42,1054.63z"/>
		<path class="st3" d="M970.29,1054.63c0,2.17-2.15,3.92-4.81,3.92c-2.66,0-4.81-1.76-4.81-3.92c0-2.17,2.15-3.92,4.81-3.92
			C968.13,1050.71,970.29,1052.46,970.29,1054.63z"/>
		<path class="st3" d="M1181.15,1054.63c0,2.17-2.15,3.92-4.81,3.92c-2.66,0-4.81-1.76-4.81-3.92c0-2.17,2.15-3.92,4.81-3.92
			C1179,1050.71,1181.15,1052.46,1181.15,1054.63z"/>
		<path class="st3" d="M1392.02,1054.63c0,2.17-2.15,3.92-4.81,3.92c-2.66,0-4.81-1.76-4.81-3.92c0-2.17,2.15-3.92,4.81-3.92
			C1389.86,1050.71,1392.02,1052.46,1392.02,1054.63z"/>
		<path class="st3" d="M1602.88,1054.63c0,2.17-2.15,3.92-4.81,3.92c-2.66,0-4.81-1.76-4.81-3.92c0-2.17,2.15-3.92,4.81-3.92
			C1600.73,1050.71,1602.88,1052.46,1602.88,1054.63z"/>
		<path class="st3" d="M1813.74,1054.63c0,2.17-2.15,3.92-4.81,3.92c-2.66,0-4.81-1.76-4.81-3.92c0-2.17,2.15-3.92,4.81-3.92
			C1811.59,1050.71,1813.74,1052.46,1813.74,1054.63z"/>
	</g>
	<g>
		<defs>
			<rect id="SVGID_1_" x="0" y="0.04" width="1921.99" height="1077.91"/>
		</defs>
		<clipPath id="SVGID_2_">
			<use xlink:href="#SVGID_1_"  style="overflow:visible;"/>
		</clipPath>
		<path class="st4" d="M838.77,560.78c-343.49,0-621.94,278.45-621.94,621.94s278.45,621.94,621.94,621.94
			c343.49,0,621.94-278.45,621.94-621.94S1182.26,560.78,838.77,560.78z M838.77,1608.58c-235.19,0-425.86-190.66-425.86-425.86
			s190.66-425.86,425.86-425.86c235.2,0,425.86,190.66,425.86,425.86S1073.97,1608.58,838.77,1608.58z"/>
		<path class="st4" d="M1328.19-324.58c-171.47,0-310.47,139-310.47,310.47s139,310.47,310.47,310.47
			c171.47,0,310.47-139,310.47-310.47S1499.65-324.58,1328.19-324.58z M1328.19,140.35c-85.31,0-154.46-69.16-154.46-154.46
			c0-85.31,69.16-154.46,154.46-154.46c85.31,0,154.46,69.16,154.46,154.46C1482.65,71.2,1413.5,140.35,1328.19,140.35z"/>
		<g class="st5">
			<path class="st6" d="M-57.71,39.61c0,0,68.55,120.98,237.92,99.47c189.9-24.11,271.53,115.6,224.48,211.04
				c-47.05,95.44-256.03,115.6-226.81,270.18S-46.96,844.78-46.96,844.78"/>
			<path class="st6" d="M-108.79,179.41c0,0,144.76,52.42,288.79,33.6s160.88,65.78,144.03,99.47
				c-34.95,69.9-221.79,83.34-233.89,196.25c-9.09,84.88,63.18,198.94-100.81,259.43"/>
			<path class="st6" d="M-44.27,235.86c0,0,147.96-18.88,121.55,64.52C47.01,395.98-24.11,394.48,43.1,515.46
				c23.91,43.03,30.92,216.41-100.81,181.47"/>
			<ellipse class="st6" cx="206.42" cy="296.35" rx="66.54" ry="36.29"/>
		</g>
		<g class="st5">
			<path class="st6" d="M1617.07,413.75c0,0-266.97-62.73-347.62,200.73c-57.87,189.06-62.81,292.14-182.85,344.11
				c-120.04,51.98-189.94,63.09-197.11,119.37"/>
			<path class="st6" d="M1204.84,1077.96c0,0-70.47-174.93,115.5-266.33c125.54-61.7,66.68-271.16,148.04-337.84
				c64.52-52.87,148.68,61.29,148.68,61.29"/>
			<path class="st6" d="M1260,1125.23c0,0,2.14-135.32,145.52-224.03s87.26-241.95,169.71-265.25
				c82.45-23.3,164.9,77.07,164.9,77.07"/>
			<path class="st6" d="M1360.85,1076.88c0,0-10.75-111.12,98.57-125.46c109.33-14.34,202.52,107.13,202.52,107.13"/>
		</g>
	</g>
</g>
</svg>
