<svg xmlns="http://www.w3.org/2000/svg" xmlns:xlink="http://www.w3.org/1999/xlink" viewBox="0 0 2029.38 2129.24"><defs><style>.cls-1,.cls-9{fill:none;}.cls-2{clip-path:url(#clip-path);}.cls-3{fill:#b75253;}.cls-4{clip-path:url(#clip-path-2);}.cls-5{fill:#a1c98c;}.cls-6{opacity:0.5;}.cls-7{clip-path:url(#clip-path-3);}.cls-8{fill:#fff;}.cls-9{stroke:#fff;stroke-miterlimit:10;stroke-width:1.35px;}</style><clipPath id="clip-path"><rect class="cls-1" x="109.38" y="324.62" width="1920" height="1077.91"/></clipPath><clipPath id="clip-path-2"><rect class="cls-1" x="109.38" y="324.62" width="1920" height="1294.55"/></clipPath><clipPath id="clip-path-3"><rect class="cls-1" x="226.23" y="344.02" width="1696.53" height="1039.1"/></clipPath></defs><title>sucpayment-bg</title><g id="Слой_2" data-name="Слой 2"><g id="Слой_1-2" data-name="Слой 1"><g class="cls-2"><rect class="cls-3" x="109.38" y="324.62" width="1920" height="1077.91"/><g class="cls-4"><path class="cls-5" d="M327.76,584.64c0-105,85.15-190.17,190.18-190.17s190.17,85.14,190.17,190.17S623,774.81,517.94,774.81,327.76,689.67,327.76,584.64"/><g class="cls-6"><g class="cls-7"><path class="cls-8" d="M235.85,348c0,2.16-2.15,3.92-4.81,3.92s-4.81-1.76-4.81-3.92S228.39,344,231,344s4.81,1.75,4.81,3.92"/><path class="cls-8" d="M446.72,348c0,2.16-2.16,3.92-4.81,3.92s-4.81-1.76-4.81-3.92,2.15-3.92,4.81-3.92,4.81,1.75,4.81,3.92"/><path class="cls-8" d="M657.58,348c0,2.16-2.15,3.92-4.81,3.92S648,350.11,648,348s2.15-3.92,4.81-3.92,4.81,1.75,4.81,3.92"/><path class="cls-8" d="M868.44,348c0,2.16-2.15,3.92-4.81,3.92s-4.8-1.76-4.8-3.92S861,344,863.63,344s4.81,1.75,4.81,3.92"/><path class="cls-8" d="M1079.31,348c0,2.16-2.15,3.92-4.81,3.92s-4.81-1.76-4.81-3.92,2.15-3.92,4.81-3.92,4.81,1.75,4.81,3.92"/><path class="cls-8" d="M1290.17,348c0,2.16-2.15,3.92-4.81,3.92s-4.81-1.76-4.81-3.92,2.16-3.92,4.81-3.92,4.81,1.75,4.81,3.92"/><path class="cls-8" d="M1501,348c0,2.16-2.16,3.92-4.81,3.92s-4.81-1.76-4.81-3.92,2.15-3.92,4.81-3.92,4.81,1.75,4.81,3.92"/><path class="cls-8" d="M1711.9,348c0,2.16-2.15,3.92-4.81,3.92s-4.81-1.76-4.81-3.92,2.16-3.92,4.81-3.92,4.81,1.75,4.81,3.92"/><path class="cls-8" d="M1922.77,348c0,2.16-2.16,3.92-4.81,3.92s-4.81-1.76-4.81-3.92S1915.3,344,1918,344s4.81,1.75,4.81,3.92"/><path class="cls-8" d="M235.85,519.83c0,2.16-2.15,3.92-4.81,3.92s-4.81-1.76-4.81-3.92,2.16-3.92,4.81-3.92,4.81,1.75,4.81,3.92"/><path class="cls-8" d="M446.72,519.83c0,2.16-2.16,3.92-4.81,3.92s-4.81-1.76-4.81-3.92,2.15-3.92,4.81-3.92,4.81,1.75,4.81,3.92"/><path class="cls-8" d="M657.58,519.83c0,2.16-2.15,3.92-4.81,3.92S648,522,648,519.83s2.15-3.92,4.81-3.92,4.81,1.75,4.81,3.92"/><path class="cls-8" d="M868.44,519.83c0,2.16-2.15,3.92-4.81,3.92s-4.8-1.76-4.8-3.92,2.15-3.92,4.8-3.92,4.81,1.75,4.81,3.92"/><path class="cls-8" d="M1079.31,519.83c0,2.16-2.15,3.92-4.81,3.92s-4.81-1.76-4.81-3.92,2.15-3.92,4.81-3.92,4.81,1.75,4.81,3.92"/><path class="cls-8" d="M1290.17,519.83c0,2.16-2.15,3.92-4.81,3.92s-4.81-1.76-4.81-3.92,2.16-3.92,4.81-3.92,4.81,1.75,4.81,3.92"/><path class="cls-8" d="M1501,519.83c0,2.16-2.16,3.92-4.81,3.92s-4.81-1.76-4.81-3.92,2.15-3.92,4.81-3.92,4.81,1.75,4.81,3.92"/><path class="cls-8" d="M1711.9,519.83c0,2.16-2.15,3.92-4.81,3.92s-4.81-1.76-4.81-3.92,2.16-3.92,4.81-3.92,4.81,1.75,4.81,3.92"/><path class="cls-8" d="M1922.77,519.83c0,2.16-2.16,3.92-4.81,3.92s-4.81-1.76-4.81-3.92,2.15-3.92,4.81-3.92,4.81,1.75,4.81,3.92"/><path class="cls-8" d="M235.85,691.7c0,2.17-2.15,3.92-4.81,3.92s-4.81-1.75-4.81-3.92,2.16-3.92,4.81-3.92,4.81,1.76,4.81,3.92"/><path class="cls-8" d="M446.72,691.7c0,2.17-2.16,3.92-4.81,3.92s-4.81-1.75-4.81-3.92,2.15-3.92,4.81-3.92,4.81,1.76,4.81,3.92"/><path class="cls-8" d="M657.58,691.7c0,2.17-2.15,3.92-4.81,3.92S648,693.87,648,691.7s2.15-3.92,4.81-3.92,4.81,1.76,4.81,3.92"/><path class="cls-8" d="M868.44,691.7c0,2.17-2.15,3.92-4.81,3.92s-4.8-1.75-4.8-3.92,2.15-3.92,4.8-3.92,4.81,1.76,4.81,3.92"/><path class="cls-8" d="M1079.31,691.7c0,2.17-2.15,3.92-4.81,3.92s-4.81-1.75-4.81-3.92,2.15-3.92,4.81-3.92,4.81,1.76,4.81,3.92"/><path class="cls-8" d="M1290.17,691.7c0,2.17-2.15,3.92-4.81,3.92s-4.81-1.75-4.81-3.92,2.16-3.92,4.81-3.92,4.81,1.76,4.81,3.92"/><path class="cls-8" d="M1501,691.7c0,2.17-2.16,3.92-4.81,3.92s-4.81-1.75-4.81-3.92,2.15-3.92,4.81-3.92,4.81,1.76,4.81,3.92"/><path class="cls-8" d="M1711.9,691.7c0,2.17-2.15,3.92-4.81,3.92s-4.81-1.75-4.81-3.92,2.16-3.92,4.81-3.92,4.81,1.76,4.81,3.92"/><path class="cls-8" d="M1922.77,691.7c0,2.17-2.16,3.92-4.81,3.92s-4.81-1.75-4.81-3.92,2.15-3.92,4.81-3.92,4.81,1.76,4.81,3.92"/><path class="cls-8" d="M235.85,863.58c0,2.16-2.15,3.92-4.81,3.92s-4.81-1.76-4.81-3.92,2.16-3.92,4.81-3.92,4.81,1.75,4.81,3.92"/><path class="cls-8" d="M446.72,863.58c0,2.16-2.16,3.92-4.81,3.92s-4.81-1.76-4.81-3.92,2.15-3.92,4.81-3.92,4.81,1.75,4.81,3.92"/><path class="cls-8" d="M657.58,863.58c0,2.16-2.15,3.92-4.81,3.92s-4.81-1.76-4.81-3.92,2.15-3.92,4.81-3.92,4.81,1.75,4.81,3.92"/><path class="cls-8" d="M868.44,863.58c0,2.16-2.15,3.92-4.81,3.92s-4.8-1.76-4.8-3.92,2.15-3.92,4.8-3.92,4.81,1.75,4.81,3.92"/><path class="cls-8" d="M1079.31,863.58c0,2.16-2.15,3.92-4.81,3.92s-4.81-1.76-4.81-3.92,2.15-3.92,4.81-3.92,4.81,1.75,4.81,3.92"/><path class="cls-8" d="M1290.17,863.58c0,2.16-2.15,3.92-4.81,3.92s-4.81-1.76-4.81-3.92,2.16-3.92,4.81-3.92,4.81,1.75,4.81,3.92"/><path class="cls-8" d="M1501,863.58c0,2.16-2.16,3.92-4.81,3.92s-4.81-1.76-4.81-3.92,2.15-3.92,4.81-3.92,4.81,1.75,4.81,3.92"/><path class="cls-8" d="M1711.9,863.58c0,2.16-2.15,3.92-4.81,3.92s-4.81-1.76-4.81-3.92,2.16-3.92,4.81-3.92,4.81,1.75,4.81,3.92"/><path class="cls-8" d="M1922.77,863.58c0,2.16-2.16,3.92-4.81,3.92s-4.81-1.76-4.81-3.92,2.15-3.92,4.81-3.92,4.81,1.75,4.81,3.92"/><path class="cls-8" d="M235.85,1035.45c0,2.17-2.15,3.93-4.81,3.93s-4.81-1.76-4.81-3.93,2.16-3.92,4.81-3.92,4.81,1.76,4.81,3.92"/><path class="cls-8" d="M446.72,1035.45c0,2.17-2.16,3.93-4.81,3.93s-4.81-1.76-4.81-3.93,2.15-3.92,4.81-3.92,4.81,1.76,4.81,3.92"/><path class="cls-8" d="M657.58,1035.45c0,2.17-2.15,3.93-4.81,3.93s-4.81-1.76-4.81-3.93,2.15-3.92,4.81-3.92,4.81,1.76,4.81,3.92"/><path class="cls-8" d="M868.44,1035.45c0,2.17-2.15,3.93-4.81,3.93s-4.8-1.76-4.8-3.93,2.15-3.92,4.8-3.92,4.81,1.76,4.81,3.92"/><path class="cls-8" d="M1079.31,1035.45c0,2.17-2.15,3.93-4.81,3.93s-4.81-1.76-4.81-3.93,2.15-3.92,4.81-3.92,4.81,1.76,4.81,3.92"/><path class="cls-8" d="M1290.17,1035.45c0,2.17-2.15,3.93-4.81,3.93s-4.81-1.76-4.81-3.93,2.16-3.92,4.81-3.92,4.81,1.76,4.81,3.92"/><path class="cls-8" d="M1501,1035.45c0,2.17-2.16,3.93-4.81,3.93s-4.81-1.76-4.81-3.93,2.15-3.92,4.81-3.92,4.81,1.76,4.81,3.92"/><path class="cls-8" d="M1711.9,1035.45c0,2.17-2.15,3.93-4.81,3.93s-4.81-1.76-4.81-3.93,2.16-3.92,4.81-3.92,4.81,1.76,4.81,3.92"/><path class="cls-8" d="M1922.77,1035.45c0,2.17-2.16,3.93-4.81,3.93s-4.81-1.76-4.81-3.93,2.15-3.92,4.81-3.92,4.81,1.76,4.81,3.92"/><path class="cls-8" d="M235.85,1207.33c0,2.17-2.15,3.92-4.81,3.92s-4.81-1.75-4.81-3.92,2.16-3.92,4.81-3.92,4.81,1.76,4.81,3.92"/><path class="cls-8" d="M446.72,1207.33c0,2.17-2.16,3.92-4.81,3.92s-4.81-1.75-4.81-3.92,2.15-3.92,4.81-3.92,4.81,1.76,4.81,3.92"/><path class="cls-8" d="M657.58,1207.33c0,2.17-2.15,3.92-4.81,3.92s-4.81-1.75-4.81-3.92,2.15-3.92,4.81-3.92,4.81,1.76,4.81,3.92"/><path class="cls-8" d="M868.44,1207.33c0,2.17-2.15,3.92-4.81,3.92s-4.8-1.75-4.8-3.92,2.15-3.92,4.8-3.92,4.81,1.76,4.81,3.92"/><path class="cls-8" d="M1079.31,1207.33c0,2.17-2.15,3.92-4.81,3.92s-4.81-1.75-4.81-3.92,2.15-3.92,4.81-3.92,4.81,1.76,4.81,3.92"/><path class="cls-8" d="M1290.17,1207.33c0,2.17-2.15,3.92-4.81,3.92s-4.81-1.75-4.81-3.92,2.16-3.92,4.81-3.92,4.81,1.76,4.81,3.92"/><path class="cls-8" d="M1501,1207.33c0,2.17-2.16,3.92-4.81,3.92s-4.81-1.75-4.81-3.92,2.15-3.92,4.81-3.92,4.81,1.76,4.81,3.92"/><path class="cls-8" d="M1711.9,1207.33c0,2.17-2.15,3.92-4.81,3.92s-4.81-1.75-4.81-3.92,2.16-3.92,4.81-3.92,4.81,1.76,4.81,3.92"/><path class="cls-8" d="M1922.77,1207.33c0,2.17-2.16,3.92-4.81,3.92s-4.81-1.75-4.81-3.92,2.15-3.92,4.81-3.92,4.81,1.76,4.81,3.92"/><path class="cls-8" d="M235.85,1379.21c0,2.16-2.15,3.92-4.81,3.92s-4.81-1.76-4.81-3.92,2.16-3.92,4.81-3.92,4.81,1.75,4.81,3.92"/><path class="cls-8" d="M446.72,1379.21c0,2.16-2.16,3.92-4.81,3.92s-4.81-1.76-4.81-3.92,2.15-3.92,4.81-3.92,4.81,1.75,4.81,3.92"/><path class="cls-8" d="M657.58,1379.21c0,2.16-2.15,3.92-4.81,3.92s-4.81-1.76-4.81-3.92,2.15-3.92,4.81-3.92,4.81,1.75,4.81,3.92"/><path class="cls-8" d="M868.44,1379.21c0,2.16-2.15,3.92-4.81,3.92s-4.8-1.76-4.8-3.92,2.15-3.92,4.8-3.92,4.81,1.75,4.81,3.92"/><path class="cls-8" d="M1079.31,1379.21c0,2.16-2.15,3.92-4.81,3.92s-4.81-1.76-4.81-3.92,2.15-3.92,4.81-3.92,4.81,1.75,4.81,3.92"/><path class="cls-8" d="M1290.17,1379.21c0,2.16-2.15,3.92-4.81,3.92s-4.81-1.76-4.81-3.92,2.16-3.92,4.81-3.92,4.81,1.75,4.81,3.92"/><path class="cls-8" d="M1501,1379.21c0,2.16-2.16,3.92-4.81,3.92s-4.81-1.76-4.81-3.92,2.15-3.92,4.81-3.92,4.81,1.75,4.81,3.92"/><path class="cls-8" d="M1711.9,1379.21c0,2.16-2.15,3.92-4.81,3.92s-4.81-1.76-4.81-3.92,2.16-3.92,4.81-3.92,4.81,1.75,4.81,3.92"/><path class="cls-8" d="M1922.77,1379.21c0,2.16-2.16,3.92-4.81,3.92s-4.81-1.76-4.81-3.92,2.15-3.92,4.81-3.92,4.81,1.75,4.81,3.92"/></g></g></g><g class="cls-2"><path class="cls-5" d="M947.79,885.36c-343.48,0-621.94,278.45-621.94,621.94s278.46,621.94,621.94,621.94,621.94-278.46,621.94-621.94S1291.28,885.36,947.79,885.36m0,1047.8c-235.19,0-425.86-190.67-425.86-425.86s190.67-425.86,425.86-425.86,425.86,190.66,425.86,425.86S1183,1933.16,947.79,1933.16"/><path class="cls-5" d="M1437.21,0c-171.47,0-310.47,139-310.47,310.47s139,310.46,310.47,310.46,310.47-139,310.47-310.46S1608.68,0,1437.21,0m0,464.93a154.47,154.47,0,1,1,154.46-154.46,154.46,154.46,0,0,1-154.46,154.46"/><path class="cls-9" d="M51.31,364.19s68.55,121,237.92,99.47c189.9-24.11,271.53,115.6,224.48,211s-256,115.6-226.81,270.18S62.06,1169.36,62.06,1169.36"/><path class="cls-9" d="M.23,504S145,556.41,289,537.59s160.88,65.79,144,99.47C398.11,707,211.27,720.4,199.17,833.31c-9.09,84.88,63.18,198.94-100.82,259.43"/><path class="cls-9" d="M64.75,560.44s148-18.88,121.55,64.52C156,720.56,84.91,719.06,152.12,840,176,883.06,183,1056.45,51.31,1021.5"/><ellipse class="cls-9" cx="315.44" cy="620.93" rx="66.54" ry="36.29"/><path class="cls-9" d="M1726.09,738.32s-267-62.72-347.62,200.74c-57.87,189-62.81,292.13-182.85,344.11s-189.94,63.09-197.11,119.36"/><path class="cls-9" d="M1313.87,1402.53s-70.48-174.92,115.5-266.33c125.53-61.7,66.68-271.16,148-337.84,64.52-52.87,148.68,61.3,148.68,61.3"/><path class="cls-9" d="M1369,1449.81s2.14-135.32,145.52-224,87.26-242,169.72-265.26,164.89,77.07,164.89,77.07"/><path class="cls-9" d="M1469.88,1401.46s-10.76-111.12,98.57-125.46S1771,1383.13,1771,1383.13"/></g></g></g></g></svg>