<svg xmlns="http://www.w3.org/2000/svg" viewBox="0 0 2283.28 139.7"><defs><style>.cls-1{fill:#fff;}</style></defs><title>timer-footer-bg_1</title><g id="Слой_2" data-name="Слой 2"><g id="Слой_1-2" data-name="Слой 1"><path class="cls-1" d="M1867.6,7.68A7.68,7.68,0,1,1,1859.93,0,7.66,7.66,0,0,1,1867.6,7.68Z"/><path class="cls-1" d="M1913.79,7.68A7.68,7.68,0,1,1,1906.11,0,7.67,7.67,0,0,1,1913.79,7.68Z"/><path class="cls-1" d="M1960,7.68A7.68,7.68,0,1,1,1952.3,0,7.66,7.66,0,0,1,1960,7.68Z"/><path class="cls-1" d="M2006.16,7.68A7.68,7.68,0,1,1,1998.48,0,7.67,7.67,0,0,1,2006.16,7.68Z"/><path class="cls-1" d="M2052.35,7.68A7.68,7.68,0,1,1,2044.67,0,7.67,7.67,0,0,1,2052.35,7.68Z"/><path class="cls-1" d="M2098.53,7.68A7.68,7.68,0,1,1,2090.86,0,7.67,7.67,0,0,1,2098.53,7.68Z"/><path class="cls-1" d="M2144.72,7.68A7.68,7.68,0,1,1,2137,0,7.67,7.67,0,0,1,2144.72,7.68Z"/><path class="cls-1" d="M2190.9,7.68A7.68,7.68,0,1,1,2183.23,0,7.66,7.66,0,0,1,2190.9,7.68Z"/><path class="cls-1" d="M2237.09,7.68A7.68,7.68,0,1,1,2229.41,0,7.67,7.67,0,0,1,2237.09,7.68Z"/><path class="cls-1" d="M2283.28,7.68A7.68,7.68,0,1,1,2275.6,0,7.67,7.67,0,0,1,2283.28,7.68Z"/><path class="cls-1" d="M1867.6,49.12a7.68,7.68,0,1,1-7.67-7.67A7.67,7.67,0,0,1,1867.6,49.12Z"/><path class="cls-1" d="M1913.79,49.12a7.68,7.68,0,1,1-7.68-7.67A7.68,7.68,0,0,1,1913.79,49.12Z"/><path class="cls-1" d="M1960,49.12a7.68,7.68,0,1,1-7.67-7.67A7.67,7.67,0,0,1,1960,49.12Z"/><path class="cls-1" d="M2006.16,49.12a7.68,7.68,0,1,1-7.68-7.67A7.68,7.68,0,0,1,2006.16,49.12Z"/><path class="cls-1" d="M2052.35,49.12a7.68,7.68,0,1,1-7.68-7.67A7.68,7.68,0,0,1,2052.35,49.12Z"/><path class="cls-1" d="M2098.53,49.12a7.68,7.68,0,1,1-7.67-7.67A7.68,7.68,0,0,1,2098.53,49.12Z"/><path class="cls-1" d="M2144.72,49.12a7.68,7.68,0,1,1-7.68-7.67A7.68,7.68,0,0,1,2144.72,49.12Z"/><path class="cls-1" d="M2190.9,49.12a7.68,7.68,0,1,1-7.67-7.67A7.67,7.67,0,0,1,2190.9,49.12Z"/><path class="cls-1" d="M2237.09,49.12a7.68,7.68,0,1,1-7.68-7.67A7.68,7.68,0,0,1,2237.09,49.12Z"/><path class="cls-1" d="M2283.28,49.12a7.68,7.68,0,1,1-7.68-7.67A7.68,7.68,0,0,1,2283.28,49.12Z"/><path class="cls-1" d="M1867.6,90.57a7.68,7.68,0,1,1-7.67-7.68A7.67,7.67,0,0,1,1867.6,90.57Z"/><path class="cls-1" d="M1913.79,90.57a7.68,7.68,0,1,1-7.68-7.68A7.68,7.68,0,0,1,1913.79,90.57Z"/><path class="cls-1" d="M1960,90.57a7.68,7.68,0,1,1-7.67-7.68A7.67,7.67,0,0,1,1960,90.57Z"/><path class="cls-1" d="M2006.16,90.57a7.68,7.68,0,1,1-7.68-7.68A7.68,7.68,0,0,1,2006.16,90.57Z"/><path class="cls-1" d="M2052.35,90.57a7.68,7.68,0,1,1-7.68-7.68A7.68,7.68,0,0,1,2052.35,90.57Z"/><path class="cls-1" d="M2098.53,90.57a7.68,7.68,0,1,1-7.67-7.68A7.68,7.68,0,0,1,2098.53,90.57Z"/><path class="cls-1" d="M2144.72,90.57a7.68,7.68,0,1,1-7.68-7.68A7.68,7.68,0,0,1,2144.72,90.57Z"/><path class="cls-1" d="M2190.9,90.57a7.68,7.68,0,1,1-7.67-7.68A7.67,7.67,0,0,1,2190.9,90.57Z"/><path class="cls-1" d="M2237.09,90.57a7.68,7.68,0,1,1-7.68-7.68A7.68,7.68,0,0,1,2237.09,90.57Z"/><path class="cls-1" d="M2283.28,90.57a7.68,7.68,0,1,1-7.68-7.68A7.68,7.68,0,0,1,2283.28,90.57Z"/><path class="cls-1" d="M1867.6,132a7.68,7.68,0,1,1-7.67-7.68A7.67,7.67,0,0,1,1867.6,132Z"/><path class="cls-1" d="M1913.79,132a7.68,7.68,0,1,1-7.68-7.68A7.68,7.68,0,0,1,1913.79,132Z"/><path class="cls-1" d="M1960,132a7.68,7.68,0,1,1-7.67-7.68A7.67,7.67,0,0,1,1960,132Z"/><path class="cls-1" d="M2006.16,132a7.68,7.68,0,1,1-7.68-7.68A7.68,7.68,0,0,1,2006.16,132Z"/><path class="cls-1" d="M2052.35,132a7.68,7.68,0,1,1-7.68-7.68A7.68,7.68,0,0,1,2052.35,132Z"/><path class="cls-1" d="M2098.53,132a7.68,7.68,0,1,1-7.67-7.68A7.68,7.68,0,0,1,2098.53,132Z"/><path class="cls-1" d="M2144.72,132a7.68,7.68,0,1,1-7.68-7.68A7.68,7.68,0,0,1,2144.72,132Z"/><path class="cls-1" d="M2190.9,132a7.68,7.68,0,1,1-7.67-7.68A7.67,7.67,0,0,1,2190.9,132Z"/><path class="cls-1" d="M2237.09,132a7.68,7.68,0,1,1-7.68-7.68A7.68,7.68,0,0,1,2237.09,132Z"/><path class="cls-1" d="M2283.28,132a7.68,7.68,0,1,1-7.68-7.68A7.68,7.68,0,0,1,2283.28,132Z"/><path class="cls-1" d="M1403.39,7.68A7.68,7.68,0,1,1,1395.72,0,7.66,7.66,0,0,1,1403.39,7.68Z"/><path class="cls-1" d="M1449.58,7.68A7.68,7.68,0,1,1,1441.9,0,7.67,7.67,0,0,1,1449.58,7.68Z"/><path class="cls-1" d="M1495.77,7.68A7.68,7.68,0,1,1,1488.09,0,7.67,7.67,0,0,1,1495.77,7.68Z"/><path class="cls-1" d="M1542,7.68A7.68,7.68,0,1,1,1534.28,0,7.67,7.67,0,0,1,1542,7.68Z"/><path class="cls-1" d="M1588.14,7.68A7.68,7.68,0,1,1,1580.46,0,7.67,7.67,0,0,1,1588.14,7.68Z"/><path class="cls-1" d="M1634.32,7.68A7.68,7.68,0,1,1,1626.65,0,7.66,7.66,0,0,1,1634.32,7.68Z"/><path class="cls-1" d="M1680.51,7.68A7.68,7.68,0,1,1,1672.83,0,7.67,7.67,0,0,1,1680.51,7.68Z"/><path class="cls-1" d="M1726.7,7.68A7.68,7.68,0,1,1,1719,0,7.67,7.67,0,0,1,1726.7,7.68Z"/><path class="cls-1" d="M1772.88,7.68A7.68,7.68,0,1,1,1765.2,0,7.67,7.67,0,0,1,1772.88,7.68Z"/><path class="cls-1" d="M1819.07,7.68A7.68,7.68,0,1,1,1811.39,0,7.67,7.67,0,0,1,1819.07,7.68Z"/><path class="cls-1" d="M1403.39,49.12a7.68,7.68,0,1,1-7.67-7.67A7.67,7.67,0,0,1,1403.39,49.12Z"/><path class="cls-1" d="M1449.58,49.12a7.68,7.68,0,1,1-7.68-7.67A7.68,7.68,0,0,1,1449.58,49.12Z"/><path class="cls-1" d="M1495.77,49.12a7.68,7.68,0,1,1-7.68-7.67A7.68,7.68,0,0,1,1495.77,49.12Z"/><path class="cls-1" d="M1542,49.12a7.68,7.68,0,1,1-7.67-7.67A7.68,7.68,0,0,1,1542,49.12Z"/><path class="cls-1" d="M1588.14,49.12a7.68,7.68,0,1,1-7.68-7.67A7.68,7.68,0,0,1,1588.14,49.12Z"/><path class="cls-1" d="M1634.32,49.12a7.68,7.68,0,1,1-7.67-7.67A7.67,7.67,0,0,1,1634.32,49.12Z"/><path class="cls-1" d="M1680.51,49.12a7.68,7.68,0,1,1-7.68-7.67A7.68,7.68,0,0,1,1680.51,49.12Z"/><path class="cls-1" d="M1726.7,49.12a7.68,7.68,0,1,1-7.68-7.67A7.68,7.68,0,0,1,1726.7,49.12Z"/><path class="cls-1" d="M1772.88,49.12a7.68,7.68,0,1,1-7.68-7.67A7.68,7.68,0,0,1,1772.88,49.12Z"/><path class="cls-1" d="M1819.07,49.12a7.68,7.68,0,1,1-7.68-7.67A7.68,7.68,0,0,1,1819.07,49.12Z"/><path class="cls-1" d="M1403.39,90.57a7.68,7.68,0,1,1-7.67-7.68A7.67,7.67,0,0,1,1403.39,90.57Z"/><path class="cls-1" d="M1449.58,90.57a7.68,7.68,0,1,1-7.68-7.68A7.68,7.68,0,0,1,1449.58,90.57Z"/><path class="cls-1" d="M1495.77,90.57a7.68,7.68,0,1,1-7.68-7.68A7.68,7.68,0,0,1,1495.77,90.57Z"/><path class="cls-1" d="M1542,90.57a7.68,7.68,0,1,1-7.67-7.68A7.68,7.68,0,0,1,1542,90.57Z"/><path class="cls-1" d="M1588.14,90.57a7.68,7.68,0,1,1-7.68-7.68A7.68,7.68,0,0,1,1588.14,90.57Z"/><path class="cls-1" d="M1634.32,90.57a7.68,7.68,0,1,1-7.67-7.68A7.67,7.67,0,0,1,1634.32,90.57Z"/><path class="cls-1" d="M1680.51,90.57a7.68,7.68,0,1,1-7.68-7.68A7.68,7.68,0,0,1,1680.51,90.57Z"/><path class="cls-1" d="M1726.7,90.57a7.68,7.68,0,1,1-7.68-7.68A7.68,7.68,0,0,1,1726.7,90.57Z"/><path class="cls-1" d="M1772.88,90.57a7.68,7.68,0,1,1-7.68-7.68A7.68,7.68,0,0,1,1772.88,90.57Z"/><path class="cls-1" d="M1819.07,90.57a7.68,7.68,0,1,1-7.68-7.68A7.68,7.68,0,0,1,1819.07,90.57Z"/><path class="cls-1" d="M1403.39,132a7.68,7.68,0,1,1-7.67-7.68A7.67,7.67,0,0,1,1403.39,132Z"/><path class="cls-1" d="M1449.58,132a7.68,7.68,0,1,1-7.68-7.68A7.68,7.68,0,0,1,1449.58,132Z"/><path class="cls-1" d="M1495.77,132a7.68,7.68,0,1,1-7.68-7.68A7.68,7.68,0,0,1,1495.77,132Z"/><path class="cls-1" d="M1542,132a7.68,7.68,0,1,1-7.67-7.68A7.68,7.68,0,0,1,1542,132Z"/><path class="cls-1" d="M1588.14,132a7.68,7.68,0,1,1-7.68-7.68A7.68,7.68,0,0,1,1588.14,132Z"/><path class="cls-1" d="M1634.32,132a7.68,7.68,0,1,1-7.67-7.68A7.67,7.67,0,0,1,1634.32,132Z"/><path class="cls-1" d="M1680.51,132a7.68,7.68,0,1,1-7.68-7.68A7.68,7.68,0,0,1,1680.51,132Z"/><path class="cls-1" d="M1726.7,132a7.68,7.68,0,1,1-7.68-7.68A7.68,7.68,0,0,1,1726.7,132Z"/><path class="cls-1" d="M1772.88,132a7.68,7.68,0,1,1-7.68-7.68A7.68,7.68,0,0,1,1772.88,132Z"/><path class="cls-1" d="M1819.07,132a7.68,7.68,0,1,1-7.68-7.68A7.68,7.68,0,0,1,1819.07,132Z"/><path class="cls-1" d="M945.2,7.68A7.68,7.68,0,1,1,937.53,0,7.66,7.66,0,0,1,945.2,7.68Z"/><path class="cls-1" d="M991.39,7.68A7.68,7.68,0,1,1,983.71,0,7.67,7.67,0,0,1,991.39,7.68Z"/><path class="cls-1" d="M1037.58,7.68A7.68,7.68,0,1,1,1029.9,0,7.67,7.67,0,0,1,1037.58,7.68Z"/><path class="cls-1" d="M1083.76,7.68A7.68,7.68,0,1,1,1076.09,0,7.66,7.66,0,0,1,1083.76,7.68Z"/><path class="cls-1" d="M1130,7.68A7.68,7.68,0,1,1,1122.27,0,7.67,7.67,0,0,1,1130,7.68Z"/><path class="cls-1" d="M1176.13,7.68A7.68,7.68,0,1,1,1168.46,0,7.66,7.66,0,0,1,1176.13,7.68Z"/><path class="cls-1" d="M1222.32,7.68A7.68,7.68,0,1,1,1214.64,0,7.67,7.67,0,0,1,1222.32,7.68Z"/><path class="cls-1" d="M1268.51,7.68A7.68,7.68,0,1,1,1260.83,0,7.67,7.67,0,0,1,1268.51,7.68Z"/><path class="cls-1" d="M1314.69,7.68A7.68,7.68,0,1,1,1307,0,7.67,7.67,0,0,1,1314.69,7.68Z"/><path class="cls-1" d="M1360.88,7.68A7.68,7.68,0,1,1,1353.2,0,7.67,7.67,0,0,1,1360.88,7.68Z"/><path class="cls-1" d="M945.2,49.12a7.68,7.68,0,1,1-7.67-7.67A7.67,7.67,0,0,1,945.2,49.12Z"/><path class="cls-1" d="M991.39,49.12a7.68,7.68,0,1,1-7.68-7.67A7.68,7.68,0,0,1,991.39,49.12Z"/><path class="cls-1" d="M1037.58,49.12a7.68,7.68,0,1,1-7.68-7.67A7.68,7.68,0,0,1,1037.58,49.12Z"/><path class="cls-1" d="M1083.76,49.12a7.68,7.68,0,1,1-7.67-7.67A7.67,7.67,0,0,1,1083.76,49.12Z"/><path class="cls-1" d="M1130,49.12a7.68,7.68,0,1,1-7.68-7.67A7.68,7.68,0,0,1,1130,49.12Z"/><path class="cls-1" d="M1176.13,49.12a7.68,7.68,0,1,1-7.67-7.67A7.67,7.67,0,0,1,1176.13,49.12Z"/><path class="cls-1" d="M1222.32,49.12a7.68,7.68,0,1,1-7.68-7.67A7.68,7.68,0,0,1,1222.32,49.12Z"/><path class="cls-1" d="M1268.51,49.12a7.68,7.68,0,1,1-7.68-7.67A7.68,7.68,0,0,1,1268.51,49.12Z"/><path class="cls-1" d="M1314.69,49.12a7.68,7.68,0,1,1-7.67-7.67A7.68,7.68,0,0,1,1314.69,49.12Z"/><path class="cls-1" d="M1360.88,49.12a7.68,7.68,0,1,1-7.68-7.67A7.68,7.68,0,0,1,1360.88,49.12Z"/><path class="cls-1" d="M945.2,90.57a7.68,7.68,0,1,1-7.67-7.68A7.67,7.67,0,0,1,945.2,90.57Z"/><path class="cls-1" d="M991.39,90.57a7.68,7.68,0,1,1-7.68-7.68A7.68,7.68,0,0,1,991.39,90.57Z"/><path class="cls-1" d="M1037.58,90.57a7.68,7.68,0,1,1-7.68-7.68A7.68,7.68,0,0,1,1037.58,90.57Z"/><path class="cls-1" d="M1083.76,90.57a7.68,7.68,0,1,1-7.67-7.68A7.67,7.67,0,0,1,1083.76,90.57Z"/><path class="cls-1" d="M1130,90.57a7.68,7.68,0,1,1-7.68-7.68A7.68,7.68,0,0,1,1130,90.57Z"/><path class="cls-1" d="M1176.13,90.57a7.68,7.68,0,1,1-7.67-7.68A7.67,7.67,0,0,1,1176.13,90.57Z"/><path class="cls-1" d="M1222.32,90.57a7.68,7.68,0,1,1-7.68-7.68A7.68,7.68,0,0,1,1222.32,90.57Z"/><path class="cls-1" d="M1268.51,90.57a7.68,7.68,0,1,1-7.68-7.68A7.68,7.68,0,0,1,1268.51,90.57Z"/><path class="cls-1" d="M1314.69,90.57a7.68,7.68,0,1,1-7.67-7.68A7.68,7.68,0,0,1,1314.69,90.57Z"/><path class="cls-1" d="M1360.88,90.57a7.68,7.68,0,1,1-7.68-7.68A7.68,7.68,0,0,1,1360.88,90.57Z"/><path class="cls-1" d="M945.2,132a7.68,7.68,0,1,1-7.67-7.68A7.67,7.67,0,0,1,945.2,132Z"/><path class="cls-1" d="M991.39,132a7.68,7.68,0,1,1-7.68-7.68A7.68,7.68,0,0,1,991.39,132Z"/><path class="cls-1" d="M1037.58,132a7.68,7.68,0,1,1-7.68-7.68A7.68,7.68,0,0,1,1037.58,132Z"/><path class="cls-1" d="M1083.76,132a7.68,7.68,0,1,1-7.67-7.68A7.67,7.67,0,0,1,1083.76,132Z"/><path class="cls-1" d="M1130,132a7.68,7.68,0,1,1-7.68-7.68A7.68,7.68,0,0,1,1130,132Z"/><path class="cls-1" d="M1176.13,132a7.68,7.68,0,1,1-7.67-7.68A7.67,7.67,0,0,1,1176.13,132Z"/><path class="cls-1" d="M1222.32,132a7.68,7.68,0,1,1-7.68-7.68A7.68,7.68,0,0,1,1222.32,132Z"/><path class="cls-1" d="M1268.51,132a7.68,7.68,0,1,1-7.68-7.68A7.68,7.68,0,0,1,1268.51,132Z"/><path class="cls-1" d="M1314.69,132a7.68,7.68,0,1,1-7.67-7.68A7.68,7.68,0,0,1,1314.69,132Z"/><path class="cls-1" d="M1360.88,132a7.68,7.68,0,1,1-7.68-7.68A7.68,7.68,0,0,1,1360.88,132Z"/><path class="cls-1" d="M481,7.68A7.68,7.68,0,1,1,473.32,0,7.67,7.67,0,0,1,481,7.68Z"/><path class="cls-1" d="M527.18,7.68A7.68,7.68,0,1,1,519.51,0,7.66,7.66,0,0,1,527.18,7.68Z"/><path class="cls-1" d="M573.37,7.68A7.68,7.68,0,1,1,565.69,0,7.67,7.67,0,0,1,573.37,7.68Z"/><path class="cls-1" d="M619.55,7.68A7.68,7.68,0,1,1,611.88,0,7.66,7.66,0,0,1,619.55,7.68Z"/><path class="cls-1" d="M665.74,7.68A7.68,7.68,0,1,1,658.06,0,7.67,7.67,0,0,1,665.74,7.68Z"/><path class="cls-1" d="M711.93,7.68A7.68,7.68,0,1,1,704.25,0,7.67,7.67,0,0,1,711.93,7.68Z"/><path class="cls-1" d="M758.11,7.68A7.68,7.68,0,1,1,750.44,0,7.67,7.67,0,0,1,758.11,7.68Z"/><path class="cls-1" d="M804.3,7.68A7.68,7.68,0,1,1,796.62,0,7.67,7.67,0,0,1,804.3,7.68Z"/><path class="cls-1" d="M850.48,7.68A7.68,7.68,0,1,1,842.81,0,7.66,7.66,0,0,1,850.48,7.68Z"/><path class="cls-1" d="M896.67,7.68A7.68,7.68,0,1,1,889,0,7.67,7.67,0,0,1,896.67,7.68Z"/><path class="cls-1" d="M481,49.12a7.68,7.68,0,1,1-7.68-7.67A7.68,7.68,0,0,1,481,49.12Z"/><path class="cls-1" d="M527.18,49.12a7.68,7.68,0,1,1-7.67-7.67A7.67,7.67,0,0,1,527.18,49.12Z"/><path class="cls-1" d="M573.37,49.12a7.68,7.68,0,1,1-7.68-7.67A7.68,7.68,0,0,1,573.37,49.12Z"/><path class="cls-1" d="M619.55,49.12a7.68,7.68,0,1,1-7.67-7.67A7.67,7.67,0,0,1,619.55,49.12Z"/><path class="cls-1" d="M665.74,49.12a7.68,7.68,0,1,1-7.68-7.67A7.68,7.68,0,0,1,665.74,49.12Z"/><path class="cls-1" d="M711.93,49.12a7.68,7.68,0,1,1-7.68-7.67A7.68,7.68,0,0,1,711.93,49.12Z"/><path class="cls-1" d="M758.11,49.12a7.68,7.68,0,1,1-7.67-7.67A7.68,7.68,0,0,1,758.11,49.12Z"/><path class="cls-1" d="M804.3,49.12a7.68,7.68,0,1,1-7.68-7.67A7.68,7.68,0,0,1,804.3,49.12Z"/><path class="cls-1" d="M850.48,49.12a7.68,7.68,0,1,1-7.67-7.67A7.67,7.67,0,0,1,850.48,49.12Z"/><path class="cls-1" d="M896.67,49.12A7.68,7.68,0,1,1,889,41.45,7.68,7.68,0,0,1,896.67,49.12Z"/><path class="cls-1" d="M481,90.57a7.68,7.68,0,1,1-7.68-7.68A7.68,7.68,0,0,1,481,90.57Z"/><path class="cls-1" d="M527.18,90.57a7.68,7.68,0,1,1-7.67-7.68A7.67,7.67,0,0,1,527.18,90.57Z"/><path class="cls-1" d="M573.37,90.57a7.68,7.68,0,1,1-7.68-7.68A7.68,7.68,0,0,1,573.37,90.57Z"/><path class="cls-1" d="M619.55,90.57a7.68,7.68,0,1,1-7.67-7.68A7.67,7.67,0,0,1,619.55,90.57Z"/><path class="cls-1" d="M665.74,90.57a7.68,7.68,0,1,1-7.68-7.68A7.68,7.68,0,0,1,665.74,90.57Z"/><path class="cls-1" d="M711.93,90.57a7.68,7.68,0,1,1-7.68-7.68A7.68,7.68,0,0,1,711.93,90.57Z"/><path class="cls-1" d="M758.11,90.57a7.68,7.68,0,1,1-7.67-7.68A7.68,7.68,0,0,1,758.11,90.57Z"/><path class="cls-1" d="M804.3,90.57a7.68,7.68,0,1,1-7.68-7.68A7.68,7.68,0,0,1,804.3,90.57Z"/><path class="cls-1" d="M850.48,90.57a7.68,7.68,0,1,1-7.67-7.68A7.67,7.67,0,0,1,850.48,90.57Z"/><path class="cls-1" d="M896.67,90.57A7.68,7.68,0,1,1,889,82.89,7.68,7.68,0,0,1,896.67,90.57Z"/><path class="cls-1" d="M481,132a7.68,7.68,0,1,1-7.68-7.68A7.68,7.68,0,0,1,481,132Z"/><path class="cls-1" d="M527.18,132a7.68,7.68,0,1,1-7.67-7.68A7.67,7.67,0,0,1,527.18,132Z"/><path class="cls-1" d="M573.37,132a7.68,7.68,0,1,1-7.68-7.68A7.68,7.68,0,0,1,573.37,132Z"/><path class="cls-1" d="M619.55,132a7.68,7.68,0,1,1-7.67-7.68A7.67,7.67,0,0,1,619.55,132Z"/><path class="cls-1" d="M665.74,132a7.68,7.68,0,1,1-7.68-7.68A7.68,7.68,0,0,1,665.74,132Z"/><path class="cls-1" d="M711.93,132a7.68,7.68,0,1,1-7.68-7.68A7.68,7.68,0,0,1,711.93,132Z"/><path class="cls-1" d="M758.11,132a7.68,7.68,0,1,1-7.67-7.68A7.68,7.68,0,0,1,758.11,132Z"/><path class="cls-1" d="M804.3,132a7.68,7.68,0,1,1-7.68-7.68A7.68,7.68,0,0,1,804.3,132Z"/><path class="cls-1" d="M850.48,132a7.68,7.68,0,1,1-7.67-7.68A7.67,7.67,0,0,1,850.48,132Z"/><path class="cls-1" d="M896.67,132a7.68,7.68,0,1,1-7.68-7.68A7.68,7.68,0,0,1,896.67,132Z"/><path class="cls-1" d="M15.35,7.68A7.68,7.68,0,1,1,7.68,0,7.66,7.66,0,0,1,15.35,7.68Z"/><path class="cls-1" d="M61.54,7.68A7.68,7.68,0,1,1,53.86,0,7.67,7.67,0,0,1,61.54,7.68Z"/><path class="cls-1" d="M107.72,7.68A7.68,7.68,0,1,1,100.05,0,7.66,7.66,0,0,1,107.72,7.68Z"/><path class="cls-1" d="M153.91,7.68A7.68,7.68,0,1,1,146.23,0,7.67,7.67,0,0,1,153.91,7.68Z"/><path class="cls-1" d="M200.1,7.68A7.68,7.68,0,1,1,192.42,0,7.67,7.67,0,0,1,200.1,7.68Z"/><path class="cls-1" d="M246.28,7.68A7.68,7.68,0,1,1,238.61,0,7.66,7.66,0,0,1,246.28,7.68Z"/><path class="cls-1" d="M292.47,7.68A7.68,7.68,0,1,1,284.79,0,7.67,7.67,0,0,1,292.47,7.68Z"/><path class="cls-1" d="M338.65,7.68A7.68,7.68,0,1,1,331,0,7.66,7.66,0,0,1,338.65,7.68Z"/><path class="cls-1" d="M384.84,7.68A7.68,7.68,0,1,1,377.16,0,7.67,7.67,0,0,1,384.84,7.68Z"/><path class="cls-1" d="M431,7.68A7.68,7.68,0,1,1,423.35,0,7.67,7.67,0,0,1,431,7.68Z"/><path class="cls-1" d="M15.35,49.12a7.68,7.68,0,1,1-7.67-7.67A7.67,7.67,0,0,1,15.35,49.12Z"/><path class="cls-1" d="M61.54,49.12a7.68,7.68,0,1,1-7.68-7.67A7.68,7.68,0,0,1,61.54,49.12Z"/><path class="cls-1" d="M107.72,49.12a7.68,7.68,0,1,1-7.67-7.67A7.67,7.67,0,0,1,107.72,49.12Z"/><path class="cls-1" d="M153.91,49.12a7.68,7.68,0,1,1-7.68-7.67A7.68,7.68,0,0,1,153.91,49.12Z"/><path class="cls-1" d="M200.1,49.12a7.68,7.68,0,1,1-7.68-7.67A7.68,7.68,0,0,1,200.1,49.12Z"/><path class="cls-1" d="M246.28,49.12a7.68,7.68,0,1,1-7.67-7.67A7.67,7.67,0,0,1,246.28,49.12Z"/><path class="cls-1" d="M292.47,49.12a7.68,7.68,0,1,1-7.68-7.67A7.68,7.68,0,0,1,292.47,49.12Z"/><path class="cls-1" d="M338.65,49.12A7.68,7.68,0,1,1,331,41.45,7.67,7.67,0,0,1,338.65,49.12Z"/><path class="cls-1" d="M384.84,49.12a7.68,7.68,0,1,1-7.68-7.67A7.68,7.68,0,0,1,384.84,49.12Z"/><path class="cls-1" d="M431,49.12a7.68,7.68,0,1,1-7.68-7.67A7.68,7.68,0,0,1,431,49.12Z"/><path class="cls-1" d="M15.35,90.57a7.68,7.68,0,1,1-7.67-7.68A7.67,7.67,0,0,1,15.35,90.57Z"/><path class="cls-1" d="M61.54,90.57a7.68,7.68,0,1,1-7.68-7.68A7.68,7.68,0,0,1,61.54,90.57Z"/><path class="cls-1" d="M107.72,90.57a7.68,7.68,0,1,1-7.67-7.68A7.67,7.67,0,0,1,107.72,90.57Z"/><path class="cls-1" d="M153.91,90.57a7.68,7.68,0,1,1-7.68-7.68A7.68,7.68,0,0,1,153.91,90.57Z"/><path class="cls-1" d="M200.1,90.57a7.68,7.68,0,1,1-7.68-7.68A7.68,7.68,0,0,1,200.1,90.57Z"/><path class="cls-1" d="M246.28,90.57a7.68,7.68,0,1,1-7.67-7.68A7.67,7.67,0,0,1,246.28,90.57Z"/><path class="cls-1" d="M292.47,90.57a7.68,7.68,0,1,1-7.68-7.68A7.68,7.68,0,0,1,292.47,90.57Z"/><path class="cls-1" d="M338.65,90.57A7.68,7.68,0,1,1,331,82.89,7.67,7.67,0,0,1,338.65,90.57Z"/><path class="cls-1" d="M384.84,90.57a7.68,7.68,0,1,1-7.68-7.68A7.68,7.68,0,0,1,384.84,90.57Z"/><path class="cls-1" d="M431,90.57a7.68,7.68,0,1,1-7.68-7.68A7.68,7.68,0,0,1,431,90.57Z"/><path class="cls-1" d="M15.35,132a7.68,7.68,0,1,1-7.67-7.68A7.67,7.67,0,0,1,15.35,132Z"/><path class="cls-1" d="M61.54,132a7.68,7.68,0,1,1-7.68-7.68A7.68,7.68,0,0,1,61.54,132Z"/><path class="cls-1" d="M107.72,132a7.68,7.68,0,1,1-7.67-7.68A7.67,7.67,0,0,1,107.72,132Z"/><path class="cls-1" d="M153.91,132a7.68,7.68,0,1,1-7.68-7.68A7.68,7.68,0,0,1,153.91,132Z"/><path class="cls-1" d="M200.1,132a7.68,7.68,0,1,1-7.68-7.68A7.68,7.68,0,0,1,200.1,132Z"/><path class="cls-1" d="M246.28,132a7.68,7.68,0,1,1-7.67-7.68A7.67,7.67,0,0,1,246.28,132Z"/><path class="cls-1" d="M292.47,132a7.68,7.68,0,1,1-7.68-7.68A7.68,7.68,0,0,1,292.47,132Z"/><path class="cls-1" d="M338.65,132a7.68,7.68,0,1,1-7.67-7.68A7.67,7.67,0,0,1,338.65,132Z"/><path class="cls-1" d="M384.84,132a7.68,7.68,0,1,1-7.68-7.68A7.68,7.68,0,0,1,384.84,132Z"/><path class="cls-1" d="M431,132a7.68,7.68,0,1,1-7.68-7.68A7.68,7.68,0,0,1,431,132Z"/></g></g></svg>