<?xml version="1.0" encoding="utf-8"?>
<!-- Generator: Adobe Illustrator 24.0.0, SVG Export Plug-In . SVG Version: 6.00 Build 0)  -->
<svg version="1.1" id="Слой_1" xmlns="http://www.w3.org/2000/svg" xmlns:xlink="http://www.w3.org/1999/xlink" x="0px" y="0px"
	 viewBox="0 0 598.7 479.8" style="enable-background:new 0 0 598.7 479.8;" xml:space="preserve">
<style type="text/css">
	.st0{opacity:0.65;fill:#90C78A;enable-background:new    ;}
	.st1{fill:#E59788;}
	.st2{fill:#F7B95F;}
	.st3{fill:#D7887A;}
	.st4{fill:#0C0F12;}
	.st5{fill:#CE8879;}
	.st6{fill:#674640;}
	.st7{fill:#E48B7B;}
	.st8{fill:#F7D85E;}
	.st9{fill:#B16E60;}
	.st10{fill:#B8857E;}
	.st11{fill:#E7E8E7;}
	.st12{fill:#F5AC9F;}
</style>
<g>
	<polygon class="st0" points="0,479.8 76.8,379.4 598.7,345.7 476.4,471.9 	"/>
	<path class="st1" d="M354.5,180.4c0.4-0.8,0.8-1.3,1.1-1.9c8.4-14.8,21.3-21.2,38-20.6c3.5,0.1,6.8,1.5,9.8,3.3
		c6.1,3.6,9.2,6.8,11.3,13.9c7.5,1.8,11,7.3,12,14.6c0.7,5.1,0.3,10.1-3.8,14.6c0-0.9,0-1.2,0.1-1.4c2.4-5.1,1.2-9.9-0.9-14.6
		c-0.6-1.4-1.7-2.6-2.9-3.7c-0.9-0.8-2.1-1.2-3.4-1.8c-0.5,0.6-0.3,1-0.3,1.4c-0.2,4.2-1.7,8.1-3.5,11.8c-2,4.3-5.5,6.6-9.8,7.7
		c-2.1,0.5-4.2,1-6.4,0.9c-5.3-0.1-8.3-3-8.9-8.8c-0.6-5.7,2.1-10.1,5.9-13.9c1.8-1.8,4-3.1,6.1-4.7c0.6-0.4,1.2-0.8,1.9-1.2
		c-0.9-1.4-2.2-1.8-3.6-2.2c-9.4-2.9-17.3-0.3-23.8,7c-3.5,4-6.4,8.4-8.5,13.4c-0.4,0.9-0.7,1.7,0,2.8c5.5,8.9,9.8,18.4,13.7,28.1
		c2.7,6.6,4.4,13.6,6.3,20.4c3,10.6,4,21.3,3.7,32.2c-0.3,7.9-0.6,15.8-2.5,23.5c-1.6,6.7-3.7,13.2-6,19.7
		c-2.9,8.3-6.4,16.4-10.2,24.3c-1.2,2.5-2.6,5-4.2,7.3c-2.4,3.5-4.3,7.3-5.6,11.3c-3.3,9.9-6.5,19.9-8.4,30.2
		c-0.3,1.9-0.6,3.8-0.9,5.6c-0.2,1.5-1.1,2.6-2.7,2.9c-3.3,0.6-6.6,1.5-10,1.8c-6.4,0.5-12.8,0.8-19.1,0.9c-2.5,0-4.2,1-6.1,2
		c-4.8,2.7-9.6,5.3-14.5,7.6c-4.7,2.2-9.6,4-14.7,6.1c-0.6,3.6,0.2,7.4,0.8,11.2c0.5,3.5,1.2,6.9,1.6,10.3c0.3,2.4,0.2,4.8,0.2,7.2
		c0,1.8-1,3.1-2.6,4.2c-5.2,3.7-11.2,4.8-17.3,5.8c-5.8,0.9-11.6,1.5-17.5,2.5c-2.8,0.4-5.5,1.2-8,2.5c-1.2,0.6-2.8,0.7-4.1,0.5
		c-2.4-0.3-4.8-0.8-7-1.6c-5.9-2.1-9.1-6.8-10.6-12.6c-1.7-6.2-2.4-12.5-2.6-18.9c-0.1-1.5-0.2-3-0.4-4.8c-13.6-0.1-27-1.5-40.4-4.7
		c0,3.6,0.1,6.9,0,10.1c-0.1,1.8-0.4,3.6-0.8,5.4c-0.5,2.7-2.4,4-4.9,4.3c-5,0.6-9.8-0.1-13.7-3.8c-0.2-0.2-0.4-0.3-0.5-0.5
		c-3.1-3.5-7-4.1-11.3-2.9c-3.4,0.9-6.9,0.9-10.4,0.5c-3.3-0.4-6.6-0.9-9.8-1.3c-0.3,0-0.7,0-1,0c-2.8,0.6-4.1,0-4.6-2.8
		c-0.6-2.9-1-5.9-1.2-8.9c-0.5-8.2-0.5-16.4,0.6-24.6c0.2-1.5-0.2-2.4-1.5-3.3c-8.2-6-15.8-12.7-22-20.8c-5.1-6.8-9-14.3-12.7-21.9
		c-5.4-11.2-9.9-22.8-12.5-35.1c-2.2-10.2-3.7-20.6-3.4-31.1c0.2-5.6,0-11.1,0.2-16.7c0.3-8.8,1.6-17.5,3.2-26.2
		c0.8-4.6,1.9-9.1,2.8-13.8c-1.8-2-3.9-4-5.7-6.2c-4.3-5.1-8.6-10.1-12.6-15.4c-4.5-6-8.2-12.5-10.7-19.6
		c-2.4-6.9-2.4-13.8-0.6-20.8c0.6-2.2,1.2-4.3,2.2-6.3c3-6.6,8.1-10.8,14.7-13.4c4.5-1.8,9.3-2.6,14.1-2.8c12-0.6,23.7,1.2,34.9,5.5
		c3.6,1.4,7.2,2.9,10.8,4.4c1.3,0.6,2.2,0.5,3.3-0.5c5.6-4.9,11.8-9.2,18.2-13c10.3-5.9,20.9-11.2,32.2-14.8
		c7.2-2.3,14.4-4.6,21.8-5.8c3.6-0.6,7.2-1,10.9-1.3c4.6-0.3,9.3-0.4,13.9-0.6c8.5-0.5,16.9,0,25.4,0.7c4.1,0.3,8.2,1.3,12.3,2
		c10.7,1.8,21.3,4.4,31.4,8.4c22.2,8.8,41.8,21.6,57.4,40c2.6,3.1,5,6.4,7.5,9.6C353.8,179.5,354,179.9,354.5,180.4z M404.9,183.1
		c-5,2.4-8.8,5.7-10.1,11.1c-0.2,0.8,0.1,1.7,0.1,2.5C402.1,196.9,406.7,190.7,404.9,183.1z"/>
	<path class="st2" d="M217.4,107.9c-2.5,0-5,0-7.5,0c-5.1,0.1-9.6-1.5-13.8-4.3c-6.4-4.3-10.8-10.3-14-17.2
		c-5.3-11.3-7.2-23.2-6.7-35.6c0.4-9.8,2.5-19.2,6.7-28.1c3.6-7.7,8.6-14.4,16.1-18.8c3.7-2.2,7.7-3.4,12.1-3.4
		c5.5,0.1,10.9,0,16.4-0.1c2.3-0.1,3.7,0.8,4.9,2.6c5.4,8,9.2,16.7,11.1,26.2c1.4,7.2,2.4,14.6,2.9,21.9c0.6,8.8-0.6,17.5-2.9,26.1
		c-2.7,10-7.1,19.2-12.1,28.3c-0.9,1.7-2.3,2.5-4.2,2.5c-3,0-6,0-9,0C217.4,108,217.4,107.9,217.4,107.9z"/>
	<path class="st3" d="M92,298c-2.8,1.1-2.9,0.8-5.1-1.4c-2.3-2.2-2.2-4.6-1.7-7.3c1.9-9.9,7.2-17.7,14.9-24
		c6.7-5.6,14.6-8.8,22.8-11.1c6.3-1.8,16.7-3.2,23.3-3.1c16.3,0.4,31,5.3,43.5,15.9c5.6,4.8,8.7,8.4,12.6,14.7
		c2.6,4.2,5.1,11.2,5.7,16.1c1.1,10,0.6,19.9-1.7,29.6c-0.3,1.1-0.6,2.3-1.1,3.3c-3.7,8.4-8,15-14.8,20.7c-8.5,7-18.6,9.8-29.2,11.3
		c-4.7,0.6-9.2,0.1-13.7-1.4c-2.4-0.8-4.2-2.1-3.7-5.1c-2-0.7-3.8-1.4-5.7-1.9c-5.8-1.8-10.9-4.9-14.9-9.5
		c-5.4-6.1-11.4-11.7-15.9-18.5c-4-6-7.7-12.2-11.2-18.5C94.3,304.8,93.3,301.4,92,298z"/>
	<path class="st4" d="M181.5,236c0.1-7.3,1.6-12.1,4.9-16.1c7.1-8.7,19.1-8.5,25.9,0.4c6.4,8.4,5.4,21.6-2.2,28.9
		c-7.2,7-18.1,6.2-24.2-1.8C182.9,243.4,181.5,238.9,181.5,236z"/>
	<path class="st5" d="M227.1,185.7c2.3-1.6,4.5-3.4,6.9-4.9c8.9-5.6,18.8-8.6,29.1-10.4c8.8-1.6,17.7-1.6,26.5,0
		c8.6,1.5,15.9,5.7,22.3,11.4c3.3,2.9,5.7,6.6,7.7,10.6c4.9,9.7,7.1,19.9,7.5,30.7c0.1,3.6,0.2,7.3,0.2,10.9c0,3.1-1.1,6-2.7,8.7
		c-2.8,4.5-6.3,8.3-10.6,11.3c-1.8,1.3-3.6,2.6-5.5,3.9c-0.4,0.3-1,0.5-1.9,0.9c0.2-1,0.2-1.6,0.5-2.2c0.8-1.8,1.6-3.6,2.4-5.5
		c4.9-11.9,7.9-24.3,7.3-37.3c-0.3-6.9-1.7-13.6-4-20.2c-1-2.9-2.5-5.6-4.7-7.8c-3.3-3.4-6.9-6.4-11.5-8.2
		c-7.5-2.9-15.2-5.4-23.4-5.5c-7.2-0.1-14.2,1.4-21,3.5c-7.8,2.4-15.4,5.3-22.3,9.6c-0.7,0.5-1.6,0.8-2.3,1.2
		C227.3,186.1,227.2,185.9,227.1,185.7z"/>
	<path class="st4" d="M142.8,225.6c-0.2,5.6-1.8,10.9-5.8,15.3c-4.4,4.8-10.7,6.2-16,3.6c-2.8-1.4-4.9-3.6-6.4-6.4
		c-4.3-7.8-3.1-18.9,2.8-25.6c2.4-2.8,5.4-4.7,9.1-5.2c5.1-0.7,9.2,1.3,12.4,5.4C141.6,216.4,142.7,220.8,142.8,225.6z"/>
	<path class="st6" d="M254.5,128.5c-1.8,0.6-3,1.1-4.2,1.5c-8.9,2.7-17.7,5.6-25.8,10.2c-6.2,3.5-12.2,7.4-17.8,11.8
		c-4.1,3.3-8.8,3.5-13.7,2c-2.2-0.7-3.9-2.1-4.9-4.3c-0.9-1.8-0.8-3.4,0.4-4.9c0.8-1.1,1.8-2.2,2.9-3.1c10.4-8.7,22.1-14.9,35.4-18
		c9.2-2.1,17.9-0.8,26.3,3.5C253.3,127.4,253.6,127.7,254.5,128.5z"/>
	<path class="st5" d="M138.6,430c-1-0.1-1.9-0.2-3.1-0.3c-1.1,2.3-3.1,2.1-5.2,1.2c-2.4-1-4.8-1.9-7.3-2.9c-0.4,0.4-0.9,0.8-1.3,1.2
		c-0.2-0.1-0.4-0.1-0.5-0.1c-1-0.8-2.1-1.5-2.9-2.5c-0.6-0.7-0.8-1.8-0.9-2.7c-0.2-5.5-0.4-11-0.4-16.4c0-3.2,0.4-6.5,0.7-9.7
		c0.1-0.5,0.1-1.3-0.4-2.2c8.8,6.2,18.5,12.1,28.1,16.5c9.5,4.4,19.6,7.5,29.7,10.3c0,0.2,0,0.4-0.1,0.6c-0.6,0.1-1.2,0.4-1.7,0.3
		c-1.8-0.2-3.6-0.5-5.4-0.8c-2.6-0.4-5.2-1-7.9-1.1c-5.3-0.3-10.6-1.1-15.9-0.2c-2.3,0.4-4.5,1.1-6.7,1.8c-0.8,0.2-1.5,0.8-2,1.4
		c-1.1,1.2-0.9,2.5,0.4,3.4c0.9,0.7,1.9,1.2,2.9,1.8C138.7,429.6,138.7,429.8,138.6,430z"/>
	<path class="st5" d="M321,401.4c2-1.9,5.2-4.1,7-5.5c8.5-7,16.7-14.4,24.1-22.6c2.5-2.8,4.8-5.9,7.4-9.2c0,0.8,0.1,1.3,0,1.8
		c-2.7,7.4-4.7,15-6.3,22.7c-0.9,4.1-3.5,6.6-6.8,8.2c-3.5,1.8-7.3,3.1-11.4,3c-0.5,0-1,0.1-1.5,0.3
		C330.1,401.5,325.1,401.6,321,401.4z"/>
	<path class="st5" d="M120.6,154.9c13.6-12.3,48-28.3,60.7-31.2c-1.1,0.5-2.7,1.6-5.1,2.5c-11.8,4.7-22.4,11.3-33.3,18.9
		c-2.6,1.8-5,4.1-7.4,6.3c-2.1,1.9-3.6,4.3-4.7,7c-0.7,1.8-0.9,1.9-2.5,1.2C125.8,158.4,123.3,156.1,120.6,154.9z"/>
	<path class="st5" d="M414.7,175.2c-2.3-0.5-7.3-0.7-13.9,0.9c0,0-1.2-1.3-4.7-2.5c-7.3-1.8-11.6-0.6-17.2,2.9
		c-6.6,4.2-10.5,10.4-13.8,17.2c-0.1,0.3-0.5,1.9-0.6,2.1c-0.8-1-1.2-1.4-1.6-2c-0.7-1-1.4-2.1-2.1-3.1c-1.8-2.6-3.5-5.2-5.3-7.8
		c-0.3-0.4-0.4-0.8-0.4-1.5c0.4,0.3,0.8,0.6,1.3,0.9c1,0.6,2,1.3,3,1.7c2.9,1.1,5.2,1.5,7.8-2.1c3.4-4.6,7.7-8.2,13.1-10.3
		c6.2-2.4,12.4-2.7,18.7-0.5c0.7,0.2,1.4,0.5,2.1,0.8c3.3,1.3,6.6,2.1,10.2,2.1C412.1,173.9,414.4,173.5,414.7,175.2z"/>
	<path class="st5" d="M283.7,421c-1-5.8-1.3-12.1-0.4-17.8c0.1,0.3,0.3,0.6,0.4,1c0.6,1.6,1,3.3,1.7,4.9c1.1,2.9,3.3,4.3,6.4,4.2
		c4.1-0.2,8.1-0.4,12-1.8c0.5-0.2,1.1,0,1.8-0.2C302.6,413.1,287.7,419.8,283.7,421z"/>
	<path class="st5" d="M196.9,425.8c0.8-0.1,1.6-0.4,2.4-0.3c6.1,0.1,11.8-1.3,16.8-5.8c-0.1,2.8-0.3,5,0,7.5
		c-6.8-0.3-13.5-0.3-20-1.2C196,426.1,196,426.1,196.9,425.8z"/>
	<path class="st5" d="M408.2,181.9c3.1-0.5,4.6-0.1,7.5,0.9c0,0-0.3,0.4-0.3,1c-0.2,3.6-1,6.4-2.2,9.3c-0.2,0.3-0.2,0.6-0.4,0.9
		c0-0.8,0.2-3,0.2-3.8c-0.1-3.7-2-5.1-5.5-6.2c-0.8-0.2-1.9-0.7-2.7-0.9C404.9,182.8,407.2,182.2,408.2,181.9z"/>
	<path class="st7" d="M195.1,319.5c-0.3,7.7-4.3,18.9-12.3,28.5c-3.8,4.6-8.5,8.4-14,11c-6.2,3-12.9,3.6-19.7,3.4
		c-10.4-0.3-20.3-2.6-30-6.3c-9-3.4-16.3-8.9-22.3-16.5c-3.5-4.4-6.3-9.2-8.7-14.2c-2.3-4.8-3.3-10.1-4.1-15.3
		c-1-6.5-1.1-13.1,0.9-19.5c3.7-12.2,11-21.6,23-26.5c7.2-3,14.9-3.6,22.7-2.9c12.5,1,24.1,5,35.1,11c6.2,3.4,11.8,7.7,16.9,12.6
		C190.5,292.2,195.4,302.4,195.1,319.5z"/>
	<path class="st8" d="M262.7,52.9c-0.3,12.5-2.4,24-7.9,34.7c-2.9,5.6-6.6,10.5-11.6,14.4c-3.7,2.8-7.7,4.8-12.4,5.6
		c-6.2,1-11.9-0.5-17.1-3.8c-4.8-3-8.5-7.1-11.5-11.9c-4.3-6.8-6.9-14.1-8.4-21.9c-2.8-14.7-1.8-29.1,3.4-43.1
		c3.1-8.1,7.5-15.3,14.4-20.8c4.1-3.2,8.6-5.3,13.8-5.8c5.3-0.6,10.2,0.8,14.8,3.5c6.4,3.8,10.9,9.3,14.4,15.8
		c4.6,8.6,6.9,17.9,7.7,27.6C262.5,49.1,262.6,51.3,262.7,52.9z"/>
	<path class="st9" d="M286.1,253.9c-5.6-12.6-13-23.5-21.8-33.4c-8.8-9.8-18.4-18.6-31-24.2c0.9-0.8,1.4-1.4,2-1.9
		c6.7-5.1,14.4-8.2,22.5-10.1c4-0.9,8-1.6,12-1.8c8.5-0.3,15.2,1.1,22.3,5.8c3.6,2.3,6.6,8.8,7.6,11.2c6.3,14.8,5.1,25.3-2.4,39.9
		c-2.3,4.5-4.9,8.6-8.6,12.1C288.1,252.4,287.2,253,286.1,253.9z"/>
	<path class="st9" d="M75.8,223.2c-0.9-0.7-1.5-1.2-2.1-1.7c-8.7-8.2-15.9-17.6-22-27.8c-3.1-5.1-4.7-10.8-5.4-16.7
		c-0.4-3.4,0.2-6.8,1.3-10c2-5.6,6.2-8.3,11.7-9.6c4.8-1.1,9.4,0,14,1.2c10.4,2.8,19.6,8.1,28.1,14.5c1.5,1.1,2.9,2.2,4.3,3.3
		c0.6,0.4,1,1,1.8,1.8C89.8,188.2,80.3,203.7,75.8,223.2z"/>
	<path class="st10" d="M254,463.6c-0.7-0.5-1.7-0.5-2.5,0.1c-1.8,1.3-2.5,3.4-3.4,4.9c-0.7,1.1-1.3,2.4-1.9,3.6
		c-0.9,1.8-1.8,2.7-3.6,2.4c-4-0.5-8.1-0.9-12-1.8c-4-1-6.9-3.8-8.4-7.5c-1.9-4.4-2.9-9.1-3.2-14c0-0.4,0.1-0.8,0.1-1.5
		c23.2,6.7,45.4,4.3,66.7-6.8c0.1,0.2,0.3,0.4,0.3,0.6c0.3,4.7,0.8,9.4-0.3,14.1c-0.9,3.5-2.1,6.8-4.5,9.6c-0.9,1.1-2.1,2.1-3.5,2.7
		c-5,2.1-10.3,3-15.6,4c-1.4,0.3-2-0.6-2.7-1.6c-0.6-0.8-1.2-2.3-1.7-3.2C256.9,467.5,256,465.1,254,463.6z"/>
	<path class="st10" d="M152,438.4c-1.2-2.5-4.8-2.6-6.1-0.2c-0.4,0.6-0.7,1.3-0.9,2c-0.8,2-1.3,4.1-1.8,6.2c-0.7,2.6-1.1,3-3.8,2.8
		c-4.2-0.2-8.2-1-12.1-2.5c-4.2-1.6-6.7-5-7.6-9.2c-1-4.4-1.3-9-2-13.5c0-0.2,0.2-0.4,0.3-0.7c18.5,7.8,37.7,9,57.5,6.1
		c0.3,3.5,0.4,7.1-0.6,10.7c-0.4,1.7-1,3.3-1.7,4.9c-1.1,2.5-3.2,3.8-5.8,4.1c-2.7,0.3-5.4,0.5-8.2,0.5c-2.8,0.1-4.1-0.8-4.7-3.7
		c-0.4-2-1.1-4-1.9-5.9C152.5,439.4,152.3,438.9,152,438.4z"/>
	<path class="st10" d="M352.1,391.5c0.1,2.4-0.5,4.6-0.7,6.5c-0.2,2.2-0.5,4.4-0.8,6.5c-0.3,1.6-0.5,3.4-1.2,4.9
		c-1.1,2.5-2.8,4.5-5.7,5.1c-2,0.4-4,0.9-6.1,1.1c-1.8,0.2-1.6-0.1-2.8-1.8c-0.4-0.8-1.4-2.2-1.8-3c-0.1-0.3-0.3-0.6-0.5-0.9
		c-0.6-1.2-2.4-1.3-3.1-0.1c0,0,0,0,0,0c-0.6,1.2-1.2,2.4-1.8,3.6c-0.8,1.6-2.1,2.5-4,2.4c-3.2,0-6.5,0.1-9.7-0.1
		c-3.4-0.1-5.6-3.7-4.3-6.8c0.3-0.7,1.1-1.2,1.8-1.7c3.1-2,6.4-3.9,9.5-5.9c1.1-0.7,2.3-0.8,3.5-1c7.6-0.6,14.9-2,21.9-5.2
		C348.2,394.5,350.2,392.6,352.1,391.5z"/>
	<path class="st11" d="M190.1,235.5c-3.4,0-5.9-2.3-6.3-5.8c-0.6-4.7,3.1-9.4,7.8-10c2.4-0.3,4.9,1.1,6.1,3.4
		C200.2,228.4,195.9,235.5,190.1,235.5z"/>
	<path class="st11" d="M113.8,221.5c0.1-2.8,1.4-5.8,4.2-7.9c3.8-2.9,8-1.3,8.6,3.4c0.5,3.6-0.7,6.7-3.2,9.3
		c-1.7,1.7-3.7,2.8-6.3,1.8C114.9,227.2,113.8,225.2,113.8,221.5z"/>
	<path class="st5" d="M171,312.4c-0.1,4.9-1.1,9.6-3.3,13.9c-1.3,2.5-3.1,4.7-5.5,6.3c-4.1,2.8-8.7,2.6-12.7-0.5
		c-2.4-1.8-4.1-4.2-5.2-6.9c-3.5-8.4-3.4-16.8,0.3-25.1c1-2.3,2.5-4.3,4.4-6c4.7-4.2,10.6-4.1,15.2,0.2c3.3,3.1,5,7,5.9,11.3
		C170.6,307.9,170.7,310.2,171,312.4z"/>
	<path class="st5" d="M132.1,301.8c-0.2,5.3-1.2,10.4-3.7,15.1c-1.3,2.4-2.9,4.4-5.1,6c-4,2.7-8.2,2.5-11.9-0.6
		c-2.8-2.4-4.4-5.6-5.4-9c-2.1-7.4-1.7-14.8,1.1-21.9c1.1-2.7,2.6-5.2,4.8-7.2c4.8-4.4,10.6-4.1,14.9,0.8c2.5,2.9,3.9,6.4,4.6,10
		C131.7,297.1,131.8,299.5,132.1,301.8z"/>
	<path class="st2" d="M199,55.7c0-11.2,1.8-21.1,6.1-30.5c2.4-5.2,5.7-10,10.2-13.7c8.2-6.8,18.1-6.9,26.4-0.1
		c1.4,1.1,2.7,2.5,3.9,3.8c3.6,4.2,6.2,9,8,14.2c6.1,18,5.7,35.8-1.6,53.4c-2.4,5.7-5.8,10.7-10.6,14.6c-5.1,4.1-10.7,6.2-17.4,4.7
		c-4.3-1-7.9-3.3-11-6.4c-3.9-3.9-6.8-8.6-8.9-13.7C200.4,73.3,198.9,64.2,199,55.7z M200.9,53.6c-0.1,11.1,1.7,20.8,6,30
		c2.2,4.6,5,8.8,8.9,12.1c3.8,3.2,8.1,5.2,13.2,4.9c4.9-0.3,9-2.6,12.5-5.9c4.6-4.4,7.7-9.8,9.8-15.7c4.6-12.3,5.5-25,3.3-37.9
		c-1.1-6.3-3-12.4-6.1-18.1c-2.4-4.4-5.4-8.3-9.6-11.3c-3.9-2.8-8.3-4-13.1-3.3c-4.2,0.6-7.6,2.7-10.6,5.5c-4.1,3.9-7,8.6-9.2,13.7
		C202.4,36.4,200.8,45.4,200.9,53.6z"/>
	<path class="st9" d="M161.9,332.8c-4.1,3-10.3,2.1-13.9-1.8c-3.8-4.1-5.6-9-6.2-14.4c-0.6-5.9,0.3-11.6,3-16.9
		c1.7-3.3,4.1-6,7.6-7.6c3.2-1.6,8.7-0.9,11,1.7c0.2,0.1,0.9,0.7,0.8,0.7c-5.8-1.3-11.6,3.6-13.2,8.4c-3.1,9.2-3.4,18,1.4,26.4
		c1.5,2.7,3.3,4.3,7,4.2C160,333.4,161.3,333,161.9,332.8z"/>
	<path class="st9" d="M125.1,321.4c-0.4,0.5-0.8,0.7-1,0.9c-2.7,2.4-7.3,3.7-11.3,0.9c-3-2.1-5-4.9-6.2-8.2
		c-2-5.2-2.4-10.6-1.5-16.1c0.7-4.3,1.7-8.5,4.4-12c1.8-2.4,3.8-4.6,6.9-5.5c3.7-1.1,7.6,0,10.3,3.5c-0.7-0.5-1.9-0.6-2.5-0.7
		c-2.2-0.2-4.9,0.8-6.6,2.1c-3.7,2.9-4.8,7.2-5.6,11.6c-1.1,5.3-1.2,11.2,0.7,16.3c0.8,2.2,1.6,4.5,3.4,6.3c1.7,1.8,3.6,2.3,5.9,1.9
		C122.8,322.2,124.1,321.9,125.1,321.4z"/>
	<path class="st12" d="M153.2,379.5c-6.7-0.3-12.6-2.4-16.4-8.2c-1.1-1.7-1.9-3.7-2.5-5.6c-0.6-2,0.3-3.8,1.8-4.1
		c2.2-0.5,4.1,0.4,4.5,2.5c0.7,3.3,2.5,5.6,5.3,7.1c3.1,1.7,6.3,2.2,9.8,1.7c4.6-0.7,8.5-2.8,11.6-6.1c0.3-0.4,0.7-0.7,1.1-1
		c1.2-0.8,2.9-0.8,3.9,0.2c1,0.9,1.4,2.3,0.8,3.6c-0.2,0.5-0.6,1-1,1.4C167.1,376.4,160.7,379.2,153.2,379.5z"/>
</g>
</svg>
